<svg id="SvgjsSvg1001" width="288" height="288" xmlns="http://www.w3.org/2000/svg" version="1.1" xmlns:xlink="http://www.w3.org/1999/xlink" xmlns:svgjs="http://svgjs.com/svgjs"><defs id="SvgjsDefs1002"></defs><g id="SvgjsG1008" transform="matrix(1,0,0,1,0,0)"><svg xmlns="http://www.w3.org/2000/svg" xmlns:svgjs="http://svgjs.com/svgjs" xmlns:xlink="http://www.w3.org/1999/xlink" width="288" height="288"><svg xmlns="http://www.w3.org/2000/svg" width="288" height="288" data-name="027_APPLIANCES" viewBox="0 0 24 24"><path fill="#000000" d="M19,17a1,1,0,0,1,0-2,1,1,0,0,0,1-1V6a1,1,0,0,0-1-1H5A1,1,0,0,0,4,6v8a1,1,0,0,0,1,1H15a1,1,0,0,1,0,2H5a3,3,0,0,1-3-3V6A3,3,0,0,1,5,3H19a3,3,0,0,1,3,3v8A3,3,0,0,1,19,17Z" class="color333 svgShape color070879"></path><path fill="#000000" d="M16.29 8.71A1.05 1.05 0 0116 8h0a1.05 1.05 0 01.29-.71h0A1.05 1.05 0 0117 7h0a1.05 1.05 0 01.71.29h0A1.05 1.05 0 0118 8h0a1.05 1.05 0 01-.29.71h0A1.05 1.05 0 0117 9h0A1.05 1.05 0 0116.29 8.71zM17 13H7a1 1 0 010-2H17a1 1 0 010 2zM8 22a1 1 0 01-1-1V19a1 1 0 012 0v2A1 1 0 018 22zM12 22a1 1 0 01-1-1V19a1 1 0 012 0v2A1 1 0 0112 22zM16 22a1 1 0 01-1-1V19a1 1 0 012 0v2A1 1 0 0116 22z" class="color333 svgShape color070879"></path></svg></svg></g></svg>