<svg id="SvgjsSvg1001" width="288" height="288" xmlns="http://www.w3.org/2000/svg" version="1.1" xmlns:xlink="http://www.w3.org/1999/xlink" xmlns:svgjs="http://svgjs.com/svgjs"><defs id="SvgjsDefs1002"></defs><g id="SvgjsG1008" transform="matrix(1,0,0,1,0,0)"><svg xmlns="http://www.w3.org/2000/svg" xmlns:svgjs="http://svgjs.com/svgjs" xmlns:xlink="http://www.w3.org/1999/xlink" width="288" height="288"><svg xmlns="http://www.w3.org/2000/svg" width="288" height="288" viewBox="0 0 24 24"><path fill="#000000" d="M20,5H17V4a3,3,0,0,0-3-3H10A3,3,0,0,0,7,4V5H4A3,3,0,0,0,1,8V20a3,3,0,0,0,3,3H20a3,3,0,0,0,3-3V8A3,3,0,0,0,20,5ZM17,7V21H7V7ZM9,4a1,1,0,0,1,1-1h4a1,1,0,0,1,1,1V5H9ZM3,20V8A1,1,0,0,1,4,7H5V21H4A1,1,0,0,1,3,20Zm18,0a1,1,0,0,1-1,1H19V7h1a1,1,0,0,1,1,1Z" class="color000 svgShape color070879"></path></svg></svg></g></svg>