<svg xmlns="http://www.w3.org/2000/svg" xmlns:xlink="http://www.w3.org/1999/xlink" width="4946.667" height="4946.667" xmlns:v="https://vecta.io/nano"><defs><clipPath id="A"><path d="M17236.2 4664.4c-684.9 0-1364.6 50.4-2034.1 153.5-1003.9 154.7-3756.2 615.3-6192.98 2788.4-3355.01 2992-4823.71 8081-4003.72 12872.8 616.14-4044.6 2809.57-9238.1 8903.2-14413.2 0 0-.8 238.8-15.5 668.7 3.7.2 7.5 1.2 11 3.1 12.1 6.6 16.5 21.8 9.9 33.9l-.2.4-23.5 42.9c-20.7 566.9-64.4 1427.6-157.4 2487.7 526.9-469.7 1098.9-934.4 1717.9-1392l27.7-1164.4 6163.6 75.2c13.3.2 26.5 1.2 39.5 3.2h3327.6c-2385.3-1397.2-5111.6-2160.2-7773-2160.2M32150.1 17244l-41.8 2400.2c-1.5 88.4-38.4 172.4-102.4 233.3-61.5 58.5-142.9 90.9-227.5 90.9-3.5 0-7 0-10.5-.1l-3951.7-126.3-74.6 3276.8c-1.8 75.9-34.8 147.8-91.4 198.5-50.6 45.3-116 70.2-183.4 70.2-7.9 0-15.9-.4-23.8-1.1l-7642.2-661.9c-142.1-12.4-255.5-131.3-255.5-273.9v-2308.8l-3369.7-135.1c-226.8 1926.8-591.8 3941.5-1155.6 5941.7 42-46 85.1-91.1 129-134.9 19.3-19.3 44.5-28.9 69.8-28.9 2.1 0 4.2.1 6.3.2 23.1 1.5 45.9 11.1 63.6 28.8 38.5 38.6 38.4 101.2-.2 139.7-74.1 74-145.9 151.8-213.4 231.5-19.5 23.1-47.4 35-75.4 35-18.3 0-36.7-5.1-52.9-15.5-480.2 1652.2-1097.9 3291.6-1886.9 4858.2 990.9 466.2 2026 820.1 3078.1 1054.2l-56.6-29.6c-48.2-25.7-66.4-85.5-40.7-133.6 17.7-33.4 51.9-52.4 87.2-52.4 2.1 0 4.2.1 6.2.2 13.7.9 27.4 4.6 40.2 11.5 93.6 49.9 190.7 96.4 288.5 138.2 50.2 21.4 73.5 79.5 52.1 129.6-2 4.7-4.3 9.1-6.9 13.3l341.8 62.4c18.5-24 47.4-38.5 78.2-38.5 2 0 4.1.1 6.2.2 6.5.4 13 1.4 19.6 3.2 102.5 27.7 207.5 51.4 312.2 70.4 25.3 4.6 46.6 18.4 61 37.3l384.5 46.4c17.6-16.4 41.2-26.3 67-26.3 1.4 0 2.8 0 4.3.1 52.6 2.2 105.6 3.3 158.6 3.3 53.9 0 107.8-1.1 161.3-3.4 1.3-.1 2.6-.1 3.9-.1 2.2 0 4.5.1 6.7.2 41.3 2.7 76.2 30.9 88 69.6l350.9 20.2c-6-10-10.3-21.1-12.6-33.2-9.9-53.6 25.6-105.2 79.2-115.1 104.4-19.3 209.2-43.3 311.6-71.5 8.8-2.4 17.6-3.6 26.3-3.6 2.1 0 4.1.1 6.2.2 40.9 2.6 77.5 30.6 88.9 72.4 14.5 52.6-16.4 106.9-69 121.4-50.5 13.9-101.6 26.9-153 38.8l314.8 3.8 336.7-4.3c1010.5-26 4883.1-185.9 8286.4-2992.2 499.9-412.2 1602.4-1391.7 2596-2945.6 1689.9-2642.6 2261.1-6037.6 1786.4-9266m-9534 6836.9c-31.7 0-59-24.4-61.3-56.7-2.4-33.6 23-62.8 56.6-65.2 61.7-4.3 124-6.5 186.4-6.5 44.4 0 88.7 1.1 132.9 3.3l.8.1c33.3 2.1 58.7 30.6 57.1 64-1.7 32.5-28.6 57.9-60.9 57.9-1 0-2.1 0-3.1-.1-42.3-2.1-84.7-3.2-127.2-3.2-59.3 0-118.6 2.1-177.4 6.2-1.3.1-2.6.2-3.9.2m925.6 102.6c-5.8 0-11.6-.8-17.3-2.5-97.1-29.1-196.9-52.5-296.8-69.7-33.2-5.7-55.5-37.2-49.8-70.4 5.1-29.8 30.9-50.7 60.1-50.7 1.2 0 2.5 0 3.8.1 2.2.2 4.4.4 6.6.8 104.7 18 209.3 42.5 311 72.9 32.3 9.7 50.6 43.7 41 75.9-7.9 26.6-32.4 43.6-58.6 43.6m-1537.4 16.9c-25.8 0-49.7-16.3-58-42.1-10.5-32 7-66.5 39.1-76.9 100.7-32.9 204.8-59.9 309.2-80.3 4-.8 7.9-1.2 11.8-1.2 1.3 0 2.6 0 3.8.1 27 1.7 50.5 21.4 56 49.2 6.5 33-15.1 65-48.1 71.6-99.6 19.5-198.8 45.3-295 76.6-6.2 2-12.6 3-18.8 3m2108.2 233.2c-10.6 0-21.3-2.7-31-8.5a2518.4 2518.4 0 0 0-271.1-139.1c-30.9-13.6-44.9-49.6-31.4-80.4 10-22.9 32.4-36.5 55.9-36.5 1.3 0 2.6 0 3.8.1a63.95 63.95 0 0 1 20.7 5c97.3 42.7 193 91.8 284.3 146 29 17.2 38.5 54.6 21.4 83.6-11.4 19.2-31.8 29.8-52.6 29.8m-2672.5 30.1c-20.3 0-40.2-10.2-51.8-28.7-17.8-28.6-9.1-66.3 19.5-84.1 90.1-56.2 184.5-107.4 280.7-152.3 8.4-3.9 17.1-5.7 25.8-5.7 1.3 0 2.5.1 3.8.1 21.6 1.4 41.8 14.2 51.5 35.1 14.3 30.6 1 66.9-29.5 81.1-91.7 42.8-181.8 91.6-267.7 145.3-10.1 6.3-21.2 9.2-32.3 9.2m3050.8 243.6c-14.2 0-28.4-4.9-40-14.9-36.9-32.2-75.6-64-115-94.5-26.6-20.6-31.5-58.9-10.9-85.6 12-15.5 30-23.6 48.3-23.6 1.3 0 2.6 0 3.9.1 11.7.7 23.3 4.9 33.4 12.6 41.3 31.9 81.8 65.3 120.5 99 25.4 22.1 28 60.7 5.9 86.1-12.1 13.8-29 20.8-46.1 20.8m-3536 147.1c-15.4 0-30.7-5.7-42.6-17.3-24.1-23.5-24.6-62-1.1-86.2 73.9-75.9 153.4-148.3 236.2-215 11.3-9.1 24.8-13.5 38.3-13.5 1.2 0 2.5 0 3.8.1 16.5 1 32.5 8.7 43.7 22.6 21.1 26.2 17 64.6-9.2 85.8-79 63.7-154.9 132.7-225.4 205.1-12 12.3-27.8 18.4-43.7 18.4m-2644.5 21c-3.3 0-6.6-.2-9.9-.5-105.2-10.3-210.6-16.2-314.5-17.7-54.5-.9-98.1-45.6-97.3-100.2.8-54 44.8-97.3 98.7-97.3h1.5c64.2.9 129.6 3.4 194.3 7.6 45.4 2.8 90.8 6.5 136.4 10.9 54.3 5.3 94.1 53.6 88.8 107.9-5 51-48.1 89.3-98 89.3m-1165.6 63.3c-45.7 0-86.8-31.9-96.6-78.4-11.2-53.4 23-105.8 76.3-117 107.9-22.7 217.9-41 326.9-54.5 4.1-.5 8.1-.7 12.1-.7 2.2 0 4.3 0 6.4.2 46.5 2.9 85.7 38.5 91.7 86.4 6.6 54.2-31.8 103.5-86 110.2-103.6 12.7-208 30.1-310.4 51.7-6.8 1.4-13.6 2.1-20.4 2.1m1994.2 110.5c-10.3 0-20.6-1.6-30.9-5-99.2-32.5-201.2-61.2-303.1-85.4-53-12.6-85.9-65.8-73.3-118.9 10.8-45.4 51.3-76 96-76 2.1 0 4.2.1 6.3.2 5.5.4 11.1 1.2 16.6 2.5 107.2 25.4 214.6 55.6 319.1 89.9 51.8 17 80.1 72.8 63.1 124.6-13.7 41.6-52.4 68.1-93.8 68.1m-2797.6 154.2c-37.5 0-73.3-21.4-89.9-57.7-22.7-49.6-.9-108.2 48.8-130.9 100.2-45.8 203.4-87.8 306.8-124.9 11-4 22.3-5.9 33.4-5.9 2 0 4.1.1 6.2.2 38.1 2.4 73 27 86.7 65.3 18.4 51.3-8.3 107.9-59.6 126.3a3705.06 3705.06 0 0 0-291.4 118.7c-13.3 6-27.3 8.9-41 8.9m4235.9 147a59.85 59.85 0 0 1-30.6-8.4c-29.1-17-38.9-54.3-21.9-83.4a2637.29 2637.29 0 0 1 177.8-265.6c12-15.7 30.1-24 48.5-24 1.3 0 2.6 0 3.9.1 11.6.7 23.1 4.8 33 12.4 26.9 20.4 32.1 58.7 11.6 85.5-61.5 80.7-118.5 165.9-169.5 253.2-11.4 19.3-31.8 30.2-52.8 30.2m-668 49.9c-17.2 0-34.7-4.6-50.6-14.1-89.7-53.5-182.8-104-276.7-149.9-49.1-23.9-69.4-83-45.5-132 17.1-35.1 52.3-55.5 88.9-55.5 2 0 4.1 0 6.2.2 12.5.8 25 4 37 9.8 98.9 48.3 197 101.4 291.5 157.9 46.8 28 62.1 88.6 34.1 135.4-18.5 31-51.3 48.2-84.9 48.2m-4294.5 237.3c-29.9 0-59.4-13.5-78.8-39.1-32.9-43.5-24.4-105.5 19.1-138.4 87.6-66.4 179.2-129.9 272.2-188.9 16.4-10.4 34.7-15.3 52.8-15.3 2 0 4.1 0 6.2.2 30.5 1.9 59.7 17.9 77.3 45.7 29.2 46 15.5 107.1-30.6 136.3-88.3 56-175.4 116.4-258.6 179.4-17.9 13.6-38.8 20.1-59.6 20.1m4848.6 165.1c-23 0-46.1-8-64.9-24.4-38.6-33.7-78.4-66.9-117.9-98.7-42.6-34.1-49.4-96.3-15.3-138.8 19.5-24.3 48.2-37 77.1-37 2.1 0 4.2.1 6.3.2 19.6 1.3 39 8.3 55.5 21.5 41.7 33.5 83.5 68.4 124.2 104 41.1 35.8 45.4 98.2 9.5 139.3-19.6 22.4-47 33.9-74.5 33.9m4877.2 428.6c-29.3 0-55-21.4-59.9-51.2-8-48.8-17.6-97.9-28.5-146.1-7.4-32.8 13.2-65.5 46.1-73 4.5-1 9-1.4 13.4-1.4 1.3 0 2.6 0 3.9.1 26.4 1.7 49.5 20.4 55.7 47.5 11.4 50.5 21.4 102 29.8 153.2 5.4 33.2-17.1 64.5-50.4 70-3.4.6-6.8.9-10.1.9m22.3 632.6h-2.8c-33.6-2.9-58.5-32.4-55.6-65.9l4-53.9c5.4-84.8 6.4-170.9 3.2-255.9-1.3-33.7 24.9-62 58.6-63.3h2.2c1.3 0 2.7 0 4.1.1 30.8 1.9 55.8 27 57 58.5 3.4 89.1 2.3 179.4-3.4 268.4l-4.1 56.3c-2.8 32.6-32.4 55.7-63.2 55.7m-127.6 620c-6.5 0-13.1-1-19.6-3.2-31.9-10.9-48.9-45.6-38-77.5 33.2-97.3 60.8-197.8 81.9-298.7 6-28.7 31.4-48.5 59.6-48.5 1.3 0 2.6.1 3.9.1 2.9.2 5.8.6 8.7 1.2 33 6.9 54.1 39.2 47.2 72.2-22.1 105.9-51 211.2-85.9 313.2-8.6 25.4-32.4 41.2-57.8 41.2m-277.6 569.5c-11.5 0-23-3.2-33.4-9.9-28.2-18.4-36.1-56.2-17.7-84.4 56.3-86.3 107.7-177 152.8-269.5 10.6-21.7 32.3-34.2 54.9-34.2 1.3 0 2.6 0 3.8.1 7.8.4 15.5 2.4 22.9 6 30.3 14.8 42.8 51.3 28.1 81.6-47.4 97-101.3 192.1-160.3 282.6-11.7 18-31.2 27.7-51.1 27.7m-408.8 483.8c-16.4 0-32.8-6.6-44.8-19.6-22.9-24.7-21.4-63.3 3.4-86.2 75.5-69.7 147.5-145 214.1-223.8 12-14.3 29.3-21.6 46.6-21.6 1.3 0 2.6 0 3.9.1 12.6.8 25 5.5 35.5 14.3 25.7 21.7 28.9 60.2 7.2 85.9-69.8 82.6-145.3 161.6-224.5 234.8a61.04 61.04 0 0 1-41.4 16.1m-2768.8 332.4c-1.5 0-3 0-4.5-.1l-1.9-.1c-53.5-3.4-94.7-49.1-92.4-103 4.8-106.4 5-214.1.6-320-2.2-54.5 40.2-100.5 94.7-102.7 1.3-.1 2.6-.1 3.9-.1 2.2 0 4.3.1 6.5.2 49.8 3.2 90.2 43.6 92.3 94.5 4.6 111.5 4.4 224.8-.6 336.9-2.4 53-46.1 94.4-98.6 94.4m2254.7 37.5c-21.5 0-42.4-11.5-53.5-31.7-16.2-29.6-5.3-66.7 24.2-82.8 90.2-49.5 178.4-105 262-165.2 10.8-7.7 23.3-11.4 35.6-11.4 1.3 0 2.6 0 3.9.1 17.6 1.1 34.6 9.8 45.7 25.3 19.7 27.3 13.4 65.4-13.9 85.1-87.7 63-180.1 121.3-274.7 173.1-9.3 5.1-19.3 7.5-29.3 7.5m-9908.7 323.4c-48.7 0-90.8-35.8-97.7-85.3-7.3-53.4-13.6-107.6-18.7-160.9-5.2-54.4 34.6-102.6 88.9-107.8 3.1-.3 6.2-.4 9.3-.4 2.2 0 4.3 0 6.5.2 47.5 3 87.2 40.1 91.9 89.1 4.9 50.7 10.9 102.1 17.8 152.9 7.5 54-30.3 103.9-84.3 111.3-4.6.6-9.2.9-13.7.9m9320.4-90c-27.2 0-51.9-18.2-59-45.7-8.5-32.6 11.1-65.9 43.7-74.4a2499.88 2499.88 0 0 0 294.1-96.1c7.4-2.9 15-4.3 22.4-4.3 1.4 0 2.7.1 4 .1 22.8 1.5 43.8 15.8 52.8 38.4 12.5 31.3-2.9 66.8-34.2 79.2-100.3 39.9-204.1 73.8-308.5 100.9-5.1 1.3-10.2 1.9-15.3 1.9m-943.4 64.5a58.99 58.99 0 0 1-8.3-.6l-42.5-5.3c-93.3-12.5-186.6-30-277.3-52.1-32.7-8-52.7-40.9-44.8-73.7 6.8-27.9 31.8-46.5 59.3-46.5 1.2 0 2.5 0 3.8.1 3.5.2 7.1.7 10.6 1.6 86.5 21.1 175.5 37.8 264.8 49.6l40.1 5.1c33.5 3.9 57.5 34.2 53.6 67.6-3.5 30.8-29.5 54.2-59.3 54.2m315.9 17.6c-33.8-.4-61.2-27-61.4-60.7s26.9-61.1 60.6-61.4c103.3-.6 207.3-7.7 309-21 2.7-.3 5.3-.5 7.9-.5 1.3 0 2.6.1 3.9.2 28.6 1.8 52.8 23.5 56.6 52.9 4.4 33.4-19.2 64-52.6 68.4-106.7 13.9-215.7 21.4-324 22.1m-1171.8 497c-8.5 0-17.3-1.2-26-3.5-52.6-14.3-83.6-68.7-69.3-121.3 27.9-102.2 51.7-207.1 70.9-311.9 8.7-47.6 50.3-81 97.1-81 2 0 4.1.1 6.2.2 3.9.3 7.8.8 11.7 1.5 53.6 9.8 89.2 61.3 79.3 114.9-20.2 110.2-45.3 220.7-74.6 328.3-12 43.9-51.7 72.8-95.3 72.8m-318.2 799.3c-15.7 0-31.6-3.7-46.5-11.7-48-25.7-66.2-85.6-40.4-133.7 50.1-93.6 96.8-190.6 138.7-288.1 16-37.5 52.5-59.9 90.8-59.9 2 0 4.1.1 6.2.2 11 .7 22 3.3 32.7 7.8 50.1 21.6 73.3 79.7 51.8 129.8-44.1 102.7-93.3 204.8-146.1 303.5-17.8 33.2-51.9 52.1-87.2 52.1m-488.9 708.3a98.3 98.3 0 0 1-64.8-24.3c-41.2-35.8-45.5-98.2-9.6-139.4 69.7-80 136.9-164.1 199.6-250 19.4-26.4 49.4-40.5 79.9-40.5 2.1 0 4.1.1 6.2.2 18.2 1.2 36.2 7.4 52 18.9 44 32.1 53.6 94 21.4 138-66 90.3-136.7 178.9-210.2 263.2-19.5 22.4-46.9 33.9-74.5 33.9m-633.8 581.9c-30.5 0-60.5-14-79.8-40.5-32.2-44-22.6-105.8 21.4-138 86-62.9 170.1-130 250.1-199.7a98.71 98.71 0 0 1 64.8-24.2c2.1 0 4.2.1 6.3.2 25.4 1.6 50.2 13 68.3 33.7 35.8 41.2 31.4 103.6-9.7 139.4a4014.98 4014.98 0 0 1-263.2 210c-17.6 12.9-38 19.1-58.2 19.1m-4532.8 4.9c-20.2 0-40.6-6.2-58.1-19.1-43.6-31.7-86.9-64.7-128.9-98-42.7-33.9-49.8-96.1-15.9-138.8 19.5-24.6 48.3-37.3 77.4-37.3 2.1 0 4.2 0 6.3.1 19.4 1.3 38.7 8.2 55.1 21.3 39.8 31.6 81 63 122.4 93.2 44.1 32.1 53.8 94 21.6 138-19.3 26.5-49.4 40.6-79.9 40.6m3786 422.2c-38.2 0-74.6-22.3-90.7-59.6-21.7-50 1.4-108.2 51.4-129.8 97.6-42.2 194.5-89 288.1-139.3a97.75 97.75 0 0 1 46.6-11.8c2.1 0 4.2.1 6.3.2 32.9 2.1 64.1 20.6 80.8 51.8 25.8 48.1 7.8 108-40.2 133.8-98.5 52.9-200.5 102.3-303.2 146.6-12.8 5.5-26 8.1-39.1 8.1M8720.73 25315.5c-355.9 459.1-736.65 890.3-1143.06 1286.2 759.51 1027.1 1651.43 1933 2635.53 2706.3-545.49-1121.2-1095.37-2477.6-1492.47-3992.5"/></clipPath><linearGradient x1="0" y1="0" x2="1" y2="0" gradientTransform="matrix(-20665.5,18082.3,18082.3,20665.5,34669,4288.4)" spreadMethod="pad" id="B" xlink:href="#AW"><stop offset="0" stop-color="#dae3fe"/><stop offset="1" stop-color="#e9effd"/></linearGradient><clipPath id="C"><path d="M21780.4 28343.6l-3.9.1c-54.5 2.2-96.9 48.2-94.7 102.7 4.4 105.9 4.2 213.6-.6 320-2.3 53.9 38.9 99.6 92.4 103l1.9.1c1.5.1 3 .1 4.5.1 52.5 0 96.2-41.4 98.6-94.4 5-112.1 5.2-225.4.6-336.9-2.1-50.9-42.5-91.3-92.3-94.5-2.2-.1-4.3-.2-6.5-.2m-60.6 858.3c-46.8 0-88.4 33.4-97.1 81-19.2 104.8-43 209.7-70.9 311.9-14.3 52.6 16.7 107 69.3 121.3 8.7 2.3 17.5 3.5 26 3.5 43.6 0 83.3-28.9 95.3-72.8 29.3-107.6 54.4-218.1 74.6-328.3 9.9-53.6-25.7-105.1-79.3-114.9-3.9-.7-7.8-1.2-11.7-1.5-2.1-.1-4.2-.2-6.2-.2m-248.3 823.6c-38.3 0-74.8 22.4-90.8 59.9-41.9 97.5-88.6 194.5-138.7 288.1-25.8 48.1-7.6 108 40.4 133.7 14.9 8 30.8 11.7 46.5 11.7 35.3 0 69.4-18.9 87.2-52.1 52.8-98.7 102-200.8 146.1-303.5 21.5-50.1-1.7-108.2-51.8-129.8-10.7-4.5-21.7-7.1-32.7-7.8-2.1-.1-4.2-.2-6.2-.2m-426.4 747.5c-30.5 0-60.5 14.1-79.9 40.5-62.7 85.9-129.9 170-199.6 250-35.9 41.2-31.6 103.6 9.6 139.4a98.3 98.3 0 0 0 64.8 24.3c27.6 0 55-11.5 74.5-33.9 73.5-84.3 144.2-172.9 210.2-263.2 32.2-44 22.6-105.9-21.4-138-15.8-11.5-33.8-17.7-52-18.9-2.1-.1-4.1-.2-6.2-.2m-582.4 633.7a98.71 98.71 0 0 0-64.8 24.2c-80 69.7-164.1 136.8-250.1 199.7-44 32.2-53.6 94-21.4 138 19.3 26.5 49.3 40.5 79.8 40.5 20.2 0 40.6-6.2 58.2-19.1a4014.98 4014.98 0 0 0 263.2-210c41.1-35.8 45.5-98.2 9.7-139.4-18.1-20.7-42.9-32.1-68.3-33.7-2.1-.1-4.2-.2-6.3-.2m-707.9 489a97.75 97.75 0 0 0-46.6 11.8c-93.6 50.3-190.5 97.1-288.1 139.3-50 21.6-73.1 79.8-51.4 129.8 16.1 37.3 52.5 59.6 90.7 59.6 13.1 0 26.3-2.6 39.1-8.1 102.7-44.3 204.7-93.7 303.2-146.6 48-25.8 66-85.7 40.2-133.8-16.7-31.2-47.9-49.7-80.8-51.8-2.1-.1-4.2-.2-6.3-.2"/></clipPath><linearGradient x1="0" y1="0" x2="1" y2="0" gradientTransform="matrix(-20665.5,18082.3,18082.3,20665.5,34669,4288.4)" spreadMethod="pad" id="D" xlink:href="#AW"><stop offset="0" stop-color="#c4d5fd"/><stop offset="1" stop-color="#ceddfc"/></linearGradient><clipPath id="E"><path d="M16127.9 31901.1c-35.3 0-69.5 19-87.2 52.4-25.7 48.1-7.5 107.9 40.7 133.6l56.6 29.6 370 77.2c2.6-4.2 4.9-8.6 6.9-13.3 21.4-50.1-1.9-108.2-52.1-129.6-97.8-41.8-194.9-88.3-288.5-138.2-12.8-6.9-26.5-10.6-40.2-11.5-2-.1-4.1-.2-6.2-.2"/></clipPath><clipPath id="F"><path d="M18956.7 32215.5c-8.7 0-17.5 1.2-26.3 3.6-102.4 28.2-207.2 52.2-311.6 71.5-53.6 9.9-89.1 61.5-79.2 115.1 2.3 12.1 6.6 23.2 12.6 33.2l277.6 9.4c51.4-11.9 102.5-24.9 153-38.8 52.6-14.5 83.5-68.8 69-121.4-11.4-41.8-48-69.8-88.9-72.4-2.1-.1-4.1-.2-6.2-.2"/></clipPath><clipPath id="G"><path d="M16928 32217.8c-30.8 0-59.7 14.5-78.2 38.5 158.8 26.9 317.9 51.2 477.2 72.6-14.4-18.9-35.7-32.7-61-37.3-104.7-19-209.7-42.7-312.2-70.4-6.6-1.8-13.1-2.8-19.6-3.2-2.1-.1-4.2-.2-6.2-.2"/></clipPath><clipPath id="H"><path d="M18106.6 32348.9l-3.9.1c-53.5 2.3-107.4 3.4-161.3 3.4-53 0-106-1.1-158.6-3.3-1.5-.1-2.9-.1-4.3-.1-25.8 0-49.4 9.9-67 26.3 163.1 17.4 326.6 31.9 489.8 43.4-11.8-38.7-46.7-66.9-88-69.6-2.2-.1-4.5-.2-6.7-.2"/></clipPath><clipPath id="I"><path d="M15547.9 31520.8c-29.1 0-57.9 12.7-77.4 37.3-33.9 42.7-26.8 104.9 15.9 138.8 42 33.3 85.3 66.3 128.9 98 17.5 12.9 37.9 19.1 58.1 19.1 30.5 0 60.6-14.1 79.9-40.6 32.2-44 22.5-105.9-21.6-138-41.4-30.2-82.6-61.6-122.4-93.2-16.4-13.1-35.7-20-55.1-21.3-2.1-.1-4.2-.1-6.3-.1"/></clipPath><clipPath id="J"><path d="M14107.8 28876.1l-9.3.4c-54.3 5.2-94.1 53.4-88.9 107.8 5.1 53.3 11.4 107.5 18.7 160.9 6.9 49.5 49 85.3 97.7 85.3 4.5 0 9.1-.3 13.7-.9 54-7.4 91.8-57.3 84.3-111.3-6.9-50.8-12.9-102.2-17.8-152.9-4.7-49-44.4-86.1-91.9-89.1-2.2-.2-4.3-.2-6.5-.2"/></clipPath><clipPath id="K"><path d="M17987.3 24659.7c-53.9 0-97.9 43.3-98.7 97.3-.8 54.6 42.8 99.3 97.3 100.2 103.9 1.5 209.3 7.4 314.5 17.7 3.3.3 6.6.5 9.9.5 49.9 0 93-38.3 98-89.3 5.3-54.3-34.5-102.6-88.8-107.9-45.6-4.4-91-8.1-136.4-10.9-64.7-4.2-130.1-6.7-194.3-7.6h-1.5m-523.9 28.4c-4 0-8 .2-12.1.7-109 13.5-219 31.8-326.9 54.5-53.3 11.2-87.5 63.6-76.3 117 9.8 46.5 50.9 78.4 96.6 78.4 6.8 0 13.6-.7 20.4-2.1 102.4-21.6 206.8-39 310.4-51.7 54.2-6.7 92.6-56 86-110.2-6-47.9-45.2-83.5-91.7-86.4-2.1-.2-4.2-.2-6.4-.2m1364.2 75.8c-44.7 0-85.2 30.6-96 76-12.6 53.1 20.3 106.3 73.3 118.9 101.9 24.2 203.9 52.9 303.1 85.4 10.3 3.4 20.6 5 30.9 5 41.4 0 80.1-26.5 93.8-68.1 17-51.8-11.3-107.6-63.1-124.6-104.5-34.3-211.9-64.5-319.1-89.9-5.5-1.3-11.1-2.1-16.6-2.5-2.1-.1-4.2-.2-6.3-.2m-2187.2 120.1c-11.1 0-22.4 1.9-33.4 5.9-103.4 37.1-206.6 79.1-306.8 124.9-49.7 22.7-71.5 81.3-48.8 130.9 16.6 36.3 52.4 57.7 89.9 57.7 13.7 0 27.7-2.9 41-8.9a3705.06 3705.06 0 0 1 291.4-118.7c51.3-18.4 78-75 59.6-126.3-13.7-38.3-48.6-62.9-86.7-65.3-2.1-.1-4.2-.2-6.2-.2m2984.9 164.8c-36.6 0-71.8 20.4-88.9 55.5-23.9 49-3.6 108.1 45.5 132 93.9 45.9 187 96.4 276.7 149.9 15.9 9.5 33.4 14.1 50.6 14.1 33.6 0 66.4-17.2 84.9-48.2 28-46.8 12.7-107.4-34.1-135.4-94.5-56.5-192.6-109.6-291.5-157.9-12-5.8-24.5-9-37-9.8-2.1-.2-4.2-.2-6.2-.2m-3745.3 207.1c-18.1 0-36.4 4.9-52.8 15.3-93 59-184.6 122.5-272.2 188.9-43.5 32.9-52 94.9-19.1 138.4 19.4 25.6 48.9 39.1 78.8 39.1 20.8 0 41.7-6.5 59.6-20.1 83.2-63 170.3-123.4 258.6-179.4 46.1-29.2 59.8-90.3 30.6-136.3-17.6-27.8-46.8-43.8-77.3-45.7-2.1-.2-4.2-.2-6.2-.2m-661.2 528.7c-25.3 0-50.5 9.6-69.8 28.9-43.9 43.8-87 88.9-129 134.9l-73.2 255.9c16.2 10.4 34.6 15.5 52.9 15.5 28 0 55.9-11.9 75.4-35 67.5-79.7 139.3-157.5 213.4-231.5 38.6-38.5 38.7-101.1.2-139.7-17.7-17.7-40.5-27.3-63.6-28.8-2.1-.1-4.2-.2-6.3-.2"/></clipPath><clipPath id="L"><path d="M20342.3 25503.8c-28.9 0-57.6 12.7-77.1 37-34.1 42.5-27.3 104.7 15.3 138.8 39.5 31.8 79.3 65 117.9 98.7 18.8 16.4 41.9 24.4 64.9 24.4 27.5 0 54.9-11.5 74.5-33.9 35.9-41.1 31.6-103.5-9.5-139.3-40.7-35.6-82.5-70.5-124.2-104-16.5-13.2-35.9-20.2-55.5-21.5-2.1-.1-4.2-.2-6.3-.2"/></clipPath><clipPath id="M"><path d="M25311.6 25959.6c-4.4 0-8.9.4-13.4 1.4-32.9 7.5-53.5 40.2-46.1 73 10.9 48.2 20.5 97.3 28.5 146.1 4.9 29.8 30.6 51.2 59.9 51.2 3.3 0 6.7-.3 10.1-.9 33.3-5.5 55.8-36.8 50.4-70-8.4-51.2-18.4-102.7-29.8-153.2-6.2-27.1-29.3-45.8-55.7-47.5-1.3-.1-2.6-.1-3.9-.1"/></clipPath><clipPath id="N"><path d="M25372.4 26424.9h-2.2c-33.7 1.3-59.9 29.6-58.6 63.3 3.2 85 2.2 171.1-3.2 255.9l-4 53.9c-2.9 33.5 22 63 55.6 65.9h2.8c30.8 0 60.4-23.1 63.2-55.7l4.1-56.3c5.7-89 6.8-179.3 3.4-268.4-1.2-31.5-26.2-56.6-57-58.5-1.4-.1-2.8-.1-4.1-.1m-53.3 631.1c-28.2 0-53.6 19.8-59.6 48.5-21.1 100.9-48.7 201.4-81.9 298.7-10.9 31.9 6.1 66.6 38 77.5 6.5 2.2 13.1 3.2 19.6 3.2 25.4 0 49.2-15.8 57.8-41.2 34.9-102 63.8-207.3 85.9-313.2 6.9-33-14.2-65.3-47.2-72.2-2.9-.6-5.8-1-8.7-1.2-1.3 0-2.6-.1-3.9-.1m-204.9 599.4c-22.6 0-44.3 12.5-54.9 34.2-45.1 92.5-96.5 183.2-152.8 269.5-18.4 28.2-10.5 66 17.7 84.4 10.4 6.7 21.9 9.9 33.4 9.9 19.9 0 39.4-9.7 51.1-27.7 59-90.5 112.9-185.6 160.3-282.6 14.7-30.3 2.2-66.8-28.1-81.6-7.4-3.6-15.1-5.6-22.9-6-1.2-.1-2.5-.1-3.8-.1m-346.1 530.6c-17.3 0-34.6 7.3-46.6 21.6-66.6 78.8-138.6 154.1-214.1 223.8-24.8 22.9-26.3 61.5-3.4 86.2 12 13 28.4 19.6 44.8 19.6a61.04 61.04 0 0 0 41.4-16.1c79.2-73.2 154.7-152.2 224.5-234.8 21.7-25.7 18.5-64.2-7.2-85.9-10.5-8.8-22.9-13.5-35.5-14.3-1.3-.1-2.6-.1-3.9-.1m-465.1 430c-12.3 0-24.8 3.7-35.6 11.4-83.6 60.2-171.8 115.7-262 165.2-29.5 16.1-40.4 53.2-24.2 82.8 11.1 20.2 32 31.7 53.5 31.7 10 0 20-2.4 29.3-7.5 94.6-51.8 187-110.1 274.7-173.1 27.3-19.7 33.6-57.8 13.9-85.1-11.1-15.5-28.1-24.2-45.7-25.3-1.3-.1-2.6-.1-3.9-.1m-555.4 304c-7.4 0-15 1.4-22.4 4.3a2499.88 2499.88 0 0 1-294.1 96.1c-32.6 8.5-52.2 41.8-43.7 74.4 7.1 27.5 31.8 45.7 59 45.7 5.1 0 10.2-.6 15.3-1.9 104.4-27.1 208.2-61 308.5-100.9 31.3-12.4 46.7-47.9 34.2-79.2-9-22.6-30-36.9-52.8-38.4-1.3 0-2.6-.1-4-.1m-1558.2 106.8c-27.5 0-52.5 18.6-59.3 46.5-7.9 32.8 12.1 65.7 44.8 73.7 90.7 22.1 184 39.6 277.3 52.1l42.5 5.3a58.99 58.99 0 0 0 8.3.6c29.8 0 55.8-23.4 59.3-54.2 3.9-33.4-20.1-63.7-53.6-67.6l-40.1-5.1c-89.3-11.8-178.3-28.5-264.8-49.6-3.5-.9-7.1-1.4-10.6-1.6-1.3-.1-2.6-.1-3.8-.1m945.6 52.2c-2.6 0-5.2.2-7.9.5-101.7 13.3-205.7 20.4-309 21-33.7.3-60.8 27.7-60.6 61.4s27.6 60.3 61.4 60.7c108.3-.7 217.3-8.2 324-22.1 33.4-4.4 57-35 52.6-68.4-3.8-29.4-28-51.1-56.6-52.9-1.3-.1-2.6-.2-3.9-.2"/></clipPath><clipPath id="O"><path d="M22797.8 23952.5c-62.4 0-124.7 2.2-186.4 6.5-33.6 2.4-59 31.6-56.6 65.2 2.3 32.3 29.6 56.7 61.3 56.7 1.3 0 2.6-.1 3.9-.2 58.8-4.1 118.1-6.2 177.4-6.2 42.5 0 84.9 1.1 127.2 3.2 1 .1 2.1.1 3.1.1 32.3 0 59.2-25.4 60.9-57.9 1.6-33.4-23.8-61.9-57.1-64l-.8-.1c-44.2-2.2-88.5-3.3-132.9-3.3m440.1 37.7c-29.2 0-55 20.9-60.1 50.7-5.7 33.2 16.6 64.7 49.8 70.4 99.9 17.2 199.7 40.6 296.8 69.7 5.7 1.7 11.5 2.5 17.3 2.5 26.2 0 50.7-17 58.6-43.6 9.6-32.2-8.7-66.2-41-75.9-101.7-30.4-206.3-54.9-311-72.9-2.2-.4-4.4-.6-6.6-.8-1.3-.1-2.6-.1-3.8-.1m-931.5 9.7c-3.9 0-7.8.4-11.8 1.2-104.4 20.4-208.5 47.4-309.2 80.3-32.1 10.4-49.6 44.9-39.1 76.9 8.3 25.8 32.2 42.1 58 42.1 6.2 0 12.6-1 18.8-3 96.2-31.3 195.4-57.1 295-76.6 33-6.6 54.6-38.6 48.1-71.6-5.5-27.8-29-47.5-56-49.2-1.2-.1-2.5-.1-3.8-.1m1528.5 169.2c-23.5 0-45.9 13.6-55.9 36.5-13.5 30.8.5 66.8 31.4 80.4a2518.4 2518.4 0 0 1 271.1 139.1c9.7 5.8 20.4 8.5 31 8.5 20.8 0 41.2-10.6 52.6-29.8 17.1-29 7.6-66.4-21.4-83.6-91.3-54.2-187-103.3-284.3-146a63.95 63.95 0 0 0-20.7-5c-1.2-.1-2.5-.1-3.8-.1m-2120.7 23.8c-8.7 0-17.4 1.8-25.8 5.7-96.2 44.9-190.6 96.1-280.7 152.3-28.6 17.8-37.3 55.5-19.5 84.1 11.6 18.5 31.5 28.7 51.8 28.7 11.1 0 22.2-2.9 32.3-9.2 85.9-53.7 176-102.5 267.7-145.3 30.5-14.2 43.8-50.5 29.5-81.1-9.7-20.9-29.9-33.7-51.5-35.1-1.3 0-2.5-.1-3.8-.1m-528.6 329.5c-13.5 0-27 4.4-38.3 13.5-82.8 66.7-162.3 139.1-236.2 215-23.5 24.2-23 62.7 1.1 86.2 11.9 11.6 27.2 17.3 42.6 17.3 15.9 0 31.7-6.1 43.7-18.4 70.5-72.4 146.4-141.4 225.4-205.1 26.2-21.2 30.3-59.6 9.2-85.8-11.2-13.9-27.2-21.6-43.7-22.6-1.3-.1-2.6-.1-3.8-.1M20751 24969c-18.4 0-36.5 8.3-48.5 24a2637.29 2637.29 0 0 0-177.8 265.6c-17 29.1-7.2 66.4 21.9 83.4a59.85 59.85 0 0 0 30.6 8.4c21 0 41.4-10.9 52.8-30.2 51-87.3 108-172.5 169.5-253.2 20.5-26.8 15.3-65.1-11.6-85.5-9.9-7.6-21.4-11.7-33-12.4-1.3-.1-2.6-.1-3.9-.1"/></clipPath><clipPath id="P"><path d="M24373.2 24488.7c-18.3 0-36.3 8.1-48.3 23.6-20.6 26.7-15.7 65 10.9 85.6 39.4 30.5 78.1 62.3 115 94.5 11.6 10 25.8 14.9 40 14.9 17.1 0 34-7 46.1-20.8 22.1-25.4 19.5-64-5.9-86.1-38.7-33.7-79.2-67.1-120.5-99-10.1-7.7-21.7-11.9-33.4-12.6-1.3-.1-2.6-.1-3.9-.1"/></clipPath><clipPath id="Q"><path d="M13893.1 6734.6l-2.8 80.3 23.5-42.9.2-.4c6.6-12.1 2.2-27.3-9.9-33.9-3.5-1.9-7.3-2.9-11-3.1"/></clipPath><linearGradient x1="0" y1="0" x2="1" y2="0" gradientTransform="matrix(-20665.5,18082.3,18082.3,20665.5,34669,4288.4)" spreadMethod="pad" id="R" xlink:href="#AW"><stop offset="0" stop-color="#edf2ff"/><stop offset="1" stop-color="#f4f7fe"/></linearGradient><clipPath id="S"><path d="M16827.4 14260.3H7625.51c-119.66 0-216.66 97-216.66 216.7v6355.2c0 119.7 97 216.7 216.66 216.7h9201.89c119.7 0 216.7-97 216.7-216.7V14477c0-119.7-97-216.7-216.7-216.7z"/></clipPath><linearGradient x1="0" y1="0" x2="1" y2="0" gradientTransform="matrix(-4946.26,-6924.75,-6924.75,4946.26,26493.3,37628.2)" spreadMethod="pad" id="T" xlink:href="#AW"><stop offset="0" stop-color="#e1473d"/><stop offset="1" stop-color="#e9605a"/></linearGradient><clipPath id="U"><path d="M17201.9 14260.3H7999.99c-119.66 0-216.66 97-216.66 216.7v6355.2c0 119.7 97 216.7 216.66 216.7h9201.91c119.7 0 216.7-97 216.7-216.7V14477c0-119.7-97-216.7-216.7-216.7z"/></clipPath><linearGradient x1="0" y1="0" x2="1" y2="0" gradientTransform="matrix(-4946.26,-6924.75,-6924.75,4946.26,26736.5,37444.4)" spreadMethod="pad" id="V" xlink:href="#AW"><stop offset="0" stop-color="#ff928e"/><stop offset="1" stop-color="#fe7062"/></linearGradient><clipPath id="W"><path d="M16945 22242.4H7743.07c-119.67 0-216.67 97-216.67 216.7v6355.2c0 119.7 97 216.7 216.67 216.7H16945c119.6 0 216.6-97 216.6-216.7v-6355.2c0-119.7-97-216.7-216.6-216.7z"/></clipPath><linearGradient x1="0" y1="0" x2="1" y2="0" gradientTransform="matrix(-17481.9,-14776.4,-14776.4,17481.9,19611.8,31779.7)" spreadMethod="pad" id="X" xlink:href="#AW"><stop offset="0" stop-color="#4f52ff"/><stop offset="1" stop-color="#4042e2"/></linearGradient><clipPath id="Y"><path d="M17318.1 22209H8116.19c-119.66 0-216.66 97-216.66 216.7v6355.2c0 119.6 97 216.6 216.66 216.6h9201.91c119.6 0 216.7-97 216.7-216.6v-6355.2c0-119.7-97.1-216.7-216.7-216.7z"/></clipPath><linearGradient x1="0" y1="0" x2="1" y2="0" gradientTransform="matrix(15000.9,9862.16,9862.16,-15000.9,9536.96,23512.5)" spreadMethod="pad" id="Z" xlink:href="#AW"><stop offset="0" stop-color="#4f52ff"/><stop offset="1" stop-color="#4042e2"/></linearGradient><clipPath id="a"><path d="M10290.4 27827.1c-243.1 0-440.8-197.7-440.8-440.8v-3507.2c0-243 197.7-440.8 440.8-440.8h4541.4c243 0 440.8 197.8 440.8 440.8v3507.2c0 243.1-197.8 440.8-440.8 440.8zm4541.4-4622.9h-4541.4c-372.15 0-674.89 302.8-674.89 674.9v3507.2c0 372.1 302.74 674.9 674.89 674.9h4541.4c372.1 0 674.9-302.8 674.9-674.9v-3507.2c0-372.1-302.8-674.9-674.9-674.9z"/></clipPath><linearGradient x1="9615.51" y1="25632.7" x2="15506.66" y2="25632.7" spreadMethod="pad" id="b" xlink:href="#AW"><stop offset="0" stop-color="#dae3fe"/><stop offset="1" stop-color="#e9effd"/></linearGradient><clipPath id="c"><path d="M12550.5 25620l-2737.58 2053.7 140.5 187.3 2600.88-1951.2 2666.8 1891.6 135.5-190.9z"/></clipPath><linearGradient x1="9812.93" y1="26740.5" x2="15356.57" y2="26740.5" spreadMethod="pad" id="d" xlink:href="#AW"><stop offset="0" stop-color="#dae3fe"/><stop offset="1" stop-color="#e9effd"/></linearGradient><clipPath id="e"><path d="M15186.9 23422.2l-1703 3018.2 203.8 115 1703.1-3018.1z"/></clipPath><linearGradient x1="13483.9" y1="24988.8" x2="15390.79" y2="24988.8" spreadMethod="pad" id="f" xlink:href="#AW"><stop offset="0" stop-color="#dae3fe"/><stop offset="1" stop-color="#e9effd"/></linearGradient><clipPath id="g"><path d="M9947.57 23449.3l-204.95 113.1 1673.78 3034.4 205-113.1z"/></clipPath><linearGradient x1="9742.62" y1="25023" x2="11621.36" y2="25023" spreadMethod="pad" id="h" xlink:href="#AW"><stop offset="0" stop-color="#dae3fe"/><stop offset="1" stop-color="#e9effd"/></linearGradient><clipPath id="i"><path d="M16827.4 6091.8H7625.51c-119.66 0-216.66 97-216.66 216.6v6355.2c0 119.7 97 216.7 216.66 216.7h9201.89c119.7 0 216.7-97 216.7-216.7V6308.4c0-119.6-97-216.6-216.7-216.6z"/></clipPath><linearGradient x1="0" y1="0" x2="1" y2="0" gradientTransform="matrix(-18747.1,-25048.2,-25048.2,18747.1,22555.8,23287.2)" spreadMethod="pad" id="j" xlink:href="#AW"><stop offset="0" stop-color="#4f52ff"/><stop offset="1" stop-color="#4042e2"/></linearGradient><clipPath id="k"><path d="M17201.9 6091.8H7999.99c-119.66 0-216.66 97-216.66 216.6v6355.2c0 119.7 97 216.7 216.66 216.7h9201.91c119.7 0 216.7-97 216.7-216.7V6308.4c0-119.6-97-216.6-216.7-216.6z"/></clipPath><linearGradient x1="0" y1="0" x2="1" y2="0" gradientTransform="matrix(15601.7,12429.4,12429.4,-15601.7,8313.65,6070.5)" spreadMethod="pad" id="l" xlink:href="#AW"><stop offset="0" stop-color="#4f52ff"/><stop offset="1" stop-color="#4042e2"/></linearGradient><clipPath id="m"><path d="M12926.1 7782.8c541.2-379 994.7-536.5 1347.1-468.3 209 40.4 380.8 161.9 510.8 361.1l143 219.3c36.2 55.5 20.8 130.5-34.3 167.3l-908.1 605.3c-80.2 53.5-186.4 34.4-242.9-43.1l-66.3-102.1c-101.2-155.6-265.1-254-449.9-270-184.1-16-361.8 52.1-488 186.7l-1100.2 1100.1c-134.6 126.3-202.6 304-186.7 488.1 16.1 184.8 114.6 348.7 270.1 449.8l102.1 66.2c77.5 56.7 96.6 162.9 43.2 243l-605.4 908.1c-36.8 55-111.9 70.4-167.3 34.3l-219.2-143.1c-199.2-129.9-320.7-301.7-361.2-510.7-68.2-352.6 89.3-805.8 468.1-1347 217.1-310 1635-1727.9 1945.1-1945zm1182.7-717.6c-375.8 0-817.5 176.2-1316.9 525.8h-.1c-330.2 231.2-1771.3 1672.3-2002.5 2002.5-416.6 595.2-586.9 1108.5-506.2 1525.8 52.2 269.7 212.3 498.7 463 662.3l219.3 143.1c162.4 105.8 382.2 60.9 489.9-100.5l605.4-908.1c124.5-186.5 78.8-434.6-103.9-564.8l-4.2-2.9-104.4-67.7c-94.6-61.5-154.6-161.3-164.4-273.8-9.7-112.5 32-221 114.6-297.9l3-2.9 1105.9-1106c76.9-82.6 185.6-124.3 297.9-114.6 112.5 9.7 212.4 69.7 273.9 164.4l70.5 108.4c130.1 182.9 378.3 228.5 564.9 103.9l908.1-605.3c161.4-107.7 206.5-327.5 100.5-489.9l-143.1-219.3c-163.5-250.7-392.6-410.8-662.3-463-67.2-13-136.9-19.5-208.9-19.5z"/></clipPath><linearGradient x1="10263.6" y1="9523.6" x2="15180.43" y2="9523.6" spreadMethod="pad" id="n" xlink:href="#AW"><stop offset="0" stop-color="#dae3fe"/><stop offset="1" stop-color="#e9effd"/></linearGradient><clipPath id="o"><path d="M23933.9 13146.9c-3.6-.2-7.2-.3-10.8-.2l-4726 4.8c-116.8.1-211.4 96.6-211.3 215.5.2 119 95.3 217.3 211.8 215.1l4726-4.8c116.8-.1 211.4-96.6 211.3-215.5-.2-115.2-89.2-209.3-201-214.9z"/></clipPath><linearGradient x1="0" y1="0" x2="1" y2="0" gradientTransform="matrix(-3623.9,-5752.33,-5762.08,3616.47,43943.5,48894.2)" spreadMethod="pad" id="p" xlink:href="#AW"><stop offset="0" stop-color="#09005d"/><stop offset="1" stop-color="#1a0f91"/></linearGradient><clipPath id="q"><path d="M17366.9 17867.2c1.7-3.2 3.3-6.5 4.8-9.9l1988.5-4372.6c49.2-108.1 3.3-236.3-102.5-286.3-105.9-50.1-233.4-3.5-280.6 105.1l-1988.5 4372.7c-49.2 108-3.3 236.2 102.5 286.3 102.5 48.4 223.7 5.7 275.8-95.3z"/></clipPath><linearGradient x1="0" y1="0" x2="1" y2="0" gradientTransform="matrix(6743.99,-860.688,-849.412,-6749.85,-480030,79162.6)" spreadMethod="pad" id="r" xlink:href="#AW"><stop offset="0" stop-color="#09005d"/><stop offset="1" stop-color="#1a0f91"/></linearGradient><clipPath id="s"><path d="M24388.4 6118.8s41.4-229.7 57.7-502.4c7-116.1-79.1-217.1-194.9-228.3-403.5-39.2-1321.7-111.4-1908.1-26.8-82.1 11.9-114.7 112.7-54 169.3 241.8 225.3 825.6 663.4 1786.6 759.2z"/></clipPath><linearGradient x1="23318.5" y1="1959.5" x2="23285.23" y2="-1567.16" spreadMethod="pad" id="t" xlink:href="#AW"><stop offset="0" stop-color="#09005d"/><stop offset="1" stop-color="#1a0f91"/></linearGradient><clipPath id="u"><path d="M24589 6636.5l-204-499.9c-27.9-68.5-97.4-111.1-171-103.4-50 5.2-109.1 14.8-166.6 32.3-115.1 34.9-180 156.9-145.6 272.2l154 514.9z"/></clipPath><linearGradient x1="24168.6" y1="5897.9" x2="24351.588" y2="7328.52" spreadMethod="pad" id="v" xlink:href="#AW"><stop offset="0" stop-color="#febbba"/><stop offset="1" stop-color="#ff928e"/></linearGradient><clipPath id="w"><path d="M28076.1 5720.6s-408.5-341.7-567.6-780.1c-43.8-120.5 48.8-247.5 177-247.5h840.5c123 0 217.3 110.6 195.9 231.8-53.5 302.7-207.9 794.6-645.8 795.8z"/></clipPath><linearGradient x1="28083.2" y1="1914.6" x2="28049.93" y2="-1612.04" spreadMethod="pad" id="x" xlink:href="#AW"><stop offset="0" stop-color="#09005d"/><stop offset="1" stop-color="#1a0f91"/></linearGradient><clipPath id="y"><path d="M28582 6165.4l-145.9-606.5c-11.5-43.8-58.2-67.8-100.9-52.6-127.2 45.5-230.7 65.6-305.9 55.5-34.8-4.7-65.2 24.3-65.6 59.3l-7.9 606.5z"/></clipPath><linearGradient x1="28168" y1="5407.6" x2="28346.317" y2="6801.71" spreadMethod="pad" id="z" xlink:href="#AW"><stop offset="0" stop-color="#febbba"/><stop offset="1" stop-color="#ff928e"/></linearGradient><clipPath id="AA"><path d="M26409.8 14382l-2484.2-7578.9s476.5-312 703.5-299l2950.7 6090.8s516.4-3752.9 266.2-6447.3l845.2-64.5s1374.2 6885.4 333.3 9243.7z"/></clipPath><linearGradient x1="29414.1" y1="10705" x2="23925.56" y2="10705" spreadMethod="pad" id="AB" xlink:href="#AW"><stop offset="0" stop-color="#09005d"/><stop offset="1" stop-color="#1a0f91"/></linearGradient><clipPath id="AC"><path d="M27563.9 12660.4c.9 0 2 .1 3 .2 13.2 1.7 22.5 13.7 20.8 26.9l-96.4 765.2c-1.6 13.1-13.5 22.3-26.8 20.8-13.2-1.6-22.6-13.7-20.9-26.8l96.4-765.3c1.5-12.1 11.9-21 23.9-21z"/></clipPath><linearGradient x1="0" y1="0" x2="1" y2="0" gradientTransform="matrix(-4865.43,-6821.63,-6821.63,4865.43,35409.7,24134.9)" spreadMethod="pad" id="AD" xlink:href="#AW"><stop offset="0" stop-color="#09005d"/><stop offset="1" stop-color="#1a0f91"/></linearGradient><clipPath id="AE"><path d="M25944.1 21051s2012.7-178.7 1728-1612.8c0 0 1112.6-2093.8 1632.7-4560.2 17-80.3-36.8-158.6-117.6-172.4l-3351.9-573.9c-92.5-15.8-181.6 41.8-205.1 132.6l-800.9 3095.3-312.1-1439.1-991.6 258.4 834.8 4228.6s116.4 617 1583.7 643.5z"/></clipPath><linearGradient x1="-112919" y1="212058" x2="-108153.88" y2="205386.84" spreadMethod="pad" id="AF" xlink:href="#AW"><stop offset="0" stop-color="#ff928e"/><stop offset="1" stop-color="#fe7062"/></linearGradient><clipPath id="AG"><path d="M24812.2 17498c1.8 0 3.6.2 5.4.6 13.4 2.9 22 16.2 19.1 29.7l-279.4 1282.9c-3 13.4-16.1 21.9-29.7 19.1-13.5-3-22.1-16.3-19.1-29.7l279.4-1283c2.5-11.6 12.9-19.6 24.3-19.6z"/></clipPath><linearGradient x1="24507.9" y1="18164.4" x2="24837.232" y2="18164.4" spreadMethod="pad" id="AH" xlink:href="#AW"><stop offset="0" stop-color="#e1473d"/><stop offset="1" stop-color="#e9605a"/></linearGradient><clipPath id="AI"><path d="M25014.6 13680.4c105.6 58 229.2 74.1 346.1 45l233.2-58.1c49.6-12.3 98.7 21.8 104.4 72.6l241.3 2148c301.8-143.3 737.1-126.1 880.7-115.7l-555.5-2532.3h-1943.7z"/></clipPath><linearGradient x1="26820.3" y1="14563.9" x2="24321.11" y2="14563.9" spreadMethod="pad" id="AJ" xlink:href="#AW"><stop offset="0" stop-color="#febbba"/><stop offset="1" stop-color="#ff928e"/></linearGradient><clipPath id="AK"><path d="M19850.1 18339.7l58.7 195.2c33.9 112.4 116.9 203.3 225.8 247.1l1062.6 427.3s16 136.3-224.6 228.9c-240.5 92.6-184.3 362-184.3 362s328.7-149.9 809.8-387.7c275.1-136 429.5-376.1 511.4-556.8l2407.7-2935.2-282.7-194.3c-371.7-255.4-883-129.9-1094.2 268.6L21835.9 18496c-654.8-196.7-1317.5-234.3-1985.8-156.3z"/></clipPath><linearGradient x1="24517.2" y1="17696.8" x2="19850.08" y2="17696.8" spreadMethod="pad" id="AL" xlink:href="#AW"><stop offset="0" stop-color="#febbba"/><stop offset="1" stop-color="#ff928e"/></linearGradient><clipPath id="AM"><path d="M25292 22420.3l619.1-1732.6s-548.2-428.5-948.2-283.6l-312 993.1s238.3 1213.9 641.1 1023.1z"/></clipPath><linearGradient x1="26197.4" y1="20314.4" x2="24573.13" y2="21980.86" spreadMethod="pad" id="AN" xlink:href="#AW"><stop offset="0" stop-color="#febbba"/><stop offset="1" stop-color="#ff928e"/></linearGradient><clipPath id="AO"><path d="M23444.5 23042.5c0-26.7 596.3-1688.1 596.3-1688.1l941.4 360.7-331.3 1658.6s-1206.4 115.8-1206.4-331.2z"/></clipPath><linearGradient x1="23841.9" y1="23030.8" x2="25866.96" y2="20351.82" spreadMethod="pad" id="AP" xlink:href="#AW"><stop offset="0" stop-color="#febbba"/><stop offset="1" stop-color="#ff928e"/></linearGradient><clipPath id="AQ"><path d="M24485.8 22969.6l242.8-859.4c3.1-11.1 4.7-22.2 4.7-33.6.1-70.1-17.3-311.3-263-278.5-222.9 29.7-426.9 53.6-556.5-7.5-58.2-27.4-86.1-94.4-64.3-155 54.2-150.9 182.7-488.8 339.1-765.3 31.7-56.1 101.3-77.9 160-51.2 176.8 80.4 545 260.5 807.2 474.8 35.5 29 52.6 74.7 44.1 119.8-41.2 219.8-164.1 888.6-169.5 1080.2-5.1 179.9 196.7 317.2 285.6 368.8 29.1 16.9 49.8 44.8 57.7 77.6 27.9 115.7 51.6 377.8-282.6 435.5-70 12.1-115.6 79.1-101.4 148.6 28.3 138.5 19.2 342.2-243.7 417.3-267.3 76.3-435.5-84.6-521-208-34.6-49.8-99.3-66-154.7-41.3-31.5 14.1-69.7 14.8-110.6-19.8-55.2-46.5-139.2-32.3-179.8 27.4-77.9 114.7-219.5 229.2-459.2 151.6-425.3-137.6-405-628-249.1-894.5 155.9-266.6 608.6-91.2 822.9 85.4 162.9 134.4 410.9 54 520.5 7.8 34.7-14.7 60.6-44.4 70.8-80.7z"/></clipPath><linearGradient x1="25388.4" y1="22384.6" x2="22969.44" y2="22384.6" spreadMethod="pad" id="AR" xlink:href="#AW"><stop offset="0" stop-color="#09005d"/><stop offset="1" stop-color="#1a0f91"/></linearGradient><clipPath id="AS"><path d="M25115.6 22180.1s-251.7 476.1-85.2 625.7c166.4 149.5 448.4 125 440.8-247.3-9.4-463.2-355.6-378.4-355.6-378.4z"/></clipPath><linearGradient x1="26807.8" y1="20909.3" x2="25183.54" y2="22575.75" spreadMethod="pad" id="AT" xlink:href="#AW"><stop offset="0" stop-color="#febbba"/><stop offset="1" stop-color="#ff928e"/></linearGradient><clipPath id="AU"><path d="M26625 15740c137.3 0 235.4 10.4 246 11.6l17.8 2 732.9 3417c2.9 13.5-5.7 26.8-19.1 29.7-13.7 3-26.8-5.7-29.7-19.2l-725.3-3381.5c-109-9.6-691.5-48.3-998.9 169.5l634.8 2968.8-132.5 249.7c-6.4 12.2-21.5 16.8-33.7 10.3s-16.8-21.5-10.4-33.7l124.1-233.7-637.8-2982.4 12.7-9.6c222.2-166.9 580-198.5 819.1-198.5z"/></clipPath><linearGradient x1="25793.2" y1="17470.4" x2="27622.34" y2="17470.4" spreadMethod="pad" id="AV" xlink:href="#AW"><stop offset="0" stop-color="#e1473d"/><stop offset="1" stop-color="#e9605a"/></linearGradient><linearGradient id="AW" gradientUnits="userSpaceOnUse"/></defs><g transform="matrix(.133333 0 0 -.133333 0 4946.6667)"><path d="M0 0h37100v37100H0z" fill="#fff"/><g clip-path="url(#A)"><path d="M17236.2 4664.4c-684.9 0-1364.6 50.4-2034.1 153.5-1003.9 154.7-3756.2 615.3-6192.98 2788.4-3355.01 2992-4823.71 8081-4003.72 12872.8 616.14-4044.6 2809.57-9238.1 8903.2-14413.2 0 0-.8 238.8-15.5 668.7 3.7.2 7.5 1.2 11 3.1 12.1 6.6 16.5 21.8 9.9 33.9l-.2.4-23.5 42.9c-20.7 566.9-64.4 1427.6-157.4 2487.7 526.9-469.7 1098.9-934.4 1717.9-1392l27.7-1164.4 6163.6 75.2c13.3.2 26.5 1.2 39.5 3.2h3327.6c-2385.3-1397.2-5111.6-2160.2-7773-2160.2M32150.1 17244l-41.8 2400.2c-1.5 88.4-38.4 172.4-102.4 233.3-61.5 58.5-142.9 90.9-227.5 90.9-3.5 0-7 0-10.5-.1l-3951.7-126.3-74.6 3276.8c-1.8 75.9-34.8 147.8-91.4 198.5-50.6 45.3-116 70.2-183.4 70.2-7.9 0-15.9-.4-23.8-1.1l-7642.2-661.9c-142.1-12.4-255.5-131.3-255.5-273.9v-2308.8l-3369.7-135.1c-226.8 1926.8-591.8 3941.5-1155.6 5941.7 42-46 85.1-91.1 129-134.9 19.3-19.3 44.5-28.9 69.8-28.9 2.1 0 4.2.1 6.3.2 23.1 1.5 45.9 11.1 63.6 28.8 38.5 38.6 38.4 101.2-.2 139.7-74.1 74-145.9 151.8-213.4 231.5-19.5 23.1-47.4 35-75.4 35-18.3 0-36.7-5.1-52.9-15.5-480.2 1652.2-1097.9 3291.6-1886.9 4858.2 990.9 466.2 2026 820.1 3078.1 1054.2l-56.6-29.6c-48.2-25.7-66.4-85.5-40.7-133.6 17.7-33.4 51.9-52.4 87.2-52.4 2.1 0 4.2.1 6.2.2 13.7.9 27.4 4.6 40.2 11.5 93.6 49.9 190.7 96.4 288.5 138.2 50.2 21.4 73.5 79.5 52.1 129.6-2 4.7-4.3 9.1-6.9 13.3l341.8 62.4c18.5-24 47.4-38.5 78.2-38.5 2 0 4.1.1 6.2.2 6.5.4 13 1.4 19.6 3.2 102.5 27.7 207.5 51.4 312.2 70.4 25.3 4.6 46.6 18.4 61 37.3l384.5 46.4c17.6-16.4 41.2-26.3 67-26.3 1.4 0 2.8 0 4.3.1 52.6 2.2 105.6 3.3 158.6 3.3 53.9 0 107.8-1.1 161.3-3.4 1.3-.1 2.6-.1 3.9-.1 2.2 0 4.5.1 6.7.2 41.3 2.7 76.2 30.9 88 69.6l350.9 20.2c-6-10-10.3-21.1-12.6-33.2-9.9-53.6 25.6-105.2 79.2-115.1 104.4-19.3 209.2-43.3 311.6-71.5 8.8-2.4 17.6-3.6 26.3-3.6 2.1 0 4.1.1 6.2.2 40.9 2.6 77.5 30.6 88.9 72.4 14.5 52.6-16.4 106.9-69 121.4-50.5 13.9-101.6 26.9-153 38.8l314.8 3.8 336.7-4.3c1010.5-26 4883.1-185.9 8286.4-2992.2 499.9-412.2 1602.4-1391.7 2596-2945.6 1689.9-2642.6 2261.1-6037.6 1786.4-9266m-9534 6836.9c-31.7 0-59-24.4-61.3-56.7-2.4-33.6 23-62.8 56.6-65.2 61.7-4.3 124-6.5 186.4-6.5 44.4 0 88.7 1.1 132.9 3.3l.8.1c33.3 2.1 58.7 30.6 57.1 64-1.7 32.5-28.6 57.9-60.9 57.9-1 0-2.1 0-3.1-.1-42.3-2.1-84.7-3.2-127.2-3.2-59.3 0-118.6 2.1-177.4 6.2-1.3.1-2.6.2-3.9.2m925.6 102.6c-5.8 0-11.6-.8-17.3-2.5-97.1-29.1-196.9-52.5-296.8-69.7-33.2-5.7-55.5-37.2-49.8-70.4 5.1-29.8 30.9-50.7 60.1-50.7 1.2 0 2.5 0 3.8.1 2.2.2 4.4.4 6.6.8 104.7 18 209.3 42.5 311 72.9 32.3 9.7 50.6 43.7 41 75.9-7.9 26.6-32.4 43.6-58.6 43.6m-1537.4 16.9c-25.8 0-49.7-16.3-58-42.1-10.5-32 7-66.5 39.1-76.9 100.7-32.9 204.8-59.9 309.2-80.3 4-.8 7.9-1.2 11.8-1.2 1.3 0 2.6 0 3.8.1 27 1.7 50.5 21.4 56 49.2 6.5 33-15.1 65-48.1 71.6-99.6 19.5-198.8 45.3-295 76.6-6.2 2-12.6 3-18.8 3m2108.2 233.2c-10.6 0-21.3-2.7-31-8.5a2518.4 2518.4 0 0 0-271.1-139.1c-30.9-13.6-44.9-49.6-31.4-80.4 10-22.9 32.4-36.5 55.9-36.5 1.3 0 2.6 0 3.8.1a63.95 63.95 0 0 1 20.7 5c97.3 42.7 193 91.8 284.3 146 29 17.2 38.5 54.6 21.4 83.6-11.4 19.2-31.8 29.8-52.6 29.8m-2672.5 30.1c-20.3 0-40.2-10.2-51.8-28.7-17.8-28.6-9.1-66.3 19.5-84.1 90.1-56.2 184.5-107.4 280.7-152.3 8.4-3.9 17.1-5.7 25.8-5.7 1.3 0 2.5.1 3.8.1 21.6 1.4 41.8 14.2 51.5 35.1 14.3 30.6 1 66.9-29.5 81.1-91.7 42.8-181.8 91.6-267.7 145.3-10.1 6.3-21.2 9.2-32.3 9.2m3050.8 243.6c-14.2 0-28.4-4.9-40-14.9-36.9-32.2-75.6-64-115-94.5-26.6-20.6-31.5-58.9-10.9-85.6 12-15.5 30-23.6 48.3-23.6 1.3 0 2.6 0 3.9.1 11.7.7 23.3 4.9 33.4 12.6 41.3 31.9 81.8 65.3 120.5 99 25.4 22.1 28 60.7 5.9 86.1-12.1 13.8-29 20.8-46.1 20.8m-3536 147.1c-15.4 0-30.7-5.7-42.6-17.3-24.1-23.5-24.6-62-1.1-86.2 73.9-75.9 153.4-148.3 236.2-215 11.3-9.1 24.8-13.5 38.3-13.5 1.2 0 2.5 0 3.8.1 16.5 1 32.5 8.7 43.7 22.6 21.1 26.2 17 64.6-9.2 85.8-79 63.7-154.9 132.7-225.4 205.1-12 12.3-27.8 18.4-43.7 18.4m-2644.5 21c-3.3 0-6.6-.2-9.9-.5-105.2-10.3-210.6-16.2-314.5-17.7-54.5-.9-98.1-45.6-97.3-100.2.8-54 44.8-97.3 98.7-97.3h1.5c64.2.9 129.6 3.4 194.3 7.6 45.4 2.8 90.8 6.5 136.4 10.9 54.3 5.3 94.1 53.6 88.8 107.9-5 51-48.1 89.3-98 89.3m-1165.6 63.3c-45.7 0-86.8-31.9-96.6-78.4-11.2-53.4 23-105.8 76.3-117 107.9-22.7 217.9-41 326.9-54.5 4.1-.5 8.1-.7 12.1-.7 2.2 0 4.3 0 6.4.2 46.5 2.9 85.7 38.5 91.7 86.4 6.6 54.2-31.8 103.5-86 110.2-103.6 12.7-208 30.1-310.4 51.7-6.8 1.4-13.6 2.1-20.4 2.1m1994.2 110.5c-10.3 0-20.6-1.6-30.9-5-99.2-32.5-201.2-61.2-303.1-85.4-53-12.6-85.9-65.8-73.3-118.9 10.8-45.4 51.3-76 96-76 2.1 0 4.2.1 6.3.2 5.5.4 11.1 1.2 16.6 2.5 107.2 25.4 214.6 55.6 319.1 89.9 51.8 17 80.1 72.8 63.1 124.6-13.7 41.6-52.4 68.1-93.8 68.1m-2797.6 154.2c-37.5 0-73.3-21.4-89.9-57.7-22.7-49.6-.9-108.2 48.8-130.9 100.2-45.8 203.4-87.8 306.8-124.9 11-4 22.3-5.9 33.4-5.9 2 0 4.1.1 6.2.2 38.1 2.4 73 27 86.7 65.3 18.4 51.3-8.3 107.9-59.6 126.3a3705.06 3705.06 0 0 0-291.4 118.7c-13.3 6-27.3 8.9-41 8.9m4235.9 147a59.85 59.85 0 0 1-30.6-8.4c-29.1-17-38.9-54.3-21.9-83.4a2637.29 2637.29 0 0 1 177.8-265.6c12-15.7 30.1-24 48.5-24 1.3 0 2.6 0 3.9.1 11.6.7 23.1 4.8 33 12.4 26.9 20.4 32.1 58.7 11.6 85.5-61.5 80.7-118.5 165.9-169.5 253.2-11.4 19.3-31.8 30.2-52.8 30.2m-668 49.9c-17.2 0-34.7-4.6-50.6-14.1-89.7-53.5-182.8-104-276.7-149.9-49.1-23.9-69.4-83-45.5-132 17.1-35.1 52.3-55.5 88.9-55.5 2 0 4.1 0 6.2.2 12.5.8 25 4 37 9.8 98.9 48.3 197 101.4 291.5 157.9 46.8 28 62.1 88.6 34.1 135.4-18.5 31-51.3 48.2-84.9 48.2m-4294.5 237.3c-29.9 0-59.4-13.5-78.8-39.1-32.9-43.5-24.4-105.5 19.1-138.4 87.6-66.4 179.2-129.9 272.2-188.9 16.4-10.4 34.7-15.3 52.8-15.3 2 0 4.1 0 6.2.2 30.5 1.9 59.7 17.9 77.3 45.7 29.2 46 15.5 107.1-30.6 136.3-88.3 56-175.4 116.4-258.6 179.4-17.9 13.6-38.8 20.1-59.6 20.1m4848.6 165.1c-23 0-46.1-8-64.9-24.4-38.6-33.7-78.4-66.9-117.9-98.7-42.6-34.1-49.4-96.3-15.3-138.8 19.5-24.3 48.2-37 77.1-37 2.1 0 4.2.1 6.3.2 19.6 1.3 39 8.3 55.5 21.5 41.7 33.5 83.5 68.4 124.2 104 41.1 35.8 45.4 98.2 9.5 139.3-19.6 22.4-47 33.9-74.5 33.9m4877.2 428.6c-29.3 0-55-21.4-59.9-51.2-8-48.8-17.6-97.9-28.5-146.1-7.4-32.8 13.2-65.5 46.1-73 4.5-1 9-1.4 13.4-1.4 1.3 0 2.6 0 3.9.1 26.4 1.7 49.5 20.4 55.7 47.5 11.4 50.5 21.4 102 29.8 153.2 5.4 33.2-17.1 64.5-50.4 70-3.4.6-6.8.9-10.1.9m22.3 632.6h-2.8c-33.6-2.9-58.5-32.4-55.6-65.9l4-53.9c5.4-84.8 6.4-170.9 3.2-255.9-1.3-33.7 24.9-62 58.6-63.3h2.2c1.3 0 2.7 0 4.1.1 30.8 1.9 55.8 27 57 58.5 3.4 89.1 2.3 179.4-3.4 268.4l-4.1 56.3c-2.8 32.6-32.4 55.7-63.2 55.7m-127.6 620c-6.5 0-13.1-1-19.6-3.2-31.9-10.9-48.9-45.6-38-77.5 33.2-97.3 60.8-197.8 81.9-298.7 6-28.7 31.4-48.5 59.6-48.5 1.3 0 2.6.1 3.9.1 2.9.2 5.8.6 8.7 1.2 33 6.9 54.1 39.2 47.2 72.2-22.1 105.9-51 211.2-85.9 313.2-8.6 25.4-32.4 41.2-57.8 41.2m-277.6 569.5c-11.5 0-23-3.2-33.4-9.9-28.2-18.4-36.1-56.2-17.7-84.4 56.3-86.3 107.7-177 152.8-269.5 10.6-21.7 32.3-34.2 54.9-34.2 1.3 0 2.6 0 3.8.1 7.8.4 15.5 2.4 22.9 6 30.3 14.8 42.8 51.3 28.1 81.6-47.4 97-101.3 192.1-160.3 282.6-11.7 18-31.2 27.7-51.1 27.7m-408.8 483.8c-16.4 0-32.8-6.6-44.8-19.6-22.9-24.7-21.4-63.3 3.4-86.2 75.5-69.7 147.5-145 214.1-223.8 12-14.3 29.3-21.6 46.6-21.6 1.3 0 2.6 0 3.9.1 12.6.8 25 5.5 35.5 14.3 25.7 21.7 28.9 60.2 7.2 85.9-69.8 82.6-145.3 161.6-224.5 234.8a61.04 61.04 0 0 1-41.4 16.1m-2768.8 332.4c-1.5 0-3 0-4.5-.1l-1.9-.1c-53.5-3.4-94.7-49.1-92.4-103 4.8-106.4 5-214.1.6-320-2.2-54.5 40.2-100.5 94.7-102.7 1.3-.1 2.6-.1 3.9-.1 2.2 0 4.3.1 6.5.2 49.8 3.2 90.2 43.6 92.3 94.5 4.6 111.5 4.4 224.8-.6 336.9-2.4 53-46.1 94.4-98.6 94.4m2254.7 37.5c-21.5 0-42.4-11.5-53.5-31.7-16.2-29.6-5.3-66.7 24.2-82.8 90.2-49.5 178.4-105 262-165.2 10.8-7.7 23.3-11.4 35.6-11.4 1.3 0 2.6 0 3.9.1 17.6 1.1 34.6 9.8 45.7 25.3 19.7 27.3 13.4 65.4-13.9 85.1-87.7 63-180.1 121.3-274.7 173.1-9.3 5.1-19.3 7.5-29.3 7.5m-9908.7 323.4c-48.7 0-90.8-35.8-97.7-85.3-7.3-53.4-13.6-107.6-18.7-160.9-5.2-54.4 34.6-102.6 88.9-107.8 3.1-.3 6.2-.4 9.3-.4 2.2 0 4.3 0 6.5.2 47.5 3 87.2 40.1 91.9 89.1 4.9 50.7 10.9 102.1 17.8 152.9 7.5 54-30.3 103.9-84.3 111.3-4.6.6-9.2.9-13.7.9m9320.4-90c-27.2 0-51.9-18.2-59-45.7-8.5-32.6 11.1-65.9 43.7-74.4a2499.88 2499.88 0 0 0 294.1-96.1c7.4-2.9 15-4.3 22.4-4.3 1.4 0 2.7.1 4 .1 22.8 1.5 43.8 15.8 52.8 38.4 12.5 31.3-2.9 66.8-34.2 79.2-100.3 39.9-204.1 73.8-308.5 100.9-5.1 1.3-10.2 1.9-15.3 1.9m-943.4 64.5a58.99 58.99 0 0 1-8.3-.6l-42.5-5.3c-93.3-12.5-186.6-30-277.3-52.1-32.7-8-52.7-40.9-44.8-73.7 6.8-27.9 31.8-46.5 59.3-46.5 1.2 0 2.5 0 3.8.1 3.5.2 7.1.7 10.6 1.6 86.5 21.1 175.5 37.8 264.8 49.6l40.1 5.1c33.5 3.9 57.5 34.2 53.6 67.6-3.5 30.8-29.5 54.2-59.3 54.2m315.9 17.6c-33.8-.4-61.2-27-61.4-60.7s26.9-61.1 60.6-61.4c103.3-.6 207.3-7.7 309-21 2.7-.3 5.3-.5 7.9-.5 1.3 0 2.6.1 3.9.2 28.6 1.8 52.8 23.5 56.6 52.9 4.4 33.4-19.2 64-52.6 68.4-106.7 13.9-215.7 21.4-324 22.1m-1171.8 497c-8.5 0-17.3-1.2-26-3.5-52.6-14.3-83.6-68.7-69.3-121.3 27.9-102.2 51.7-207.1 70.9-311.9 8.7-47.6 50.3-81 97.1-81 2 0 4.1.1 6.2.2 3.9.3 7.8.8 11.7 1.5 53.6 9.8 89.2 61.3 79.3 114.9-20.2 110.2-45.3 220.7-74.6 328.3-12 43.9-51.7 72.8-95.3 72.8m-318.2 799.3c-15.7 0-31.6-3.7-46.5-11.7-48-25.7-66.2-85.6-40.4-133.7 50.1-93.6 96.8-190.6 138.7-288.1 16-37.5 52.5-59.9 90.8-59.9 2 0 4.1.1 6.2.2 11 .7 22 3.3 32.7 7.8 50.1 21.6 73.3 79.7 51.8 129.8-44.1 102.7-93.3 204.8-146.1 303.5-17.8 33.2-51.9 52.1-87.2 52.1m-488.9 708.3a98.3 98.3 0 0 1-64.8-24.3c-41.2-35.8-45.5-98.2-9.6-139.4 69.7-80 136.9-164.1 199.6-250 19.4-26.4 49.4-40.5 79.9-40.5 2.1 0 4.1.1 6.2.2 18.2 1.2 36.2 7.4 52 18.9 44 32.1 53.6 94 21.4 138-66 90.3-136.7 178.9-210.2 263.2-19.5 22.4-46.9 33.9-74.5 33.9m-633.8 581.9c-30.5 0-60.5-14-79.8-40.5-32.2-44-22.6-105.8 21.4-138 86-62.9 170.1-130 250.1-199.7a98.71 98.71 0 0 1 64.8-24.2c2.1 0 4.2.1 6.3.2 25.4 1.6 50.2 13 68.3 33.7 35.8 41.2 31.4 103.6-9.7 139.4a4014.98 4014.98 0 0 1-263.2 210c-17.6 12.9-38 19.1-58.2 19.1m-4532.8 4.9c-20.2 0-40.6-6.2-58.1-19.1-43.6-31.7-86.9-64.7-128.9-98-42.7-33.9-49.8-96.1-15.9-138.8 19.5-24.6 48.3-37.3 77.4-37.3 2.1 0 4.2 0 6.3.1 19.4 1.3 38.7 8.2 55.1 21.3 39.8 31.6 81 63 122.4 93.2 44.1 32.1 53.8 94 21.6 138-19.3 26.5-49.4 40.6-79.9 40.6m3786 422.2c-38.2 0-74.6-22.3-90.7-59.6-21.7-50 1.4-108.2 51.4-129.8 97.6-42.2 194.5-89 288.1-139.3a97.75 97.75 0 0 1 46.6-11.8c2.1 0 4.2.1 6.3.2 32.9 2.1 64.1 20.6 80.8 51.8 25.8 48.1 7.8 108-40.2 133.8-98.5 52.9-200.5 102.3-303.2 146.6-12.8 5.5-26 8.1-39.1 8.1M8720.73 25315.5c-355.9 459.1-736.65 890.3-1143.06 1286.2 759.51 1027.1 1651.43 1933 2635.53 2706.3-545.49-1121.2-1095.37-2477.6-1492.47-3992.5" fill="url(#B)"/></g><g clip-path="url(#C)"><path d="M21780.4 28343.6l-3.9.1c-54.5 2.2-96.9 48.2-94.7 102.7 4.4 105.9 4.2 213.6-.6 320-2.3 53.9 38.9 99.6 92.4 103l1.9.1c1.5.1 3 .1 4.5.1 52.5 0 96.2-41.4 98.6-94.4 5-112.1 5.2-225.4.6-336.9-2.1-50.9-42.5-91.3-92.3-94.5-2.2-.1-4.3-.2-6.5-.2m-60.6 858.3c-46.8 0-88.4 33.4-97.1 81-19.2 104.8-43 209.7-70.9 311.9-14.3 52.6 16.7 107 69.3 121.3 8.7 2.3 17.5 3.5 26 3.5 43.6 0 83.3-28.9 95.3-72.8 29.3-107.6 54.4-218.1 74.6-328.3 9.9-53.6-25.7-105.1-79.3-114.9-3.9-.7-7.8-1.2-11.7-1.5-2.1-.1-4.2-.2-6.2-.2m-248.3 823.6c-38.3 0-74.8 22.4-90.8 59.9-41.9 97.5-88.6 194.5-138.7 288.1-25.8 48.1-7.6 108 40.4 133.7 14.9 8 30.8 11.7 46.5 11.7 35.3 0 69.4-18.9 87.2-52.1 52.8-98.7 102-200.8 146.1-303.5 21.5-50.1-1.7-108.2-51.8-129.8-10.7-4.5-21.7-7.1-32.7-7.8-2.1-.1-4.2-.2-6.2-.2m-426.4 747.5c-30.5 0-60.5 14.1-79.9 40.5-62.7 85.9-129.9 170-199.6 250-35.9 41.2-31.6 103.6 9.6 139.4a98.3 98.3 0 0 0 64.8 24.3c27.6 0 55-11.5 74.5-33.9 73.5-84.3 144.2-172.9 210.2-263.2 32.2-44 22.6-105.9-21.4-138-15.8-11.5-33.8-17.7-52-18.9-2.1-.1-4.1-.2-6.2-.2m-582.4 633.7a98.71 98.71 0 0 0-64.8 24.2c-80 69.7-164.1 136.8-250.1 199.7-44 32.2-53.6 94-21.4 138 19.3 26.5 49.3 40.5 79.8 40.5 20.2 0 40.6-6.2 58.2-19.1a4014.98 4014.98 0 0 0 263.2-210c41.1-35.8 45.5-98.2 9.7-139.4-18.1-20.7-42.9-32.1-68.3-33.7-2.1-.1-4.2-.2-6.3-.2m-707.9 489a97.75 97.75 0 0 0-46.6 11.8c-93.6 50.3-190.5 97.1-288.1 139.3-50 21.6-73.1 79.8-51.4 129.8 16.1 37.3 52.5 59.6 90.7 59.6 13.1 0 26.3-2.6 39.1-8.1 102.7-44.3 204.7-93.7 303.2-146.6 48-25.8 66-85.7 40.2-133.8-16.7-31.2-47.9-49.7-80.8-51.8-2.1-.1-4.2-.2-6.3-.2" fill="url(#D)"/></g><path d="M16138 32116.7c80.9 41.4 163.8 80.3 247.2 116 12.7 5.4 25.8 7.9 38.8 7.9 33.6 0 65.7-17.2 84-46.7l-370-77.2" fill="#dee8fd"/><g clip-path="url(#E)"><path d="M16127.9 31901.1c-35.3 0-69.5 19-87.2 52.4-25.7 48.1-7.5 107.9 40.7 133.6l56.6 29.6 370 77.2c2.6-4.2 4.9-8.6 6.9-13.3 21.4-50.1-1.9-108.2-52.1-129.6-97.8-41.8-194.9-88.3-288.5-138.2-12.8-6.9-26.5-10.6-40.2-11.5-2-.1-4.1-.2-6.2-.2" fill="url(#D)"/></g><path d="M18552.2 32438.9c17.7 29.1 49.8 47.6 84.7 47.6 5.9 0 11.8-.6 17.8-1.6 58.4-10.8 116.9-23 175.1-36.6l-277.6-9.4" fill="#dee8fd"/><g clip-path="url(#F)"><path d="M18956.7 32215.5c-8.7 0-17.5 1.2-26.3 3.6-102.4 28.2-207.2 52.2-311.6 71.5-53.6 9.9-89.1 61.5-79.2 115.1 2.3 12.1 6.6 23.2 12.6 33.2l277.6 9.4c51.4-11.9 102.5-24.9 153-38.8 52.6-14.5 83.5-68.8 69-121.4-11.4-41.8-48-69.8-88.9-72.4-2.1-.1-4.1-.2-6.2-.2" fill="url(#D)"/></g><path d="M16849.8 32256.3c-7.7 9.9-13.6 21.6-17.1 34.5-14.3 52.6 16.9 106.9 69.5 121.1 107.9 29.2 218.4 54.1 328.6 74 6 1.2 12.1 1.7 18 1.7 46.7 0 88.2-33.6 96.8-81.2a98.82 98.82 0 0 0-18.6-77.5c-159.3-21.4-318.4-45.7-477.2-72.6" fill="#dee8fd"/><g clip-path="url(#G)"><path d="M16928 32217.8c-30.8 0-59.7 14.5-78.2 38.5 158.8 26.9 317.9 51.2 477.2 72.6-14.4-18.9-35.7-32.7-61-37.3-104.7-19-209.7-42.7-312.2-70.4-6.6-1.8-13.1-2.8-19.6-3.2-2.1-.1-4.2-.2-6.2-.2" fill="url(#D)"/></g><path d="M17711.5 32375.3c-18.5 17.1-30.4 41.2-31.6 68.3-2.3 53.8 38.9 99.3 92.4 102.8h2.1a3898.7 3898.7 0 0 0 167.7 3.6c56.5 0 113-1.2 169-3.6 54.5-2.4 96.8-48.5 94.5-103-.4-8.5-1.9-16.8-4.3-24.7-163.2-11.5-326.7-26-489.8-43.4" fill="#dee8fd"/><g clip-path="url(#H)"><path d="M18106.6 32348.9l-3.9.1c-53.5 2.3-107.4 3.4-161.3 3.4-53 0-106-1.1-158.6-3.3-1.5-.1-2.9-.1-4.3-.1-25.8 0-49.4 9.9-67 26.3 163.1 17.4 326.6 31.9 489.8 43.4-11.8-38.7-46.7-66.9-88-69.6-2.2-.1-4.5-.2-6.7-.2" fill="url(#D)"/></g><g clip-path="url(#I)"><path d="M15547.9 31520.8c-29.1 0-57.9 12.7-77.4 37.3-33.9 42.7-26.8 104.9 15.9 138.8 42 33.3 85.3 66.3 128.9 98 17.5 12.9 37.9 19.1 58.1 19.1 30.5 0 60.6-14.1 79.9-40.6 32.2-44 22.5-105.9-21.6-138-41.4-30.2-82.6-61.6-122.4-93.2-16.4-13.1-35.7-20-55.1-21.3-2.1-.1-4.2-.1-6.3-.1" fill="url(#D)"/></g><g clip-path="url(#J)"><path d="M14107.8 28876.1l-9.3.4c-54.3 5.2-94.1 53.4-88.9 107.8 5.1 53.3 11.4 107.5 18.7 160.9 6.9 49.5 49 85.3 97.7 85.3 4.5 0 9.1-.3 13.7-.9 54-7.4 91.8-57.3 84.3-111.3-6.9-50.8-12.9-102.2-17.8-152.9-4.7-49-44.4-86.1-91.9-89.1-2.2-.2-4.3-.2-6.5-.2" fill="url(#D)"/></g><g clip-path="url(#K)"><path d="M17987.3 24659.7c-53.9 0-97.9 43.3-98.7 97.3-.8 54.6 42.8 99.3 97.3 100.2 103.9 1.5 209.3 7.4 314.5 17.7 3.3.3 6.6.5 9.9.5 49.9 0 93-38.3 98-89.3 5.3-54.3-34.5-102.6-88.8-107.9-45.6-4.4-91-8.1-136.4-10.9-64.7-4.2-130.1-6.7-194.3-7.6h-1.5m-523.9 28.4c-4 0-8 .2-12.1.7-109 13.5-219 31.8-326.9 54.5-53.3 11.2-87.5 63.6-76.3 117 9.8 46.5 50.9 78.4 96.6 78.4 6.8 0 13.6-.7 20.4-2.1 102.4-21.6 206.8-39 310.4-51.7 54.2-6.7 92.6-56 86-110.2-6-47.9-45.2-83.5-91.7-86.4-2.1-.2-4.2-.2-6.4-.2m1364.2 75.8c-44.7 0-85.2 30.6-96 76-12.6 53.1 20.3 106.3 73.3 118.9 101.9 24.2 203.9 52.9 303.1 85.4 10.3 3.4 20.6 5 30.9 5 41.4 0 80.1-26.5 93.8-68.1 17-51.8-11.3-107.6-63.1-124.6-104.5-34.3-211.9-64.5-319.1-89.9-5.5-1.3-11.1-2.1-16.6-2.5-2.1-.1-4.2-.2-6.3-.2m-2187.2 120.1c-11.1 0-22.4 1.9-33.4 5.9-103.4 37.1-206.6 79.1-306.8 124.9-49.7 22.7-71.5 81.3-48.8 130.9 16.6 36.3 52.4 57.7 89.9 57.7 13.7 0 27.7-2.9 41-8.9a3705.06 3705.06 0 0 1 291.4-118.7c51.3-18.4 78-75 59.6-126.3-13.7-38.3-48.6-62.9-86.7-65.3-2.1-.1-4.2-.2-6.2-.2m2984.9 164.8c-36.6 0-71.8 20.4-88.9 55.5-23.9 49-3.6 108.1 45.5 132 93.9 45.9 187 96.4 276.7 149.9 15.9 9.5 33.4 14.1 50.6 14.1 33.6 0 66.4-17.2 84.9-48.2 28-46.8 12.7-107.4-34.1-135.4-94.5-56.5-192.6-109.6-291.5-157.9-12-5.8-24.5-9-37-9.8-2.1-.2-4.2-.2-6.2-.2m-3745.3 207.1c-18.1 0-36.4 4.9-52.8 15.3-93 59-184.6 122.5-272.2 188.9-43.5 32.9-52 94.9-19.1 138.4 19.4 25.6 48.9 39.1 78.8 39.1 20.8 0 41.7-6.5 59.6-20.1 83.2-63 170.3-123.4 258.6-179.4 46.1-29.2 59.8-90.3 30.6-136.3-17.6-27.8-46.8-43.8-77.3-45.7-2.1-.2-4.2-.2-6.2-.2m-661.2 528.7c-25.3 0-50.5 9.6-69.8 28.9-43.9 43.8-87 88.9-129 134.9l-73.2 255.9c16.2 10.4 34.6 15.5 52.9 15.5 28 0 55.9-11.9 75.4-35 67.5-79.7 139.3-157.5 213.4-231.5 38.6-38.5 38.7-101.1.2-139.7-17.7-17.7-40.5-27.3-63.6-28.8-2.1-.1-4.2-.2-6.3-.2" fill="url(#D)"/></g><g clip-path="url(#L)"><path d="M20342.3 25503.8c-28.9 0-57.6 12.7-77.1 37-34.1 42.5-27.3 104.7 15.3 138.8 39.5 31.8 79.3 65 117.9 98.7 18.8 16.4 41.9 24.4 64.9 24.4 27.5 0 54.9-11.5 74.5-33.9 35.9-41.1 31.6-103.5-9.5-139.3-40.7-35.6-82.5-70.5-124.2-104-16.5-13.2-35.9-20.2-55.5-21.5-2.1-.1-4.2-.2-6.3-.2" fill="url(#D)"/></g><path d="M20535.2 27187c11.4 16 11.5 37.5.1 53.6l-325.4 458c100 242.6 162 502.9 179.7 772.3l493.7 267.4c17.4 9.4 26.8 28.7 23.6 48.2l-110.3 664.8c-3.2 19.5-18.4 34.7-37.8 38l-553.6 93.7c-103.8 249.3-246.5 475.6-419.4 672.9l160.1 538.6c5.6 18.9-1.4 39.2-17.4 50.7l-548.1 392.2c-16 11.4-37.5 11.5-53.6 0l-458-325.4c-242.6 100-502.9 162.1-772.3 179.8l-267.4 493.7c-9.4 17.4-28.7 26.8-48.2 23.6l-664.8-110.3c-19.5-3.2-34.7-18.4-38-37.8l-93.7-553.6c-249.3-103.8-475.6-246.5-673-419.5l-538.5 160.2c-18.9 5.6-39.2-1.4-50.7-17.4l-392.2-548.1c-11.4-16-11.5-37.5-.1-53.6l325.4-458c-100-242.6-162-502.9-179.7-772.3l-493.7-267.4c-17.4-9.4-26.8-28.8-23.6-48.2l110.3-664.8c3.2-19.5 18.4-34.7 37.8-38l553.6-93.7c103.8-249.3 246.5-475.7 419.4-673l-160.1-538.5c-5.6-18.9 1.4-39.3 17.4-50.7l548.1-392.2c16-11.4 37.5-11.5 53.6-.1l458 325.4c242.6-100 502.9-162 772.3-179.7l267.4-493.8c9.4-17.3 28.7-26.7 48.2-23.5l664.8 110.2c19.5 3.3 34.7 18.5 38 37.9l93.7 553.6c249.3 103.8 475.6 246.5 673 419.4l538.5-160.1c18.9-5.6 39.2 1.4 50.7 17.4l392.2 548.1" fill="#91b3fa"/><path d="M17597 29031.2c-105.9-89.6-170.5-215.1-182-353.4-23.7-285.4 189.2-536.9 474.6-560.6 285.5-23.9 536.9 189.2 560.6 474.6s-189.2 536.9-474.6 560.6c-25.8 2.2-51.6 2.4-77 .8-110.5-7.1-215.5-49.1-301.6-122zm279.5-1071.5c-372.3 31-649.9 358.9-619 731.2 15 180.4 99.3 344 237.4 461 138.1 116.9 313.5 173 493.8 158 372.3-31 649.9-359 619-731.2-28.2-338.7-302.2-599.1-631.7-620-32.7-2.1-66-1.8-99.5 1m147.6-978.3c56.6 3.6 113.4 10 170.1 19.4l53.4 9.7c87.5 17.5 173.5 41.8 256.7 72.7 1.1.5 2.2.9 3.4 1.3l9.6 3.7 18.7 7.2c16.3 6.5 25.9 22.6 24.9 39.2-.3 4.1-1.2 8.1-2.7 12.1-8.1 20.3-31 30.2-51.3 22.2-104.4-41.3-214-71.6-325.6-90.1-554.7-92.1-1090.9 117-1441.4 507.1-194.9 217-332.4 490.1-383.5 798.6-9 54.1-15.2 108.2-18.6 162.2-23 363.4 78.8 720.6 293.5 1020.6 246.6 344.7 612.7 572.7 1030.8 642.1 863.5 143.1 1681.7-442.7 1824.9-1305.8a1604.16 1604.16 0 0 0 18.3-160.1c14.6-231.8-21.6-464.2-106.9-680.4a38.83 38.83 0 0 1-2.6-17c.9-14.8 10.2-28.4 24.9-34.2 20.3-8 43.2 1.9 51.2 22.2 89.6 227 127.6 471 112.2 714.3-3.5 56.2-9.9 112.3-19.2 168.2-150.2 906.1-1009.9 1520.9-1915.7 1370.7-439-72.8-823.3-312.1-1082.2-674-225.4-315-332.2-690-308.1-1071.4 3.6-56.7 10.1-113.5 19.5-170.3 72.8-439 312.2-823.3 674-1082.2 315.1-225.4 690.2-332.3 1071.7-308" fill="#bdd0fb"/><g clip-path="url(#M)"><path d="M25311.6 25959.6c-4.4 0-8.9.4-13.4 1.4-32.9 7.5-53.5 40.2-46.1 73 10.9 48.2 20.5 97.3 28.5 146.1 4.9 29.8 30.6 51.2 59.9 51.2 3.3 0 6.7-.3 10.1-.9 33.3-5.5 55.8-36.8 50.4-70-8.4-51.2-18.4-102.7-29.8-153.2-6.2-27.1-29.3-45.8-55.7-47.5-1.3-.1-2.6-.1-3.9-.1" fill="url(#D)"/></g><g clip-path="url(#N)"><path d="M25372.4 26424.9h-2.2c-33.7 1.3-59.9 29.6-58.6 63.3 3.2 85 2.2 171.1-3.2 255.9l-4 53.9c-2.9 33.5 22 63 55.6 65.9h2.8c30.8 0 60.4-23.1 63.2-55.7l4.1-56.3c5.7-89 6.8-179.3 3.4-268.4-1.2-31.5-26.2-56.6-57-58.5-1.4-.1-2.8-.1-4.1-.1m-53.3 631.1c-28.2 0-53.6 19.8-59.6 48.5-21.1 100.9-48.7 201.4-81.9 298.7-10.9 31.9 6.1 66.6 38 77.5 6.5 2.2 13.1 3.2 19.6 3.2 25.4 0 49.2-15.8 57.8-41.2 34.9-102 63.8-207.3 85.9-313.2 6.9-33-14.2-65.3-47.2-72.2-2.9-.6-5.8-1-8.7-1.2-1.3 0-2.6-.1-3.9-.1m-204.9 599.4c-22.6 0-44.3 12.5-54.9 34.2-45.1 92.5-96.5 183.2-152.8 269.5-18.4 28.2-10.5 66 17.7 84.4 10.4 6.7 21.9 9.9 33.4 9.9 19.9 0 39.4-9.7 51.1-27.7 59-90.5 112.9-185.6 160.3-282.6 14.7-30.3 2.2-66.8-28.1-81.6-7.4-3.6-15.1-5.6-22.9-6-1.2-.1-2.5-.1-3.8-.1m-346.1 530.6c-17.3 0-34.6 7.3-46.6 21.6-66.6 78.8-138.6 154.1-214.1 223.8-24.8 22.9-26.3 61.5-3.4 86.2 12 13 28.4 19.6 44.8 19.6a61.04 61.04 0 0 0 41.4-16.1c79.2-73.2 154.7-152.2 224.5-234.8 21.7-25.7 18.5-64.2-7.2-85.9-10.5-8.8-22.9-13.5-35.5-14.3-1.3-.1-2.6-.1-3.9-.1m-465.1 430c-12.3 0-24.8 3.7-35.6 11.4-83.6 60.2-171.8 115.7-262 165.2-29.5 16.1-40.4 53.2-24.2 82.8 11.1 20.2 32 31.7 53.5 31.7 10 0 20-2.4 29.3-7.5 94.6-51.8 187-110.1 274.7-173.1 27.3-19.7 33.6-57.8 13.9-85.1-11.1-15.5-28.1-24.2-45.7-25.3-1.3-.1-2.6-.1-3.9-.1m-555.4 304c-7.4 0-15 1.4-22.4 4.3a2499.88 2499.88 0 0 1-294.1 96.1c-32.6 8.5-52.2 41.8-43.7 74.4 7.1 27.5 31.8 45.7 59 45.7 5.1 0 10.2-.6 15.3-1.9 104.4-27.1 208.2-61 308.5-100.9 31.3-12.4 46.7-47.9 34.2-79.2-9-22.6-30-36.9-52.8-38.4-1.3 0-2.6-.1-4-.1m-1558.2 106.8c-27.5 0-52.5 18.6-59.3 46.5-7.9 32.8 12.1 65.7 44.8 73.7 90.7 22.1 184 39.6 277.3 52.1l42.5 5.3a58.99 58.99 0 0 0 8.3.6c29.8 0 55.8-23.4 59.3-54.2 3.9-33.4-20.1-63.7-53.6-67.6l-40.1-5.1c-89.3-11.8-178.3-28.5-264.8-49.6-3.5-.9-7.1-1.4-10.6-1.6-1.3-.1-2.6-.1-3.8-.1m945.6 52.2c-2.6 0-5.2.2-7.9.5-101.7 13.3-205.7 20.4-309 21-33.7.3-60.8 27.7-60.6 61.4s27.6 60.3 61.4 60.7c108.3-.7 217.3-8.2 324-22.1 33.4-4.4 57-35 52.6-68.4-3.8-29.4-28-51.1-56.6-52.9-1.3-.1-2.6-.2-3.9-.2" fill="url(#D)"/></g><g clip-path="url(#O)"><path d="M22797.8 23952.5c-62.4 0-124.7 2.2-186.4 6.5-33.6 2.4-59 31.6-56.6 65.2 2.3 32.3 29.6 56.7 61.3 56.7 1.3 0 2.6-.1 3.9-.2 58.8-4.1 118.1-6.2 177.4-6.2 42.5 0 84.9 1.1 127.2 3.2 1 .1 2.1.1 3.1.1 32.3 0 59.2-25.4 60.9-57.9 1.6-33.4-23.8-61.9-57.1-64l-.8-.1c-44.2-2.2-88.5-3.3-132.9-3.3m440.1 37.7c-29.2 0-55 20.9-60.1 50.7-5.7 33.2 16.6 64.7 49.8 70.4 99.9 17.2 199.7 40.6 296.8 69.7 5.7 1.7 11.5 2.5 17.3 2.5 26.2 0 50.7-17 58.6-43.6 9.6-32.2-8.7-66.2-41-75.9-101.7-30.4-206.3-54.9-311-72.9-2.2-.4-4.4-.6-6.6-.8-1.3-.1-2.6-.1-3.8-.1m-931.5 9.7c-3.9 0-7.8.4-11.8 1.2-104.4 20.4-208.5 47.4-309.2 80.3-32.1 10.4-49.6 44.9-39.1 76.9 8.3 25.8 32.2 42.1 58 42.1 6.2 0 12.6-1 18.8-3 96.2-31.3 195.4-57.1 295-76.6 33-6.6 54.6-38.6 48.1-71.6-5.5-27.8-29-47.5-56-49.2-1.2-.1-2.5-.1-3.8-.1m1528.5 169.2c-23.5 0-45.9 13.6-55.9 36.5-13.5 30.8.5 66.8 31.4 80.4a2518.4 2518.4 0 0 1 271.1 139.1c9.7 5.8 20.4 8.5 31 8.5 20.8 0 41.2-10.6 52.6-29.8 17.1-29 7.6-66.4-21.4-83.6-91.3-54.2-187-103.3-284.3-146a63.95 63.95 0 0 0-20.7-5c-1.2-.1-2.5-.1-3.8-.1m-2120.7 23.8c-8.7 0-17.4 1.8-25.8 5.7-96.2 44.9-190.6 96.1-280.7 152.3-28.6 17.8-37.3 55.5-19.5 84.1 11.6 18.5 31.5 28.7 51.8 28.7 11.1 0 22.2-2.9 32.3-9.2 85.9-53.7 176-102.5 267.7-145.3 30.5-14.2 43.8-50.5 29.5-81.1-9.7-20.9-29.9-33.7-51.5-35.1-1.3 0-2.5-.1-3.8-.1m-528.6 329.5c-13.5 0-27 4.4-38.3 13.5-82.8 66.7-162.3 139.1-236.2 215-23.5 24.2-23 62.7 1.1 86.2 11.9 11.6 27.2 17.3 42.6 17.3 15.9 0 31.7-6.1 43.7-18.4 70.5-72.4 146.4-141.4 225.4-205.1 26.2-21.2 30.3-59.6 9.2-85.8-11.2-13.9-27.2-21.6-43.7-22.6-1.3-.1-2.6-.1-3.8-.1M20751 24969c-18.4 0-36.5 8.3-48.5 24a2637.29 2637.29 0 0 0-177.8 265.6c-17 29.1-7.2 66.4 21.9 83.4a59.85 59.85 0 0 0 30.6 8.4c21 0 41.4-10.9 52.8-30.2 51-87.3 108-172.5 169.5-253.2 20.5-26.8 15.3-65.1-11.6-85.5-9.9-7.6-21.4-11.7-33-12.4-1.3-.1-2.6-.1-3.9-.1" fill="url(#D)"/></g><g clip-path="url(#P)"><path d="M24373.2 24488.7c-18.3 0-36.3 8.1-48.3 23.6-20.6 26.7-15.7 65 10.9 85.6 39.4 30.5 78.1 62.3 115 94.5 11.6 10 25.8 14.9 40 14.9 17.1 0 34-7 46.1-20.8 22.1-25.4 19.5-64-5.9-86.1-38.7-33.7-79.2-67.1-120.5-99-10.1-7.7-21.7-11.9-33.4-12.6-1.3-.1-2.6-.1-3.9-.1" fill="url(#D)"/></g><path d="M24539 25638.8c7.6 10.7 7.6 25.1 0 35.9l-217.7 306.5c66.9 162.3 108.4 336.5 120.3 516.8l330.3 178.9c11.6 6.3 18 19.2 15.8 32.2l-73.8 444.9c-2.1 13-12.3 23.2-25.3 25.4l-370.4 62.7c-69.5 166.8-165 318.3-280.7 450.3l107.1 360.4c3.8 12.6-.9 26.3-11.6 33.9l-366.8 262.4c-10.7 7.7-25.1 7.7-35.8.1l-306.5-217.7c-162.3 66.9-336.5 108.4-516.8 120.3l-178.9 330.3c-6.3 11.6-19.3 18-32.3 15.8l-444.9-73.8c-13-2.2-23.1-12.3-25.4-25.3l-62.7-370.5c-166.8-69.4-318.2-164.9-450.3-280.6l-360.3 107.1c-12.7 3.8-26.3-.9-34-11.6l-262.4-366.8c-7.6-10.7-7.7-25.1 0-35.8l217.7-306.5c-66.9-162.4-108.4-336.5-120.3-516.8l-330.4-179c-11.6-6.2-17.9-19.2-15.7-32.2l73.7-444.9c2.2-13 12.4-23.2 25.4-25.4l370.4-62.7c69.5-166.8 165-318.2 280.7-450.3l-107.2-360.3a31.13 31.13 0 0 1 11.7-34l366.7-262.4c10.7-7.7 25.2-7.7 35.9-.1l306.5 217.8c162.3-66.9 336.5-108.4 516.8-120.3l178.9-330.4c6.3-11.6 19.2-17.9 32.2-15.7l444.9 73.7c13 2.2 23.2 12.4 25.4 25.4l62.7 370.4c166.9 69.4 318.3 165 450.3 280.7l360.4-107.2c12.6-3.7 26.3.9 33.9 11.7l262.5 366.7" fill="#91b3fa"/><path d="M22459.2 26635.8c-7.5-90.4 20.6-178.3 79.2-247.5 58.5-69.2 140.6-111.4 230.9-118.9 90.4-7.4 178.2 20.6 247.5 79.2 69.2 58.5 111.4 140.6 118.9 230.9 15.5 186.5-123.6 350.9-310.1 366.4-16.8 1.4-33.5 1.5-49.9.5-165.1-10.5-302.4-141-316.5-310.6zm300-488c-122.8 10.1-234.3 67.6-314 161.7-79.6 94-117.8 213.5-107.6 336.3 21.1 253.6 244.1 442.3 498.1 421.7 253.6-21.2 442.7-244.6 421.6-498.1-10.2-122.8-67.6-234.3-161.7-314-76.5-64.7-169.8-102.1-268-108.3a473.99 473.99 0 0 0-68.4.7m102.8-680.9c38.6 2.4 77.3 6.8 116.1 13.2 77.2 12.8 153.2 33.5 226 61.5 3.2 1.3 6.5 2.6 9.8 3.8 25.2 10 40.1 34.9 38.5 60.6-.4 6.2-1.8 12.5-4.2 18.6-12.4 31.3-47.9 46.5-79.2 34.3-67.7-26.8-138.6-46.4-210.8-58.4h0l-11.9-1.9c-171-26.6-342.1-9.7-500.8 47.1-86.2 30.8-168.7 73.5-245.5 127.4l-1.9 1.3-5.7 4.1c-223.1 159.6-370.7 396.6-415.6 667.3-5.8 35-9.8 70-12 105-14.9 235.2 51 466.5 190 660.8 159.6 223.1 396.6 370.6 667.3 415.5 270.5 44.8 542.6-18.3 765.7-177.9 223.1-159.7 370.8-396.7 415.7-667.3 5.7-34.5 9.6-69.1 11.8-103.7 9.5-150.1-13.9-300.5-69.1-440.4-3.4-8.7-4.8-17.6-4.2-26.3 1.5-22.8 15.8-43.9 38.5-52.9 31.4-12.2 66.8 3 79.2 34.4 61.7 156.6 88 325 77.4 492.8-2.5 38.8-6.9 77.5-13.3 116-50.2 302.9-215.3 568-465 746.6-249.6 178.6-553.7 249.6-856.7 199.1-302.8-50.2-567.9-215.3-746.5-465-155.6-217.3-229.3-476-212.6-739.2 2.5-39.1 6.9-78.3 13.4-117.4 97.3-586.3 624.8-995.9 1205.6-959" fill="#bdd0fb"/><path d="M32108.3 19644.2c-1.5 88.4-38.4 172.4-102.4 233.3s-149.7 93.6-238 90.8l-7144.6-228.3c-181.8-5.8-324.6-157.8-319.2-339.6l352.5-11832.5c5.4-179.5 153.4-321.8 333-320l7000.9 68a330.05 330.05 0 0 1 233.3 99.9c61.3 63 94.9 147.9 93.4 235.8l-208.9 11992.6" fill="#91b3fa"/><path d="M31390.1 18290.7h-.1l-3538.6 2.8-17.5 772h3529c63 0 115.7-33.9 117.7-93.1l19.4-553.8c2-59.4-46.8-128-109.9-127.9m41.7-1231.3h-.3l-3552.2 9.8-18.3 805.2 3543.2-5.9c63.3-.1 116.6-60.2 118.7-119.9l19.5-572.8c2-59.9-47.3-116.4-110.6-116.4m42.2-1243.9h-.6l-3565.9 15.9-17.5 769.6 3557.3-12.1c63.6-.2 116.1-29.7 118.2-89.9l19.7-577.9c2-60.4-47.7-105.6-111.2-105.6m42.8-1254.7h-1.1l-3579.8 22-17.6 776.3 3571.1-18.2c63.8-.3 117-41.9 119.1-102.7l19.8-583c2.1-60.7-48-94.4-111.5-94.4m43.7-1309.7h-.7l-3594.2 28.5-18.8 826.8 3585-24.4c64.1-.5 117.9-54.3 120-115.7l20.1-588.2c2.1-61.3-47.4-127-111.4-127m43.5-1277.4h-1.2l-3608.2 34.9-19 834 3599-30.7c64.4-.5 118.9-66.9 121-128.8l20.2-593.4c2.1-61.8-47.8-116-111.8-116m43.9-1288.7h-1.6l-3622.5 41.3-18.2 797.3 3613.7-37.4c64.7-.6 118.3-35.4 120.4-97.8l20.4-598.8c2.1-62.2-48.1-104.6-112.2-104.6m44.8-1300.3h-2.6l-3636.9 48-18.3 804.3 3627.9-43.9c65-.7 119.3-48.1 121.4-111.1l20.6-604.2c2.2-62.4-48.2-93.1-112.1-93.1m44.6-1357.3h-1.5l-3651.8 54.8-19.5 856.7 3642.3-50.4c65.3-.9 120.2-61.1 122.4-124.6l20.8-609.7c2.1-63.3-47.9-126.8-112.7-126.8" fill="#c0d4fc"/><path d="M16047.9 7481.8s2360.6 14485.1-3683.2 24863.8c-78.8 135.3-270.6 145.1-361.4 17.6-1433.9-2015.4-9932.77-15125.3 4044.6-24881.4" fill="#bdd0fb"/><path d="M15427.9 8875.5l-91.4 155.1c-36.8 60.2-70.7 126.1-107.5 194.6l-115 215.2-259 484.5-274 561.5-147.4 304.6-142.6 324.5-148.7 338.4-76.4 174c-24.8 59-48 119.3-72.3 179.6l-297.1 749.3-289.7 800.7-275 845.6-183 625.8c-187.7 934.8-412.2 1896-680.6 2857.1l-34.7 189.7-85.8 475c-28 158.4-50.6 317.5-76.1 475.7l-72.5 474.4-63.7 472.7-31.5 235-26.8 234.6-53.2 465.4-44.7 460.7-40.8 454.3-61.9 886.6-23.2 430-16.4 420.1-7.8 205.8-4.7 202.9-9.2 396.6-3.2 383.4-.6 369.4c-.3 482.6 13.8 924.9 28.7 1316.6l57.7 1013.6c19.8 280.8 41.6 501 57 651l25.9 230v.3c1.4 10.9 10.8 18.9 21.6 18.9.9 0 1.9 0 2.8-.2 11.8-1.5 20.1-12.2 18.9-24 0 0-8.7-79.5-20.9-229.5l-44.2-650.5c-17-280.3-30.2-621.2-41.4-1012.2l-10-623.1-2.8-337.4 1.3-353.4 4.2-368.4 6.9-382.4 13.1-395.5 6.7-202.4 9.7-205.1 20.4-418.6 27.3-428.6c16.8-289.1 42.1-583.8 65.7-883.7 10.6-150 28-300.7 42.1-452.8l46-459 54.5-463.8 27.5-233.7 32.2-234.1 65-471c21.7-157.4 49.3-314.5 73.8-472.4l77.3-473.8 86.2-473.1 42.6-236.8c14.3-78.8 31.6-157.1 47.3-235.6l96-470.3c30.3-156.9 68.2-311.8 103.5-466.8l106.7-463.1 233.1-908.9 254.1-879.8 269.5-843.7 281-800.2 288.8-749.3 70.3-179.6 74.5-174.2 145-338.5 139-324.7 143.2-305.3 264.4-563.9 250.6-487 111.4-216.4c35.6-68.9 68.5-135.3 104.1-195.7l35.3-62.6 2.9-122.1" fill="#dfe9fd"/><path d="M13908.6 6065.9s-52.2 16903.3-8029.27 21876.9c-141.56 88.3-328.52 20.8-381.89-137.3-621.01-1838.9-3265.76-11822.8 8411.16-21739.6" fill="#91b3fa"/><g clip-path="url(#Q)"><path d="M13893.1 6734.6l-2.8 80.3 23.5-42.9.2-.4c6.6-12.1 2.2-27.3-9.9-33.9-3.5-1.9-7.3-2.9-11-3.1" fill="url(#R)"/></g><path d="M13892.1 6734.6c-8.5 0-16.7 4.3-21.4 12l-115.2 189.2-322.8 536.3c-70.7 114.9-143.2 245.4-224 386.4l-260.6 457.1-601.3 1109.4-332.8 639.8-170.7 339.6-173.8 351.1-710.5 1507.3-713.2 1632.6-351.14 846-345.23 856.1-335.45 860-163.43 429.2-81.38 213.6-79.05 213.8-309.23 846.6-292.74 829.5-274.61 805.2-253.73 774.1-444.45 1424.4-353.15 1210.6-256.92 937.8-207.74 821.6c-3.18 13.5 5.16 27 18.6 30.1 1.93.5 3.87.7 5.77.7 11.35 0 21.62-7.8 24.35-19.3l.03-.1s69.42-299.5 207.01-820.4l256.23-937 354.84-1209.2 448.93-1421.8 256.15-772.7 277.12-803.6 295.29-827.9 311.81-844.9 79.72-213.2 82.01-213.3 164.74-428.2 340.92-856.9 353.06-851.8 180.27-421.9 90-209.9 92-208.2 367.1-822.1 367.4-798 182.8-388.1 89.3-191.6 90.8-188.6 354.7-732.1 174.6-349.9 167.3-340.3 326.7-641.4c103.5-206.2 208.5-400.9 306.6-586.8l277.4-529 462.9-853.8 303.4-546.6 82.9-151.2 2.8-80.3h-1" fill="#cadbfd"/><path d="M27741.6 23118.8c-1.8 75.9-34.8 147.8-91.4 198.5-56.5 50.7-131.6 75.7-207.2 69.1l-7642.2-661.9c-142.1-12.4-255.5-131.3-255.5-273.9V7088c0-151.8 131.9-263.4 283.7-263.4h8002.6c74 0 144.8 24.1 196.6 77 51.7 52.9 79.9 121.5 78.2 195.5l-364.8 16021.7" fill="#91b3fa"/><path d="M20378.9 20175.2v1620.2c0 68.6 32.7 127.7 96.7 131.8l583.3 39.5a70.68 70.68 0 0 0 6.5.3c61.3 0 110.7-57.4 110.7-124l1.1-1635.8-798.3-32" fill="#afc7fb"/><path d="M22496.8 7628.7h-567.7l-170.8 12296.2c-.4 35.5-7.3 70.2-19.8 102.7l-1.9 1858.5c-.1 69.1 62.4 129.2 127.1 133.4l610.2 40c2.2.2 4.4.2 6.5.2 61.6 0 102.2-58.2 102.3-125.2l23.6-14164.3c.1-70.9-43.7-141.5-109.5-141.5" fill="#a6c0fa"/><path d="M23945.9 7628.7H23321c-66.4 0-104.8 70.8-105 141.8l-30 14209.8c-.1 69.5 37.7 128.4 103.3 132.7l618.1 40.5c2.3.2 4.6.3 6.9.3 63.9 0 128.9-57 129.1-124.4l39.2-14258.4c.2-71.3-70-142.3-136.7-142.3m1468.3 0H24781c-67.2 0-116.7 71.2-116.9 142.7l-45.4 14302c-.3 70 48.3 129.9 114.8 134.3l626.2 41.1 7 .2c64.1 0 120.3-57.9 120.5-125.7l54.9-14351.4c.3-71.8-60.3-143.2-127.9-143.2m1488 0h-641.7c-68.1 0-128.9 71.6-129.2 143.5l-61.2 14395.6c-.3 70.4 59.3 131.4 126.6 135.8l634.6 41.7 7 .2c64.2 0 111.4-58.9 111.8-127.1l70.9-14445.7c.4-72.2-50.3-144-118.8-144" fill="#afc7fb"/><path d="M21758.3 19924.9a297.68 297.68 0 0 1-92.8 211.9c-58.3 55.2-136.4 84.6-216.7 81.3l-6095.7-244.4c-104.6-4.2-186.5-91.5-184.1-196.2l309.5-13031.3 6163.6 75.2c79 1 154.4 33.3 209.6 89.9 55.1 56.6 85.5 132.8 84.4 211.9l-177.8 12801.7" fill="#bdd0fb"/><path d="M15868.1 17522.8l-11.5 1676.5h983l9.5-1676.2-981-.3m1411.8 3.1l-8.5 1673.4h979.4l6.3-1673.1-977.2-.3m1484.4 3.3l-5.2 1670.1h975.5l3.1-1669.8-973.4-.3m2450.6-.4l-990.2 1.7-22.7 1668.8h1012.9v-1670.5m-5330.3-2391.3l-11.5 1664.1 980 3.1 9.4-1662-977.9-5.2m1407.3 7.5l-8.4 1661.1 976.4 3.1 6.3-1659-974.3-5.2m1479.9 7.9l-5.2 1657.9 972.5 3 3.1-1655.7-970.4-5.2m1455.8 7.7l8.2 1654.7 979.1 3.1v-1652.6l-987.3-5.2M15901.5 12694l-11.4 1653.5 976.8 6.3 9.3-1651.4-974.7-8.4m1402.8 12l-8.4 1650.5 973.3 6.3 6.2-1648.4-971.1-8.4m1475.1 12.7l-5.2 1647.3 969.4 6.2 3.1-1645.2-967.3-8.3m1451.3 12.3l8.2 1644.2 976 6.2v-1642.1l-984.2-8.3m-4312.6-2425.8l-11.1 1603.9 973.7 9.4 9-1601.9-971.6-11.4m1398.3 16.4l-8.1 1601 970.1 9.3 6.1-1599-968.1-11.3m1470.5 17.2l-5 1598 966.3 9.3 3-1595.9-964.3-11.4m1446.8 16.8l8.3 1594.9 972.9 9.3v-1592.9l-981.2-11.3m-4298.9-2463.2l-11.1 1593.8 970.6 12.5 9-1591.8-968.5-14.5m1393.9 20.9l-8.1 1590.8 967 12.4 6-1588.9-964.9-14.3m1465.8 21.8l-5 1587.9 963.2 12.3 3-1585.8-961.2-14.4m1442.3 21.2l8.2 1584.9 969.9 12.3V7970.6l-978.1-14.3" fill="#dee8fd"/><g clip-path="url(#S)"><path d="M16827.4 14260.3H7625.51c-119.66 0-216.66 97-216.66 216.7v6355.2c0 119.7 97 216.7 216.66 216.7h9201.89c119.7 0 216.7-97 216.7-216.7V14477c0-119.7-97-216.7-216.7-216.7" fill="url(#T)"/></g><g clip-path="url(#U)"><path d="M17201.9 14260.3H7999.99c-119.66 0-216.66 97-216.66 216.7v6355.2c0 119.7 97 216.7 216.66 216.7h9201.91c119.7 0 216.7-97 216.7-216.7V14477c0-119.7-97-216.7-216.7-216.7" fill="url(#V)"/></g><path d="M12789.4 16293.2l-534.1-297.8c-28.2-15.7-498.3-276.4-1070.1-515.5 1301.6 78.5 3503.7 446.2 3772.2 2021.3 136.2 799.6-30.3 1410.2-495.1 1814.6-721.1 627.7-1998.7 605.2-2945.4 304.9-1072-340.4-1861.11-1337.8-1723.08-2178.2 125.34-762.9 994.08-1189.7 2384.18-1160.5zm-2435.8-831.1h.4zm35-266h.1zm145-41.9l-186.3 1.9c-84.7 1.7-154.2 64-165 148.2-10.8 84.8 41 163 123.3 186.2 440.3 123.4 920.4 333.2 1273.9 503-1685.94 137.4-2022.51 1003.3-2087.55 1399.4-164.13 998.8 702.75 2129 1932.45 2519.4 1254.8 398.1 2525.9 254.7 3238.7-365.6 378.7-329.7 789.5-960.9 595.8-2096.8-362.3-2125.4-3676.7-2295.7-4725.3-2295.7" fill="#fff"/><g clip-path="url(#W)"><path d="M16945 22242.4H7743.07c-119.67 0-216.67 97-216.67 216.7v6355.2c0 119.7 97 216.7 216.67 216.7H16945c119.6 0 216.6-97 216.6-216.7v-6355.2c0-119.7-97-216.7-216.6-216.7" fill="url(#X)"/></g><g clip-path="url(#Y)"><path d="M17318.1 22209H8116.19c-119.66 0-216.66 97-216.66 216.7v6355.2c0 119.6 97 216.6 216.66 216.6h9201.91c119.6 0 216.7-97 216.7-216.6v-6355.2c0-119.7-97.1-216.7-216.7-216.7" fill="url(#Z)"/></g><g clip-path="url(#a)"><path d="M10290.4 27827.1c-243.1 0-440.8-197.7-440.8-440.8v-3507.2c0-243 197.7-440.8 440.8-440.8h4541.4c243 0 440.8 197.8 440.8 440.8v3507.2c0 243.1-197.8 440.8-440.8 440.8zm4541.4-4622.9h-4541.4c-372.15 0-674.89 302.8-674.89 674.9v3507.2c0 372.1 302.74 674.9 674.89 674.9h4541.4c372.1 0 674.9-302.8 674.9-674.9v-3507.2c0-372.1-302.8-674.9-674.9-674.9" fill="url(#b)"/></g><g clip-path="url(#c)"><path d="M12550.5 25620l-2737.58 2053.7 140.5 187.3 2600.88-1951.2 2666.8 1891.6 135.5-190.9-2806.1-1990.5" fill="url(#d)"/></g><g clip-path="url(#e)"><path d="M15186.9 23422.2l-1703 3018.2 203.8 115 1703.1-3018.1-203.9-115.1" fill="url(#f)"/></g><g clip-path="url(#g)"><path d="M9947.57 23449.3l-204.95 113.1 1673.78 3034.4 205-113.1-1673.83-3034.4" fill="url(#h)"/></g><g clip-path="url(#i)"><path d="M16827.4 6091.8H7625.51c-119.66 0-216.66 97-216.66 216.6v6355.2c0 119.7 97 216.7 216.66 216.7h9201.89c119.7 0 216.7-97 216.7-216.7V6308.4c0-119.6-97-216.6-216.7-216.6" fill="url(#j)"/></g><g clip-path="url(#k)"><path d="M17201.9 6091.8H7999.99c-119.66 0-216.66 97-216.66 216.6v6355.2c0 119.7 97 216.7 216.66 216.7h9201.91c119.7 0 216.7-97 216.7-216.7V6308.4c0-119.6-97-216.6-216.7-216.6" fill="url(#l)"/></g><g clip-path="url(#m)"><path d="M12926.1 7782.8c541.2-379 994.7-536.5 1347.1-468.3 209 40.4 380.8 161.9 510.8 361.1l143 219.3c36.2 55.5 20.8 130.5-34.3 167.3l-908.1 605.3c-80.2 53.5-186.4 34.4-242.9-43.1l-66.3-102.1c-101.2-155.6-265.1-254-449.9-270-184.1-16-361.8 52.1-488 186.7l-1100.2 1100.1c-134.6 126.3-202.6 304-186.7 488.1 16.1 184.8 114.6 348.7 270.1 449.8l102.1 66.2c77.5 56.7 96.6 162.9 43.2 243l-605.4 908.1c-36.8 55-111.9 70.4-167.3 34.3l-219.2-143.1c-199.2-129.9-320.7-301.7-361.2-510.7-68.2-352.6 89.3-805.8 468.1-1347 217.1-310 1635-1727.9 1945.1-1945zm1182.7-717.6c-375.8 0-817.5 176.2-1316.9 525.8h-.1c-330.2 231.2-1771.3 1672.3-2002.5 2002.5-416.6 595.2-586.9 1108.5-506.2 1525.8 52.2 269.7 212.3 498.7 463 662.3l219.3 143.1c162.4 105.8 382.2 60.9 489.9-100.5l605.4-908.1c124.5-186.5 78.8-434.6-103.9-564.8l-4.2-2.9-104.4-67.7c-94.6-61.5-154.6-161.3-164.4-273.8-9.7-112.5 32-221 114.6-297.9l3-2.9 1105.9-1106c76.9-82.6 185.6-124.3 297.9-114.6 112.5 9.7 212.4 69.7 273.9 164.4l70.5 108.4c130.1 182.9 378.3 228.5 564.9 103.9l908.1-605.3c161.4-107.7 206.5-327.5 100.5-489.9l-143.1-219.3c-163.5-250.7-392.6-410.8-662.3-463-67.2-13-136.9-19.5-208.9-19.5" fill="url(#n)"/></g><g clip-path="url(#o)"><path d="M23933.9 13146.9c-3.6-.2-7.2-.3-10.8-.2l-4726 4.8c-116.8.1-211.4 96.6-211.3 215.5.2 119 95.3 217.3 211.8 215.1l4726-4.8c116.8-.1 211.4-96.6 211.3-215.5-.2-115.2-89.2-209.3-201-214.9" fill="url(#p)"/></g><g clip-path="url(#q)"><path d="M17366.9 17867.2c1.7-3.2 3.3-6.5 4.8-9.9l1988.5-4372.6c49.2-108.1 3.3-236.3-102.5-286.3-105.9-50.1-233.4-3.5-280.6 105.1l-1988.5 4372.7c-49.2 108-3.3 236.2 102.5 286.3 102.5 48.4 223.7 5.7 275.8-95.3" fill="url(#r)"/></g><g clip-path="url(#s)"><path d="M24388.4 6118.8s41.4-229.7 57.7-502.4c7-116.1-79.1-217.1-194.9-228.3-403.5-39.2-1321.7-111.4-1908.1-26.8-82.1 11.9-114.7 112.7-54 169.3 241.8 225.3 825.6 663.4 1786.6 759.2l312.7-171" fill="url(#t)"/></g><g clip-path="url(#u)"><path d="M24589 6636.5l-204-499.9c-27.9-68.5-97.4-111.1-171-103.4-50 5.2-109.1 14.8-166.6 32.3-115.1 34.9-180 156.9-145.6 272.2l154 514.9 533.2-216.1" fill="url(#v)"/></g><g clip-path="url(#w)"><path d="M28076.1 5720.6s-408.5-341.7-567.6-780.1c-43.8-120.5 48.8-247.5 177-247.5h840.5c123 0 217.3 110.6 195.9 231.8-53.5 302.7-207.9 794.6-645.8 795.8" fill="url(#x)"/></g><g clip-path="url(#y)"><path d="M28582 6165.4l-145.9-606.5c-11.5-43.8-58.2-67.8-100.9-52.6-127.2 45.5-230.7 65.6-305.9 55.5-34.8-4.7-65.2 24.3-65.6 59.3l-7.9 606.5 626.2-62.2" fill="url(#z)"/></g><g clip-path="url(#AA)"><path d="M26409.8 14382l-2484.2-7578.9s476.5-312 703.5-299l2950.7 6090.8s516.4-3752.9 266.2-6447.3l845.2-64.5s1374.2 6885.4 333.3 9243.7l-2614.7-944.8" fill="url(#AB)"/></g><g clip-path="url(#AC)"><path d="M27563.9 12660.4c.9 0 2 .1 3 .2 13.2 1.7 22.5 13.7 20.8 26.9l-96.4 765.2c-1.6 13.1-13.5 22.3-26.8 20.8-13.2-1.6-22.6-13.7-20.9-26.8l96.4-765.3c1.5-12.1 11.9-21 23.9-21" fill="url(#AD)"/></g><g clip-path="url(#AE)"><path d="M25944.1 21051s2012.7-178.7 1728-1612.8c0 0 1112.6-2093.8 1632.7-4560.2 17-80.3-36.8-158.6-117.6-172.4l-3351.9-573.9c-92.5-15.8-181.6 41.8-205.1 132.6l-800.9 3095.3-312.1-1439.1-991.6 258.4 834.8 4228.6s116.4 617 1583.7 643.5" fill="url(#AF)"/></g><g clip-path="url(#AG)"><path d="M24812.2 17498c1.8 0 3.6.2 5.4.6 13.4 2.9 22 16.2 19.1 29.7l-279.4 1282.9c-3 13.4-16.1 21.9-29.7 19.1-13.5-3-22.1-16.3-19.1-29.7l279.4-1283c2.5-11.6 12.9-19.6 24.3-19.6" fill="url(#AH)"/></g><g clip-path="url(#AI)"><path d="M25014.6 13680.4c105.6 58 229.2 74.1 346.1 45l233.2-58.1c49.6-12.3 98.7 21.8 104.4 72.6l241.3 2148c301.8-143.3 737.1-126.1 880.7-115.7l-555.5-2532.3h-1943.7l693.5 440.5" fill="url(#AJ)"/></g><g clip-path="url(#AK)"><path d="M19850.1 18339.7l58.7 195.2c33.9 112.4 116.9 203.3 225.8 247.1l1062.6 427.3s16 136.3-224.6 228.9c-240.5 92.6-184.3 362-184.3 362s328.7-149.9 809.8-387.7c275.1-136 429.5-376.1 511.4-556.8l2407.7-2935.2-282.7-194.3c-371.7-255.4-883-129.9-1094.2 268.6L21835.9 18496c-654.8-196.7-1317.5-234.3-1985.8-156.3" fill="url(#AL)"/></g><g clip-path="url(#AM)"><path d="M25292 22420.3l619.1-1732.6s-548.2-428.5-948.2-283.6l-312 993.1s238.3 1213.9 641.1 1023.1" fill="url(#AN)"/></g><g clip-path="url(#AO)"><path d="M23444.5 23042.5c0-26.7 596.3-1688.1 596.3-1688.1l941.4 360.7-331.3 1658.6s-1206.4 115.8-1206.4-331.2" fill="url(#AP)"/></g><g clip-path="url(#AQ)"><path d="M24485.8 22969.6l242.8-859.4c3.1-11.1 4.7-22.2 4.7-33.6.1-70.1-17.3-311.3-263-278.5-222.9 29.7-426.9 53.6-556.5-7.5-58.2-27.4-86.1-94.4-64.3-155 54.2-150.9 182.7-488.8 339.1-765.3 31.7-56.1 101.3-77.9 160-51.2 176.8 80.4 545 260.5 807.2 474.8 35.5 29 52.6 74.7 44.1 119.8-41.2 219.8-164.1 888.6-169.5 1080.2-5.1 179.9 196.7 317.2 285.6 368.8 29.1 16.9 49.8 44.8 57.7 77.6 27.9 115.7 51.6 377.8-282.6 435.5-70 12.1-115.6 79.1-101.4 148.6 28.3 138.5 19.2 342.2-243.7 417.3-267.3 76.3-435.5-84.6-521-208-34.6-49.8-99.3-66-154.7-41.3-31.5 14.1-69.7 14.8-110.6-19.8-55.2-46.5-139.2-32.3-179.8 27.4-77.9 114.7-219.5 229.2-459.2 151.6-425.3-137.6-405-628-249.1-894.5 155.9-266.6 608.6-91.2 822.9 85.4 162.9 134.4 410.9 54 520.5 7.8 34.7-14.7 60.6-44.4 70.8-80.7" fill="url(#AR)"/></g><g clip-path="url(#AS)"><path d="M25115.6 22180.1s-251.7 476.1-85.2 625.7c166.4 149.5 448.4 125 440.8-247.3-9.4-463.2-355.6-378.4-355.6-378.4" fill="url(#AT)"/></g><g clip-path="url(#AU)"><path d="M26625 15740c137.3 0 235.4 10.4 246 11.6l17.8 2 732.9 3417c2.9 13.5-5.7 26.8-19.1 29.7-13.7 3-26.8-5.7-29.7-19.2l-725.3-3381.5c-109-9.6-691.5-48.3-998.9 169.5l634.8 2968.8-132.5 249.7c-6.4 12.2-21.5 16.8-33.7 10.3s-16.8-21.5-10.4-33.7l124.1-233.7-637.8-2982.4 12.7-9.6c222.2-166.9 580-198.5 819.1-198.5" fill="url(#AV)"/></g><g fill="#7d97f4"><path d="M22614.8 12746c19.2-65 1849.4-5687.8 2313.4-7113.3 53.5-164.3-95.8-325.6-301.1-325.6-143.1 0-267.9 80.8-302.5 195.9l-2031.7 6747.6 321.9 495.4m-1002.2 0c-19.2-65-1849.4-5687.8-2313.4-7113.3-53.5-164.3 95.8-325.6 301.1-325.6 143.1 0 267.9 80.8 302.5 195.9l2031.7 6747.6-321.9 495.4"/><path d="M21536.3 12970.4h1139.9V12055c0-131.5-105.4-238.2-235.4-238.2h-156.3V9760.7c0-99.6-79.8-180.4-178.2-180.4s-178.2 80.8-178.2 180.4v2056.1h-79.4c-172.5 0-312.4 141.6-312.4 316.2v837.4"/><path d="M26158.7 13190.3h-7975.8c-111.5 0-208.8-60.9-236.7-148.1l-111.4-348.4c-40-125.5 77.8-247.5 238.1-246.8l8184 38c158.7.8 274.4 121.4 235.7 245.7l-96.9 310.4c-27.3 87.7-125 149.2-237 149.2"/></g></g></svg>