<svg id="SvgjsSvg1018" width="288" height="288" xmlns="http://www.w3.org/2000/svg" version="1.1" xmlns:xlink="http://www.w3.org/1999/xlink" xmlns:svgjs="http://svgjs.com/svgjs"><defs id="SvgjsDefs1019"></defs><g id="SvgjsG1020"><svg xmlns="http://www.w3.org/2000/svg" viewBox="0 0 32 32" width="288" height="288"><g data-name="34-Happy and Smile" fill="#070879" class="color000 svgShape"><path d="M16,32A16,16,0,1,1,32,16,16,16,0,0,1,16,32ZM16,2A14,14,0,1,0,30,16,14,14,0,0,0,16,2Z" fill="#070879" class="color000 svgShape"></path><path d="M15 13H13a2 2 0 00-4 0H7a4 4 0 018 0zM25 13H23a2 2 0 00-4 0H17a4 4 0 018 0zM16 25a8 8 0 01-8-8h2a6 6 0 0012 0h2A8 8 0 0116 25z" fill="#070879" class="color000 svgShape"></path></g></svg></g></svg>