<svg xmlns="http://www.w3.org/2000/svg" xmlns:xlink="http://www.w3.org/1999/xlink" width="4946.667" height="4946.667" xmlns:v="https://vecta.io/nano"><style><![CDATA[.B{fill:#fff}.C{fill:#acbef8}.D{fill:#a2b6f7}.E{fill:#7d97f4}.F{fill:#e8ecfd}.G{fill:#c1cffa}.H{fill:#b6c4f9}.I{fill:#bdd0fb}]]></style><defs><clipPath id="A"><path d="M18829 4738.3c-1663.9 0-2935 233.1-3441.9 336.2-657.8 133.8-1535 312.3-2508.4 625h5109.6v4021.1h8105.6c357.7 0 687.5 266.1 687.5 578.2v3516.3l78.6 81v-5302h2071.8c-553.4-578-1076.1-953.8-1490.6-1251.6-2935-2109.7-6189.6-2604.2-8612.2-2604.2m-7733.5 1666.4c-1261.97 605.4-2558.16 1483.8-3670.19 2793.8-2930.85 3452.7-3307.75 8403.7-2023.51 12672 357.89-909.7 871.96-1854.6 1585.74-2821.6 70.64-341.3 159.09-677.7 264.15-1007.3-538.99-39.3-1020.21-142.2-1056.45-150.2-1.51-.4-2.27-.4-2.27-.4l-650.49-83.8c-31.67-4-62.84-10.1-93.48-17.9-513.57-305.7-464.18-1024.7 0-2048.1 10.17-50 22.94-99.2 37.96-147.6 412.87-1307 349.77-2303 348.63-2553.4 0-34.4 87.78-51.5 119.51-64 226.53-90.8 552.25-120.5 880.49-120.5 458.34 0 921.54 57.9 1125.8 88.3 64.61 9.5 117.1 78.7 108.42 143.3-48.78 353.4-4.87 769 85.55 1195.9l1227.91 23.3c509.56-578.8 1083.73-1108.4 1712.23-1578.4V6404.7m20210 6301l-729.5 2250c-22.2 68.5-86.1 109.3-158.2 109.3H27834c186.1 259 360.1 525.9 521.5 800.7h3613v531.8H30616l749.4 25.2c221.4 7.4 396.3 333.9 388.3 724.7l-107.6 2954.4c-5.7 278.3-127.9 505.7-285 529.1-417 62.1-867.4 101.5-1304.9 126.1l-.8 13.4-318.3 9.8c5.1 337.4-6.9 671.6-35.3 1001.9l1619.4 30.8c143.5 2.7 267.4 81.3 334.7 196.4 774.4-3153.1 589.6-6521.1-350.4-9303.6m-372.7 11518.5c-596.3 38.3-1229.8 54.9-1778.6 60.9-155.6 434.2-340.4 856.3-552.7 1264.7l1678.4 40.8c242.5-443.8 459.8-900.1 652.9-1366.4m-2858.5 2227.1c-183.3 280.4-380.1 552.6-589.6 815.8l-33.1 658.3c-4.7 168.6-107 306.5-238.5 320.7-213.9 23-438.4 40.9-664.5 54.8-1470.1 1431.5-3365.7 2491.2-5507.3 2997.9.8 17.4 1.2 34.7 1.2 52.1l-.1 4.2c.7 33.8-1 54.1-1.8 62-16.4 291.2-140.9 552.1-333.5 745.2 2374-382.8 4725.5-1348.9 6623.5-2941.9 364.7-306 707.4-630.5 1027.8-970.2-161.9-37.9-284.1-219.2-284.1-436.8v-1362.1m-17379.6 2588.9l-126.5 618c1480.3 1182.4 3456.1 2248.2 5976.6 2578.3 587.7 76.9 1191.9 115.8 1803.9 115.8 304.3 0 610.5-9.6 917.9-28.9-248.7-158.1-434-409-506.2-705.7l-33.8 1.5c-185.2 8.1-369.1 12.1-552.5 12.1-2850.6 0-5471.8-972.2-7479.4-2591.1"/></clipPath><linearGradient x1="0" y1="0" x2="1" y2="0" gradientTransform="matrix(-24554.3,30494.9,30494.9,24554.3,35724.9,-3396)" spreadMethod="pad" id="B" xlink:href="#CD"><stop offset="0" stop-color="#dae3fe"/><stop offset="1" stop-color="#e9effd"/></linearGradient><clipPath id="C"><path d="M8395.21 27497.8c546.48 669.3 1266.89 1436.7 2172.99 2160.4l126.5-618c-562.2-453.3-1076.78-957.8-1534.27-1505.3-99.96 19.6-203.18 29.9-308.71 29.9-158.43 0-311.69-23.4-456.51-67"/></clipPath><linearGradient x1="0" y1="0" x2="1" y2="0" gradientTransform="matrix(-24554.3,30494.9,30494.9,24554.3,35724.9,-3396)" spreadMethod="pad" id="D" xlink:href="#CD"><stop offset="0" stop-color="#c2d3fb"/><stop offset="1" stop-color="#c4d5fb"/></linearGradient><clipPath id="E"><path d="M10345 26074.8H7354.1c56.93 785.4 708.62 1400.3 1495.37 1400.3 793.48 0 1447.53-614.4 1495.53-1400.3"/></clipPath><linearGradient x1="7306.23" y1="25991.9" x2="10397.22" y2="25991.9" spreadMethod="pad" id="F" xlink:href="#CD"><stop offset="0" stop-color="#4f52ff"/><stop offset="1" stop-color="#4042e2"/></linearGradient><clipPath id="G"><path d="M8851.03 22739.1c-102.78.1-198.28 54.6-249.81 142.4-800.86 1364.2-1093.23 2221.7-1197.48 2701l-.53 1.8c-28.71 106.1-45.17 208.6-50.3 315l-.1-.2c-4.06 49.9-4.77 83-4.4 106.1h2.86l1.28 45.7 1.55 23.9h1497.62H10345l.4-8.3-4.2-2.6c.7-6.3-6.9-30.5-6.9-75.3v-.5l9-6.3c0-143.7-11.4-286-51.6-423l-.7-2.8c-107.9-479-401.85-1331.6-1189.29-2673.2-52-88.6-157.98-143.6-250.68-143.6v-.1"/></clipPath><linearGradient x1="7303.41" y1="24389.2" x2="10397.38" y2="24389.2" spreadMethod="pad" id="H" xlink:href="#CD"><stop offset="0" stop-color="#4f52ff"/><stop offset="1" stop-color="#4042e2"/></linearGradient><clipPath id="I"><path d="M8363.42 27458.7l31.79 39.1c144.82 43.6 298.08 67 456.51 67 105.53 0 208.75-10.3 308.71-29.9l-20.29-24.4c-93.45 17.7-189.85 26.9-288.42 26.9-170.62 0-334.83-27.7-488.3-78.7"/></clipPath><linearGradient x1="0" y1="0" x2="1" y2="0" gradientTransform="matrix(-24554.3,30494.9,30494.9,24554.3,35724.9,-3396)" spreadMethod="pad" id="J" xlink:href="#CD"><stop offset="0" stop-color="#f3f6fe"/><stop offset="1" stop-color="#f3f7fe"/></linearGradient><clipPath id="K"><path d="M10340.6 25575.9c44.3 203.5 55.2 339.6 56.6 417.5v-1.5c0-144.1-19.7-283.6-56.6-416m-2986.85 34.2c-23.73 93.4-38.96 190.2-44.81 289.5 6.37-72.2 19.41-168 44.81-289.5m3041.85 452.7c-.6 8-1.2 12-1.2 12h-49.4c-48 785.9-702.05 1400.3-1495.53 1400.3-786.75 0-1438.44-614.9-1495.37-1400.3h-45.69c9.14 172.8 46.67 338.2 108.05 491.4 105.05 262.3 279.94 489.1 501.64 657.5 133.22 101.1 283.28 181.1 445.32 235 153.47 51 317.68 78.7 488.3 78.7 98.57 0 194.97-9.2 288.42-26.9 496.98-93.8 909.86-425.4 1115.86-872.2 81.3-176.4 130.4-370.8 139.6-575.5"/></clipPath><linearGradient x1="7306.23" y1="25991.9" x2="10397.22" y2="25991.9" spreadMethod="pad" id="L" xlink:href="#CD"><stop offset="0" stop-color="#dcdcff"/><stop offset="1" stop-color="#d9d9f9"/></linearGradient><clipPath id="M"><path d="M8851.7 22703.5h-.16c-57.32.1-112.55 14.3-161.14 40.6-52.19 28.1-96.71 70.2-127.88 123.3-517.25 881.1-823.24 1552.4-1003.66 2047.4-105.78 290.2-168.37 519.6-205.11 695.3-25.4 121.5-38.44 217.3-44.81 289.5l-.47 5.4c-9.88 116.4-2.24 169.8-2.24 169.8h2.18 45.69l-1.55-23.9-1.28-45.7h-2.86c-.37-23.1.34-56.2 4.4-106.1l.1.2c5.13-106.4 21.59-208.9 50.3-315l.53-1.8c104.25-479.3 396.62-1336.8 1197.48-2701 51.53-87.8 147.03-142.3 249.81-142.4v.1c92.7 0 198.68 55 250.68 143.6C9889.15 24224.4 10183.1 25077 10291 25556l.7 2.8c40.2 137 51.6 279.3 51.6 423l-9 6.3v.5c0 44.8 7.6 69 6.9 75.3l4.2 2.6-.4 8.3h49.4s.6-4 1.2-12c1-12.6 2.2-35.5 1.6-69.4-1.4-77.9-12.3-214-56.6-417.5-24.4-111.8-58.8-243.9-107.4-397.9-27.2-86.6-59-180.1-95.8-280.8-180.79-493.5-485.28-1159.7-996.67-2031-60.14-102.4-170.22-162.7-289.03-162.7"/></clipPath><linearGradient x1="7303.41" y1="24389.2" x2="10397.38" y2="24389.2" spreadMethod="pad" id="N" xlink:href="#CD"><stop offset="0" stop-color="#dcdcff"/><stop offset="1" stop-color="#d9d9f9"/></linearGradient><clipPath id="O"><path d="M20971.8 31418.6h-2177.2c41.5 571.7 515.9 1019.3 1088.6 1019.3 577.6 0 1053.7-447.2 1088.6-1019.3"/></clipPath><linearGradient x1="18759.8" y1="31358.3" x2="21009.83" y2="31358.3" spreadMethod="pad" id="P" xlink:href="#CD"><stop offset="0" stop-color="#4f52ff"/><stop offset="1" stop-color="#4042e2"/></linearGradient><clipPath id="Q"><path d="M19884.3 28990.5c-74.8.1-144.3 39.7-181.9 103.6-582.9 993.1-795.7 1617.3-871.6 1966.2l-.4 1.3c-20.9 77.2-32.9 151.8-36.6 229.3l-.1-.1c-3 36.2-3.5 60.3-3.2 77.2h2.1l.9 33.2 1.1 17.4h1090.2 1087l.3-6-3.1-1.9c.5-4.6-5-22.2-5-54.8v-.3l6.6-4.6c0-104.7-8.3-208.3-37.6-308l-.5-2c-78.5-348.7-292.5-969.3-865.7-1945.9-37.9-64.5-115-104.5-182.5-104.5h0v-.1"/></clipPath><linearGradient x1="18757.7" y1="30191.6" x2="21009.89" y2="30191.6" spreadMethod="pad" id="R" xlink:href="#CD"><stop offset="0" stop-color="#4f52ff"/><stop offset="1" stop-color="#4042e2"/></linearGradient><clipPath id="S"><path d="M21041.3 31298.8l-32.7 7.7c.8 17.2 1.2 34.4 1.2 51.8v1.3c.4 24.4-.4 41-1.1 50.2-13.5 298-142.8 565.7-344 759.3l42.4-6.8c192.6-193.1 317.1-454 333.5-745.2.8-7.9 2.5-28.2 1.8-62l.1-4.2c0-17.4-.4-34.7-1.2-52.1m-2251.8 317.5l-29.1 1.4c72.2 296.7 257.5 547.6 506.2 705.7l36-2.3c-254.6-154.3-443.1-406.8-513.1-704.8"/></clipPath><linearGradient x1="0" y1="0" x2="1" y2="0" gradientTransform="matrix(-24554.3,30494.9,30494.9,24554.3,35724.9,-3396)" spreadMethod="pad" id="T" xlink:href="#CD"><stop offset="0" stop-color="#f8f9ff"/><stop offset="1" stop-color="#fbfcff"/></linearGradient><clipPath id="U"><path d="M20968.6 31055.4c32.3 148.4 40.2 247.5 41.2 304.2v-1.3c0-17.4-.4-34.6-1.2-51.8-3.9-86.6-17.6-170.7-40-251.1m-2174.2 24.9c-13.1 51.7-22.7 104.7-28.4 159-1.8 17.1-3.2 34.4-4.2 51.8 4.6-52.6 14.1-122.3 32.6-210.8m2214.3 329.5c-.5 5.9-.9 8.8-.9 8.8h-36c-34.9 572.1-511 1019.3-1088.6 1019.3-572.7 0-1047.1-447.6-1088.6-1019.3h-33.2c3.6 67.7 13.1 133.7 28.1 197.7 70 298 258.5 550.5 513.1 704.8 169.8 103 369.1 162.2 582.2 162.2 302.8 0 577.7-119.6 779.9-314.2 201.2-193.6 330.5-461.3 344-759.3"/></clipPath><linearGradient x1="18759.8" y1="31358.3" x2="21009.83" y2="31358.3" spreadMethod="pad" id="V" xlink:href="#CD"><stop offset="0" stop-color="#dcdcff"/><stop offset="1" stop-color="#d9d9f9"/></linearGradient><clipPath id="W"><path d="M19884.8 28964.6h-.1c-56.3 0-109.8 18.9-152.4 52.6-22.9 18.1-42.7 40.6-58 66.7l-14.1 24.1c-240.4 411.1-417 758.9-546.8 1049.8-143.5 321.4-229.6 573.4-281.1 764.8l-21.3 83.7-16.6 74c-18.5 88.5-28 158.2-32.6 210.8-.3 2.6-.5 5.2-.7 7.7-6.7 82.2-1.3 119.8-1.3 119.8h1.6 33.2l-1.1-17.4-.9-33.2h-2.1c-.3-16.9.2-41 3.2-77.2l.1.1c3.7-77.5 15.7-152.1 36.6-229.3l.4-1.3c75.9-348.9 288.7-973.1 871.6-1966.2 37.6-63.9 107.1-103.5 181.9-103.6v.1h0c67.5 0 144.6 40 182.5 104.5 573.2 976.6 787.2 1597.2 865.7 1945.9l.5 2c29.3 99.7 37.6 203.3 37.6 308l-6.6 4.6v.3c0 32.6 5.5 50.2 5 54.8l3.1 1.9-.3 6h36s.4-2.9.9-8.8c.7-9.2 1.5-25.8 1.1-50.2-1-56.7-8.9-155.8-41.2-304.2-24.1-110.3-61.6-247.7-119.8-415.2l-22.2-62.5c-74.4-205.2-178.6-452.3-324-745.5-107.2-216.1-236.8-457.3-393.6-725.5l-13.8-23.7c-14.9-25.3-34-47.2-56.1-64.9-10.2-8.2-21.1-15.5-32.4-21.9-21.5-12-44.8-20.9-69.2-26.1-17.1-3.6-34.8-5.5-52.7-5.5"/></clipPath><linearGradient x1="18757.7" y1="30191.6" x2="21009.89" y2="30191.6" spreadMethod="pad" id="X" xlink:href="#CD"><stop offset="0" stop-color="#dcdcff"/><stop offset="1" stop-color="#d9d9f9"/></linearGradient><clipPath id="Y"><path d="M31968.5 15865.7h-5187.1v531.8h1130.7c55.5-53.8 119.2-84.3 186.8-84.3l7.5.1 2509.6 84.2h1352.5v-531.8"/></clipPath><linearGradient x1="-42028.7" y1="103251" x2="-38376.46" y2="98398.02" spreadMethod="pad" id="Z" xlink:href="#CD"><stop offset="0" stop-color="#09005d"/><stop offset="1" stop-color="#1a0f91"/></linearGradient><clipPath id="a"><path d="M15102.7 21225.7H32269v509.9H15102.7z"/></clipPath><linearGradient x1="-39362.8" y1="105258" x2="-35710.55" y2="100405.02" spreadMethod="pad" id="b" xlink:href="#CD"><stop offset="0" stop-color="#09005d"/><stop offset="1" stop-color="#1a0f91"/></linearGradient><clipPath id="c"><path d="M15102.7 25334.8h16996.7v468.1H15102.7z"/></clipPath><linearGradient x1="-37452.7" y1="106695" x2="-33800.45" y2="101842.02" spreadMethod="pad" id="d" xlink:href="#CD"><stop offset="0" stop-color="#09005d"/><stop offset="1" stop-color="#1a0f91"/></linearGradient><clipPath id="e"><path d="M15495.4 17973h-538v11535.8h376.7c89.1 0 161.3-72.2 161.3-161.3v-240.7-88.6-3918.5-89.1-450.1-2169.6-1298.2V17973"/></clipPath><linearGradient x1="0" y1="0" x2="1" y2="0" gradientTransform="matrix(-3693.75,-4908.13,-4908.13,3693.75,68782.6,92437.3)" spreadMethod="pad" id="f" xlink:href="#CD"><stop offset="0" stop-color="#09005d"/><stop offset="1" stop-color="#1a0f91"/></linearGradient><clipPath id="g"><path d="M31811 11851.8h594v17584h-415.9c-98.4 0-178.1-79.8-178.1-178.1z"/></clipPath><linearGradient x1="-35220.2" y1="110107" x2="-31525.04" y2="105197" spreadMethod="pad" id="h" xlink:href="#CD"><stop offset="0" stop-color="#09005d"/><stop offset="1" stop-color="#1a0f91"/></linearGradient><clipPath id="i"><path d="M23257.6 21749.2c-250 0-453.7 202.8-453.7 454v2019.7c0 265.4 213.2 481.3 478.6 484.2l633.2 3.4 1324.7-15.7 148.1-4 720.7-26.7c325.1-15.3 648.4-35.3 956-61.2 183.4-15.4 326.1-165.7 332.7-349.7l125.6-1952.6c9.3-258.3-194.9-474.1-453.3-479l-423.6-8-752.3-14.3-155.3-3-2472.6-47c-2.9 0-5.8-.1-8.8-.1m1610.2 2953.3v-1592.6c0-63 47.5-115.8 110.1-122.6l546.7-58.9c4.5-.5 9-.8 13.5-.8 70.5 0 127.9 60.1 122.6 132.3l-119.5 1626.3-673.4 16.3"/></clipPath><linearGradient x1="0" y1="0" x2="1" y2="0" gradientTransform="matrix(3602.21,3352.06,3352.06,-3602.21,23001.5,21246)" spreadMethod="pad" id="j" xlink:href="#CD"><stop offset="0" stop-color="#ff928e"/><stop offset="1" stop-color="#fe7062"/></linearGradient><clipPath id="k"><path d="M25538.1 22927.6c-4.5 0-9 .3-13.5.8l-546.7 58.9c-62.6 6.8-110.1 59.6-110.1 122.6v1592.6l673.4-16.3 119.5-1626.3c5.3-72.2-52.1-132.3-122.6-132.3"/></clipPath><linearGradient x1="0" y1="0" x2="1" y2="0" gradientTransform="matrix(3602.21,3352.06,3352.06,-3602.21,23001.5,21246)" spreadMethod="pad" id="l" xlink:href="#CD"><stop offset="0" stop-color="#ffbab8"/><stop offset="1" stop-color="#fea59c"/></linearGradient><clipPath id="m"><path d="M28054.7 21750.9c-214.2 0-388.8 173.7-388.8 388.9v1730.4c0 227.4 182.7 412.4 410.1 414.8l542.6 3 535.6-2.9c548.8-6 1182.3-22.6 1778.6-60.9l384.1-28.4c157.1-13.2 279.4-142 285.1-299.6l107.6-1673c2.8-77.9-17.1-151.3-53.7-213.9-67.3-115.1-191.2-193.7-334.7-196.4l-1619.4-30.8-1639.6-31.2h-7.5m1379.6 2530.2v-1364.5c0-53.9 40.6-99.2 94.2-105l468.4-50.5c3.9-.4 7.8-.6 11.6-.6 60.4 0 109.6 51.5 105.1 113.3l-102.4 1393.4-576.9 13.9"/></clipPath><linearGradient x1="0" y1="0" x2="1" y2="0" gradientTransform="matrix(3902.39,3502.14,3502.14,-3902.39,27601.2,21171.1)" spreadMethod="pad" id="n" xlink:href="#CD"><stop offset="0" stop-color="#ff928e"/><stop offset="1" stop-color="#fe7062"/></linearGradient><clipPath id="o"><path d="M30008.5 22760.5c-3.8 0-7.7.2-11.6.6l-468.4 50.5c-53.6 5.8-94.2 51.1-94.2 105v1364.5l576.9-13.9 102.4-1393.4c4.5-61.8-44.7-113.3-105.1-113.3"/></clipPath><linearGradient x1="0" y1="0" x2="1" y2="0" gradientTransform="matrix(3902.39,3502.14,3502.14,-3902.39,27601.2,21171.1)" spreadMethod="pad" id="p" xlink:href="#CD"><stop offset="0" stop-color="#ffbab8"/><stop offset="1" stop-color="#fea59c"/></linearGradient><clipPath id="q"><path d="M21117.1 25578.3c-154.3 0-280 160-280 358.3v1594.1c0 209.5 131.6 379.9 295.3 382.2l390.7 2.7c229.8 0 500.7-2.8 786.4-11.5v-1251.9c0-49.7 37.5-91.4 86.9-96.7l431.5-46.6c3.6-.3 7.1-.5 10.6-.5 55.7 0 101 47.4 96.8 104.4l-93.2 1268.2c212.3-12.3 423.8-28.7 624.4-50.3 113.2-12.2 201.2-130.8 205.3-276l77.5-1541.2c5.8-203.9-120.2-374.2-279.7-378.1l-2352.5-57.1"/></clipPath><linearGradient x1="0" y1="0" x2="1" y2="0" gradientTransform="matrix(2901.78,3602.2,3602.2,-2901.78,20464.5,24498.9)" spreadMethod="pad" id="r" xlink:href="#CD"><stop offset="0" stop-color="#ff928e"/><stop offset="1" stop-color="#fe7062"/></linearGradient><clipPath id="s"><path d="M22838.5 26508.4c-3.5 0-7 .2-10.6.5l-431.5 46.6c-49.4 5.3-86.9 47-86.9 96.7v1251.9l532.6-23.1 93.2-1268.2c4.2-57-41.1-104.4-96.8-104.4"/></clipPath><linearGradient x1="0" y1="0" x2="1" y2="0" gradientTransform="matrix(2901.78,3602.2,3602.2,-2901.78,20464.5,24498.9)" spreadMethod="pad" id="t" xlink:href="#CD"><stop offset="0" stop-color="#ffbab8"/><stop offset="1" stop-color="#fea59c"/></linearGradient><clipPath id="u"><path d="M24483.4 25629.1c-179.2 0-325.3 186-325.3 416.3v1200.9 215.5 172.2 263.6c0 243.3 152.9 441.3 343.1 444l454.1 3.1c266.9 0 581.8-3.2 913.6-13.3v-1454.5c0-57.8 43.4-106.2 100.9-112.4l501.3-54.1c4.2-.5 8.3-.7 12.4-.7 64.6 0 117.3 55.1 112.5 121.3l-108.3 1473.5 60.9-3.6c226.1-13.9 450.6-31.8 664.5-54.8 131.5-14.2 233.8-152.1 238.5-320.7l33.1-658.3 57-1132.4c6.7-236.9-139.7-434.7-325-439.2l-1567.3-38.1-588.3-14.3-139.5-3.4-431.9-10.5c-2.1-.1-4.2-.1-6.3-.1"/></clipPath><linearGradient x1="0" y1="0" x2="1" y2="0" gradientTransform="matrix(3402.09,3051.88,3051.88,-3402.09,23937.4,25298)" spreadMethod="pad" id="v" xlink:href="#CD"><stop offset="0" stop-color="#ff928e"/><stop offset="1" stop-color="#fe7062"/></linearGradient><clipPath id="w"><path d="M26483.5 26709.7c-4.1 0-8.2.2-12.4.7l-501.3 54.1c-57.5 6.2-100.9 54.6-100.9 112.4v1454.5l618.8-26.9L26596 26831c4.8-66.2-47.9-121.3-112.5-121.3"/></clipPath><linearGradient x1="0" y1="0" x2="1" y2="0" gradientTransform="matrix(3402.09,3051.88,3051.88,-3402.09,23937.4,25298)" spreadMethod="pad" id="x" xlink:href="#CD"><stop offset="0" stop-color="#ffbab8"/><stop offset="1" stop-color="#fea59c"/></linearGradient><clipPath id="y"><path d="M28399.6 25544.9c-179.3 0-325.3 186-325.3 416.3v490.1 1362.1c0 217.6 122.2 398.9 284.1 436.8 19.1 4.4 38.8 6.9 59 7.2l453.9 3.1c267 0 581.8-3.2 913.7-13.3v-1454.5c0-57.8 43.5-106.2 100.9-112.4l501.4-54.1c4.1-.4 8.2-.7 12.3-.7 64.7 0 117.4 55.2 112.5 121.4l-108.3 1473.4c246.6-14.3 492.3-33.3 725.5-58.4 131.4-14.2 233.7-152 238.5-320.7l90-1790.7c6.7-236.8-139.7-434.7-324.9-439.2l-853-20.7-1678.4-40.8-195.6-4.8c-2.1-.1-4.2-.1-6.3-.1"/></clipPath><linearGradient x1="0" y1="0" x2="1" y2="0" gradientTransform="matrix(3151.92,3302.01,3302.01,-3151.92,27967.9,25045.2)" spreadMethod="pad" id="z" xlink:href="#CD"><stop offset="0" stop-color="#ff928e"/><stop offset="1" stop-color="#fe7062"/></linearGradient><clipPath id="AA"><path d="M30399.6 26625.5c-4.1 0-8.2.3-12.3.7l-501.4 54.1c-57.4 6.2-100.9 54.6-100.9 112.4v1454.5l618.8-26.9 108.3-1473.4c4.9-66.2-47.8-121.4-112.5-121.4"/></clipPath><linearGradient x1="0" y1="0" x2="1" y2="0" gradientTransform="matrix(3151.92,3302.01,3302.01,-3151.92,27967.9,25045.2)" spreadMethod="pad" id="AB" xlink:href="#CD"><stop offset="0" stop-color="#ffbab8"/><stop offset="1" stop-color="#fea59c"/></linearGradient><clipPath id="AC"><path d="M23343.1 17973h-4007.4v1711.5c0 359.2 182.7 651.4 410.1 655.4l542.4 4.6 761.2-9.4 54.6-1.4v-1360.6c0-53.9 40.7-99.2 94.3-105l468.4-50.5c3.9-.4 7.8-.6 11.6-.6 60.4-.1 109.6 51.5 105.1 113.3l-101.6 1381.4c437.5-22 887.9-57.3 1304.9-112.8 157.1-20.9 279.3-224.4 285-473.3l71.4-1752.6"/></clipPath><linearGradient x1="0" y1="0" x2="1" y2="0" gradientTransform="matrix(2951.81,3552.18,3552.18,-2951.81,19683.9,16365.4)" spreadMethod="pad" id="AD" xlink:href="#CD"><stop offset="0" stop-color="#ff928e"/><stop offset="1" stop-color="#fe7062"/></linearGradient><clipPath id="AE"><path d="M21678.3 18817c-3.8 0-7.7.2-11.6.6l-468.4 50.5c-53.6 5.8-94.3 51.1-94.3 105v1360.6l83.3-2.4 494.5-19.6 101.6-1381.4c4.5-61.8-44.7-113.4-105.1-113.3"/></clipPath><linearGradient x1="0" y1="0" x2="1" y2="0" gradientTransform="matrix(2951.81,3552.18,3552.18,-2951.81,19683.9,16365.4)" spreadMethod="pad" id="AF" xlink:href="#CD"><stop offset="0" stop-color="#ffbab8"/><stop offset="1" stop-color="#fea59c"/></linearGradient><clipPath id="AG"><path d="M26781.4 16450.3v949.2c0 312.1-329.8 573.5-687.5 573.5h-2576.1v1739.5c0 359.2 182.7 651.4 410.1 655.3l542.5 4.6 815.8-10.7v-1360.6c0-54 40.6-99.2 94.2-105l468.4-50.5c3.9-.5 7.8-.7 11.6-.7 60.4 0 109.6 51.5 105.1 113.4l-101.5 1381.3 44.9-2.3c200.7-10.4 403.8-23.8 604.8-40.6 223-18.7 443.4-41.6 655.1-69.8 157.1-21 279.4-224.4 285.1-473.4l107.6-2643.1c.4-20.5.3-40.8-.5-60.8-.2-6.1-.5-12.2-.9-18.3-17.7-313.5-182.5-563.1-387-569.2l-391.7-11.8"/></clipPath><linearGradient x1="0" y1="0" x2="1" y2="0" gradientTransform="matrix(4202.6,3802.35,3802.35,-4202.6,23123.9,16223)" spreadMethod="pad" id="AH" xlink:href="#CD"><stop offset="0" stop-color="#ff928e"/><stop offset="1" stop-color="#fe7062"/></linearGradient><clipPath id="AI"><path d="M25860.4 18844.9c-3.8 0-7.7.2-11.6.7l-468.4 50.5c-53.6 5.8-94.2 51-94.2 105v1360.6l465.7-16.7 112.1-5.4 101.5-1381.3c4.5-61.9-44.7-113.4-105.1-113.4"/></clipPath><linearGradient x1="0" y1="0" x2="1" y2="0" gradientTransform="matrix(4202.6,3802.35,3802.35,-4202.6,23123.9,16223)" spreadMethod="pad" id="AJ" xlink:href="#CD"><stop offset="0" stop-color="#ffbab8"/><stop offset="1" stop-color="#fea59c"/></linearGradient><clipPath id="AK"><path d="M28098.9 16313.2c-67.6 0-131.3 30.5-186.8 84.3-120.3 116.6-202 342.4-202 602.5v32.6 15.7 3007.6c0 401.5 182.7 728.2 410.1 732.6l542.3 5.1c244 0 521.5-3.1 815.9-12v-1520.9c0-60.3 40.7-110.9 94.3-117.3l468.4-56.5c3.9-.5 7.8-.7 11.6-.7 60.4 0 109.6 57.6 105.1 126.7l-101.6 1544.1c437.5-24.6 887.9-64 1304.9-126.1 157.1-23.4 279.3-250.8 285-529.1l107.6-2954.4c8-390.8-166.9-717.3-388.3-724.7l-749.4-25.2-2509.6-84.2c-2.5-.1-5-.1-7.5-.1"/></clipPath><linearGradient x1="0" y1="0" x2="1" y2="0" gradientTransform="matrix(3752.3,5653.46,5653.46,-3752.3,27526.7,15274)" spreadMethod="pad" id="AL" xlink:href="#CD"><stop offset="0" stop-color="#ff928e"/><stop offset="1" stop-color="#fe7062"/></linearGradient><clipPath id="AM"><path d="M30056.2 20757l-319.2 15.4.1 7.8 318.3-9.8.8-13.4"/></clipPath><linearGradient x1="0" y1="0" x2="1" y2="0" gradientTransform="matrix(-24554.3,30494.9,30494.9,24554.3,35724.9,-3396)" spreadMethod="pad" id="AN" xlink:href="#CD"><stop offset="0" stop-color="#e8edfe"/><stop offset="1" stop-color="#f1f5fe"/></linearGradient><clipPath id="AO"><path d="M30052.7 19086.2c-3.8 0-7.7.2-11.6.7l-468.4 56.5c-53.6 6.4-94.3 57-94.3 117.3v1520.9l258.6-9.2 319.2-15.4 101.6-1544.1c4.5-69.1-44.7-126.7-105.1-126.7"/></clipPath><linearGradient x1="0" y1="0" x2="1" y2="0" gradientTransform="matrix(3752.3,5653.46,5653.46,-3752.3,27526.7,15274)" spreadMethod="pad" id="AP" xlink:href="#CD"><stop offset="0" stop-color="#ffbab8"/><stop offset="1" stop-color="#fea59c"/></linearGradient><clipPath id="AQ"><path d="M26938.5 8594.1H12660.6V9904h14277.9z"/></clipPath><linearGradient x1="0" y1="0" x2="1" y2="0" gradientTransform="matrix(-1534.34,13675.7,13675.7,1534.34,19420.2,12630.2)" spreadMethod="pad" id="AR" xlink:href="#CD"><stop offset="0" stop-color="#09005d"/><stop offset="1" stop-color="#1a0f91"/></linearGradient><clipPath id="AS"><path d="M12765.4 8594.1h-196c-123.3 0-223.2 99.9-223.2 223.1V9904h419.2z"/></clipPath><linearGradient x1="0" y1="0" x2="1" y2="0" gradientTransform="matrix(1516.84,179.964,179.964,-1516.84,11640.6,9140.4)" spreadMethod="pad" id="AT" xlink:href="#CD"><stop offset="0" stop-color="#cb236d"/><stop offset="1" stop-color="#4c246d"/></linearGradient><clipPath id="AU"><path d="M26093.9 9720.6h-8105.6v340.6h7738c337.4 0 583.5 275.9 583.5 561.5v6490.6c0 285.6-246.1 519.1-583.5 519.1H13016c-337.3 0-669.8-233.5-669.8-519.1v-4120.5h-366.8v3.6 73.4 987.5 239.2 844.4 1865.5 68.1 325c0 312.1 283.5 573.5 641.2 573.5h2336.8 538 89.1 3751.2 4007.4 174.7 2576.1c357.7 0 687.5-261.4 687.5-573.5v-949.2-52.8-531.8-2050.6-3516.3c0-312.1-329.8-578.2-687.5-578.2"/></clipPath><linearGradient x1="0" y1="0" x2="1" y2="0" gradientTransform="matrix(-16144.1,-14153,-14153,16144.1,32744.4,25573.8)" spreadMethod="pad" id="AV" xlink:href="#CD"><stop offset="0" stop-color="#4f52ff"/><stop offset="1" stop-color="#4042e2"/></linearGradient><clipPath id="AW"><path d="M25726.3 10061.2h-7738v2796.3c0 70.7-57.3 128-128 128h-627.4v7.3h-1871.8v25.6l-839.4-20.3-.4-5.3h-2175.1v4120.5c0 285.6 332.5 519.1 669.8 519.1h12710.3c337.4 0 583.5-233.5 583.5-519.1v-6490.6c0-285.6-246.1-561.5-583.5-561.5"/></clipPath><linearGradient x1="0" y1="0" x2="1" y2="0" gradientTransform="matrix(-16144.1,-14153,-14153,16144.1,32744.4,25573.8)" spreadMethod="pad" id="AX" xlink:href="#CD"><stop offset="0" stop-color="#5f69fe"/><stop offset="1" stop-color="#535de8"/></linearGradient><clipPath id="AY"><path d="M31670.7 8594.1H26860V15065h974 2583.8c72.1 0 136-40.8 158.2-109.3l729.5-2250 155.6-479.9 95-1646c-13.5 3.5-27.6 5.3-42.1 5.3h-426.9c-24.4 0-47.6-5.2-68.5-14.7-54.7-16.9-98-50.2-98-107.2v-44.5h0v-584.1c0-91.9 74.6-166.4 166.5-166.4h426.9c34.4 0 66.5 10.5 93 28.4l63.7-1102.5m-4522.6 6111.3c-18.4 0-33.3-15-33.3-33.4v-3851.1c0-18.4 14.9-33.3 33.3-33.3 18.5 0 33.4 14.9 33.4 33.3V14672c0 18.4-14.9 33.4-33.4 33.4"/></clipPath><linearGradient x1="0" y1="0" x2="1" y2="0" gradientTransform="matrix(4202.58,7354.51,7354.51,-4202.58,26868.9,7635.8)" spreadMethod="pad" id="AZ" xlink:href="#CD"><stop offset="0" stop-color="#ff928e"/><stop offset="1" stop-color="#fe7062"/></linearGradient><clipPath id="Aa"><path d="M31697.3 9585.7c-47.6 31.3-105.5 48.2-171.9 46.9l-3707.7-71.4-16.4-1053.5 3704.4-91c135.8 0 253.3 65.5 253.3 157.3v892.5c0 44.9-14.1 87.9-61.7 119.2z"/></clipPath><linearGradient x1="0" y1="0" x2="1" y2="0" gradientTransform="matrix(5347.56,-134.65,-134.65,-5347.56,34466.5,8949.4)" spreadMethod="pad" id="Ab" xlink:href="#CD"><stop offset="0" stop-color="#09005d"/><stop offset="1" stop-color="#1a0f91"/></linearGradient><clipPath id="Ac"><path d="M30770.2 12415.5l-535 2122.1c-18.7 73.8-85.1 134.4-161.1 134.4h-2092.3c-45 0-88-27.2-119.3-59.4s-48.2-80.3-46.9-125.2l50.2-1699c2.3-79.7 60.9-147.7 139.6-160.4l2577.1-416.9c55.3-8.9 111.3 10.3 149.1 51.6s52.3 98.5 38.6 152.8z"/></clipPath><linearGradient x1="27815.5" y1="13440.5" x2="30775.22" y2="13440.5" spreadMethod="pad" id="Ad" xlink:href="#CD"><stop offset="0" stop-color="#09005d"/><stop offset="1" stop-color="#1a0f91"/></linearGradient><clipPath id="Ae"><path d="M30663.3 14688.5l-27.3-4.5c-46.3-7.6-87.2-34.5-112.6-74s-33-87.8-20.8-133.1l583.2-2168.6c22.5-83.8 105.8-136.2 191.1-120.2l184.2 34.5z"/></clipPath><linearGradient x1="30496.9" y1="13436.9" x2="31461.066" y2="13436.9" spreadMethod="pad" id="Af" xlink:href="#CD"><stop offset="0" stop-color="#09005d"/><stop offset="1" stop-color="#1a0f91"/></linearGradient><clipPath id="Ag"><path d="M28824.8 11842.6c0-86.8-70.4-157.2-157.2-157.2h-654.9c-86.8 0-157.2 70.4-157.2 157.2v78.6c0 86.8 70.4 157.2 157.2 157.2h654.9c86.8 0 157.2-70.4 157.2-157.2z"/></clipPath><linearGradient x1="27855.5" y1="11881.9" x2="28824.829" y2="11881.9" spreadMethod="pad" id="Ah" xlink:href="#CD"><stop offset="0" stop-color="#e1473d"/><stop offset="1" stop-color="#e9605a"/></linearGradient><clipPath id="Ai"><path d="M27107.9 16975.8c-55.8 4.1-126.6-13.2-167.6-51.3s-80.3-89.5-80.3-145.4V15065h2169.7s-116.6 1779.1-1921.8 1910.8z"/></clipPath><linearGradient x1="0" y1="0" x2="1" y2="0" gradientTransform="matrix(-6031.94,-3113.26,-3113.26,6031.94,31485.9,17804.8)" spreadMethod="pad" id="Aj" xlink:href="#CD"><stop offset="0" stop-color="#4f52ff"/><stop offset="1" stop-color="#4042e2"/></linearGradient><clipPath id="Ak"><path d="M30770.3 8477.9c0-931.1-754.8-1685.9-1685.9-1685.9s-1686 754.8-1686 1685.9c0 931.2 754.9 1686 1686 1686s1685.9-754.8 1685.9-1686z"/></clipPath><linearGradient x1="27398.4" y1="8477.9" x2="30770.29" y2="8477.9" spreadMethod="pad" id="Al" xlink:href="#CD"><stop offset="0" stop-color="#09005d"/><stop offset="1" stop-color="#1a0f91"/></linearGradient><clipPath id="Am"><path d="M29712.3 8477.9c0-346.7-281.1-627.9-627.9-627.9s-627.9 281.2-627.9 627.9c0 346.8 281.1 627.9 627.9 627.9s627.9-281.1 627.9-627.9z"/></clipPath><linearGradient x1="0" y1="0" x2="1" y2="0" gradientTransform="matrix(-1713.82,-2808.04,-2808.04,1713.82,29703.2,9491.8)" spreadMethod="pad" id="An" xlink:href="#CD"><stop offset="0" stop-color="#09005d"/><stop offset="1" stop-color="#1a0f91"/></linearGradient><clipPath id="Ao"><path d="M20375.8 8477.9c0-931.1-754.8-1685.9-1685.9-1685.9s-1686 754.8-1686 1685.9c0 931.2 754.9 1686 1686 1686s1685.9-754.8 1685.9-1686z"/></clipPath><linearGradient x1="17003.9" y1="8477.9" x2="20375.79" y2="8477.9" spreadMethod="pad" id="Ap" xlink:href="#CD"><stop offset="0" stop-color="#09005d"/><stop offset="1" stop-color="#1a0f91"/></linearGradient><clipPath id="Aq"><path d="M19317.8 8477.9c0-346.7-281.1-627.9-627.9-627.9s-627.9 281.2-627.9 627.9c0 346.8 281.1 627.9 627.9 627.9s627.9-281.1 627.9-627.9z"/></clipPath><linearGradient x1="0" y1="0" x2="1" y2="0" gradientTransform="matrix(-1713.82,-2808.04,-2808.04,1713.82,19308.7,9491.8)" spreadMethod="pad" id="Ar" xlink:href="#CD"><stop offset="0" stop-color="#09005d"/><stop offset="1" stop-color="#1a0f91"/></linearGradient><clipPath id="As"><path d="M16519 8477.9c0-931.1-754.8-1685.9-1685.9-1685.9s-1685.9 754.8-1685.9 1685.9c0 931.2 754.8 1686 1685.9 1686s1685.9-754.8 1685.9-1686z"/></clipPath><linearGradient x1="13147.2" y1="8477.9" x2="16519.09" y2="8477.9" spreadMethod="pad" id="At" xlink:href="#CD"><stop offset="0" stop-color="#09005d"/><stop offset="1" stop-color="#1a0f91"/></linearGradient><clipPath id="Au"><path d="M16202.3 8477.9c0-756.1-613-1369.1-1369.2-1369.1s-1369.2 613-1369.2 1369.1c0 756.2 613 1369.2 1369.2 1369.2s1369.2-613 1369.2-1369.2z"/></clipPath><linearGradient x1="0" y1="0" x2="1" y2="0" gradientTransform="matrix(-6612.86,-4516.09,-4516.09,6612.86,18787.3,11178.3)" spreadMethod="pad" id="Av" xlink:href="#CD"><stop offset="0" stop-color="#ff928e"/><stop offset="1" stop-color="#fe7062"/></linearGradient><clipPath id="Aw"><path d="M15461 8477.9c0-346.7-281.1-627.9-627.9-627.9s-627.9 281.2-627.9 627.9c0 346.8 281.1 627.9 627.9 627.9s627.9-281.1 627.9-627.9z"/></clipPath><linearGradient x1="0" y1="0" x2="1" y2="0" gradientTransform="matrix(-1713.82,-2808.03,-2808.03,1713.82,15451.9,9491.8)" spreadMethod="pad" id="Ax" xlink:href="#CD"><stop offset="0" stop-color="#09005d"/><stop offset="1" stop-color="#1a0f91"/></linearGradient><clipPath id="Ay"><path d="M31514 9668.2h-426.9c-91.9 0-166.5 74.5-166.5 166.4v584.1h0v-503c0-91.8 112.1-195.1 203.9-195.1h136.7v864.5h-136.7c-34.8 0-72.5-4.3-105.9-14.7 20.9 9.5 44.1 14.7 68.5 14.7h426.9c14.5 0 28.6-1.8 42.1-5.3 71.5-18.7 124.3-83.7 124.3-161.1v-584.1c0-57.4-29.1-108.1-73.4-138-26.5-17.9-58.6-28.4-93-28.4"/></clipPath><linearGradient x1="0" y1="0" x2="1" y2="0" gradientTransform="matrix(538.212,1286.46,1286.46,-538.212,31069.8,9575.3)" spreadMethod="pad" id="Az" xlink:href="#CD"><stop offset="0" stop-color="#e1473d"/><stop offset="1" stop-color="#e9605a"/></linearGradient><clipPath id="BA"><path d="M30920.6 10418.7v44.5c0 57 43.3 90.3 98 107.2-57.7-26.1-98-84.2-98-151.7"/></clipPath><clipPath id="BB"><path d="M30920.6 10418.7h98v151.699h-98z"/></clipPath><linearGradient x1="0" y1="0" x2="1" y2="0" gradientTransform="matrix(4202.58,7354.51,7354.51,-4202.58,26868.9,7635.8)" spreadMethod="pad" id="BC" xlink:href="#CD"><stop offset="0" stop-color="#ffe9e8"/><stop offset="1" stop-color="#ffe2e0"/></linearGradient><clipPath id="BD"><path d="M31261.2 9720.6h-136.7c-91.8 0-203.9 103.3-203.9 195.1v503c0 67.5 40.3 125.6 98 151.7 33.4 10.4 71.1 14.7 105.9 14.7h136.7v-864.5"/></clipPath><linearGradient x1="0" y1="0" x2="1" y2="0" gradientTransform="matrix(538.212,1286.46,1286.46,-538.212,31069.8,9575.3)" spreadMethod="pad" id="BE" xlink:href="#CD"><stop offset="0" stop-color="#f9dad8"/><stop offset="1" stop-color="#fbdfde"/></linearGradient><clipPath id="BF"><path d="M27148.1 10787.6c-18.4 0-33.3 14.9-33.3 33.3V14672c0 18.4 14.9 33.4 33.3 33.4 18.5 0 33.4-15 33.4-33.4v-3851.1c0-18.4-14.9-33.3-33.4-33.3"/></clipPath><linearGradient x1="0" y1="0" x2="1" y2="0" gradientTransform="matrix(4202.58,7354.51,7354.51,-4202.58,26868.9,7635.8)" spreadMethod="pad" id="BG" xlink:href="#CD"><stop offset="0" stop-color="#ffdedd"/><stop offset="1" stop-color="#ffd4d0"/></linearGradient><clipPath id="BH"><path d="M7712.12 4870c.38 8.5-.13 17.1-2.68 25.8-150.52 511.8-952.39 837.1-952.39 837.1l-321.36-16.8c-195.62-448.1-178.73-724.1-152.14-847.2.73-3.5 1.98-6.8 3.06-10.1 264.22-21.1 808.71-38.4 1425.51 11.2z"/></clipPath><linearGradient x1="0" y1="0" x2="1" y2="0" gradientTransform="matrix(1448.5,-13.4738,-28.2514,-1142.66,6273.7,5290.3)" spreadMethod="pad" id="BI" xlink:href="#CD"><stop offset="0" stop-color="#09005d"/><stop offset="1" stop-color="#1a0f91"/></linearGradient><clipPath id="BJ"><path d="M6286.61 4858.8c13.27-41.2 50.88-73.5 99.82-82.1 374.96-65.9 974.64-21.2 1226.54 2.3 55.58 5.2 97.1 45.3 99.15 91-616.8-49.6-1161.29-32.3-1425.51-11.2z"/></clipPath><linearGradient x1="0" y1="0" x2="1" y2="0" gradientTransform="matrix(-5350.42,-3215.11,-4035.02,4195.55,9933.29,6604.6)" spreadMethod="pad" id="BK" xlink:href="#CD"><stop offset="0" stop-color="#4f52ff"/><stop offset="1" stop-color="#4042e2"/></linearGradient><clipPath id="BL"><path d="M8588.97 4954.5c-285.13 8-432.62 41.6-508.86 72.8-.18-28.4-.02-57.2.9-87.1.99-32 24.63-57.5 53.73-57.3l1565.61 10.1c49.97.3 79.17 58.3 57.51 104.1-205.28-17-728.1-54.9-1168.89-42.6z"/></clipPath><linearGradient x1="10117.9" y1="5488.2" x2="6787.1" y2="4048.43" spreadMethod="pad" id="BM" xlink:href="#CD"><stop offset="0" stop-color="#4f52ff"/><stop offset="1" stop-color="#4042e2"/></linearGradient><clipPath id="BN"><path d="M9757.86 4997.1c-1.89 4-3.51 8.1-6.19 11.8-138.27 193.2-490.42 577.9-1186.29 744.8l-333.82 10.5s-148.65-258.4-151.45-736.9c76.24-31.2 223.73-64.8 508.86-72.8 440.79-12.3 963.61 25.6 1168.89 42.6z"/></clipPath><linearGradient x1="0" y1="0" x2="1" y2="0" gradientTransform="matrix(3494.18,1152.13,1152.13,-3494.18,8203.27,5119.7)" spreadMethod="pad" id="BO" xlink:href="#CD"><stop offset="0" stop-color="#09005d"/><stop offset="1" stop-color="#1a0f91"/></linearGradient><clipPath id="BP"><path d="M8003.29 13485.5s703.97-3928 689.42-7778.5c-.26-70.3-511.99-163.3-523.06-98.5-112.89 662.1-861.3 4971.7-1230.43 5577.2 0 0-149.93-3814.5-72.3-5537.9 1.93-42.8-476.62-110.9-483.76-61.2-80.41 560.3-621.54 4458.1-601.87 6860.7 1.11 135.5 126.64 1264.2 126.64 1264.2 795.27-138 1401.23-378.7 2095.36-226z"/></clipPath><linearGradient x1="3102.56" y1="19084.9" x2="9902.72" y2="3210.7" spreadMethod="pad" id="BQ" xlink:href="#CD"><stop offset="0" stop-color="#09005d"/><stop offset="1" stop-color="#1a0f91"/></linearGradient><clipPath id="BR"><path d="M6835.59 12855.7c-328.24 0-653.96 29.7-880.49 120.5-31.73 12.5-119.51 29.6-119.51 64 1.14 250.4 64.24 1246.4-348.63 2553.4-15.02 48.4-27.79 97.6-37.96 147.6-464.18 1023.4-513.57 1742.4 0 2048.1 30.64 7.8 61.81 13.9 93.48 17.9l650.49 83.8s.76 0 2.27.4c36.24 8 517.46 110.9 1056.45 150.2l68.87 4.7c107.07 6.7 215.77 10.6 323.04 10.6 437.67 0 852.15-65.8 1041.77-280 0 0 2.97-7.4 8.88-21.2l-1464.41 16.1c-289.67 0-545.41-1.8-752.84-4-315.5-3.5-569.07-260.2-569.07-575.7v-2401.6c0-298.6 242.24-539.7 539.54-539.7l10.45.1 1697.44 32.3c-90.42-426.9-134.33-842.5-85.55-1195.9 8.68-64.6-43.81-133.8-108.42-143.3-204.26-30.4-667.46-88.3-1125.8-88.3"/></clipPath><linearGradient x1="0" y1="0" x2="1" y2="0" gradientTransform="matrix(-900.556,5803.57,5803.57,900.556,9221.98,8608.1)" spreadMethod="pad" id="BS" xlink:href="#CD"><stop offset="0" stop-color="#4f52ff"/><stop offset="1" stop-color="#4042e2"/></linearGradient><clipPath id="BT"><path d="M6478.96 18873.5l-104.66-1069.2s601.52-181.2 1039.01 127.5l-307.55 971.8z"/></clipPath><linearGradient x1="0" y1="0" x2="1" y2="0" gradientTransform="matrix(-850.064,-3673.49,-3673.49,850.064,7121.29,19159.6)" spreadMethod="pad" id="BU" xlink:href="#CD"><stop offset="0" stop-color="#febbba"/><stop offset="1" stop-color="#ff928e"/></linearGradient><clipPath id="BV"><path d="M7499.98 19784.7c7.14-18.5 37.37-1332.7 37.37-1332.7l-750.74-1.3L6572.9 19692s807.45 403.4 927.08 92.7z"/></clipPath><linearGradient x1="0" y1="0" x2="1" y2="0" gradientTransform="matrix(-690.289,-2403.72,-2403.72,690.289,7226.93,19670.2)" spreadMethod="pad" id="BW" xlink:href="#CD"><stop offset="0" stop-color="#febbba"/><stop offset="1" stop-color="#ff928e"/></linearGradient><clipPath id="BX"><path d="M6830.21 19536.8c-24.39-22.9-36.8-55.6-33.72-88.9l60.44-652.7c.92-9.9 3.07-19.4 6.7-28.7 19.99-51.1 96.71-208.5 256.49-121.1 136.19 74.4 262.38 141 364.86 144.2 59.84 1.8 109.22-46.3 110.37-106.2 2.39-123.3 2.15-372.2-29.12-593.4-7.83-55.4-57.46-95.1-113.32-91.6-147.41 9.4-434.73 36.2-665.49 110.3-37.91 12.2-65.89 44.1-73.12 83.2-31.81 172.3-122.92 654.9-169.6 787.1-43.38 122.9-211.97 165.5-290.72 178.8-29.89 5.1-56.11 22.2-72.75 47.5-49.88 76.1-121.8 240.3 75.97 364.7 49.18 30.9 63.34 96.8 33.43 146.6-53.6 89.2-92.14 226.9 64.21 344.7 158.29 119.2 311.63 63.1 405.54 2.9 41.55-26.6 97.51-25 134.2 8 16.33 14.7 38.72 23.1 69.14 15.4 154.59-39.1 127.86 176.7 207.29 244 111.33 94.4 231.77-43 276.73-144.3 24.94-56.2 42.58-115.6 69.93-170.7 42.84-86.3 109.52-160.7 190.7-212.6 12.45-8 25.84-16.1 32.66-29.2 9.68-18.6 2.7-42.5-11.35-58.1-14.04-15.6-33.76-24.7-53.08-32.9-158.92-67.6-323.64-74.7-489.36-19.5-144.11 48.1-289.83-64.4-357.03-127.5z"/></clipPath><linearGradient x1="0" y1="0" x2="1" y2="0" gradientTransform="matrix(1557.75,599.929,599.929,-1557.75,6324.35,18809.2)" spreadMethod="pad" id="BY" xlink:href="#CD"><stop offset="0" stop-color="#09005d"/><stop offset="1" stop-color="#1a0f91"/></linearGradient><clipPath id="BZ"><path d="M6603.56 18748.9s13.36 387.5-142.33 446.9c-155.69 59.3-345.13-33.2-240.2-289.9 130.51-319.3 382.53-157 382.53-157z"/></clipPath><linearGradient x1="0" y1="0" x2="1" y2="0" gradientTransform="matrix(673.795,1571.89,1571.89,-673.795,5756.07,17420.1)" spreadMethod="pad" id="Ba" xlink:href="#CD"><stop offset="0" stop-color="#febbba"/><stop offset="1" stop-color="#ff928e"/></linearGradient><clipPath id="Bb"><path d="M7739.64 19813.7c-231.95 1218.9-1963.23 709.9-1565.98-379.1 599.5 177.5 1313.26 496.1 1565.98 379.1z"/></clipPath><linearGradient x1="0" y1="0" x2="1" y2="0" gradientTransform="matrix(433.62,-1734.49,-1734.49,-433.62,6578.13,21130.3)" spreadMethod="pad" id="Bc" xlink:href="#CD"><stop offset="0" stop-color="#4f52ff"/><stop offset="1" stop-color="#4042e2"/></linearGradient><clipPath id="Bd"><path d="M6736.29 19636.8l1005.76-276.2c25.54-7 52.96-.1 72.05 18.3 138.9 133.6 301.12 196.1 481.79 202.2 22.86.7 27.97 32.5 6.62 40.7l-597.99 229.7-2.04.7c-311.62 70.3-637.51-29.8-968.49-190.5-11.04-5.4-9.53-21.7 2.3-24.9z"/></clipPath><linearGradient x1="0" y1="0" x2="1" y2="0" gradientTransform="matrix(-300.199,-2401.6,-2401.6,300.199,7731.7,21309.1)" spreadMethod="pad" id="Be" xlink:href="#CD"><stop offset="0" stop-color="#4f52ff"/><stop offset="1" stop-color="#4042e2"/></linearGradient><clipPath id="Bf"><path d="M6447.47 14250.8c-297.3 0-539.54 241.1-539.54 539.7v2401.6c0 315.5 253.57 572.2 569.07 575.7l752.84 4 1464.41-16.1 1014.21-33.2 670.64-35.3 177.7-11.5 418-31.8c218.1-18.4 387.7-197.1 395.6-415.8l10-156.4 4.1-62.6 93.6-1455.6 27.4-425.5 14.2-221.6c1.2-32.1-.4-63.7-4.6-94.5-35.8-263.5-259.2-469.8-534.3-475.1l-1597.53-30.3-1227.91-23.3-1697.44-32.3c-3.49-.1-6.98-.1-10.45-.1m1914.57 3511.5v-1893.7c0-74.8 56.41-137.6 130.83-145.7l650.06-70.1a145.07 145.07 0 0 1 16.04-.9c83.84 0 152.15 71.5 145.84 157.4L9162.69 17743l-800.65 19.3"/></clipPath><linearGradient x1="0" y1="0" x2="1" y2="0" gradientTransform="matrix(-5203.21,-3151.95,-3151.95,5203.21,12404.2,18282.1)" spreadMethod="pad" id="Bg" xlink:href="#CD"><stop offset="0" stop-color="#ff928e"/><stop offset="1" stop-color="#fe7062"/></linearGradient><clipPath id="Bh"><path d="M9158.97 15651.9a145.07 145.07 0 0 0-16.04.9l-650.06 70.1c-74.42 8.1-130.83 70.9-130.83 145.7v1893.7l800.65-19.3 142.12-1933.7c6.31-85.9-62-157.4-145.84-157.4"/></clipPath><linearGradient x1="0" y1="0" x2="1" y2="0" gradientTransform="matrix(-5203.21,-3151.95,-3151.95,5203.21,12404.2,18282.1)" spreadMethod="pad" id="Bi" xlink:href="#CD"><stop offset="0" stop-color="#ffbab8"/><stop offset="1" stop-color="#fea59c"/></linearGradient><clipPath id="Bj"><path d="M8676.42 14000.5c117.2 163.3 29.21 272.2 29.21 272.2-591.52 211.1-1439.2 194.5-2081.87 1001.1-261.07-138.4-50.16-220.7-336.28-636.9 1346-866.2 2388.94-636.4 2388.94-636.4z"/></clipPath><linearGradient x1="5770.11" y1="15504" x2="9916.18" y2="12982.13" spreadMethod="pad" id="Bk" xlink:href="#CD"><stop offset="0" stop-color="#febbba"/><stop offset="1" stop-color="#ff928e"/></linearGradient><clipPath id="Bl"><path d="M5941.81 17032.7c8.34-969.9 313.74-1709 1768.73-2461.6l-297.23-461.1c-708.36 65.9-1954.94 1011.5-2331.21 1713.4-92.79 173.1-221.06 717.9-202.42 1101.7 38.36 789.8 851.86 1511.2 1062.13 107.6z"/></clipPath><linearGradient x1="0" y1="0" x2="1" y2="0" gradientTransform="matrix(5053.1,3502.14,3502.14,-5053.1,8435.38,17384.9)" spreadMethod="pad" id="Bm" xlink:href="#CD"><stop offset="0" stop-color="#4f52ff"/><stop offset="1" stop-color="#4042e2"/></linearGradient><clipPath id="Bn"><path d="M8663.52 14005c355.28-131.2 598.86 82 757.11 312.5-331.87 38.1-540.51 42.7-813.69-12.3z"/></clipPath><linearGradient x1="6273.82" y1="13956.9" x2="9908.5" y2="14230.493" spreadMethod="pad" id="Bo" xlink:href="#CD"><stop offset="0" stop-color="#febbba"/><stop offset="1" stop-color="#ff928e"/></linearGradient><clipPath id="Bp"><path d="M11558.9 16476.2c-90.3 22.1-293.1 296.5-314.6 196.3-21.6-100.3 39.5-227.4 30.5-270-9.1-42.6-77.2-281.4-23.1-381.6 39.1-72.3 115.7-299.7 155.3-420.6 13.1-40.2 23.8-93.2 65.9-88.5 41.9 4.7 74.5 61.2 78.4 103.3 1.6 16.9 97.9 839 7.6 861.1z"/></clipPath><linearGradient x1="0" y1="0" x2="1" y2="0" gradientTransform="matrix(2370.33,-7110.42,-7110.42,-2370.33,10920.1,17719.4)" spreadMethod="pad" id="Bq" xlink:href="#CD"><stop offset="0" stop-color="#febbba"/><stop offset="1" stop-color="#ff928e"/></linearGradient><clipPath id="Br"><path d="M12089.1 5702.3h-993.6v7177.5c0 62.4 50.6 113 112.9 113h771 366.8 2175.1l-.5-7.3h-2431.7V5702.3m5143.8 7283.2h-1871.8v7.3h1871.8v-7.3"/></clipPath><linearGradient x1="22784" y1="9347.5" x2="16980.43" y2="9347.5" spreadMethod="pad" id="Bs" xlink:href="#CD"><stop offset="0" stop-color="#ff928e"/><stop offset="1" stop-color="#fe7062"/></linearGradient><clipPath id="Bt"><path d="M17988.3 5699.5h-5899.2v7286h2431.7l-148.1-2014.6c-6.6-90 65-164.9 152.9-164.9 5.6 0 11.2.3 16.8.9l681.5 73.5c78 8.4 137.2 74.3 137.2 152.8v1952.3h1871.8 627.4c70.7 0 128-57.3 128-128v-7158"/></clipPath><linearGradient x1="18303.9" y1="14077.1" x2="8769.52" y2="252.3" spreadMethod="pad" id="Bu" xlink:href="#CD"><stop offset="0" stop-color="#ff928e"/><stop offset="1" stop-color="#fe7062"/></linearGradient><clipPath id="Bv"><path d="M15361.1 12992.8h-839.8l.4 5.3 839.4 20.3v-25.6"/></clipPath><linearGradient x1="0" y1="0" x2="1" y2="0" gradientTransform="matrix(-16144.1,-14153,-14153,16144.1,32744.4,25573.8)" spreadMethod="pad" id="Bw" xlink:href="#CD"><stop offset="0" stop-color="#9aa0fe"/><stop offset="1" stop-color="#9299f0"/></linearGradient><clipPath id="Bx"><path d="M15361.1 12985.5h-840.3l.5 7.3h839.8v-7.3"/></clipPath><linearGradient x1="22784" y1="9347.5" x2="16980.43" y2="9347.5" spreadMethod="pad" id="By" xlink:href="#CD"><stop offset="0" stop-color="#ffbab8"/><stop offset="1" stop-color="#fea59c"/></linearGradient><clipPath id="Bz"><path d="M14525.6 10806c-87.9 0-159.5 74.9-152.9 164.9l148.1 2014.6h840.3v-1952.3c0-78.5-59.2-144.4-137.2-152.8l-681.5-73.5c-5.6-.6-11.2-.9-16.8-.9"/></clipPath><linearGradient x1="18303.9" y1="14077.1" x2="8769.52" y2="252.3" spreadMethod="pad" id="CA" xlink:href="#CD"><stop offset="0" stop-color="#ffbab8"/><stop offset="1" stop-color="#fea59c"/></linearGradient><path id="CB" d="M30770.3 8477.9c0-931.1-754.8-1685.9-1685.9-1685.9s-1686 754.8-1686 1685.9c0 931.2 754.9 1686 1686 1686s1685.9-754.8 1685.9-1686"/><path id="CC" d="M30453.6 8477.9c0-756.1-613-1369.1-1369.2-1369.1s-1369.2 613-1369.2 1369.1c0 756.2 613 1369.2 1369.2 1369.2s1369.2-613 1369.2-1369.2"/><linearGradient id="CD" gradientUnits="userSpaceOnUse"/></defs><g transform="matrix(.133333 0 0 -.133333 0 4946.6667)"><path d="M0 0h37100v37100H0z" class="B"/><g clip-path="url(#A)"><path d="M18829 4738.3c-1663.9 0-2935 233.1-3441.9 336.2-657.8 133.8-1535 312.3-2508.4 625h5109.6v4021.1h8105.6c357.7 0 687.5 266.1 687.5 578.2v3516.3l78.6 81v-5302h2071.8c-553.4-578-1076.1-953.8-1490.6-1251.6-2935-2109.7-6189.6-2604.2-8612.2-2604.2m-7733.5 1666.4c-1261.97 605.4-2558.16 1483.8-3670.19 2793.8-2930.85 3452.7-3307.75 8403.7-2023.51 12672 357.89-909.7 871.96-1854.6 1585.74-2821.6 70.64-341.3 159.09-677.7 264.15-1007.3-538.99-39.3-1020.21-142.2-1056.45-150.2-1.51-.4-2.27-.4-2.27-.4l-650.49-83.8c-31.67-4-62.84-10.1-93.48-17.9-513.57-305.7-464.18-1024.7 0-2048.1 10.17-50 22.94-99.2 37.96-147.6 412.87-1307 349.77-2303 348.63-2553.4 0-34.4 87.78-51.5 119.51-64 226.53-90.8 552.25-120.5 880.49-120.5 458.34 0 921.54 57.9 1125.8 88.3 64.61 9.5 117.1 78.7 108.42 143.3-48.78 353.4-4.87 769 85.55 1195.9l1227.91 23.3c509.56-578.8 1083.73-1108.4 1712.23-1578.4V6404.7m20210 6301l-729.5 2250c-22.2 68.5-86.1 109.3-158.2 109.3H27834c186.1 259 360.1 525.9 521.5 800.7h3613v531.8H30616l749.4 25.2c221.4 7.4 396.3 333.9 388.3 724.7l-107.6 2954.4c-5.7 278.3-127.9 505.7-285 529.1-417 62.1-867.4 101.5-1304.9 126.1l-.8 13.4-318.3 9.8c5.1 337.4-6.9 671.6-35.3 1001.9l1619.4 30.8c143.5 2.7 267.4 81.3 334.7 196.4 774.4-3153.1 589.6-6521.1-350.4-9303.6m-372.7 11518.5c-596.3 38.3-1229.8 54.9-1778.6 60.9-155.6 434.2-340.4 856.3-552.7 1264.7l1678.4 40.8c242.5-443.8 459.8-900.1 652.9-1366.4m-2858.5 2227.1c-183.3 280.4-380.1 552.6-589.6 815.8l-33.1 658.3c-4.7 168.6-107 306.5-238.5 320.7-213.9 23-438.4 40.9-664.5 54.8-1470.1 1431.5-3365.7 2491.2-5507.3 2997.9.8 17.4 1.2 34.7 1.2 52.1l-.1 4.2c.7 33.8-1 54.1-1.8 62-16.4 291.2-140.9 552.1-333.5 745.2 2374-382.8 4725.5-1348.9 6623.5-2941.9 364.7-306 707.4-630.5 1027.8-970.2-161.9-37.9-284.1-219.2-284.1-436.8v-1362.1m-17379.6 2588.9l-126.5 618c1480.3 1182.4 3456.1 2248.2 5976.6 2578.3 587.7 76.9 1191.9 115.8 1803.9 115.8 304.3 0 610.5-9.6 917.9-28.9-248.7-158.1-434-409-506.2-705.7l-33.8 1.5c-185.2 8.1-369.1 12.1-552.5 12.1-2850.6 0-5471.8-972.2-7479.4-2591.1" fill="url(#B)"/></g><path d="M8479.5 17756.4c66.77 1761.4 204.28 8766-1578.34 13204.9-127.29 317-602.84 395.8-748.61 88.9-845.72-1780-3686.42-7290.2 2012.55-13414.8 109.68-117.9 308.35-39 314.4 121" fill="#91b3fa"/><path d="M6836.86 22104.9c-325.53 1467.4-470.43 2697-529.38 3625.5-119.84 1887 73.59 2945.9 81.9 2990 9.22 49.2 52.16 83.5 100.39 83.5 6.27 0 12.63-.6 19.02-1.8 55.53-10.3 92.08-63.9 81.72-119.4-5.75-30.7-402.99-2274.1 329.11-5970.8-33.6-200.1-61.33-403.1-82.76-607" fill="#abc5fb"/><path d="M7912.3 27256l-150.16 768.7c596.22 2069.6 1498.49 3627.4 2022.48 4421.9 46.95 71.2 118.43 103.4 189.23 103.4 112.85 0 224.05-81.8 231.15-217.6 28.6-539.6 117-1409.2 363.2-2674.2-906.1-723.7-1626.51-1491.1-2172.99-2160.4-175.38-52.9-338.38-135.4-482.91-241.8" fill="#c8d8fc"/><g clip-path="url(#C)"><path d="M8395.21 27497.8c546.48 669.3 1266.89 1436.7 2172.99 2160.4l126.5-618c-562.2-453.3-1076.78-957.8-1534.27-1505.3-99.96 19.6-203.18 29.9-308.71 29.9-158.43 0-311.69-23.4-456.51-67" fill="url(#D)"/></g><path d="M7167.29 23804c-4.3 661.5 38.01 1299.5 115.61 1909.8 8.51-50.6 19.62-101.2 33.4-152.2 39.59-181.8 105.73-417.2 215.23-712.5-140.02-339.8-261.93-688.7-364.24-1045.1m276.9 2907.2c89.76 457.2 197.66 896 317.95 1313.5l150.16-768.7c-194.03-142.9-354.84-329.1-468.11-544.8" fill="#b6cbfb"/><path d="M29728.6 20490.9c-257.6-5867.9-5601-10399.4-11934.9-10121.4-6333.8 278.1-11259.59 5260.4-11001.99 11128.3S12392.7 31897.2 18726.6 31619.2c6333.8-278.1 11259.6-5260.4 11002-11128.3" class="E"/><path d="M11979.4 15140.9c-172.6 131.9-339.6 269.3-501.3 412.6l-93.6 1455.6 594.9-2.7v-1865.5m-599 1930.8l-10 156.4c-7.9 218.7-177.5 397.4-395.6 415.8l-418 31.8c-121.4 488.1-212.8 983.7-278.1 1482.3-77.6 591.6-116.1 1188.2-117.8 1785l.4 77.1 268.7-2 2600.4-11 1927-3.3V17973h-2336.8c-357.7 0-641.2-261.4-641.2-573.5v-325l-599-2.8m-1001.3 615.5l-670.64 35.3c-571.59 999.4-937.65 2119.2-1044.71 3308.7l1316.8-9.8-.62-78.4c2.75-604.6 42.77-1209 122.47-1808.3 65.1-487.1 157.2-970.7 276.7-1447.5m13138.7 285.8h-174.7l-71.4 1752.6c-5.7 248.9-127.9 452.4-285 473.3-417 55.5-867.4 90.8-1304.9 112.8l-.8 12-493.6 12.4 5.4 606.9-.2 60.8 2239.5 4.1 2333.1 10.8.3-75.7c-.4-196-4.8-392.1-13.2-588l-466.1 10.6v-3.9l-815.8 10.7c-208.8 0-393.1-2-542.5-4.6-227.4-3.9-410.1-296.1-410.1-655.3V17973m-4182.1 0h-3751.2l-9.6 124.6c-37.3 500.2-63.6 1001.3-79.5 1502.7v1402.6l2735.9-4.7 2822.7 5.3v-60.5l-4.6-607.9-761.2 9.4c-208.7 0-393-2.1-542.4-4.6-227.4-4-410.1-296.2-410.1-655.4V17973m7178 2323.7c-201 16.8-404.1 30.2-604.8 40.6 9.4 201.8 14.7 403.7 15.8 605.7l-.7 76.4 108.6.5 580.8 4.7c-22.3-245.6-55.7-488.8-99.7-727.9m-17852.88 767.7c-19.72 229.9-29.8 462.6-29.8 697.3 0 311.8 17.79 620 52.4 923.1 51.38-25.7 108.63-40 167.61-40.1h0 .48-.48v8.7c139.06 0 260.04 70 328.06 185.9 558.55 951.7 871.11 1659.7 1045.31 2164.7l16.2 20.5c1.9 2.4 3.7 4.9 5.4 7.4l377.1-3.1c-55.1-166.4-106.6-334-154.7-502.5-163-582.2-284.4-1176-364.9-1775.1-74.2-555.9-114.39-1116.2-122.3-1677l-1320.38-9.8m17956.68 6.6l-584.9 4.7-109.3.5c-3.7 241.2-13.3 482.3-29 723.1l752.3 14.3.1-51.9c0-232.7-9.8-462.8-29.2-690.7m-16455.7 4.5c6.3 552.6 44.3 1104.7 115.8 1652.6 77 591.6 190.8 1178.8 347.8 1754.6 50.1 182.7 104.2 364.4 162.5 544.8l265.7-2.2 2392.5-10.9 1511.3-2.8v-3919.8l-1927-3.3-2600.4-11-268.2-2m15602.9 1.4l-2332.6 10.8-2240 4.1c-9.1 1309.8-88.3 2620.8-262.7 3919.2l2087 4.3 2121.9 10.6 102.1-331.1-1324.7 15.7c-243.6 0-458.8-1.5-633.2-3.4-265.4-2.9-478.6-218.8-478.6-484.2v-2019.7c0-251.2 203.7-454 453.7-454l8.8.1 2472.6 47c14.6-239.6 23.1-479.4 25.7-719.4m-4710.8 15.2l-2822.6 5.3-2735.9-4.7v1298.2c12.5 437.3 31.8 874.4 59.7 1311.1 27.6 436.7 62.7 873 106.9 1308.3l2569.3-4.7 2580.8 5.2c52.7-421.3 95.6-843.8 130.4-1266.9 73.5-881.9 109.3-1766.8 111.4-2651.8m-5558.5 3468.4v450.1l47.3-.1-47.3-450m10613.8 103.6l-720.7 26.7-105.5 335.8 126 .6 548.5 4.8c53.5-121.3 104-243.8 151.7-367.9m-172.4 414.3l-527.8 4.6-145 .8c-63.1 188-130.7 374.5-202.9 559.3l588.3 14.3c103.2-188.9 199.2-382.2 287.4-579m-15672.4.2c2.2 14 1.9 28.4-1 42.2 29 89.8 53.3 172.4 73.7 248.1 5.2-7.3 11.3-14.1 18.3-20.3 22.2-19.4 49.7-29 77-29 32.5 0 64.7 13.5 87.8 39.8l90.6 101.7c43.3 47.8 39.6 121.6-8.2 164.9-22.4 20.2-50.4 30.2-78.3 30.2-31.8 0-63.5-13-86.6-38.5l-52.5-58.4c37.8 137.2 56.9 279.2 56.9 422.5l-.1 5.7c.9 46.5-1.3 74.3-2.5 85.2-12.2 215.2-67.3 418.3-156.8 601.5 706.6 942.6 1610.7 1743.1 2655.9 2348.1-354.7-376.6-676.7-784-965.9-1213.1-375.7-558-696.4-1151.6-964.1-1768.7-22.8 22.7-52.6 34-82.5 34-29.5 0-59-11.1-81.8-33.4l-98.9-98.5c-45.4-45.8-45.1-119.7.7-165.1 22.8-22.5 52.5-33.8 82.2-33.8 22.3 0 44.6 6.3 63.9 19-90.6-224.4-174.4-451.6-251.5-681.1l-376.3-3m541.5 4.3c118.7 361.7 254 718 406.6 1066.7 11.6-3.7 23.7-5.6 35.8-5.6 27.8 0 55.8 9.9 78.1 30.1l102 90.8c48.4 42.5 53.2 116.3 10.6 164.7-21.4 24.4-50.8 37.7-80.8 39.5 209 439.9 446.6 866.3 714 1273.9 300.3 457.8 638 891.5 1013.5 1290.3l49.6-.6 1698.7-11 123.4-.9v-3922.1l-1511.3-2.8-2392.5-11-247.7-2m991 1758c-25.4 0-51-8.3-72.4-25.2l-108.8-87.2c-50.1-40.6-57.8-114.1-17.2-164.2 23.1-28.5 56.8-43.2 90.8-43.2 25.8 0 51.8 8.5 73.4 26l106.7 85.5c50.5 40 59.1 113.4 19.1 164-23.1 29.1-57.2 44.3-91.6 44.3m464.7 349.5c-23.5 0-47.2-7-67.8-21.8l-113.3-81.9c-52-38.1-63.3-111.1-25.2-163.1 22.9-31.3 58.3-47.8 94.3-47.8 23.9 0 48.1 7.3 68.9 22.5l111.1 80.4c52.4 37.5 64.6 110.4 27 162.9-22.7 31.8-58.6 48.8-95 48.8m480.4 326.7c-21.7 0-43.7-6.1-63.3-18.7l-116.8-76.4c-53.7-35.6-68.4-108.1-32.8-161.8 22.5-33.9 59.6-52.3 97.4-52.3 22.2 0 44.5 6.3 64.4 19.4l114.6 75c54.1 35.1 69.6 107.3 34.6 161.5-22.3 34.5-59.8 53.3-98.1 53.3m494.4 304.1c-20.1 0-40.4-5.2-58.9-16l-119.8-70.9c-55.4-33.2-73.3-104.9-40.2-160.2 21.9-36.5 60.6-56.8 100.3-56.8 20.4 0 41.1 5.4 59.9 16.6l117.7 69.7c55.6 32.5 74.4 104 41.8 159.7-21.7 37.2-60.7 57.9-100.8 57.9m506.8 281.4c-18.3 0-37-4.4-54.4-13.5l-122.6-65.4c-56.7-30.7-77.9-101.5-47.2-158.2 21.1-39.1 61.3-61.3 102.8-61.3 18.7 0 37.8 4.5 55.4 14l120.5 64.3c57 30.1 78.9 100.7 48.9 157.7-20.9 39.7-61.4 62.4-103.4 62.4m518 258.6c-16.7 0-33.7-3.6-49.7-11.2l-125.2-59.9c-58-28.1-82.2-98-54.1-156 20.2-41.6 61.8-65.8 105.1-65.8 17.1 0 34.5 3.7 50.9 11.7l123 58.9c58.3 27.5 83.2 97.1 55.7 155.4-20 42.2-62 66.9-105.7 66.9m530.3 236.2c-15.1 0-30.4-3-45.2-9.2l-128.2-54.5c-59.2-25.6-86.4-94.3-60.9-153.5 19.1-44.1 62.1-70.5 107.3-70.5 15.4 0 31.1 3.2 46.2 9.6l125.9 53.6c59.4 25 87.4 93.4 62.5 152.8-18.7 44.7-62 71.7-107.6 71.7m10327.7-3512.9l-2102.8 10.5-2099 4.3c-66.5 482.7-146.2 963.8-240.5 1442.3-91.7 460.3-197.7 917.9-322.9 1370.4-98.3 353.9-208 705-334.7 1050 26.5 14.6 50.4 33.5 70.8 56.2l1538.5 4.4 701.4 5c427.8-247 832.1-526.8 1208.9-835.7 107.6-145.4 211-293.8 310.3-444.9 107.8-164 210.8-331 308.9-500.7v-1200.9c0-230.3 146.1-416.3 325.3-416.3 2.1 0 4.2 0 6.3.1l431.9 10.5c70.4-183.5 136.2-368.6 197.6-555.2m-3596.1 2831.1c-150.3 0-283.1-1.2-390.7-2.7-163.7-2.3-295.3-172.7-295.3-382.2v-1594.1c0-198.3 125.7-358.3 280-358.3h5.4l2347.1 57.1c159.5 3.9 285.5 174.2 279.7 378.1l-77.5 1541.2c-4.1 145.2-92.1 263.8-205.3 276-200.6 21.6-412.1 38-624.4 50.3l-1.1 15.4-531.5 12.9v-5.2c-285.7 8.7-556.6 11.5-786.4 11.5m-722.3-2816.1l-2569.5 5.2-2560.1-4.7c48.6 464.6 107.7 928.2 179.3 1389.7 72 461.7 156.7 921.5 259.6 1377.2 79.1 349.3 168.6 696.4 274 1038.5l84 22.2c44.1 11.5 75.7 46.8 84.7 88.5l1678.5-3.2 1445.5 4.2c51.7-59.1 127.4-95.2 207.5-95.3h0 .3-.3v6.3c22.6 0 44.5 2.5 65.5 7.4 122-343.7 227.1-693.5 320.8-1046.1 119.6-451.5 220.2-908 306.5-1367.1 88.8-471.9 162.6-946.5 223.7-1422.8m-5305.4.2v3918.5l693.7-1.4c-1.4-13.9-.4-28.3 3.5-42.7 13.8-50 58.1-83.5 107.2-85.8-104.4-330.3-194.2-665.1-274.3-1001.8-108.5-456.8-198.6-917.7-275.9-1380.5-77.7-467-142.6-936-196.8-1406.2l-57.4-.1m385.7 3897.2c-11.7 0-23.5-1.7-35.2-5.4l-132.7-42.6c-61.3-20-94.7-85.9-74.7-147.2 16.1-49.2 61.8-80.5 110.9-80.5 12 0 24.3 1.9 36.3 5.8l130.3 41.8c61.5 19.3 95.6 84.9 76.3 146.4-15.7 49.8-61.6 81.7-111.2 81.7m8277-1535.1c-71.5 115.9-145.2 230.4-221.2 343.5l-72.8 106.8c100.3-90.6 198.3-183.3 294-278.1v-172.2m-11016.3 1630.5l46.7 48.3 43.8 44.6c1087.3 577.3 2314 947.4 3620.7 1054.1-61.9-113.1-119-228.7-172.7-345.8-98.2-213.8-184.3-432.8-263.1-654.2l-32-92-110.8-29.7c-8.3-2.3-16.2-5.5-23.6-9.3l-755.4-1.5v240.7c0 89.1-72.2 161.3-161.3 161.3h-376.7v-404.6l-123.4-1-1692.2-10.9m9063.5 6l-576.7 4-1480.3 4.3c153.8 264 281.3 501.9 386.9 715.2 586.2-187.9 1145.2-431.3 1670.1-723.5m-2587.6 9.8l-1386.4 4-1128.4-2.2c15.3 24.5 21.6 54.7 15.4 85.2-11.2 55.4-60 93.5-114.3 93.5-7.7 0-15.5-.7-23.4-2.3l-136.6-28.8c-63-13.7-103-75.9-89.3-138.9.7-3.2 1.5-6.3 2.5-9.3l-223.8-.5c-16.8 23.3-41.6 39.5-69.3 45.7l20.7 61.2c75.7 220.6 158.8 438.8 253.7 651.5 57.1 128.2 118.3 254.5 185.2 377.6 236.1 17.5 474.4 26.4 715.2 26.4 487.6 0 965.9-36.6 1432.5-107 128.9-292 305.2-641.8 546.3-1056.1m-2042 279.5c-5.4 0-10.9-.4-16.4-1.2l-138.3-20.7c-63.6-9.9-107.2-69.7-97.2-133.4 9.1-57.6 58.7-98.6 115.2-98.6 6 0 12.1.4 18.3 1.4l134.8 20.1c63.8 9.1 108.2 68.2 99.2 132-8.3 58.3-58.7 100.4-115.6 100.4m576.9 62.3c-2.8 0-5.6-.1-8.5-.3l-139.6-11.4c-64.2-5.8-111.5-62.5-105.8-126.8 5.5-60.6 56.5-106.2 116.2-106.2 3.5 0 7 .1 10.6.5l135.6 11c64.3 4.7 112.6 60.6 108 124.9-4.6 61.5-56.4 108.3-116.5 108.3m1021.6 1.6c-60.3 0-111.9-46.4-116.6-107.7-5-64.3 43.1-120.5 107.4-125.4l134.5-12.1c4-.4 8-.6 12-.6 59.1 0 109.9 44.7 116 104.8 6.6 64.2-40.1 121.5-104.2 128.1l-140.3 12.6a131.56 131.56 0 0 1-8.8.3m-486.6 18.4c-31.4 0-63-.2-94.8-.7-64.5-.8-116-53.8-115.1-118.3.8-63.9 52.9-115.1 116.7-115.1h1.6l91.6.6 44-.1h.8c64.1 0 116.3 51.7 116.7 115.9.5 64.5-51.5 117.1-115.9 117.5l-45.6.2" fill="#8ba2f5"/><path d="M15584.5 17973h-89.1v1627.3c15.9-501.4 42.2-1002.5 79.5-1502.7l9.6-124.6m5519.5 2360.7l-54.6 1.4 4.6 607.9v60.5l138.6.3.2-60.8-5.4-606.9-83.4 1.5v-3.9m88.1 758.1l-138.2.3c-2.1 885-37.9 1769.9-111.4 2651.8-34.8 423.1-77.7 845.6-130.4 1266.9l117.3.2c174.4-1298.4 253.6-2609.4 262.7-3919.2m-5696.7 1299.1v2169.6l47.3 450 119.3-.2c-44.2-435.3-79.3-871.6-106.9-1308.3-27.9-436.7-47.2-873.8-59.7-1311.1m5422 2708.4l-116.6.2c-61.1 476.3-134.9 950.9-223.7 1422.8-86.3 459.1-186.9 915.6-306.5 1367.1-93.7 352.6-198.8 702.4-320.8 1046.1 24.6 5.7 47.9 14.7 69.5 26.5 126.7-345 236.4-696.1 334.7-1050 125.2-452.5 231.2-910.1 322.9-1370.4 94.3-478.5 174-959.6 240.5-1442.3m-5364.6.5c54.2 470.2 119.1 939.2 196.8 1406.2 77.3 462.8 167.4 923.7 275.9 1380.5 80.1 336.7 169.9 671.5 274.3 1001.8 1.8-.1 3.6-.1 5.4-.1 10.2 0 20.5 1.3 30.9 4.2l48 13c-105.4-342.1-194.9-689.2-274-1038.5-102.9-455.7-187.6-915.5-259.6-1377.2-71.6-461.5-130.7-925.1-179.3-1389.7l-118.4-.2" class="C"/><path d="M16853 30239.3c51.2 93.6 105.7 185.4 164.1 275 129.3 196.8 277.9 384.8 462.9 535.2 92.5 74.5 194.4 139.4 306.1 183.4 88.8 35.5 183.7 57.1 279.5 62l146-4.9c94.7-11.1 187.3-37.8 274.2-76.1 101.5-44.9 195.4-104.7 282.2-172.7 5.3-24.4 11.3-50.1 18.1-77.2l-28.5 24.1c-88.9 73.4-185.4 138-289.8 185.5-104.4 46.9-216.8 77.7-331.1 80.7l-23.5.4c-106.3 0-212-22.8-310.4-63.3-106-43-203.4-106.3-292.1-179.5-177.6-147.5-321.4-333-446.4-528.1-49.7-78-96.4-157.8-140.6-239l-70.7-5.5" class="D"/><path d="M16385.2 29147.3l32 92c78.8 221.4 164.9 440.4 263.1 654.2 53.7 117.1 110.8 232.7 172.7 345.8l70.7 5.5c-66.9-123.1-128.1-249.4-185.2-377.6-94.9-212.7-178-430.9-253.7-651.5l-20.7-61.2c-8.3 1.9-16.8 2.8-25.4 2.8-9.7 0-19.6-1.2-29.5-3.7l-24-6.3" class="C"/><path d="M11979.4 14057.3l-11.1 16.5c-161.2 239.9-312.2 486.2-453.2 738.1 4.2 30.8 5.8 62.4 4.6 94.5l-14.2 221.6c145.5-284 303.3-561.6 473.9-831.5v-239.2" class="D"/><path d="M10556.8 17675.7l-177.7 11.5c-119.5 476.8-211.6 960.4-276.7 1447.5-79.7 599.3-119.72 1203.7-122.47 1808.3l.62 78.4 180.75-1.3-.4-77.1c1.7-596.8 40.2-1193.4 117.8-1785 65.3-498.6 156.7-994.2 278.1-1482.3m15352.1 2661.6l-44.9 2.3-.9 12-110.8 3.4c8.4 195.9 12.8 392 13.2 588l-.3 75.7 158.8.7.7-76.4c-1.1-202-6.4-403.9-15.8-605.7m-15927.7 736.9c7.91 560.8 48.1 1121.1 122.3 1677 80.5 599.1 201.9 1192.9 364.9 1775.1 48.1 168.5 99.6 336.1 154.7 502.5l164.8-1.3c-58.3-180.4-112.4-362.1-162.5-544.8-157-575.8-270.8-1163-347.8-1754.6-71.5-547.9-109.5-1100-115.8-1652.6l-180.6-1.3m15942.1 2l-158.6.7c-2.6 240-11.1 479.8-25.7 719.4l155.3 3c15.7-240.8 25.3-481.9 29-723.1m-534.8 3614.6l-148.1 4-102.1 331.1 144.7.7 105.5-335.8" class="C"/><path d="M12938.6 29022.3l11.7 12.4 9.7-.1-21.4-12.3" class="D"/><path d="M10640.7 25081.6c77.1 229.5 160.9 456.7 251.5 681.1 6.8 4.4 13.1 9.6 19 15.6l96.7 96.2c46 45.2 46.7 119.1 1.6 165.1l-.9.9c267.7 617.1 588.4 1210.7 964.1 1768.7 289.2 429.1 611.2 836.5 965.9 1213.1l21.4 12.3 125.7-1.3c-375.5-398.8-713.2-832.5-1013.5-1290.3-267.4-407.6-505-834-714-1273.9-2.3.1-4.6.2-7 .2-27.4 0-54.8-9.6-76.9-29.1l-104.3-92.7c-47.8-43.2-51.7-117-8.5-164.9 14.3-15.9 32-26.9 51-33-152.6-348.7-287.9-705-406.6-1066.7l-165.2-1.3" class="C"/><path d="M23864.1 27912.1c-106 95.8-214.4 189-325.2 279.8-216.6 293.1-449.9 573.9-699.7 839.3l121.1.8c329.5-349.2 630.8-724.9 903.8-1119.9" class="D"/><path d="M25264 25083.8l-144.8.7c-61.4 186.6-127.2 371.7-197.6 555.2l139.5 3.4c72.2-184.8 139.8-371.3 202.9-559.3m-1105.9 2162.5c-98.1 169.7-201.1 336.7-308.9 500.7-99.3 151.1-202.7 299.5-310.3 444.9 110.8-90.8 219.2-184 325.2-279.8l72.8-106.8c76-113.1 149.7-227.6 221.2-343.5v-215.5" class="C"/><path d="M13003.8 29090.8l115.7 118c426.7 427.2 898.3 810.6 1410.2 1131.2 512.3 319.5 1065.5 573.9 1643.6 747.5 577.7 174.3 1180.8 265.3 1784.5 265.9 257.3-.5 514.5-17.4 769.6-50.1.3-4.9.7-10 1.2-15.3.7-14.8 1.7-29.4 3-44.1-172.6 22.8-346.1 38.2-520 46.1a822.32 822.32 0 0 1-73.6 5.4c-10.2.4-20.4.5-30.6.5-13.9 0-27.9-.3-41.8-1l-107.8 1.3c-598.1-2.5-1194.8-94.4-1766.3-268.8-571.7-174.3-1116.7-431.9-1621.4-751.5-486.4-310.2-932.4-681.2-1337.8-1090.7l-172.2-93.8-56.3-.6m9898 2.6l-122.6.8-48.5 50.1c-417.7 427-879 813.3-1383.6 1134.4-159.6 100.9-323.2 195.5-490.4 283.3l22.3 62.7c172.2-88.8 340.8-184.8 505.1-287.5 511.4-320.9 982.2-704.7 1408.3-1132l109.4-111.8" class="D"/><path d="M13060.1 29091.4l172.2 93.8-43.8-44.6-46.7-48.3h-6.5l-75.2-.9" class="C"/><path d="M18211.6 31290l-146 4.9c13.9.7 27.9 1 41.8 1 10.2 0 20.4-.1 30.6-.5a822.32 822.32 0 0 0 73.6-5.4" fill="#b9c9f9"/><path d="M18231.3 25005.6l-2569.3 4.7 9.2 89.7 2560.1 4.7 2569.5-5.2 11.3-88.7-2580.8-5.2m-2688.6 4.9l-47.3.1v89.1l57.4.1-10.1-89.3m5386.7.5l-12 88.3 2099-4.3 2102.8-10.5 19.1-58.6-2121.9-10.6-2087-4.3m-5972 .6l-1511.3 2.8-2392.5 10.9-265.7 2.2 18 55.4 247.7 2 2392.5 11 1511.3 2.8v-87.1" class="C"/><path d="M25957.5 25032l-20.7 46.4 1864.7-16.2c3.9-.1 7-3.2 7-7.1s-3.1-6.9-7-7l-1844-16.1" class="D"/><path d="M25283 25026.6l-19 57.2 145-.8 527.8-4.6 20.7-46.4-548.5-4.8-126-.6m-14659.9 2.2l-377.1 3.1c9.7 14.4 15.8 30.3 18.4 46.7l376.3 3-17.6-52.8" class="C"/><path d="M15662 25010.3l-119.3.2 10.1 89.3 118.4.2-9.2-89.7m5150.1.5l-11.3 88.7 116.6-.2 12-88.3-117.3-.2m4326.2 15.1l-19.1 58.6 144.8-.7 19-57.2-144.7-.7m-14350.4 1.6l-164.8 1.3 17.6 52.8 165.2 1.3-18-55.4" class="G"/><path d="M18231.3 29012.9l-1678.5 3.2c3.7 17.3 3.6 35.7-1.2 53.9-3.7 14.4-10 27.5-18.2 38.8l223.8.5c15.1-49.5 60.9-82.7 111.5-82.7 8.2 0 16.6.9 24.9 2.8l133.6 28.1c32.6 6.6 59.3 26.3 75.7 52.4l1128.4 2.2 1386.4-4 28.4-48.6a269.59 269.59 0 0 1 30.7-42.4l-1445.5-4.2m-2042.2 3.9l-693.7 1.4v88.6l755.4 1.5c-34.8-18.4-57.8-53-61.7-91.5m-1231.7 4l-123.4.9-1698.7 11-49.6.6 56.1 59 1692.2 10.9 123.4 1v-83.4" class="C"/><path d="M22330 29027.6l-124.7 70.7 573.9-4.1 60-63-509.2-3.6" class="D"/><path d="M20090.1 29018.2c12.3 13.8 23.4 28.9 33 45.2l25.2 43.2 1480.3-4.3 576.7-4 124.7-70.7-701.4-5-1538.5-4.4" class="C"/><path d="M22960.3 29032l-58.5 61.4 425.4-3 1698.7-20.9c3.9-.1 7-3.2 6.9-7.1-.1-3.8-3.2-6.9-6.9-7l-1698.7-20.8-366.9-2.6m-10010 2.7l-1513.6 17.3c-5.8.1-10.4 4.9-10.3 10.7.1 5.6 4.6 10.2 10.3 10.2l1567.1 17.9-53.5-56.1" class="D"/><path d="M22839.2 29031.2l-60 63 122.6-.8 58.5-61.4-121.1-.8m-9879.2 3.4l-9.7.1 53.5 56.1 56.3.6-100.1-56.8" fill="#b9c9f9"/><path d="M13085.7 29033.3l-125.7 1.3 100.1 56.8 75.2.9h6.5l-56.1-59" class="G"/><path d="M18231.3 20998.2l-2735.9 4.7v89.8l2735.9 4.7 2822.6-5.3.1-88.6-2822.7-5.3m2961.3 5.6l-.5 88 2240-4.1 2332.6-10.8.5-58.2-2333.1-10.8-2239.5-4.1m-6235.2 0l-1927 3.3-2600.4 11-268.7 2 .5 55.4 268.2 2 2600.4 11 1927 3.3v-88" class="C"/><path d="M26613.4 21024.6l4.1 46.4 2015.5-16.2c3.9 0 7-3.2 6.9-7.1 0-3.8-3.1-6.9-6.9-6.9l-2019.6-16.2" class="D"/><path d="M25924 21019.4l-.7 56.8 109.3-.5 584.9-4.7-4.1-46.4-689.4-5.2" class="C"/><path d="M8663.75 21031.2l-834.19 6.1c-5.78.1-10.42 4.8-10.39 10.6.04 5.7 4.68 10.3 10.39 10.4l831.26 6.1 2.93-33.2" class="D"/><path d="M9980.55 21021.4l-1316.8 9.8-2.93 33.2 1320.38 9.8-.65-52.8" class="C"/><path d="M21054 21003.5l-.1 88.6 138.2-.3.5-88-138.6-.3m4711.2 15.2l-.5 58.2 158.6-.7.7-56.8-158.8-.7m-15603.9 1.4l-180.75 1.3.65 52.8 180.6 1.3-.5-55.4" class="G"/><path d="M11979.4 17006.4l-594.9 2.7-4.1 62.6 599 2.8v-68.1" class="C"/><path d="M27560.1 17031.3c.4 6.1.7 12.2.9 18.3l149.1-1.3v-15.7l-150-1.3m-15580.7-4034.9H11779c-20.3 0-36.7 16.4-36.7 36.7s16.4 36.7 36.7 36.7h200.4v-73.4" class="D"/><path d="M18594.4 29235.8c-63.8 0-115.9 51.2-116.7 115.1-.9 64.5 50.6 117.5 115.1 118.3l94.8.7 45.6-.2c64.4-.4 116.4-53 115.9-117.5-.4-64.2-52.6-115.9-116.7-115.9h-.8l-44 .1c-30.4 0-60.9-.2-91.6-.6h-1.6m717.1-30.1c-4 0-8 .2-12 .6l-134.5 12.1c-64.3 4.9-112.4 61.1-107.4 125.4s61.4 112.1 125.4 107.4l140.3-12.6c64.1-6.6 110.8-63.9 104.2-128.1-6.1-60.1-56.9-104.8-116-104.8m-1296.6-.5c-59.7 0-110.7 45.6-116.2 106.2-5.7 64.3 41.6 121 105.8 126.8l139.6 11.4c63.7 4.6 120.2-43.7 125-108 4.6-64.3-43.7-120.2-108-124.9l-135.6-11c-3.6-.4-7.1-.5-10.6-.5m-575.9-71.5c-56.5 0-106.1 41-115.2 98.6-10 63.7 33.6 123.5 97.2 133.4l138.3 20.7c63.3 9 122.9-35.3 132-99.2 9-63.8-35.4-122.9-99.2-132l-134.8-20.1c-6.2-1-12.3-1.4-18.3-1.4m2444.9-19.8c-8.4 0-17 .9-25.5 2.9l-131.7 27.3c-63.3 12.1-104.7 73.3-92.6 136.6 12.2 63.4 73.1 104.9 136.7 92.7l138.5-28.8c62.9-14.1 102.6-76.5 88.5-139.4-12.2-54.3-60.4-91.3-113.9-91.3m-3015.2-87.3c-53.7 0-102.1 37.4-114 92-13.7 63 26.3 125.2 89.3 138.9l136.6 28.8c63 12.8 124.9-28 137.7-91.2 12.9-63.2-28-124.8-91.1-137.6l-133.6-28.1c-8.3-1.9-16.7-2.8-24.9-2.8m-563.5-138.4c-51.3 0-98.3 34.1-112.6 85.9-16.9 62.2 19.7 126.5 81.8 143.5l134.8 36c62.4 16.1 126.2-21.2 142.4-83.6 16.3-62.4-21.1-126.1-83.5-142.4l-132-35.2c-10.4-2.9-20.7-4.2-30.9-4.2m-555.8-167c-49.1 0-94.8 31.3-110.9 80.5-20 61.3 13.4 127.2 74.7 147.2l132.7 42.6c61.6 19.4 127-14.8 146.4-76.3 19.3-61.5-14.8-127.1-76.3-146.4l-130.3-41.8c-12-3.9-24.3-5.8-36.3-5.8m-547.1-193.3c-47.2 0-91.5 28.7-109.2 75.3-22.9 60.3 7.4 127.7 67.7 150.6l130.5 48.7c60.5 22.2 127.6-8.8 149.9-69.4 22.2-60.5-8.9-127.6-69.4-149.8l-128.2-47.8c-13.6-5.2-27.6-7.6-41.3-7.6m-537.8-218.2c-45.2 0-88.2 26.4-107.3 70.5-25.5 59.2 1.7 127.9 60.9 153.5l128.2 54.5c59.6 25 127.9-3.1 152.8-62.5s-3.1-127.8-62.5-152.8l-125.9-53.6c-15.1-6.4-30.8-9.6-46.2-9.6m-527.2-241.4c-43.3 0-84.9 24.2-105.1 65.8-28.1 58-3.9 127.9 54.1 156l125.2 59.9c58.2 27.5 127.8 2.6 155.4-55.7 27.5-58.3 2.6-127.9-55.7-155.4l-123-58.9c-16.4-8-33.8-11.7-50.9-11.7m-515.5-264.1c-41.5 0-81.7 22.2-102.8 61.3-30.7 56.7-9.5 127.5 47.2 158.2l122.6 65.4c57.2 30 127.7 8.2 157.8-48.9 30-57 8.1-127.6-48.9-157.7l-120.5-64.3c-17.6-9.5-36.7-14-55.4-14m-504-286.9c-39.7 0-78.4 20.3-100.3 56.8-33.1 55.3-15.2 127 40.2 160.2l119.8 70.9c55.7 32.5 127.2 13.8 159.7-41.9 32.6-55.7 13.8-127.2-41.8-159.7l-117.7-69.7c-18.8-11.2-39.5-16.6-59.9-16.6m-491.3-309.4c-37.8 0-74.9 18.4-97.4 52.3-35.6 53.7-20.9 126.2 32.8 161.8l116.8 76.4c54.1 35 126.4 19.5 161.4-34.6 35-54.2 19.5-126.4-34.6-161.5l-114.6-75c-19.9-13.1-42.2-19.4-64.4-19.4m-476.9-332.1c-36 0-71.4 16.5-94.3 47.8-38.1 52-26.8 125 25.2 163.1l113.3 81.9c52.5 37.6 125.4 25.4 162.8-27 37.6-52.5 25.4-125.4-27-162.9l-111.1-80.4c-20.8-15.2-45-22.5-68.9-22.5m-460.3-354.7c-34 0-67.7 14.7-90.8 43.2-40.6 50.1-32.9 123.6 17.2 164.2l108.8 87.2c50.5 40 124 31.4 164-19.1 40-50.6 31.4-124-19.1-164l-106.7-85.5c-21.6-17.5-47.6-26-73.4-26m-441-377.1c-31.9 0-63.7 13-86.8 38.6-43.2 47.9-39.3 121.7 8.5 164.9l104.3 92.7c48.3 42.6 122.1 37.9 164.7-10.6 42.6-48.4 37.8-122.2-10.6-164.7l-102-90.8c-22.3-20.2-50.3-30.1-78.1-30.1m-420-400.3c-29.7 0-59.4 11.3-82.2 33.8-45.8 45.4-46.1 119.3-.7 165.1l98.9 98.5c46.1 45.2 119.9 44.5 165.2-1.5 45.1-46 44.4-119.9-1.6-165.1l-96.7-96.2c-22.8-23.1-52.9-34.6-82.9-34.6m-395.9-424.1c-27.3 0-54.8 9.6-77 29-48.4 42.5-53.3 116.3-10.7 164.8l93 104.3c43.3 47.9 117.1 51.5 164.9 8.3 47.8-43.3 51.5-117.1 8.2-164.9l-90.6-101.7c-23.1-26.3-55.3-39.8-87.8-39.8m-368.3-448.1c-24.8 0-49.8 7.9-70.94 24.1-51.18 39.3-60.82 112.6-21.61 163.7l86.05 110.3c40.1 50.6 113.6 58.9 164 18.9 50.5-40.1 59-113.5 19-164l-83.8-107.3c-23-30-57.6-45.7-92.7-45.7m-336.59-472.3c-22.04 0-44.33 6.2-64.13 19.3-53.85 35.4-68.73 107.8-33.26 161.7l78.15 116.3c36.38 53.2 109.05 66.7 162.27 30.3 53.2-36.4 66.82-109 30.36-162.2l-75.79-112.9c-22.44-34-59.65-52.5-97.6-52.5m-300.03-496.1c-19.06 0-38.41 4.6-56.28 14.5-56.46 31.1-76.98 102.1-45.84 158.6l68.92 122.2c32.29 55.8 103.72 74.9 159.49 42.7 55.83-32.2 74.99-103.7 42.73-159.5l-66.7-118.1c-21.28-38.6-61.18-60.4-102.32-60.4m-258.44-519.5c-15.86 0-31.99 3.3-47.43 10.2-58.89 26.2-85.37 95.2-59.15 154.1l58.56 128.1c27.43 58.3 97.01 83.4 155.32 56 58.37-27.4 83.45-97 56.02-155.3l-56.6-123.8c-19.36-43.4-62.03-69.3-106.72-69.3m-210.95-540.5c-12.34 0-24.92 1.9-37.26 6.1-61.11 20.6-93.94 86.8-73.36 147.9l46.48 132.9c21.96 60.6 88.89 91.9 149.55 69.9 60.62-21.9 91.92-88.9 69.94-149.5l-44.72-127.8c-16.42-48.8-61.87-79.5-110.63-79.5" class="B"/><g clip-path="url(#E)"><path d="M10345 26074.8H7354.1c56.93 785.4 708.62 1400.3 1495.37 1400.3 793.48 0 1447.53-614.4 1495.53-1400.3" fill="url(#F)"/></g><g clip-path="url(#G)"><path d="M8851.03 22739.1c-102.78.1-198.28 54.6-249.81 142.4-800.86 1364.2-1093.23 2221.7-1197.48 2701l-.53 1.8c-28.71 106.1-45.17 208.6-50.3 315l-.1-.2c-4.06 49.9-4.77 83-4.4 106.1h2.86l1.28 45.7 1.55 23.9h1497.62H10345l.4-8.3-4.2-2.6c.7-6.3-6.9-30.5-6.9-75.3v-.5l9-6.3c0-143.7-11.4-286-51.6-423l-.7-2.8c-107.9-479-401.85-1331.6-1189.29-2673.2-52-88.6-157.98-143.6-250.68-143.6v-.1" fill="url(#H)"/></g><path d="M8851.51 22644.7h-.48.48" class="F"/><path d="M7282.9 25713.8c-10.14 60.2-16.62 120.4-19.59 181.5-9.34 114.9-2.2 163.3-1.36 168.4l4.07 24.8c16.81 224 79.39 434.6 178.17 622.7l-27.73-145c-61.38-153.2-98.91-318.6-108.05-491.4h-2.18s-7.64-53.4 2.24-169.8l-25.57-191.2" fill="#e9f0fe"/><path d="M7918.1 27223.7l-5.8 32.3c144.53 106.4 307.53 188.9 482.91 241.8l-31.79-39.1c-162.04-53.9-312.1-133.9-445.32-235" fill="#f4f7fe"/><g clip-path="url(#I)"><path d="M8363.42 27458.7l31.79 39.1c144.82 43.6 298.08 67 456.51 67 105.53 0 208.75-10.3 308.71-29.9l-20.29-24.4c-93.45 17.7-189.85 26.9-288.42 26.9-170.62 0-334.83-27.7-488.3-78.7" fill="url(#J)"/></g><path d="M7531.53 24849.1c-109.5 295.3-175.64 530.7-215.23 712.5-13.78 51-24.89 101.6-33.4 152.2l25.57 191.2.47-5.4c5.85-99.3 21.08-196.1 44.81-289.5 36.74-175.7 99.33-405.1 205.11-695.3l-27.33-65.7m-115.07 1717.1l27.73 145c113.27 215.7 274.08 401.9 468.11 544.8l5.8-32.3c-221.7-168.4-396.59-395.2-501.64-657.5" fill="#f0f5fe"/><path d="M8683.42 22684.8c-65.66 32.9-121.72 84.5-159.59 149.1-504.6 859.5-809.12 1521.3-992.3 2015.2l27.33 65.7c180.42-495 486.41-1166.3 1003.66-2047.4 31.17-53.1 75.69-95.2 127.88-123.3l-6.98-59.3M10256 26638.3c-206 446.8-618.88 778.4-1115.86 872.2l20.29 24.4c493.54-96.7 907.27-420.8 1122.27-860.7l-26.7-35.9" fill="#e5eafd"/><path d="M8851.03 22644.7c-58.98.1-116.23 14.4-167.61 40.1l6.98 59.3c48.59-26.3 103.82-40.5 161.14-40.6h.16c118.81 0 228.89 60.3 289.03 162.7 511.39 871.3 815.88 1537.5 996.67 2031 7.1 5.8 13.6 12.4 19.4 20l67.6 86.8c-174.2-505-486.76-1213-1045.31-2164.7-68.02-115.9-189-185.9-328.06-185.9v-8.7m1412.37 2476.1c-4.4 21-14.5 41-30.2 57.2 48.6 154 83 286.1 107.4 397.9 36.9 132.4 56.6 271.9 56.6 416v1.5c.6 33.9-.6 56.8-1.6 69.4-9.2 204.7-58.3 399.1-139.6 575.5l26.7 35.9c89.5-183.2 144.6-386.3 156.8-601.5 1.2-10.9 3.4-38.7 2.5-85.2l.1-5.7c0-143.3-19.1-285.3-56.9-422.5l-40.5-45.9c-36.4-41.5-38.1-101.4-7.6-144.5-20.4-75.7-44.7-158.3-73.7-248.1" class="F"/><path d="M10137.4 24897.2c36.8 100.7 68.6 194.2 95.8 280.8 15.7-16.2 25.8-36.2 30.2-57.2l-39-116.8-67.6-86.8c-5.8-7.6-12.3-14.2-19.4-20m199.7 471.7c-30.5 43.1-28.8 103 7.6 144.5l40.5 45.9-6.9-24.4c-11.5-51.1-25.1-106.4-41.2-166" class="B"/><g clip-path="url(#K)"><path d="M10340.6 25575.9c44.3 203.5 55.2 339.6 56.6 417.5v-1.5c0-144.1-19.7-283.6-56.6-416m-2986.85 34.2c-23.73 93.4-38.96 190.2-44.81 289.5 6.37-72.2 19.41-168 44.81-289.5m3041.85 452.7c-.6 8-1.2 12-1.2 12h-49.4c-48 785.9-702.05 1400.3-1495.53 1400.3-786.75 0-1438.44-614.9-1495.37-1400.3h-45.69c9.14 172.8 46.67 338.2 108.05 491.4 105.05 262.3 279.94 489.1 501.64 657.5 133.22 101.1 283.28 181.1 445.32 235 153.47 51 317.68 78.7 488.3 78.7 98.57 0 194.97-9.2 288.42-26.9 496.98-93.8 909.86-425.4 1115.86-872.2 81.3-176.4 130.4-370.8 139.6-575.5" fill="url(#L)"/></g><g clip-path="url(#M)"><path d="M8851.7 22703.5h-.16c-57.32.1-112.55 14.3-161.14 40.6-52.19 28.1-96.71 70.2-127.88 123.3-517.25 881.1-823.24 1552.4-1003.66 2047.4-105.78 290.2-168.37 519.6-205.11 695.3-25.4 121.5-38.44 217.3-44.81 289.5l-.47 5.4c-9.88 116.4-2.24 169.8-2.24 169.8h2.18 45.69l-1.55-23.9-1.28-45.7h-2.86c-.37-23.1.34-56.2 4.4-106.1l.1.2c5.13-106.4 21.59-208.9 50.3-315l.53-1.8c104.25-479.3 396.62-1336.8 1197.48-2701 51.53-87.8 147.03-142.3 249.81-142.4v.1c92.7 0 198.68 55 250.68 143.6C9889.15 24224.4 10183.1 25077 10291 25556l.7 2.8c40.2 137 51.6 279.3 51.6 423l-9 6.3v.5c0 44.8 7.6 69 6.9 75.3l4.2 2.6-.4 8.3h49.4s.6-4 1.2-12c1-12.6 2.2-35.5 1.6-69.4-1.4-77.9-12.3-214-56.6-417.5-24.4-111.8-58.8-243.9-107.4-397.9-27.2-86.6-59-180.1-95.8-280.8-180.79-493.5-485.28-1159.7-996.67-2031-60.14-102.4-170.22-162.7-289.03-162.7" fill="url(#N)"/></g><path d="M9749.11 25996.9c0-492.9-399.54-892.4-892.4-892.4s-892.4 399.5-892.4 892.4 399.54 892.4 892.4 892.4 892.4-399.5 892.4-892.4" class="B"/><path d="M8856.71 26839.4c-464.58 0-842.54-377.9-842.54-842.5s377.96-842.5 842.54-842.5 842.54 377.9 842.54 842.5-377.96 842.5-842.54 842.5zm0-1784.8c-519.56 0-942.26 422.7-942.26 942.3s422.7 942.3 942.26 942.3 942.25-422.7 942.25-942.3-422.69-942.3-942.25-942.3" class="E"/><path d="M8010.18 26926c-4.21 0-8.39 1.8-11.36 5.2-5.38 6.3-4.66 15.7 1.61 21.1 250.7 215.3 570.99 333.9 901.89 333.9 8.26 0 14.96-6.7 14.96-14.9 0-8.3-6.7-15-14.96-15-323.76 0-637.13-116-882.41-326.7-2.82-2.4-6.28-3.6-9.73-3.6m-477.87-1039.7c-8.26 0-14.95 6.7-14.95 14.9 0 258.5 71.64 510.6 207.18 729.1 4.36 7 13.58 9.2 20.59 4.8 7.02-4.4 9.19-13.6 4.84-20.6-132.61-213.8-202.7-460.4-202.7-713.3 0-8.2-6.69-14.9-14.96-14.9" class="B"/><g clip-path="url(#O)"><path d="M20971.8 31418.6h-2177.2c41.5 571.7 515.9 1019.3 1088.6 1019.3 577.6 0 1053.7-447.2 1088.6-1019.3" fill="url(#P)"/></g><g clip-path="url(#Q)"><path d="M19884.3 28990.5c-74.8.1-144.3 39.7-181.9 103.6-582.9 993.1-795.7 1617.3-871.6 1966.2l-.4 1.3c-20.9 77.2-32.9 151.8-36.6 229.3l-.1-.1c-3 36.2-3.5 60.3-3.2 77.2h2.1l.9 33.2 1.1 17.4h1090.2 1087l.3-6-3.1-1.9c.5-4.6-5-22.2-5-54.8v-.3l6.6-4.6c0-104.7-8.3-208.3-37.6-308l-.5-2c-78.5-348.7-292.5-969.3-865.7-1945.9-37.9-64.5-115-104.5-182.5-104.5h0v-.1" fill="url(#R)"/></g><path d="M19884.6 28921.8h-.3.3" class="F"/><path d="M20707.1 32162.3l-42.4 6.8c-202.2 194.6-477.1 314.2-779.9 314.2-213.1 0-412.4-59.2-582.2-162.2l-36 2.3c179.3 114 391.5 179.8 618.2 179.8 320.5 0 612-130 822.3-340.9" class="B"/><g clip-path="url(#S)"><path d="M21041.3 31298.8l-32.7 7.7c.8 17.2 1.2 34.4 1.2 51.8v1.3c.4 24.4-.4 41-1.1 50.2-13.5 298-142.8 565.7-344 759.3l42.4-6.8c192.6-193.1 317.1-454 333.5-745.2.8-7.9 2.5-28.2 1.8-62l.1-4.2c0-17.4-.4-34.7-1.2-52.1m-2251.8 317.5l-29.1 1.4c72.2 296.7 257.5 547.6 506.2 705.7l36-2.3c-254.6-154.3-443.1-406.8-513.1-704.8" fill="url(#T)"/></g><path d="M20535.2 29821.8l-32.6 10.4c145.4 293.2 249.6 540.3 324 745.5l30.1-15.7c-74.1-203.9-177.5-449.2-321.5-740.2m-1421.8 336l-42 6.4c-151.2 342.6-237 605.7-285.3 799.8l46.2-41.4c51.5-191.4 137.6-443.4 281.1-764.8m1765.6 466.9l-30.2 15.5c58.2 167.5 95.7 304.9 119.8 415.2 22.4 80.4 36.1 164.5 40 251.1l32.7-7.7c-4.1-92.7-19.3-184.4-45.2-273.2-24.3-107.5-61.2-240.4-117.1-400.9m-2068 381.6l-23 19-20 15.9-.9 3.9c-18 66.7-29.7 132.3-35.5 198.8l34.4-4.6c5.7-54.3 15.3-107.3 28.4-159l16.6-74m-49.9 292.5l-33.7 4.5c-5 72.7-.4 103.8.2 107.3l2.9 18c4.9 64.7 15 127.8 29.9 189.1l29.1-1.4c-15-64-24.5-130-28.1-197.7h-1.6s-5.4-37.6 1.3-119.8" fill="#e5eafd"/><path d="M19884.3 28921.8c-80.1.1-155.8 36.2-207.5 95.3l55.5.1c42.6-33.7 96.1-52.6 152.4-52.6h.1c17.9 0 35.6 1.9 52.7 5.5l12.3-34.6c-21-4.9-42.9-7.4-65.5-7.4v-6.3m135 40.2l-12.6 34.2c11.3 6.4 22.2 13.7 32.4 21.9l51 .1c-20.4-22.7-44.3-41.6-70.8-56.2m129 144.6l-39.3.1c156.8 268.2 286.4 509.4 393.6 725.5l32.6-10.4c-105.6-213.3-233.1-451.2-386.9-715.2m-488.1 1.4l-42.5.1c-241.1 414.3-417.4 764.1-546.3 1056.1l42-6.4c129.8-290.9 306.4-638.7 546.8-1049.8" class="F"/><path d="M19949.8 28935.5l-12.3 34.6c24.4 5.2 47.7 14.1 69.2 26.1l12.6-34.2c-21.6-11.8-44.9-20.8-69.5-26.5" fill="#eef2fe"/><g fill="#ecf0fd"><path d="M18832.3 30922.6l-46.2 41.4c-6.8 27.1-12.8 52.8-18.1 77.2l20-15.9 23-19 21.3-83.7"/><path d="M20856.7 30562l-30.1 15.7 22.2 62.5 30.2-15.5-22.3-62.7m-2090.7 677.3l-34.4 4.6c-1.3 14.7-2.3 29.3-3 44.1-.5 5.3-.9 10.4-1.2 15.3l33.7-4.5.7-7.7c1-17.4 2.4-34.7 4.2-51.8"/></g><path d="M19676.8 29017.1a269.59 269.59 0 0 0-30.7 42.4l-28.4 48.6 42.5-.1 14.1-24.1c15.3-26.1 35.1-48.6 58-66.7l-55.5-.1m362.3 1c22.1 17.7 41.2 39.6 56.1 64.9l13.8 23.7 39.3-.1-25.2-43.2c-9.6-16.3-20.7-31.4-33-45.2l-51-.1" fill="#eef2fe"/><g clip-path="url(#U)"><path d="M20968.6 31055.4c32.3 148.4 40.2 247.5 41.2 304.2v-1.3c0-17.4-.4-34.6-1.2-51.8-3.9-86.6-17.6-170.7-40-251.1m-2174.2 24.9c-13.1 51.7-22.7 104.7-28.4 159-1.8 17.1-3.2 34.4-4.2 51.8 4.6-52.6 14.1-122.3 32.6-210.8m2214.3 329.5c-.5 5.9-.9 8.8-.9 8.8h-36c-34.9 572.1-511 1019.3-1088.6 1019.3-572.7 0-1047.1-447.6-1088.6-1019.3h-33.2c3.6 67.7 13.1 133.7 28.1 197.7 70 298 258.5 550.5 513.1 704.8 169.8 103 369.1 162.2 582.2 162.2 302.8 0 577.7-119.6 779.9-314.2 201.2-193.6 330.5-461.3 344-759.3" fill="url(#V)"/></g><g clip-path="url(#W)"><path d="M19884.8 28964.6h-.1c-56.3 0-109.8 18.9-152.4 52.6-22.9 18.1-42.7 40.6-58 66.7l-14.1 24.1c-240.4 411.1-417 758.9-546.8 1049.8-143.5 321.4-229.6 573.4-281.1 764.8l-21.3 83.7-16.6 74c-18.5 88.5-28 158.2-32.6 210.8-.3 2.6-.5 5.2-.7 7.7-6.7 82.2-1.3 119.8-1.3 119.8h1.6 33.2l-1.1-17.4-.9-33.2h-2.1c-.3-16.9.2-41 3.2-77.2l.1.1c3.7-77.5 15.7-152.1 36.6-229.3l.4-1.3c75.9-348.9 288.7-973.1 871.6-1966.2 37.6-63.9 107.1-103.5 181.9-103.6v.1h0c67.5 0 144.6 40 182.5 104.5 573.2 976.6 787.2 1597.2 865.7 1945.9l.5 2c29.3 99.7 37.6 203.3 37.6 308l-6.6 4.6v.3c0 32.6 5.5 50.2 5 54.8l3.1 1.9-.3 6h36s.4-2.9.9-8.8c.7-9.2 1.5-25.8 1.1-50.2-1-56.7-8.9-155.8-41.2-304.2-24.1-110.3-61.6-247.7-119.8-415.2l-22.2-62.5c-74.4-205.2-178.6-452.3-324-745.5-107.2-216.1-236.8-457.3-393.6-725.5l-13.8-23.7c-14.9-25.3-34-47.2-56.1-64.9-10.2-8.2-21.1-15.5-32.4-21.9-21.5-12-44.8-20.9-69.2-26.1-17.1-3.6-34.8-5.5-52.7-5.5" fill="url(#X)"/></g><path d="M20538 31361.9c0-358.7-290.8-649.6-649.6-649.6-358.7 0-649.6 290.9-649.6 649.6 0 358.8 290.9 649.6 649.6 649.6 358.8 0 649.6-290.8 649.6-649.6" class="B"/><path d="M19888.4 31975.2c-338.1 0-613.3-275.1-613.3-613.3 0-338.1 275.2-613.3 613.3-613.3 338.2 0 613.3 275.2 613.3 613.3 0 338.2-275.1 613.3-613.3 613.3zm0-1299.2c-378.2 0-685.9 307.7-685.9 685.9s307.7 685.9 685.9 685.9 685.9-307.7 685.9-685.9-307.7-685.9-685.9-685.9" class="E"/><path d="M19272.2 32038.3c-3 0-6.1 1.3-8.2 3.8-4 4.5-3.4 11.4 1.1 15.3 182.5 156.8 415.7 243 656.5 243 6 0 10.9-4.8 10.9-10.8a10.93 10.93 0 0 0-10.9-10.9c-235.6 0-463.7-84.5-642.3-237.8-2-1.8-4.6-2.6-7.1-2.6m-347.8-756.9c-6.1 0-10.9 4.9-10.9 10.9 0 188.1 52.1 371.6 150.8 530.7 3.2 5.1 9.9 6.7 15 3.5s6.7-9.9 3.5-15c-96.5-155.6-147.5-335.1-147.5-519.2a10.93 10.93 0 0 0-10.9-10.9" class="B"/><g clip-path="url(#Y)"><path d="M31968.5 15865.7h-5187.1v531.8h1130.7c55.5-53.8 119.2-84.3 186.8-84.3l7.5.1 2509.6 84.2h1352.5v-531.8" fill="url(#Z)"/></g><g clip-path="url(#a)"><path d="M15102.7 21225.7H32269v509.9H15102.7v-509.9" fill="url(#b)"/></g><g clip-path="url(#c)"><path d="M15102.7 25334.8h16996.7v468.1H15102.7v-468.1" fill="url(#d)"/></g><g clip-path="url(#e)"><path d="M15495.4 17973h-538v11535.8h376.7c89.1 0 161.3-72.2 161.3-161.3v-240.7-88.6-3918.5-89.1-450.1-2169.6-1298.2V17973" fill="url(#f)"/></g><g clip-path="url(#g)"><path d="M31811 11851.8h594v17584h-415.9c-98.4 0-178.1-79.8-178.1-178.1V11851.8" fill="url(#h)"/></g><g clip-path="url(#i)"><path d="M23257.6 21749.2c-250 0-453.7 202.8-453.7 454v2019.7c0 265.4 213.2 481.3 478.6 484.2l633.2 3.4 1324.7-15.7 148.1-4 720.7-26.7c325.1-15.3 648.4-35.3 956-61.2 183.4-15.4 326.1-165.7 332.7-349.7l125.6-1952.6c9.3-258.3-194.9-474.1-453.3-479l-423.6-8-752.3-14.3-155.3-3-2472.6-47c-2.9 0-5.8-.1-8.8-.1m1610.2 2953.3v-1592.6c0-63 47.5-115.8 110.1-122.6l546.7-58.9c4.5-.5 9-.8 13.5-.8 70.5 0 127.9 60.1 122.6 132.3l-119.5 1626.3-673.4 16.3" fill="url(#j)"/></g><g clip-path="url(#k)"><path d="M25538.1 22927.6c-4.5 0-9 .3-13.5.8l-546.7 58.9c-62.6 6.8-110.1 59.6-110.1 122.6v1592.6l673.4-16.3 119.5-1626.3c5.3-72.2-52.1-132.3-122.6-132.3" fill="url(#l)"/></g><path d="M25202 23269.2c1.6-29.3 25.9-51.8 54.8-51.8 1.1 0 2.2 0 3.2.1 30.4 1.8 53.5 27.7 51.7 58.1l-82.4 1419.3-110.3 2.6 83-1428.3" class="B"/><g clip-path="url(#m)"><path d="M28054.7 21750.9c-214.2 0-388.8 173.7-388.8 388.9v1730.4c0 227.4 182.7 412.4 410.1 414.8l542.6 3 535.6-2.9c548.8-6 1182.3-22.6 1778.6-60.9l384.1-28.4c157.1-13.2 279.4-142 285.1-299.6l107.6-1673c2.8-77.9-17.1-151.3-53.7-213.9-67.3-115.1-191.2-193.7-334.7-196.4l-1619.4-30.8-1639.6-31.2h-7.5m1379.6 2530.2v-1364.5c0-53.9 40.6-99.2 94.2-105l468.4-50.5c3.9-.4 7.8-.6 11.6-.6 60.4 0 109.6 51.5 105.1 113.3l-102.4 1393.4-576.9 13.9" fill="url(#n)"/></g><g clip-path="url(#o)"><path d="M30008.5 22760.5c-3.8 0-7.7.2-11.6.6l-468.4 50.5c-53.6 5.8-94.2 51.1-94.2 105v1364.5l576.9-13.9 102.4-1393.4c4.5-61.8-44.7-113.3-105.1-113.3" fill="url(#p)"/></g><path d="M29720.5 23053.1c1.5-25 22.2-44.4 47-44.4.9 0 1.9.1 2.8.1 26 1.5 45.8 23.8 44.3 49.8l-70.7 1216.1-94.4 2.2 71-1223.8" class="B"/><g clip-path="url(#q)"><path d="M21117.1 25578.3c-154.3 0-280 160-280 358.3v1594.1c0 209.5 131.6 379.9 295.3 382.2l390.7 2.7c229.8 0 500.7-2.8 786.4-11.5v-1251.9c0-49.7 37.5-91.4 86.9-96.7l431.5-46.6c3.6-.3 7.1-.5 10.6-.5 55.7 0 101 47.4 96.8 104.4l-93.2 1268.2c212.3-12.3 423.8-28.7 624.4-50.3 113.2-12.2 201.2-130.8 205.3-276l77.5-1541.2c5.8-203.9-120.2-374.2-279.7-378.1l-2352.5-57.1" fill="url(#r)"/></g><path d="M22842.1 27881l-532.6 23.1v5.2l531.5-12.9 1.1-15.4" class="H"/><g clip-path="url(#s)"><path d="M22838.5 26508.4c-3.5 0-7 .2-10.6.5l-431.5 46.6c-49.4 5.3-86.9 47-86.9 96.7v1251.9l532.6-23.1 93.2-1268.2c4.2-57-41.1-104.4-96.8-104.4" fill="url(#t)"/></g><path d="M22573.2 26778c1.4-23.1 20.5-40.9 43.3-40.9l2.6.1c23.9 1.4 42.2 21.9 40.8 45.8l-65.1 1120.3-87 2 65.4-1127.3" class="B"/><g clip-path="url(#u)"><path d="M24483.4 25629.1c-179.2 0-325.3 186-325.3 416.3v1200.9 215.5 172.2 263.6c0 243.3 152.9 441.3 343.1 444l454.1 3.1c266.9 0 581.8-3.2 913.6-13.3v-1454.5c0-57.8 43.4-106.2 100.9-112.4l501.3-54.1c4.2-.5 8.3-.7 12.4-.7 64.6 0 117.3 55.1 112.5 121.3l-108.3 1473.5 60.9-3.6c226.1-13.9 450.6-31.8 664.5-54.8 131.5-14.2 233.8-152.1 238.5-320.7l33.1-658.3 57-1132.4c6.7-236.9-139.7-434.7-325-439.2l-1567.3-38.1-588.3-14.3-139.5-3.4-431.9-10.5c-2.1-.1-4.2-.1-6.3-.1" fill="url(#v)"/></g><path d="M26487.7 28304.5l-618.8 26.9v6l617.5-15 1.3-17.9" fill="#adbdf8"/><g clip-path="url(#w)"><path d="M26483.5 26709.7c-4.1 0-8.2.2-12.4.7l-501.3 54.1c-57.5 6.2-100.9 54.6-100.9 112.4v1454.5l618.8-26.9L26596 26831c4.8-66.2-47.9-121.3-112.5-121.3" fill="url(#x)"/></g><path d="M26175.2 27023c1.6-26.9 23.8-47.6 50.3-47.6 1 0 2 .1 3 .1 27.8 1.7 49.1 25.5 47.4 53.3l-75.6 1301.6-101.1 2.4 76-1309.8" class="B"/><g clip-path="url(#y)"><path d="M28399.6 25544.9c-179.3 0-325.3 186-325.3 416.3v490.1 1362.1c0 217.6 122.2 398.9 284.1 436.8 19.1 4.4 38.8 6.9 59 7.2l453.9 3.1c267 0 581.8-3.2 913.7-13.3v-1454.5c0-57.8 43.5-106.2 100.9-112.4l501.4-54.1c4.1-.4 8.2-.7 12.3-.7 64.7 0 117.4 55.2 112.5 121.4l-108.3 1473.4c246.6-14.3 492.3-33.3 725.5-58.4 131.4-14.2 233.7-152 238.5-320.7l90-1790.7c6.7-236.8-139.7-434.7-324.9-439.2l-853-20.7-1678.4-40.8-195.6-4.8c-2.1-.1-4.2-.1-6.3-.1" fill="url(#z)"/></g><path d="M30403.8 28220.3l-618.8 26.9v6l617.5-14.9 1.3-18" class="B"/><g clip-path="url(#AA)"><path d="M30399.6 26625.5c-4.1 0-8.2.3-12.3.7l-501.4 54.1c-57.4 6.2-100.9 54.6-100.9 112.4v1454.5l618.8-26.9 108.3-1473.4c4.9-66.2-47.8-121.4-112.5-121.4" fill="url(#AB)"/></g><path d="M30091.4 26938.8c1.5-26.8 23.8-47.5 50.3-47.5 1 0 2 0 3 .1 27.8 1.6 49 25.4 47.4 53.2l-75.6 1301.7-101.2 2.3 76.1-1309.8" class="B"/><g clip-path="url(#AC)"><path d="M23343.1 17973h-4007.4v1711.5c0 359.2 182.7 651.4 410.1 655.4l542.4 4.6 761.2-9.4 54.6-1.4v-1360.6c0-53.9 40.7-99.2 94.3-105l468.4-50.5c3.9-.4 7.8-.6 11.6-.6 60.4-.1 109.6 51.5 105.1 113.3l-101.6 1381.4c437.5-22 887.9-57.3 1304.9-112.8 157.1-20.9 279.3-224.4 285-473.3l71.4-1752.6" fill="url(#AD)"/></g><path d="M21681.8 20311.7l-494.5 19.6.1 4.8 493.6-12.4.8-12" class="H"/><path d="M21187.3 20331.3l-83.3 2.4v3.9l83.4-1.5-.1-4.8" fill="#cbd6fb"/><g clip-path="url(#AE)"><path d="M21678.3 18817c-3.8 0-7.7.2-11.6.6l-468.4 50.5c-53.6 5.8-94.3 51.1-94.3 105v1360.6l83.3-2.4 494.5-19.6 101.6-1381.4c4.5-61.8-44.7-113.4-105.1-113.3" fill="url(#AF)"/></g><path d="M21390.3 19109.6c1.4-25.1 22.2-44.4 47-44.4.9 0 1.8 0 2.8.1 25.9 1.5 45.8 23.8 44.2 49.8l-70.6 1216-94.5 2.2 71.1-1223.7" class="B"/><g clip-path="url(#AG)"><path d="M26781.4 16450.3v949.2c0 312.1-329.8 573.5-687.5 573.5h-2576.1v1739.5c0 359.2 182.7 651.4 410.1 655.3l542.5 4.6 815.8-10.7v-1360.6c0-54 40.6-99.2 94.2-105l468.4-50.5c3.9-.5 7.8-.7 11.6-.7 60.4 0 109.6 51.5 105.1 113.4l-101.5 1381.3 44.9-2.3c200.7-10.4 403.8-23.8 604.8-40.6 223-18.7 443.4-41.6 655.1-69.8 157.1-21 279.4-224.4 285.1-473.4l107.6-2643.1c.4-20.5.3-40.8-.5-60.8-.2-6.1-.5-12.2-.9-18.3-17.7-313.5-182.5-563.1-387-569.2l-391.7-11.8" fill="url(#AH)"/></g><path d="M25751.9 20345l-465.7 16.7v3.9l466.1-10.6c-.2-3.4-.3-6.7-.4-10" class="H"/><path d="M25864 20339.6l-112.1 5.4.4 10 110.8-3.4.9-12" fill="#cbd6fb"/><g clip-path="url(#AI)"><path d="M25860.4 18844.9c-3.8 0-7.7.2-11.6.7l-468.4 50.5c-53.6 5.8-94.2 51-94.2 105v1360.6l465.7-16.7 112.1-5.4 101.5-1381.3c4.5-61.9-44.7-113.4-105.1-113.4" fill="url(#AJ)"/></g><path d="M25572.4 19137.6c1.5-25.1 22.2-44.4 47-44.4.9 0 1.9 0 2.8.1 26 1.5 45.8 23.8 44.3 49.7l-70.7 1216.1-94.5 2.2 71.1-1223.7" class="B"/><g clip-path="url(#AK)"><path d="M28098.9 16313.2c-67.6 0-131.3 30.5-186.8 84.3-120.3 116.6-202 342.4-202 602.5v32.6 15.7 3007.6c0 401.5 182.7 728.2 410.1 732.6l542.3 5.1c244 0 521.5-3.1 815.9-12v-1520.9c0-60.3 40.7-110.9 94.3-117.3l468.4-56.5c3.9-.5 7.8-.7 11.6-.7 60.4 0 109.6 57.6 105.1 126.7l-101.6 1544.1c437.5-24.6 887.9-64 1304.9-126.1 157.1-23.4 279.3-250.8 285-529.1l107.6-2954.4c8-390.8-166.9-717.3-388.3-724.7l-749.4-25.2-2509.6-84.2c-2.5-.1-5-.1-7.5-.1" fill="url(#AL)"/></g><g clip-path="url(#AM)"><path d="M30056.2 20757l-319.2 15.4.1 7.8 318.3-9.8.8-13.4" fill="url(#AN)"/></g><path d="M29737 20772.4l-258.6 9.2v4.4l258.7-5.8-.1-7.8" fill="#adbdf8"/><g clip-path="url(#AO)"><path d="M30052.7 19086.2c-3.8 0-7.7.2-11.6.7l-468.4 56.5c-53.6 6.4-94.3 57-94.3 117.3v1520.9l258.6-9.2 319.2-15.4 101.6-1544.1c4.5-69.1-44.7-126.7-105.1-126.7" fill="url(#AP)"/></g><path d="M29764.7 19413.3c1.4-28 22.2-49.6 47-49.6.9 0 1.8 0 2.7.1 26 1.7 45.9 26.6 44.3 55.6l-70.6 1359.3-94.5 2.5 71.1-1367.9" class="B"/><g clip-path="url(#AQ)"><path d="M26938.5 8594.1H12660.6V9904h14277.9V8594.1" fill="url(#AR)"/></g><g clip-path="url(#AS)"><path d="M12765.4 8594.1h-196c-123.3 0-223.2 99.9-223.2 223.1V9904h419.2V8594.1" fill="url(#AT)"/></g><g clip-path="url(#AU)"><path d="M26093.9 9720.6h-8105.6v340.6h7738c337.4 0 583.5 275.9 583.5 561.5v6490.6c0 285.6-246.1 519.1-583.5 519.1H13016c-337.3 0-669.8-233.5-669.8-519.1v-4120.5h-366.8v3.6 73.4 987.5 239.2 844.4 1865.5 68.1 325c0 312.1 283.5 573.5 641.2 573.5h2336.8 538 89.1 3751.2 4007.4 174.7 2576.1c357.7 0 687.5-261.4 687.5-573.5v-949.2-52.8-531.8-2050.6-3516.3c0-312.1-329.8-578.2-687.5-578.2" fill="url(#AV)"/></g><g clip-path="url(#AW)"><path d="M25726.3 10061.2h-7738v2796.3c0 70.7-57.3 128-128 128h-627.4v7.3h-1871.8v25.6l-839.4-20.3-.4-5.3h-2175.1v4120.5c0 285.6 332.5 519.1 669.8 519.1h12710.3c337.4 0 583.5-233.5 583.5-519.1v-6490.6c0-285.6-246.1-561.5-583.5-561.5" fill="url(#AX)"/></g><g clip-path="url(#AY)"><path d="M31670.7 8594.1H26860V15065h974 2583.8c72.1 0 136-40.8 158.2-109.3l729.5-2250 155.6-479.9 95-1646c-13.5 3.5-27.6 5.3-42.1 5.3h-426.9c-24.4 0-47.6-5.2-68.5-14.7-54.7-16.9-98-50.2-98-107.2v-44.5h0v-584.1c0-91.9 74.6-166.4 166.5-166.4h426.9c34.4 0 66.5 10.5 93 28.4l63.7-1102.5m-4522.6 6111.3c-18.4 0-33.3-15-33.3-33.4v-3851.1c0-18.4 14.9-33.3 33.3-33.3 18.5 0 33.4 14.9 33.4 33.3V14672c0 18.4-14.9 33.4-33.4 33.4" fill="url(#AZ)"/></g><g clip-path="url(#Aa)"><path d="M31697.3 9585.7c-47.6 31.3-105.5 48.2-171.9 46.9l-3707.7-71.4-16.4-1053.5 3704.4-91c135.8 0 253.3 65.5 253.3 157.3v892.5c0 44.9-14.1 87.9-61.7 119.2" fill="url(#Ab)"/></g><g clip-path="url(#Ac)"><path d="M30770.2 12415.5l-535 2122.1c-18.7 73.8-85.1 134.4-161.1 134.4h-2092.3c-45 0-88-27.2-119.3-59.4s-48.2-80.3-46.9-125.2l50.2-1699c2.3-79.7 60.9-147.7 139.6-160.4l2577.1-416.9c55.3-8.9 111.3 10.3 149.1 51.6s52.3 98.5 38.6 152.8" fill="url(#Ad)"/></g><g clip-path="url(#Ae)"><path d="M30663.3 14688.5l-27.3-4.5c-46.3-7.6-87.2-34.5-112.6-74s-33-87.8-20.8-133.1l583.2-2168.6c22.5-83.8 105.8-136.2 191.1-120.2l184.2 34.5-797.8 2465.9" fill="url(#Af)"/></g><g clip-path="url(#Ag)"><path d="M28824.8 11842.6c0-86.8-70.4-157.2-157.2-157.2h-654.9c-86.8 0-157.2 70.4-157.2 157.2v78.6c0 86.8 70.4 157.2 157.2 157.2h654.9c86.8 0 157.2-70.4 157.2-157.2v-78.6" fill="url(#Ah)"/></g><g clip-path="url(#Ai)"><path d="M27107.9 16975.8c-55.8 4.1-126.6-13.2-167.6-51.3s-80.3-89.5-80.3-145.4V15065h2169.7s-116.6 1779.1-1921.8 1910.8" fill="url(#Aj)"/></g><g clip-path="url(#Ak)"><use xlink:href="#CB" fill="url(#Al)"/></g><use xlink:href="#CC" class="E"/><path d="M30234.4 7972.7c-4.3 0-8.7.9-13 2.7-16.9 7.1-24.8 26.7-17.7 43.7 61.5 145.2 92.7 299.6 92.7 458.8 0 650.1-528.9 1178.9-1178.9 1178.9-201.7 0-400.7-51.8-575.5-149.7-16.2-9-36.4-3.3-45.4 12.8-9 16-3.3 36.4 12.8 45.4 184.8 103.5 395 158.2 608.1 158.2 686.8 0 1245.6-558.7 1245.6-1245.6 0-168.1-33-331.3-97.9-484.8-5.4-12.7-17.8-20.4-30.8-20.4" class="I"/><g clip-path="url(#Am)"><path d="M29712.3 8477.9c0-346.7-281.1-627.9-627.9-627.9s-627.9 281.2-627.9 627.9c0 346.8 281.1 627.9 627.9 627.9s627.9-281.1 627.9-627.9" fill="url(#An)"/></g><g clip-path="url(#Ao)"><path d="M20375.8 8477.9c0-931.1-754.8-1685.9-1685.9-1685.9s-1686 754.8-1686 1685.9c0 931.2 754.9 1686 1686 1686s1685.9-754.8 1685.9-1686" fill="url(#Ap)"/></g><use xlink:href="#CC" x="-10394.5" class="E"/><path d="M19839.9 7972.7c-4.3 0-8.7.9-13 2.7-16.9 7.1-24.8 26.7-17.7 43.7 61.5 145.3 92.7 299.7 92.7 458.8 0 650.1-528.9 1178.9-1178.9 1178.9-201.7 0-400.7-51.8-575.5-149.7-16.2-9-36.5-3.3-45.4 12.8-9 16-3.3 36.4 12.8 45.4 184.8 103.5 395 158.2 608.1 158.2 686.8 0 1245.6-558.7 1245.6-1245.6 0-168.1-33-331.2-97.9-484.8-5.4-12.7-17.8-20.4-30.8-20.4" class="I"/><g clip-path="url(#Aq)"><path d="M19317.8 8477.9c0-346.7-281.1-627.9-627.9-627.9s-627.9 281.2-627.9 627.9c0 346.8 281.1 627.9 627.9 627.9s627.9-281.1 627.9-627.9" fill="url(#Ar)"/></g><g clip-path="url(#As)"><path d="M16519 8477.9c0-931.1-754.8-1685.9-1685.9-1685.9s-1685.9 754.8-1685.9 1685.9c0 931.2 754.8 1686 1685.9 1686s1685.9-754.8 1685.9-1686" fill="url(#At)"/></g><g clip-path="url(#Au)"><path d="M16202.3 8477.9c0-756.1-613-1369.1-1369.2-1369.1s-1369.2 613-1369.2 1369.1c0 756.2 613 1369.2 1369.2 1369.2s1369.2-613 1369.2-1369.2" fill="url(#Av)"/></g><path d="M15983.1 7972.7c-4.3 0-8.7.9-13 2.7-16.9 7.1-24.8 26.7-17.7 43.7 61.5 145.2 92.7 299.6 92.7 458.8 0 650.1-528.9 1178.9-1178.9 1178.9-201.7 0-400.7-51.8-575.5-149.7-16.1-9-36.4-3.3-45.4 12.8-9 16-3.3 36.4 12.8 45.4 184.8 103.5 395 158.2 608.1 158.2 686.8 0 1245.6-558.7 1245.6-1245.6 0-168.1-33-331.3-97.9-484.8-5.4-12.7-17.8-20.4-30.8-20.4" class="B"/><g clip-path="url(#Aw)"><path d="M15461 8477.9c0-346.7-281.1-627.9-627.9-627.9s-627.9 281.2-627.9 627.9c0 346.8 281.1 627.9 627.9 627.9s627.9-281.1 627.9-627.9" fill="url(#Ax)"/></g><g clip-path="url(#Ay)"><path d="M31514 9668.2h-426.9c-91.9 0-166.5 74.5-166.5 166.4v584.1h0v-503c0-91.8 112.1-195.1 203.9-195.1h136.7v864.5h-136.7c-34.8 0-72.5-4.3-105.9-14.7 20.9 9.5 44.1 14.7 68.5 14.7h426.9c14.5 0 28.6-1.8 42.1-5.3 71.5-18.7 124.3-83.7 124.3-161.1v-584.1c0-57.4-29.1-108.1-73.4-138-26.5-17.9-58.6-28.4-93-28.4" fill="url(#Az)"/></g><g clip-path="url(#BA)"><g clip-path="url(#BB)"><path d="M30920 10418v54h1v8h1v5h1v4h1v3h1v3h1v3h1v3h1v3h1v1h1v2h1v2h1v2h1v1h1v2h1v2h1v2h1v1h1v1h1v2h1v1h1v1h1v1h1v1h1v1h1v2h1v1h1v1h1v1h1v1h1v1h1v1h1v1h2v1h1v1h1v1h1v1h1v1h1v1h2v1h1v1h1v1h2v1h1v1h2v1h1v1h2v1h1v1h2v1h2v1h1v1h2v1h2v1h2v1h2v1h2v1h2v1h2v1h2v1h2v1h3v1h2v1h3v1h2v1h3v1h3v1h3v1h3v1h2v-1h-1v-1h-2v-1h-2v-1h-2v-1h-2v-1h-1v-1h-2v-1h-2v-1h-2v-1h-1v-1h-2v-1h-2v-1h-1v-1h-2v-1h-1v-1h-1v-1h-2v-1h-1v-1h-1v-1h-2v-1h-1v-1h-1v-1h-2v-1h-1v-1h-1v-1h-2v-1h-1v-1h-1v-1h-1v-1h-1v-1h-1v-1h-1v-1h-1v-1h-1v-1h-1v-1h-1v-1h-1v-1h-1v-1h-1v-1h-1v-1h-1v-1h-1v-1h-1v-1h-1v-2h-1v-1h-1v-1h-1v-2h-1v-1h-1v-1h-1v-2h-1v-1h-1v-1h-1v-1h-1v-2h-1v-1h-1v-1h-1v-2h-1v-2h-1v-2h-1v-1h-1v-2h-1v-2h-1v-2h-1v-2h-1v-1h-1v-2h-1v-2h-1v-2h-1v-3h-1v-2h-1v-3h-1v-2h-1v-3h-1v-3h-1v-2h-1v-3h-1v-4h-1v-4h-1v-5h-1v-4h-1v-5h-1v-6h-1v-11h-1v-10" fill="url(#BC)"/></g></g><g clip-path="url(#BD)"><path d="M31261.2 9720.6h-136.7c-91.8 0-203.9 103.3-203.9 195.1v503c0 67.5 40.3 125.6 98 151.7 33.4 10.4 71.1 14.7 105.9 14.7h136.7v-864.5" fill="url(#BE)"/></g><g clip-path="url(#BF)"><path d="M27148.1 10787.6c-18.4 0-33.3 14.9-33.3 33.3V14672c0 18.4 14.9 33.4 33.3 33.4 18.5 0 33.4-15 33.4-33.4v-3851.1c0-18.4-14.9-33.3-33.4-33.3" fill="url(#BG)"/></g><path d="M28631.4 15239c-13.8 0-26.8 8.7-31.5 22.5-498.2 1443.4-1526.2 1341.3-1536.6 1340.2-18.3-1.9-34.9 10.9-37 29.2-2.2 18.3 10.9 34.9 29.1 37 10.7 1.3 1091.2 111.7 1607.5-1384.6a33.45 33.45 0 0 0-20.6-42.5c-3.6-1.2-7.3-1.8-10.9-1.8" class="I"/><g clip-path="url(#BH)"><path d="M7712.12 4870c.38 8.5-.13 17.1-2.68 25.8-150.52 511.8-952.39 837.1-952.39 837.1l-321.36-16.8c-195.62-448.1-178.73-724.1-152.14-847.2.73-3.5 1.98-6.8 3.06-10.1 264.22-21.1 808.71-38.4 1425.51 11.2" fill="url(#BI)"/></g><g clip-path="url(#BJ)"><path d="M6286.61 4858.8c13.27-41.2 50.88-73.5 99.82-82.1 374.96-65.9 974.64-21.2 1226.54 2.3 55.58 5.2 97.1 45.3 99.15 91-616.8-49.6-1161.29-32.3-1425.51-11.2" fill="url(#BK)"/></g><g clip-path="url(#BL)"><path d="M8588.97 4954.5c-285.13 8-432.62 41.6-508.86 72.8-.18-28.4-.02-57.2.9-87.1.99-32 24.63-57.5 53.73-57.3l1565.61 10.1c49.97.3 79.17 58.3 57.51 104.1-205.28-17-728.1-54.9-1168.89-42.6" fill="url(#BM)"/></g><g clip-path="url(#BN)"><path d="M9757.86 4997.1c-1.89 4-3.51 8.1-6.19 11.8-138.27 193.2-490.42 577.9-1186.29 744.8l-333.82 10.5s-148.65-258.4-151.45-736.9c76.24-31.2 223.73-64.8 508.86-72.8 440.79-12.3 963.61 25.6 1168.89 42.6" fill="url(#BO)"/></g><g clip-path="url(#BP)"><path d="M8003.29 13485.5s703.97-3928 689.42-7778.5c-.26-70.3-511.99-163.3-523.06-98.5-112.89 662.1-861.3 4971.7-1230.43 5577.2 0 0-149.93-3814.5-72.3-5537.9 1.93-42.8-476.62-110.9-483.76-61.2-80.41 560.3-621.54 4458.1-601.87 6860.7 1.11 135.5 126.64 1264.2 126.64 1264.2 795.27-138 1401.23-378.7 2095.36-226" fill="url(#BQ)"/></g><g clip-path="url(#BR)"><path d="M6835.59 12855.7c-328.24 0-653.96 29.7-880.49 120.5-31.73 12.5-119.51 29.6-119.51 64 1.14 250.4 64.24 1246.4-348.63 2553.4-15.02 48.4-27.79 97.6-37.96 147.6-464.18 1023.4-513.57 1742.4 0 2048.1 30.64 7.8 61.81 13.9 93.48 17.9l650.49 83.8s.76 0 2.27.4c36.24 8 517.46 110.9 1056.45 150.2l68.87 4.7c107.07 6.7 215.77 10.6 323.04 10.6 437.67 0 852.15-65.8 1041.77-280 0 0 2.97-7.4 8.88-21.2l-1464.41 16.1c-289.67 0-545.41-1.8-752.84-4-315.5-3.5-569.07-260.2-569.07-575.7v-2401.6c0-298.6 242.24-539.7 539.54-539.7l10.45.1 1697.44 32.3c-90.42-426.9-134.33-842.5-85.55-1195.9 8.68-64.6-43.81-133.8-108.42-143.3-204.26-30.4-667.46-88.3-1125.8-88.3" fill="url(#BS)"/></g><g clip-path="url(#BT)"><path d="M6478.96 18873.5l-104.66-1069.2s601.52-181.2 1039.01 127.5l-307.55 971.8-626.8-30.1" fill="url(#BU)"/></g><g clip-path="url(#BV)"><path d="M7499.98 19784.7c7.14-18.5 37.37-1332.7 37.37-1332.7l-750.74-1.3L6572.9 19692s807.45 403.4 927.08 92.7" fill="url(#BW)"/></g><g clip-path="url(#BX)"><path d="M6830.21 19536.8c-24.39-22.9-36.8-55.6-33.72-88.9l60.44-652.7c.92-9.9 3.07-19.4 6.7-28.7 19.99-51.1 96.71-208.5 256.49-121.1 136.19 74.4 262.38 141 364.86 144.2 59.84 1.8 109.22-46.3 110.37-106.2 2.39-123.3 2.15-372.2-29.12-593.4-7.83-55.4-57.46-95.1-113.32-91.6-147.41 9.4-434.73 36.2-665.49 110.3-37.91 12.2-65.89 44.1-73.12 83.2-31.81 172.3-122.92 654.9-169.6 787.1-43.38 122.9-211.97 165.5-290.72 178.8-29.89 5.1-56.11 22.2-72.75 47.5-49.88 76.1-121.8 240.3 75.97 364.7 49.18 30.9 63.34 96.8 33.43 146.6-53.6 89.2-92.14 226.9 64.21 344.7 158.29 119.2 311.63 63.1 405.54 2.9 41.55-26.6 97.51-25 134.2 8 16.33 14.7 38.72 23.1 69.14 15.4 154.59-39.1 127.86 176.7 207.29 244 111.33 94.4 231.77-43 276.73-144.3 24.94-56.2 42.58-115.6 69.93-170.7 42.84-86.3 109.52-160.7 190.7-212.6 12.45-8 25.84-16.1 32.66-29.2 9.68-18.6 2.7-42.5-11.35-58.1-14.04-15.6-33.76-24.7-53.08-32.9-158.92-67.6-323.64-74.7-489.36-19.5-144.11 48.1-289.83-64.4-357.03-127.5" fill="url(#BY)"/></g><g clip-path="url(#BZ)"><path d="M6603.56 18748.9s13.36 387.5-142.33 446.9c-155.69 59.3-345.13-33.2-240.2-289.9 130.51-319.3 382.53-157 382.53-157" fill="url(#Ba)"/></g><g clip-path="url(#Bb)"><path d="M7739.64 19813.7c-231.95 1218.9-1963.23 709.9-1565.98-379.1 599.5 177.5 1313.26 496.1 1565.98 379.1" fill="url(#Bc)"/></g><g clip-path="url(#Bd)"><path d="M6736.29 19636.8l1005.76-276.2c25.54-7 52.96-.1 72.05 18.3 138.9 133.6 301.12 196.1 481.79 202.2 22.86.7 27.97 32.5 6.62 40.7l-597.99 229.7-2.04.7c-311.62 70.3-637.51-29.8-968.49-190.5-11.04-5.4-9.53-21.7 2.3-24.9" fill="url(#Be)"/></g><g clip-path="url(#Bf)"><path d="M6447.47 14250.8c-297.3 0-539.54 241.1-539.54 539.7v2401.6c0 315.5 253.57 572.2 569.07 575.7l752.84 4 1464.41-16.1 1014.21-33.2 670.64-35.3 177.7-11.5 418-31.8c218.1-18.4 387.7-197.1 395.6-415.8l10-156.4 4.1-62.6 93.6-1455.6 27.4-425.5 14.2-221.6c1.2-32.1-.4-63.7-4.6-94.5-35.8-263.5-259.2-469.8-534.3-475.1l-1597.53-30.3-1227.91-23.3-1697.44-32.3c-3.49-.1-6.98-.1-10.45-.1m1914.57 3511.5v-1893.7c0-74.8 56.41-137.6 130.83-145.7l650.06-70.1a145.07 145.07 0 0 1 16.04-.9c83.84 0 152.15 71.5 145.84 157.4L9162.69 17743l-800.65 19.3" fill="url(#Bg)"/></g><g clip-path="url(#Bh)"><path d="M9158.97 15651.9a145.07 145.07 0 0 0-16.04.9l-650.06 70.1c-74.42 8.1-130.83 70.9-130.83 145.7v1893.7l800.65-19.3 142.12-1933.7c6.31-85.9-62-157.4-145.84-157.4" fill="url(#Bi)"/></g><path d="M8759.31 16058.1c2-34.8 30.82-61.6 65.22-61.6 1.28 0 2.55 0 3.83.1 36.05 2.1 63.6 33 61.47 69.1l-98.02 1687.6-131.14 3.1 98.64-1698.3" class="B"/><g clip-path="url(#Bj)"><path d="M8676.42 14000.5c117.2 163.3 29.21 272.2 29.21 272.2-591.52 211.1-1439.2 194.5-2081.87 1001.1-261.07-138.4-50.16-220.7-336.28-636.9 1346-866.2 2388.94-636.4 2388.94-636.4" fill="url(#Bk)"/></g><g clip-path="url(#Bl)"><path d="M5941.81 17032.7c8.34-969.9 313.74-1709 1768.73-2461.6l-297.23-461.1c-708.36 65.9-1954.94 1011.5-2331.21 1713.4-92.79 173.1-221.06 717.9-202.42 1101.7 38.36 789.8 851.86 1511.2 1062.13 107.6" fill="url(#Bm)"/></g><g clip-path="url(#Bn)"><path d="M8663.52 14005c355.28-131.2 598.86 82 757.11 312.5-331.87 38.1-540.51 42.7-813.69-12.3l56.58-300.2" fill="url(#Bo)"/></g><g clip-path="url(#Bp)"><path d="M11558.9 16476.2c-90.3 22.1-293.1 296.5-314.6 196.3-21.6-100.3 39.5-227.4 30.5-270-9.1-42.6-77.2-281.4-23.1-381.6 39.1-72.3 115.7-299.7 155.3-420.6 13.1-40.2 23.8-93.2 65.9-88.5 41.9 4.7 74.5 61.2 78.4 103.3 1.6 16.9 97.9 839 7.6 861.1" fill="url(#Bq)"/></g><g clip-path="url(#Br)"><path d="M12089.1 5702.3h-993.6v7177.5c0 62.4 50.6 113 112.9 113h771 366.8 2175.1l-.5-7.3h-2431.7V5702.3m5143.8 7283.2h-1871.8v7.3h1871.8v-7.3" fill="url(#Bs)"/></g><g clip-path="url(#Bt)"><path d="M17988.3 5699.5h-5899.2v7286h2431.7l-148.1-2014.6c-6.6-90 65-164.9 152.9-164.9 5.6 0 11.2.3 16.8.9l681.5 73.5c78 8.4 137.2 74.3 137.2 152.8v1952.3h1871.8 627.4c70.7 0 128-57.3 128-128v-7158" fill="url(#Bu)"/></g><g clip-path="url(#Bv)"><path d="M15361.1 12992.8h-839.8l.4 5.3 839.4 20.3v-25.6" fill="url(#Bw)"/></g><g clip-path="url(#Bx)"><path d="M15361.1 12985.5h-840.3l.5 7.3h839.8v-7.3" fill="url(#By)"/></g><g clip-path="url(#Bz)"><path d="M14525.6 10806c-87.9 0-159.5 74.9-152.9 164.9l148.1 2014.6h840.3v-1952.3c0-78.5-59.2-144.4-137.2-152.8l-681.5-73.5c-5.6-.6-11.2-.9-16.8-.9" fill="url(#CA)"/></g><path d="M14944.6 11231.7c-2.1-36.4-32.3-64.5-68.4-64.5-1.3 0-2.6 0-4 .1-37.8 2.2-66.7 34.6-64.4 72.4l102.7 1769.3 137.5 3.2-103.4-1780.5" class="B"/></g></svg>