<svg xmlns="http://www.w3.org/2000/svg" xmlns:xlink="http://www.w3.org/1999/xlink" width="4946.667" height="4946.667" xmlns:v="https://vecta.io/nano"><defs><clipPath id="A"><path d="M18977.5 5019.4c-1224 0-2238 119.2-2898.6 222.8h165.3c414.9 0 731.5 333.5 731.5 769.2v25.5h7838.4c-2090.8-793.8-4160.2-1017.5-5836.6-1017.5m-8433.3 1910.4C9460.11 7498.4 8375.66 8273 7424.47 9345.9c-2512.08 2833.5-3172.16 6707.6-2528.02 10340.5 55.54-289.9 119.72-583.9 193.2-881.1 1059.7-4286.3 3893.07-7256.4 5454.55-8623.4V6929.8m19199.9 2414.3v17182.1c3907.5-5267.8 3329.9-13162.9 0-17182.1M10544.2 16050l-1438.47 3198.5c408-503.1 879.66-986.9 1423.27-1443.9l15.2-36.4V16050"/></clipPath><linearGradient x1="0" y1="0" x2="1" y2="0" gradientTransform="matrix(-24239.9,30104.3,30104.3,24239.9,35653.2,-3263.9)" spreadMethod="pad" id="B" xlink:href="#Cs"><stop offset="0" stop-color="#dae3fe"/><stop offset="1" stop-color="#e9effd"/></linearGradient><clipPath id="C"><path d="M10544.2 17768.2l-15.2 36.4 15.2-12.7v-23.7"/></clipPath><linearGradient x1="0" y1="0" x2="1" y2="0" gradientTransform="matrix(-24239.9,30104.3,30104.3,24239.9,35653.2,-3263.9)" spreadMethod="pad" id="D" xlink:href="#Cs"><stop offset="0" stop-color="#ebf0fe"/><stop offset="1" stop-color="#f3f6fe"/></linearGradient><clipPath id="E"><path d="M11309.1 6036.9h-398.4c-202.4 0-366.5 164.1-366.5 366.5v526.4 3252.1 1371.9 206.8V16050v1718.2 23.7 374.5 10977.8 2407.4c0 202.4 164.1 366.5 366.5 366.5h18068.5 0-17670.1c-202.5 0-366.5-164.1-366.5-366.5V6403.4c0-202.4 164-366.5 366.5-366.5"/></clipPath><linearGradient x1="0" y1="0" x2="1" y2="0" gradientTransform="matrix(-32340.1,-9914.98,-9914.98,32340.1,37940.2,24494.5)" spreadMethod="pad" id="F" xlink:href="#Cs"><stop offset="0" stop-color="#4f52ff"/><stop offset="1" stop-color="#4042e2"/></linearGradient><clipPath id="G"><path d="M29517.1 13113.7l-3501.8-764.7 226.3-3349.4c1.6-24.9 24.7-41.5 47-33.9l3246.5 1107.8c33.5 11.5 56.3 44.7 56.3 82.2v2893.5c0 41.7-35.9 72.9-74.3 64.5z"/></clipPath><linearGradient x1="27754.5" y1="12611.7" x2="28581.93" y2="4509.83" spreadMethod="pad" id="H" xlink:href="#Cs"><stop offset="0" stop-color="#e1473d"/><stop offset="1" stop-color="#e9605a"/></linearGradient><clipPath id="I"><path d="M25553.7 9145l637.5-180.1c25.3-7.1 50 13.2 50 41v3323.8c0 28.5-19.8 52.5-46.3 56.1l-650.3 87.8c-43.7 5.9-82.2-30.8-81.5-77.8l43.8-3187c.4-30.1 19.5-56.1 46.8-63.8z"/></clipPath><linearGradient x1="25036" y1="11478.9" x2="27313.99" y2="9544.29" spreadMethod="pad" id="J" xlink:href="#Cs"><stop offset="0" stop-color="#ff928e"/><stop offset="1" stop-color="#fe7062"/></linearGradient><clipPath id="K"><path d="M25530 12500.6l3499.8 814 467.5-153.7c25.1-8.3 23.5-46.8-2.2-52.5l-3253.9-728.9-710.2 95.9c-13.3 1.8-14.2 22.1-1 25.2z"/></clipPath><linearGradient x1="25972" y1="15238.7" x2="29590.03" y2="9563.37" spreadMethod="pad" id="L" xlink:href="#Cs"><stop offset="0" stop-color="#ff928e"/><stop offset="1" stop-color="#fe7062"/></linearGradient><clipPath id="M"><path d="M25809.5 9049.9c-18.7 0-33.8 15.1-33.8 33.7v3346.5c0 15.7 10.7 29.3 26 32.9l3415.3 813.1c18.3 4.2 36.4-6.9 40.7-25.1 4.3-18.1-6.9-36.3-25-40.6l-3389.5-807V9083.6c0-18.6-15.1-33.7-33.7-33.7z"/></clipPath><linearGradient x1="25775.7" y1="11163.4" x2="29258.62" y2="11163.4" spreadMethod="pad" id="N" xlink:href="#Cs"><stop offset="0" stop-color="#e1473d"/><stop offset="1" stop-color="#e9605a"/></linearGradient><clipPath id="O"><path d="M28122.8 13004.2l-13.5 387c-1.4 39.1-34.3 68.3-70.6 62.7l-1011.3-156.9c-34.4-5.3-57.8-39.7-52-76.1l71.6-450c5.2-32.6 32.2-56 63.2-54.8 32 1.3 57.8 28.4 59.4 62.5l17.2 367.1c1.6 32.3 24.9 58.6 55 62.1l636.7 74.2c33.5 3.9 63.6-21.4 68-56.9l28.7-234.3c4.3-35.1 33.9-60.3 67-57.1l24.6 2.5c32.6 3.2 57.2 33.1 56 68z"/></clipPath><linearGradient x1="26643.3" y1="14437.6" x2="28769.88" y2="11360.14" spreadMethod="pad" id="P" xlink:href="#Cs"><stop offset="0" stop-color="#e1473d"/><stop offset="1" stop-color="#e9605a"/></linearGradient><clipPath id="Q"><path d="M29598.6 19106.5c27.9 3.4 2252.8 216.5 2252.8 216.5 475.8-1453.3 309.8-3376.7 104.4-5328.9-44.7-424.3-329.6-756.4-705.3-820.8l-733.4-125.6z"/></clipPath><linearGradient x1="24183.9" y1="23895.6" x2="39885.2" y2="6602.1" spreadMethod="pad" id="R" xlink:href="#Cs"><stop offset="0" stop-color="#ff928e"/><stop offset="1" stop-color="#fe7062"/></linearGradient><clipPath id="S"><path d="M28086.9 19244l3311.9 488.8c472.1-14.3 851.1-394.1 864.4-866.1l27.4-974.6c6-214.7-130.7-409.9-336.6-471.2-671-199.6-3197.4-1010.3-3990.4-653.8l-393.8 1720.7c-81.1 354.6 157.2 703.1 517.1 756.2z"/></clipPath><linearGradient x1="24975.4" y1="23635.7" x2="36419.3" y2="11031.3" spreadMethod="pad" id="T" xlink:href="#Cs"><stop offset="0" stop-color="#ff928e"/><stop offset="1" stop-color="#fe7062"/></linearGradient><clipPath id="U"><path d="M30703.2 5322c-12.3-44.7 2.1-68.7-40.1-77.5-323.3-68-961.4-5.6-1177.2 22.6-47.6 6.2-82.4 50.3-83.2 99.9 528.5-60.1 1073.2-65.3 1300.5-45z"/></clipPath><linearGradient x1="27354.1" y1="7438.5" x2="32289" y2="3563.61" spreadMethod="pad" id="V" xlink:href="#Cs"><stop offset="0" stop-color="#09005d"/><stop offset="1" stop-color="#1a0f91"/></linearGradient><clipPath id="W"><path d="M28209.5 5346.1c304.3 8.5 461.7 44.4 543.1 77.6.2-30.2 0-61-1-92.9-1-34.1-26.3-61.3-57.3-61.1l-1670.8 10.8c-53.3.3-84.4 62.1-61.3 111 219-18.1 777-58.6 1247.3-45.4z"/></clipPath><linearGradient x1="26729" y1="6253.5" x2="31253.88" y2="2700.55" spreadMethod="pad" id="X" xlink:href="#Cs"><stop offset="0" stop-color="#09005d"/><stop offset="1" stop-color="#1a0f91"/></linearGradient><clipPath id="Y"><path d="M30627.3 6685.2l-116.7-661.4c-8.6-48.5-40.2-84.8-78.5-89-46.9-5.2-113.7-8.3-180.8 3.3-60.2 10.5-102.1 82.5-91.4 159.8l81.1 587.3z"/></clipPath><linearGradient x1="30284.9" y1="7315.7" x2="30563.251" y2="4886.44" spreadMethod="pad" id="Z" xlink:href="#Cs"><stop offset="0" stop-color="#febbba"/><stop offset="1" stop-color="#ff928e"/></linearGradient><clipPath id="a"><path d="M28759.9 15148s-703.5-4540-688-8993.7c.3-81.1 181.6-230.2 250.7-259.8 151-64.5 202.9-51.5 334.4-47.5 70.2 2.2 95.5 29.4 107.3 104.4 120.4 765.7 787.4 5206 1181.3 5906.3 0 0 195.4-3827.5 36.3-5816.2-8.9-111.4 206.8-206.6 252.3-212.3 69-8.6 168.4-46.8 308.8-30.6 53.3 6.1 96.4 49.8 104 107.3 85.8 648.1 579.7 4505.7 558.7 7284.5-1.2 156.7-185.5 2043.2-185.5 2043.2z"/></clipPath><linearGradient x1="0" y1="0" x2="1" y2="0" gradientTransform="matrix(-3747.85,-3443.97,-3443.97,3747.85,41413.4,21266.8)" spreadMethod="pad" id="b" xlink:href="#Cs"><stop offset="0" stop-color="#09005d"/><stop offset="1" stop-color="#1a0f91"/></linearGradient><clipPath id="c"><path d="M30001.6 12078.8c14.4 0 27.6 9.7 31.3 24.3 71.3 274.8 604.8 576.8 610.2 579.8 15.6 8.8 21.2 28.5 12.4 44.1-8.7 15.6-28.4 21.2-44.1 12.5-22.9-12.9-563-318.6-641.2-620.1-4.5-17.3 6-35 23.3-39.5 2.7-.7 5.4-1.1 8.1-1.1z"/></clipPath><linearGradient x1="27825.5" y1="18633.6" x2="29354.59" y2="14810.88" spreadMethod="pad" id="d" xlink:href="#Cs"><stop offset="0" stop-color="#09005d"/><stop offset="1" stop-color="#1a0f91"/></linearGradient><clipPath id="e"><path d="M31147.4 14068.3l11.4 13.7c-256.7 216.1-417.2 437-490.6 675.4l-17-5.2c74.4-241.8 236.7-465.5 496.2-683.9z"/></clipPath><linearGradient x1="30964" y1="13523.9" x2="31320.195" y2="8133.48" spreadMethod="pad" id="f" xlink:href="#Cs"><stop offset="0" stop-color="#09005d"/><stop offset="1" stop-color="#1a0f91"/></linearGradient><clipPath id="g"><path d="M28214.7 18913.2l42.7-2399.4c-28.7-528.3 24.2-1920-557.7-3225.5l-458-1.1c99.1 2550.9-6.3 5352 973 5626z"/></clipPath><linearGradient x1="27241.7" y1="16100.2" x2="28257.45" y2="16100.2" spreadMethod="pad" id="h" xlink:href="#Cs"><stop offset="0" stop-color="#4f52ff"/><stop offset="1" stop-color="#4042e2"/></linearGradient><clipPath id="i"><path d="M27899.2 13413.2l-457.3 250.1c-71.9 39.3-162.7 13.5-206.2-59.2-68-113.9-153.5-272.8-146.8-342.8 10.2-105.4 878.9-201.4 875.1 51.7-.7 43-28.1 80.2-64.8 100.2z"/></clipPath><linearGradient x1="0" y1="0" x2="1" y2="0" gradientTransform="matrix(-348.568,-724.79,698.112,-341.607,27366,12971.7)" spreadMethod="pad" id="j" xlink:href="#Cs"><stop offset="0" stop-color="#a22b25"/><stop offset="1" stop-color="#c0423c"/></linearGradient><clipPath id="k"><path d="M27901.8 18178.1c120.9 171.5-175.1 263.2-21.5 514.1 958.1 781.5 2486.8 505.2 3074.1 466.3 192.6-12.7 373-96.6 507.6-234.9 533.8-548.5 1723.7-2066.3 528-3737.6-170.6 81.8-413.9 214.9-583.3 375.6 118.9 410.8 94.6 1061.4-241.9 1674.2-7.3-50.6-11.5-236.4-23.9-286-335-1330.7 200.4-3341.8 201.9-3592.8 2.7-447-2887.8-623-2883.3-109.4 11.2 1260.8-528 4903.8-557.7 4930.5z"/></clipPath><linearGradient x1="27835" y1="16085.9" x2="32504.94" y2="16085.9" spreadMethod="pad" id="l" xlink:href="#Cs"><stop offset="0" stop-color="#4f52ff"/><stop offset="1" stop-color="#4042e2"/></linearGradient><clipPath id="m"><path d="M31172.9 19270.9c-211.9-961.1-162.9-2120.4 16.2-3378.8L31066 15554c-344.1 1281-687.8 2612.9-606.3 3715.1z"/></clipPath><linearGradient x1="31458" y1="16295.1" x2="34919.87" y2="4866.6" spreadMethod="pad" id="n" xlink:href="#Cs"><stop offset="0" stop-color="#ff928e"/><stop offset="1" stop-color="#fe7062"/></linearGradient><clipPath id="o"><path d="M28957.6 19189.4c-17.4-834.4-538.6-2561.2-710.3-3549.3-154.4 1028.1 95.3 2753 136.8 3384.7 170.2 126.7 359.6 187.7 573.5 164.6z"/></clipPath><linearGradient x1="29153.1" y1="15596.9" x2="32614.97" y2="4168.4" spreadMethod="pad" id="p" xlink:href="#Cs"><stop offset="0" stop-color="#ff928e"/><stop offset="1" stop-color="#fe7062"/></linearGradient><clipPath id="q"><path d="M29941.5 20204.2l200.3-1128.9s-624.9-242.7-1116 49.3l246.3 1059.4z"/></clipPath><linearGradient x1="0" y1="0" x2="1" y2="0" gradientTransform="matrix(157.575,-2363.63,-2363.63,-157.575,29518,20086.5)" spreadMethod="pad" id="r" xlink:href="#Cs"><stop offset="0" stop-color="#a22b25"/><stop offset="1" stop-color="#c0423c"/></linearGradient><clipPath id="s"><path d="M29135.6 21319.3s-271.8-612.9-291.9-935.4c-20.2-322.5-91.1-531.4 281.5-598.8 372.6-67.5 688.1 116.2 860.5 436.4 0 0 270.1 493.4 211.6 696.6s-1061.7 401.2-1061.7 401.2z"/></clipPath><linearGradient x1="24455" y1="61413.9" x2="24583.077" y2="60377.52" spreadMethod="pad" id="t" xlink:href="#Cs"><stop offset="0" stop-color="#a22b25"/><stop offset="1" stop-color="#c0423c"/></linearGradient><clipPath id="u"><path d="M29859.8 20453.4l-21.2 9.5c-26.9 12.1-38.3 44.4-24.5 70.5 53.3 101.3 157.4 333.5 25.3 388.7-170.3 71.2-845.6 213.7-989.9 454.6-138.7 231.6-12.4 528.4 174.9 611.9 12.5 5.5 27.2.9 33.5-11.2l15.4-29.6c10.5-20.2 40.3-17.4 46.8 4.5 6.2 21 34.2 24.9 45.7 6.2 44.4-72.1 164.6-189.3 488.1-251.2 459.6-88 762.6-276.3 768-594.4.3-20.2 21.8-31.6 39.1-21.2 34.1 20.5 88.6 29.9 160.8-31.7 125.7-107.1 72.1-382.5-206.5-607.4-13.2-10.6-13.2-31.2.9-40.6 50.1-33 124.4-111.3-70.3-213.7-201.4-105.9-351.2-96.1-408.8-86.2-14.4 2.5-23.5 16.4-20.3 30.6l63.5 279.1c3.6 15.8-8.4 30.9-24.6 31z"/></clipPath><linearGradient x1="30158.9" y1="21698" x2="28721.93" y2="19873.44" spreadMethod="pad" id="v" xlink:href="#Cs"><stop offset="0" stop-color="#09005d"/><stop offset="1" stop-color="#1a0f91"/></linearGradient><clipPath id="w"><path d="M29847.8 20394.5s104.7 392 280 280.7-94.3-439.3-235.9-453.1z"/></clipPath><linearGradient x1="24951.1" y1="61475.2" x2="25079.177" y2="60438.82" spreadMethod="pad" id="x" xlink:href="#Cs"><stop offset="0" stop-color="#a22b25"/><stop offset="1" stop-color="#c0423c"/></linearGradient><clipPath id="y"><path d="M30715.8 15093.3l411.5-1543.6c27.1-101.8-34-206.5-136-233l-1020.9-265.9c-110.2-28.7-220.4 45.5-235.1 158.4l-217.1 1662.8c-13.1 100.7 55.4 194.2 155.5 211.9l826.4 146.7c96.7 17.2 190.3-42.4 215.7-137.3z"/></clipPath><linearGradient x1="0" y1="0" x2="1" y2="0" gradientTransform="matrix(-2599.99,-2363.63,-2363.63,2599.99,36744.6,20034.5)" spreadMethod="pad" id="z" xlink:href="#Cs"><stop offset="0" stop-color="#09005d"/><stop offset="1" stop-color="#1a0f91"/></linearGradient><clipPath id="AA"><path d="M31931.6 15214.7l-504.2 327.7c-65.8-234.8-87-496.9-270.9-680.7-103.6-103.6-222.7-191.3-368.4-206.6-210.9-22.1-398.6-131.8-444.6-318.1-108-437.3-173-965.1 24-823.7 283.9 203.8 700.1 420.9 827.7 812.8 323.3 180.9 575.7 737.4 736.4 888.6z"/></clipPath><linearGradient x1="0" y1="0" x2="1" y2="0" gradientTransform="matrix(622.549,-549.455,-549.455,-622.549,30681.2,14733)" spreadMethod="pad" id="AB" xlink:href="#Cs"><stop offset="0" stop-color="#a22b25"/><stop offset="1" stop-color="#c0423c"/></linearGradient><clipPath id="AC"><path d="M14025.5 15659.8c273.3 138.9 728.5-275.1 728.5-275.1s1196.1-227.5 1582.3-144.2c386.2 83.4 523.6 1540.7 523.6 1540.7s1246.4 425.2 870.8-1431.2c-325.9-1610.9-2984.4-289.3-2984.4-289.3s-667-18.8-836.5 130.6-157.6 329.6 115.7 468.5z"/></clipPath><linearGradient x1="17713.6" y1="15932.4" x2="13446.1" y2="14573.47" spreadMethod="pad" id="AD" xlink:href="#Cs"><stop offset="0" stop-color="#a22b25"/><stop offset="1" stop-color="#c0423c"/></linearGradient><clipPath id="AE"><path d="M16336.3 15240.5c386.2 83.4 299 1658.5 299 1658.5s1424 316.3 1095.4-1549c-151.5-860.3-1116.6-896.1-1841.2-722.4-3.9 249.6 22 358.4-29.9 604.6 55.8 2.6 436.3-.4 476.7 8.3z"/></clipPath><linearGradient x1="0" y1="0" x2="1" y2="0" gradientTransform="matrix(-720.343,-1328.13,-1328.13,720.343,18306.4,18138.5)" spreadMethod="pad" id="AF" xlink:href="#Cs"><stop offset="0" stop-color="#4f52ff"/><stop offset="1" stop-color="#4042e2"/></linearGradient><clipPath id="AG"><path d="M14663.8 15458.7s63.3-231.1-181-282.8c-244.2-51.6-583.9-149.1-635.2 4.8s-157.5 436.1 153.3 532.1c310.7 96 653.7-159.5 662.9-254.1z"/></clipPath><linearGradient x1="0" y1="0" x2="1" y2="0" gradientTransform="matrix(413.543,819.868,819.868,-413.543,14006.8,14985.8)" spreadMethod="pad" id="AH" xlink:href="#Cs"><stop offset="0" stop-color="#a22b25"/><stop offset="1" stop-color="#c0423c"/></linearGradient><clipPath id="AI"><path d="M17650.8 17669.8c84.5-66 1081.9-145.6 1821.3-304.8 536.2-115.5 897.6-618.4 835.8-1163.5l-88.4-779.9c-11-97.4-113.9-155.7-203.2-115l-2093.9 954.7z"/></clipPath><linearGradient x1="16011.8" y1="19931.7" x2="23194.63" y2="11990.68" spreadMethod="pad" id="AJ" xlink:href="#Cs"><stop offset="0" stop-color="#ff928e"/><stop offset="1" stop-color="#fe7062"/></linearGradient><clipPath id="AK"><path d="M17785 12870h2089.5c84.5 0 153 68.5 153 153v4053.5c0 125-101.4 226.4-226.5 226.4h-2016z"/></clipPath><linearGradient x1="0" y1="0" x2="1" y2="0" gradientTransform="matrix(-3760.31,-2128.48,-2128.48,3760.31,26007,19137.6)" spreadMethod="pad" id="AL" xlink:href="#Cs"><stop offset="0" stop-color="#ff928e"/><stop offset="1" stop-color="#fe7062"/></linearGradient><clipPath id="AM"><path d="M18960.3 9859.5l237.5-388.8s1894.3-1784.8 2609.2-2536c112.1-117.7 185.9-266.4 212.6-426.8l139.1-836.4 413.9 1245.1-91.2 80.9-289 108-1723.5 2346.8c-101.2 137.8-240.1 243.6-399.8 304.6l-464.7 177.5z"/></clipPath><linearGradient x1="0" y1="0" x2="1" y2="0" gradientTransform="matrix(-8691.19,11883.4,11883.4,8691.19,24383.7,3410.2)" spreadMethod="pad" id="AN" xlink:href="#Cs"><stop offset="0" stop-color="#a22b25"/><stop offset="1" stop-color="#c0423c"/></linearGradient><clipPath id="AO"><path d="M21973.2 7572.3c-39.2-270.1-222.2-396-443.8-483.3l-2423.3 2436.1-1271.4 3023.5-290.8 1792.1 522.4 130.7c1186.1-229.9 1341-2524.8 1592.7-4557.9 759.4 13.7 1514.1-1194.2 2314.2-2341.2z"/></clipPath><linearGradient x1="21290.1" y1="6327.1" x2="18286" y2="14418.13" spreadMethod="pad" id="AP" xlink:href="#Cs"><stop offset="0" stop-color="#09005d"/><stop offset="1" stop-color="#1a0f91"/></linearGradient><clipPath id="AQ"><path d="M17464.9 10028.8l-76.4-449.2s255.7-2590.1 301.2-3626.1c7.1-162.4-34.9-322.9-120.1-461.4l-444.7-722 1130 666.8 22.5 137.9-185 254.4 242.3 2901.5c14.3 170.4-20.9 341.4-101.3 492.3l-233.7 439.1z"/></clipPath><linearGradient x1="0" y1="0" x2="1" y2="0" gradientTransform="matrix(1255.09,14668.9,14668.9,-1255.09,17321.8,1603.1)" spreadMethod="pad" id="AR" xlink:href="#Cs"><stop offset="0" stop-color="#a22b25"/><stop offset="1" stop-color="#c0423c"/></linearGradient><clipPath id="AS"><path d="M16724.1 14340.7c-260.9-486.1 25.3-1864.2 651.1-4686.9l289.1-3256.4c183.5-150.5 374.8-202.9 574.2-152.1 187.7 1624.3 255.2 2796-184.2 3468.4l-104.5 2701.4-398.2 1854.4z"/></clipPath><linearGradient x1="19361.3" y1="5611" x2="16357.2" y2="13702.03" spreadMethod="pad" id="AT" xlink:href="#Cs"><stop offset="0" stop-color="#09005d"/><stop offset="1" stop-color="#1a0f91"/></linearGradient><clipPath id="AU"><path d="M18066.3 14471.4c-386.4 1637.4 428.9 2860.6 428.9 2860.6-465 446.4-1187.1 475.9-1515.6 463.2-113.4-4.3-221.7-45.7-309.8-117.2-261.2-211.9-797.6-712-700.5-1180 74.6-360.2 754.8-2157.3 754.8-2157.3s628.9-297.7 1342.2 130.7z"/></clipPath><linearGradient x1="15957.7" y1="16018.7" x2="18495.28" y2="16018.7" spreadMethod="pad" id="AV" xlink:href="#Cs"><stop offset="0" stop-color="#4f52ff"/><stop offset="1" stop-color="#4042e2"/></linearGradient><clipPath id="AW"><path d="M17336.3 18979.6l314.5-1309.8c30.1-124.3-82.7-163.1-209.3-181.6-297.4-43.6-522.6 69-559.7 278.8-3.2 18.4-13.5 34.8-16.1 53.2l-134.9 978.5c-10.7 77.7 31.2 153 102.9 184.8l260.4 115.5c100.3 44.4 216.4-12.8 242.2-119.4z"/></clipPath><linearGradient x1="0" y1="0" x2="1" y2="0" gradientTransform="matrix(168.83,-1722.07,-1722.07,-168.83,17109.9,19067.6)" spreadMethod="pad" id="AX" xlink:href="#Cs"><stop offset="0" stop-color="#a22b25"/><stop offset="1" stop-color="#c0423c"/></linearGradient><clipPath id="AY"><path d="M17043 20042.7s-442.5-120.3-808.7-686.7c-366.3-566.5-191.5-874.4 70.3-948.8s661.9-122.4 1137 211.3c475 333.7 173.8 1560.3-398.6 1424.2z"/></clipPath><linearGradient x1="0" y1="0" x2="1" y2="0" gradientTransform="matrix(-759.737,-877.918,-877.918,759.737,18431,20833.9)" spreadMethod="pad" id="AZ" xlink:href="#Cs"><stop offset="0" stop-color="#a22b25"/><stop offset="1" stop-color="#c0423c"/></linearGradient><clipPath id="Aa"><path d="M17201.3 18979.7s435.2 842.4-348 958.7l-202-104.1s71 407.3 575.2 577.7c504.1 170.5 888.3-11 1003.4-674.7 115.2-663.8-58-1058.9-433.7-1318.3-375.6-259.4-466.8 104.5-466.8 104.5s220.6 260.3 167 422.7-249.5 1.6-249.5 1.6z"/></clipPath><linearGradient x1="18143.9" y1="18292" x2="16995.61" y2="20828.92" spreadMethod="pad" id="Ab" xlink:href="#Cs"><stop offset="0" stop-color="#09005d"/><stop offset="1" stop-color="#1a0f91"/></linearGradient><clipPath id="Ac"><path d="M18125.9 19067.8s1521 467.9 1771.3-1118.6c250.4-1586.4 423.3-2095 800.5-1821.4 0 0-62.2-592.8-786.3-327.8-1879.5 687.6-735.6 2889.4-1785.5 3267.8z"/></clipPath><linearGradient x1="18561.9" y1="20243.5" x2="19977.23" y2="15837.27" spreadMethod="pad" id="Ad" xlink:href="#Cs"><stop offset="0" stop-color="#09005d"/><stop offset="1" stop-color="#1a0f91"/></linearGradient><clipPath id="Ae"><path d="M19970.7 13770.6c438.6 1872.5-1475.5 3561.4-1475.5 3561.4-456.2-104.5-573.1-405.2-450.3-844.4 900.7-844.5 1238.5-1801.5 1307.7-2606.7 122 35.6 416 91.7 618.1-110.3z"/></clipPath><linearGradient x1="17999.2" y1="15551.3" x2="20035.98" y2="15551.3" spreadMethod="pad" id="Af" xlink:href="#Cs"><stop offset="0" stop-color="#4f52ff"/><stop offset="1" stop-color="#4042e2"/></linearGradient><clipPath id="Ag"><path d="M19352.6 13880.9c85.5-353.4 76.5-617.1 63.5-743-4.6-45-27.2-81.7-74.8-83.9-22.1-1-44.7 2.3-66-3.6-21.4-5.8-41.6-25.2-38.2-47 1.5-10.4 8.1-19.4 10.5-29.7 4.8-20.1-7.7-41-24.4-53.2s-37.1-17.9-56.6-24.9c-77.3-27.6-158.7-77.8-231.6-115.4-21.4-11.1-25.1-40.2-21.6-64 31.6-211.2 327.3-191.1 468.8-118 86.4 44.6 164.9 116.4 217.8 198.3 217.3 335.7 329.6 664 370.7 974.1-202.1 202-496.1 145.9-618.1 110.3z"/></clipPath><linearGradient x1="0" y1="0" x2="1" y2="0" gradientTransform="matrix(-886.738,-1705.27,-1705.27,886.738,19670.3,13698.4)" spreadMethod="pad" id="Ah" xlink:href="#Cs"><stop offset="0" stop-color="#a22b25"/><stop offset="1" stop-color="#c0423c"/></linearGradient><clipPath id="Ai"><path d="M18308.3 17504.6c-708.6-1086.5 137.2-3213 358.4-3297.2-971.3 195.5-1333.3 1969.1-791.9 3478 159 12 321.7-41 433.5-180.8z"/></clipPath><linearGradient x1="0" y1="0" x2="1" y2="0" gradientTransform="matrix(4186.99,1519.47,1519.47,-4186.99,19446.2,16373)" spreadMethod="pad" id="Aj" xlink:href="#Cs"><stop offset="0" stop-color="#ff928e"/><stop offset="1" stop-color="#fe7062"/></linearGradient><clipPath id="Ak"><path d="M23141.8 11445.7h602c284.1 0 530-197.7 590.9-475.2l356.3-1624.1c88.5-403.4-244.3-774.8-654.9-731.1l-336.4 35.9c-224.4 23.9-416.8 170.7-499.1 380.9l-622 1588.2c-155.3 396.7 137.2 825.4 563.2 825.4z"/></clipPath><linearGradient x1="-24054.4" y1="105663" x2="-24037.517" y2="105629.234" spreadMethod="pad" id="Al" xlink:href="#Cs"><stop offset="0" stop-color="#09005d"/><stop offset="1" stop-color="#1a0f91"/></linearGradient><clipPath id="Am"><path d="M24486.7 5338.8s197.7-98.9 49.4-247.2c-148.2-148.2-395.4-247.1-741.3-345.9-346-98.9 148.2 345.9 345.9 395.4 197.7 49.4 346 197.7 346 197.7z"/></clipPath><linearGradient x1="23949.8" y1="5492.7" x2="24295.771" y2="4537.158" spreadMethod="pad" id="An" xlink:href="#Cs"><stop offset="0" stop-color="#4f52ff"/><stop offset="1" stop-color="#4042e2"/></linearGradient><clipPath id="Ao"><path d="M23399.4 8501.9S24579.3 6016.6 24533 5307c0 0-145.1-116.5-342.8-67.1 0 0-1235.6 2421.8-1482.8 2619.5z"/></clipPath><linearGradient x1="24534.3" y1="6864.8" x2="22707.4" y2="6864.8" spreadMethod="pad" id="Ap" xlink:href="#Cs"><stop offset="0" stop-color="#09005d"/><stop offset="1" stop-color="#1a0f91"/></linearGradient><clipPath id="Aq"><path d="M22410.9 4992.8s0-197.7-98.9-247.1c-98.8-49.5-939 148.2-988.5 296.5-49.4 148.3 988.5 0 1087.4-49.4z"/></clipPath><linearGradient x1="21725.8" y1="5352.6" x2="22302.419" y2="3985.19" spreadMethod="pad" id="Ar" xlink:href="#Cs"><stop offset="0" stop-color="#4f52ff"/><stop offset="1" stop-color="#4042e2"/></linearGradient><clipPath id="As"><path d="M23448.8 8749.1c0-49.5-346-2570.1-939.1-3805.7 0 0-197.7 0-345.9 148.2 0 0 345.9 2817.2 345.9 3459.8z"/></clipPath><linearGradient x1="23448.8" y1="6846.2" x2="22163.76" y2="6846.2" spreadMethod="pad" id="At" xlink:href="#Cs"><stop offset="0" stop-color="#09005d"/><stop offset="1" stop-color="#1a0f91"/></linearGradient><clipPath id="Au"><path d="M19445.4 12554.7s1631-889.6 2421.8-988.4c0 0 49.4-790.8-296.5-1136.8 0 0-1729.9 1087.3-2224.1 1828.7z"/></clipPath><linearGradient x1="-42448" y1="55529.8" x2="-41012.94" y2="54533.701" spreadMethod="pad" id="Av" xlink:href="#Cs"><stop offset="0" stop-color="#ff928e"/><stop offset="1" stop-color="#fe7062"/></linearGradient><clipPath id="Aw"><path d="M19376.8 12288.8s167.5 315.4 19.2 364.8-395.4 247.1-494.3 197.7c-98.8-49.4-68.6-513.1 475.1-562.5z"/></clipPath><linearGradient x1="19457.3" y1="12574" x2="18857.512" y2="12574" spreadMethod="pad" id="Ax" xlink:href="#Cs"><stop offset="0" stop-color="#a22b25"/><stop offset="1" stop-color="#c0423c"/></linearGradient><clipPath id="Ay"><path d="M23201.7 11368.6s-1316 184.6-1671.2 290c0 0-157.5-438.3-207-734.9-47.2-283.4 673-2372.5 823.2-3376.8 11.5-77 77.1-133.9 155-135.6 360.2-7.8 1331.5-23.6 1765.3 22.4 97.4 10.3 169.1 96 163.5 193.8-18 313.9-58.9 986.1-89.8 1171-148.2 889.6-939 2570.1-939 2570.1z"/></clipPath><linearGradient x1="-42869.6" y1="54922.5" x2="-41434.54" y2="53926.401" spreadMethod="pad" id="Az" xlink:href="#Cs"><stop offset="0" stop-color="#ff928e"/><stop offset="1" stop-color="#fe7062"/></linearGradient><clipPath id="BA"><path d="M22559.2 12307.6l276.3-789.5c37.9-108.3-41.3-221.7-155.9-223.5-128.4-2.1-298.3 13.7-474.4 82.9-56.3 22.1-95.1 74.6-102.6 134.6l-87.1 696.7z"/></clipPath><linearGradient x1="22845.1" y1="11801" x2="22015.504" y2="11801" spreadMethod="pad" id="BB" xlink:href="#Cs"><stop offset="0" stop-color="#a22b25"/><stop offset="1" stop-color="#c0423c"/></linearGradient><linearGradient x1="22099.7" y1="12476.3" x2="23317.29" y2="13383.198" spreadMethod="pad" id="BC" xlink:href="#Cs"><stop offset="0" stop-color="#09005d"/><stop offset="1" stop-color="#1a0f91"/></linearGradient><linearGradient x1="21934.8" y1="11787.9" x2="22712.472" y2="13311.98" spreadMethod="pad" id="BD" xlink:href="#Cs"><stop offset="0" stop-color="#a22b25"/><stop offset="1" stop-color="#c0423c"/></linearGradient><linearGradient x1="22113.7" y1="12489.6" x2="23181.86" y2="13467.292" spreadMethod="pad" id="BE" xlink:href="#Cs"><stop offset="0" stop-color="#09005d"/><stop offset="1" stop-color="#1a0f91"/></linearGradient><linearGradient x1="22504.8" y1="11520.1" x2="23270.204" y2="13020.14" spreadMethod="pad" id="BF" xlink:href="#Cs"><stop offset="0" stop-color="#a22b25"/><stop offset="1" stop-color="#c0423c"/></linearGradient><clipPath id="BG"><path d="M24387.9 8650.2s197.7-494.2 49.4-691.9-395.4 0-395.4 0l98.8 197.7v444.8c0 49.4 247.2 49.4 247.2 49.4z"/></clipPath><linearGradient x1="24492.4" y1="8260.3" x2="24041.861" y2="8260.3" spreadMethod="pad" id="BH" xlink:href="#Cs"><stop offset="0" stop-color="#a22b25"/><stop offset="1" stop-color="#c0423c"/></linearGradient><clipPath id="BI"><path d="M23300.5 11227.8s1037.9-589.8 1087.4-2573.4c0 0-49.5-53.6-247.2-53.6 0 0-444.8 1340.3-988.4 1983.6-283.4 335.4-98.9 750.6 148.2 643.4z"/></clipPath><linearGradient x1="-42300.9" y1="55741.9" x2="-40865.84" y2="54745.801" spreadMethod="pad" id="BJ" xlink:href="#Cs"><stop offset="0" stop-color="#ff928e"/><stop offset="1" stop-color="#fe7062"/></linearGradient><clipPath id="BK"><path d="M23252.8 11257.9c-107.7-563.5 275.6-1347.5 713.9-2187.5-710.1 817.6-1317.3 1587.7-1113.2 2400.7 334.1-54.4 445.2-140.4 399.3-213.2z"/></clipPath><linearGradient x1="-24229.9" y1="105575" x2="-24213.017" y2="105541.234" spreadMethod="pad" id="BL" xlink:href="#Cs"><stop offset="0" stop-color="#09005d"/><stop offset="1" stop-color="#1a0f91"/></linearGradient><clipPath id="BM"><path d="M21948.5 11553.8c-23.4-591-151-1251.8-313.9-1936.1-39.5 64.1-58.4 134.3-57.3 210.4 14.4 687.2 21.9 1336.6 0 1827.3 123.8 33.8 247.5 0 371.2-101.6z"/></clipPath><linearGradient x1="-25409.3" y1="104986" x2="-25392.417" y2="104952.234" spreadMethod="pad" id="BN" xlink:href="#Cs"><stop offset="0" stop-color="#09005d"/><stop offset="1" stop-color="#1a0f91"/></linearGradient><clipPath id="BO"><path d="M12180.5 8542.5v-653.1c0-168.8 139.7-308.2 318.6-325.1 12-1.3 24.2-1.7 36.7-1.7h55.2c33.3 0 65.4 4.1 95.8 12.2v128.4c-29.2-11.5-61.5-18.1-95.8-18.1h-55.2c-12.5 0-24.7 1-36.7 2.7-111 15.4-196 100-196 201.6v653.1c0 101.6 85 186.2 196 201.6 12 1.7 24.2 2.7 36.7 2.7h55.2c34.3 0 66.6-6.4 95.8-18.1v128.4c-30.4 8.1-62.5 12.2-95.8 12.2h-55.2c-12.5 0-24.7-.5-36.7-1.7-178.9-16.9-318.6-156.3-318.6-325.1z"/></clipPath><linearGradient x1="12500.9" y1="8878.1" x2="12392.995" y2="7572.97" spreadMethod="pad" id="BP" xlink:href="#Cs"><stop offset="0" stop-color="#09005d"/><stop offset="1" stop-color="#1a0f91"/></linearGradient><clipPath id="BQ"><path d="M12499.1 8975.7v-335c0-51.9 41.9-93.8 93.8-93.8 26 0 49.5 10.5 66.4 27.4 17 16.9 27.5 40.4 27.5 66.4v335c0 51.7-41.9 93.8-93.9 93.8-25.9 0-49.5-10.5-66.4-27.4-16.9-17.2-27.4-40.7-27.4-66.4z"/></clipPath><linearGradient x1="12686.8" y1="8808.2" x2="12499.103" y2="8808.2" spreadMethod="pad" id="BR" xlink:href="#Cs"><stop offset="0" stop-color="#09005d"/><stop offset="1" stop-color="#1a0f91"/></linearGradient><clipPath id="BS"><path d="M12499.1 7807.6v-335c0-51.7 41.9-93.8 93.8-93.8 26 0 49.5 10.5 66.4 27.4 17 17.2 27.5 40.7 27.5 66.4v335c0 51.9-41.9 93.8-93.9 93.8-25.9 0-49.5-10.5-66.4-27.4s-27.4-40.4-27.4-66.4z"/></clipPath><linearGradient x1="12686.8" y1="7640.1" x2="12499.103" y2="7640.1" spreadMethod="pad" id="BT" xlink:href="#Cs"><stop offset="0" stop-color="#09005d"/><stop offset="1" stop-color="#1a0f91"/></linearGradient><clipPath id="BU"><path d="M15670.6 5217.8c0-176.9 143.4-320.3 320.3-320.3 176.8 0 320.2 143.4 320.2 320.3 0 176.8-143.4 320.2-320.2 320.2-176.9 0-320.3-143.4-320.3-320.2z"/></clipPath><linearGradient x1="16311.1" y1="5217.8" x2="15670.645" y2="5217.8" spreadMethod="pad" id="BV" xlink:href="#Cs"><stop offset="0" stop-color="#4f52ff"/><stop offset="1" stop-color="#4042e2"/></linearGradient><clipPath id="BW"><path d="M15762.4 5217.8c0-126.2 102.3-228.5 228.5-228.5 126.1 0 228.4 102.3 228.4 228.5 0 126.1-102.3 228.4-228.4 228.4-126.2 0-228.5-102.3-228.5-228.4z"/></clipPath><linearGradient x1="16219.3" y1="5217.8" x2="15762.422" y2="5217.8" spreadMethod="pad" id="BX" xlink:href="#Cs"><stop offset="0" stop-color="#09005d"/><stop offset="1" stop-color="#1a0f91"/></linearGradient><clipPath id="BY"><path d="M13269.3 5217.8c0-176.9 143.3-320.3 320.2-320.3s320.2 143.4 320.2 320.3c0 176.8-143.3 320.2-320.2 320.2s-320.2-143.4-320.2-320.2z"/></clipPath><linearGradient x1="13909.7" y1="5217.8" x2="13269.245" y2="5217.8" spreadMethod="pad" id="BZ" xlink:href="#Cs"><stop offset="0" stop-color="#4f52ff"/><stop offset="1" stop-color="#4042e2"/></linearGradient><clipPath id="Ba"><path d="M13361.1 5217.8c0-126.2 102.2-228.5 228.4-228.5s228.4 102.3 228.4 228.5c0 126.1-102.2 228.4-228.4 228.4s-228.4-102.3-228.4-228.4z"/></clipPath><linearGradient x1="13817.9" y1="5217.8" x2="13361.022" y2="5217.8" spreadMethod="pad" id="Bb" xlink:href="#Cs"><stop offset="0" stop-color="#09005d"/><stop offset="1" stop-color="#1a0f91"/></linearGradient><clipPath id="Bc"><path d="M15794.6 11029.8h147v2156.3h-147z"/></clipPath><linearGradient x1="15927.1" y1="11141.4" x2="16074.122" y2="8733.92" spreadMethod="pad" id="Bd" xlink:href="#Cs"><stop offset="0" stop-color="#09005d"/><stop offset="1" stop-color="#1a0f91"/></linearGradient><clipPath id="Be"><path d="M13638.8 11029.8h147v2156.3h-147z"/></clipPath><linearGradient x1="13767.4" y1="11204.6" x2="13914.422" y2="8797.12" spreadMethod="pad" id="Bf" xlink:href="#Cs"><stop offset="0" stop-color="#09005d"/><stop offset="1" stop-color="#1a0f91"/></linearGradient><clipPath id="Bg"><path d="M16244.2 5242.2h-2908c-415 0-798.5 333.5-798.5 769.2v25.5 4375.5c0 435.7 383.5 757.1 798.5 757.1h1013.9 1894.1c414.9 0 731.5-321.4 731.5-757.1v-583.2V9120v-990.9-2092.2-25.5c0-435.7-316.6-769.2-731.5-769.2m-2777.8 5629.4c-377.6 0-690.5-261.2-690.5-657.7v-4004c0-396.5 312.9-699.6 690.5-699.6h2646.4c377.6 0 624.6 303.1 624.6 699.6v4004c0 396.5-247 657.7-624.6 657.7h-2646.4"/></clipPath><linearGradient x1="0" y1="0" x2="1" y2="0" gradientTransform="matrix(3970.6,13266.1,13266.1,-3970.6,14547.4,7502.6)" spreadMethod="pad" id="Bh" xlink:href="#Cs"><stop offset="0" stop-color="#e1473d"/><stop offset="1" stop-color="#e9605a"/></linearGradient><clipPath id="Bi"><path d="M16112.8 5510.3h-2646.4c-377.6 0-690.5 303.1-690.5 699.6v4004c0 396.5 312.9 657.7 690.5 657.7h2646.4c377.6 0 624.6-261.2 624.6-657.7v-4004c0-396.5-247-699.6-624.6-699.6m-78.7 4855c-72.2 0-130.7-58.5-130.7-130.7V6177.1c0-72.2 58.5-130.7 130.7-130.7h36.5c72.1 0 130.7 58.5 130.7 130.7v4057.5c0 72.2-58.6 130.7-130.7 130.7h-36.5m-834 0c-72.2 0-130.7-58.5-130.7-130.7V6177.1c0-72.2 58.5-130.7 130.7-130.7h36.5c72.2 0 130.7 58.5 130.7 130.7v4057.5c0 72.2-58.5 130.7-130.7 130.7h-36.5m-863.8 0c-72.1 0-130.7-58.5-130.7-130.7V6177.1c0-72.2 58.6-130.7 130.7-130.7h36.5c72.2 0 130.7 58.5 130.7 130.7v4057.5c0 72.2-58.5 130.7-130.7 130.7h-36.5m-893.5 0c-72.2 0-130.7-58.5-130.7-130.7V6177.1c0-72.2 58.5-130.7 130.7-130.7h36.4c72.2 0 130.7 58.5 130.7 130.7v4057.5c0 72.2-58.5 130.7-130.7 130.7h-36.4"/></clipPath><linearGradient x1="0" y1="0" x2="1" y2="0" gradientTransform="matrix(11126.4,11865,11865,-11126.4,5905.33,-1254.1)" spreadMethod="pad" id="Bj" xlink:href="#Cs"><stop offset="0" stop-color="#ff928e"/><stop offset="1" stop-color="#fe7062"/></linearGradient><clipPath id="Bk"><path d="M16070.6 6046.4h-36.5c-72.2 0-130.7 58.5-130.7 130.7v4057.5c0 72.2 58.5 130.7 130.7 130.7h36.5c72.1 0 130.7-58.5 130.7-130.7V6177.1c0-72.2-58.6-130.7-130.7-130.7"/></clipPath><clipPath id="Bl"><path d="M15903.4 6046.4h297.902v4318.9H15903.4z"/></clipPath><linearGradient x1="0" y1="0" x2="1" y2="0" gradientTransform="matrix(11126.4,11865,11865,-11126.4,5905.33,-1254.1)" spreadMethod="pad" id="Bm" xlink:href="#Cs"><stop offset="0" stop-color="#ffb3b0"/><stop offset="1" stop-color="#fe988c"/></linearGradient><clipPath id="Bn"><path d="M15236.6 6046.4h-36.5c-72.2 0-130.7 58.5-130.7 130.7v4057.5c0 72.2 58.5 130.7 130.7 130.7h36.5c72.2 0 130.7-58.5 130.7-130.7V6177.1c0-72.2-58.5-130.7-130.7-130.7"/></clipPath><clipPath id="Bo"><path d="M14372.8 6046.4h-36.5c-72.1 0-130.7 58.5-130.7 130.7v4057.5c0 72.2 58.6 130.7 130.7 130.7h36.5c72.2 0 130.7-58.5 130.7-130.7V6177.1c0-72.2-58.5-130.7-130.7-130.7"/></clipPath><clipPath id="Bp"><path d="M13479.2 6046.4h-36.4c-72.2 0-130.7 58.5-130.7 130.7v4057.5c0 72.2 58.5 130.7 130.7 130.7h36.4c72.2 0 130.7-58.5 130.7-130.7V6177.1c0-72.2-58.5-130.7-130.7-130.7"/></clipPath><clipPath id="Bq"><path d="M14029.5 14337.8h1435.6c255.2 0 513.5-124.4 513.5-362.3v-791.4c0-25.9-21-47-47-47H15805c-25.9 0-46.9 21.1-46.9 47v791.4c0 75.5-136.9 141.8-293 141.8h-1435.6c-207.2 0-207.2-106.7-207.2-141.8v-791.4c0-25.9-21-47-47-47h-126.6c-25.9 0-46.9 21.1-46.9 47v791.4c0 175.2 112.3 362.3 427.7 362.3z"/></clipPath><linearGradient x1="0" y1="0" x2="1" y2="0" gradientTransform="matrix(911.684,4423.36,4423.36,-911.684,13559.5,7626.8)" spreadMethod="pad" id="Br" xlink:href="#Cs"><stop offset="0" stop-color="#ff928e"/><stop offset="1" stop-color="#fe7062"/></linearGradient><clipPath id="Bs"><path d="M16223.6 5350.1h42.9c351.3 0 637.1 302.5 637.1 674.4v655.9c0 5.1-4.1 9.2-9.2 9.2-5 0-9.2-4.1-9.2-9.2v-655.9c0-361.8-277.5-656-618.7-656h-42.9c-5 0-9.2-4.2-9.2-9.2 0-5.1 4.2-9.2 9.2-9.2z"/></clipPath><linearGradient x1="16214.5" y1="6019.8" x2="16903.663" y2="6019.8" spreadMethod="pad" id="Bt" xlink:href="#Cs"><stop offset="0" stop-color="#febbba"/><stop offset="1" stop-color="#ff928e"/></linearGradient><clipPath id="Bu"><path d="M16894.4 6838.7c5.1 0 9.2 4.1 9.2 9.2v379.8c0 5-4.1 9.2-9.2 9.2-5 0-9.2-4.2-9.2-9.2v-379.8c0-5.1 4.2-9.2 9.2-9.2z"/></clipPath><linearGradient x1="16885.2" y1="7037.8" x2="16903.578" y2="7037.8" spreadMethod="pad" id="Bv" xlink:href="#Cs"><stop offset="0" stop-color="#febbba"/><stop offset="1" stop-color="#ff928e"/></linearGradient><clipPath id="Bw"><path d="M12375.5 14525.1c175.1 133.8 102.6 315.7 102.6 315.7-876.9 249.3-1316.7 1685.6-1619.8 2839-317.3-60.9-582.8 794.4-1015.73 449.2-485.13-2320.2 2532.93-3603.9 2532.93-3603.9z"/></clipPath><linearGradient x1="23854" y1="-10044.5" x2="26132.93" y2="-14704.07" spreadMethod="pad" id="Bx" xlink:href="#Cs"><stop offset="0" stop-color="#febbba"/><stop offset="1" stop-color="#ff928e"/></linearGradient><clipPath id="By"><path d="M11999.4 14731.4c-47.2-12.8-127.8 108.6 66.9 201.1 91.4-.4 484.8 38.8 556.9-19.4 383.7-309.6 856.2-898.4 856.2-898.4-98-91.9-186.9-8.9-186.9-8.9l-273 287.5c-105.7-53.2-195.8-119.7-322.1-147.3-95.7-20.9-196.1-1.3-280.2 50.5-84.3 52.1-193.9 122.8-279.1 188.9-161.4 125.1-138.7 346-138.7 346z"/></clipPath><linearGradient x1="24478.6" y1="-9699.2" x2="26754.57" y2="-14352.72" spreadMethod="pad" id="Bz" xlink:href="#Cs"><stop offset="0" stop-color="#febbba"/><stop offset="1" stop-color="#ff928e"/></linearGradient><clipPath id="CA"><path d="M8968.21 5971.8s-62.95-359.1-93.82-714.6c-12.06-139 94.24-259.6 232.53-265.4 469.81-19.8 1474.78-58.1 1835.38-41.9 54.2 2.4 89.7 58.4 69.6 109.2-16.8 42.6-49.2 77-90.5 96.1l-1660.06 768.9z"/></clipPath><linearGradient x1="10247.7" y1="6735.9" x2="9874.627" y2="4921.41" spreadMethod="pad" id="CB" xlink:href="#Cs"><stop offset="0" stop-color="#4f52ff"/><stop offset="1" stop-color="#4042e2"/></linearGradient><clipPath id="CC"><path d="M8916.65 6182.8l50.58-429.6s290.79-136.4 489.37 17.2l-120.43 478.8z"/></clipPath><linearGradient x1="8916.65" y1="5973.3" x2="9456.605" y2="5973.3" spreadMethod="pad" id="CD" xlink:href="#Cs"><stop offset="0" stop-color="#febbba"/><stop offset="1" stop-color="#ff928e"/></linearGradient><clipPath id="CE"><path d="M8954.66 14259.3c-21.85-116.3-80-5809.4 501.94-8358.4 9.49-41.6 69.68-123.3 48.91-159.1-50.5-87-422.36-62.6-632.05-70-64.94-2.2-99.82 74.6-118.14 139.7-166.35 591.4-963.44 3554.6-1067.42 6385.2-116.19 3162.9 0 107.7 0 107.7l68.15 1955.1z"/></clipPath><linearGradient x1="0" y1="0" x2="1" y2="0" gradientTransform="matrix(2690.95,-11696.3,-11696.3,-2690.95,6474.92,20313.1)" spreadMethod="pad" id="CF" xlink:href="#Cs"><stop offset="0" stop-color="#09005d"/><stop offset="1" stop-color="#1a0f91"/></linearGradient><clipPath id="CG"><path d="M7058.63 5784.5s-100.21-181.4-197.22-663.2c-17.52-87 42.8-170.2 130.48-178.9 155.13-15.4 393.96-35.2 585.27-33.8 88.19.6 157.01 78 146.38 166.2-21.18 175.8-87.2 464.4-291.14 689.2z"/></clipPath><linearGradient x1="7276.72" y1="6640.5" x2="7293.683" y2="4842.47" spreadMethod="pad" id="CH" xlink:href="#Cs"><stop offset="0" stop-color="#4f52ff"/><stop offset="1" stop-color="#4042e2"/></linearGradient><clipPath id="CI"><path d="M6970.62 6337l118.19-649.6s116.84-87.6 348.02-24.1l-56.41 698.9z"/></clipPath><linearGradient x1="6970.62" y1="6001.2" x2="7436.831" y2="6001.2" spreadMethod="pad" id="CJ" xlink:href="#Cs"><stop offset="0" stop-color="#febbba"/><stop offset="1" stop-color="#ff928e"/></linearGradient><clipPath id="CK"><path d="M6651.34 14077.7c-475.93-3021.4 103.24-7467.5 298.58-8337.7 11.96-53.3 52.84-94.1 104.17-103 87.2-15.2 230.75-27.6 372.27 15.6 48.76 14.9 83.01 61.2 85 114.5 26.21 703.6-20.96 5022.6 422.51 6729.5 22.47 86.5 72.71 162 142.19 213.9l860.74 643.7 65.99 1040.4z"/></clipPath><linearGradient x1="0" y1="0" x2="1" y2="0" gradientTransform="matrix(2679.77,-11647.7,-11647.7,-2679.77,5672.07,20083)" spreadMethod="pad" id="CL" xlink:href="#Cs"><stop offset="0" stop-color="#09005d"/><stop offset="1" stop-color="#1a0f91"/></linearGradient><clipPath id="CM"><path d="M9684.08 19575.5c-1426.33 23.8-3000.1-377.4-3000.1-377.4-425.16-2499.9-74.35-5383.4-74.35-5383.4 1104.22-291.8 2349.85 178.4 2349.85 178.4 183.52 1045 707.45 3099.6 707.45 3099.6-40.29 148.8 166.19-376 398.27-594.9 321.4-177.5 974.7 674.2 900.9 991.1-825.9 1450-842.1 2079.3-1282.02 2086.6z"/></clipPath><linearGradient x1="-105178" y1="146595" x2="-102392.44" y2="143404.27" spreadMethod="pad" id="CN" xlink:href="#Cs"><stop offset="0" stop-color="#09005d"/><stop offset="1" stop-color="#1a0f91"/></linearGradient><clipPath id="CO"><path d="M7231.05 17806.4l-547.07 1391.7s-1332.26-912.2-1551.35-2068.7c251.72-18.7 709.79-84.7 1158.15-312.8 98.53 546.1 940.27 989.8 940.27 989.8z"/></clipPath><linearGradient x1="-105766" y1="146082" x2="-102980.44" y2="142891.27" spreadMethod="pad" id="CP" xlink:href="#Cs"><stop offset="0" stop-color="#09005d"/><stop offset="1" stop-color="#1a0f91"/></linearGradient><clipPath id="CQ"><path d="M8395.3 16496.8s-1495.79-851.9-2000.49-124.5c-104.8 151-129.84 301.1-104.03 444.3-448.36 228.1-906.43 294.1-1158.15 312.8-66.07-348.7-31.14-719.5 172.18-1094.3 884.06-1629.7 3288.44 90 3288.44 90z"/></clipPath><linearGradient x1="5102.26" y1="16231.4" x2="8593.25" y2="16231.4" spreadMethod="pad" id="CR" xlink:href="#Cs"><stop offset="0" stop-color="#febbba"/><stop offset="1" stop-color="#ff928e"/></linearGradient><clipPath id="CS"><path d="M8412.81 16113.2s-113.72 471.2-67.85 638.3c45.87 167.2 134.75 382.2 431 334.4 296.24-47.8 645.69-173.5 645.69-173.5s-17.66-217.8-242.81-147.5l139.62-108.9s-19.95-174.3-210.13-81.2l129.85-144.4s-81.67-143.2-221.59-51.3c-139.91 91.8-206.98-322.7-603.78-265.9z"/></clipPath><linearGradient x1="8334.06" y1="16600.2" x2="9421.65" y2="16600.2" spreadMethod="pad" id="CT" xlink:href="#Cs"><stop offset="0" stop-color="#febbba"/><stop offset="1" stop-color="#ff928e"/></linearGradient><clipPath id="CU"><path d="M8239.33 20742.4l-453.83-1322.6c-7.52-21.9 1.41-46.1 21.55-57.4 123.71-68.9 569.41-268.1 1106.53 75 55.95 35.8 94.04 94.1 102.54 160.3l146.96 1144.7z"/></clipPath><linearGradient x1="7782.86" y1="19992.3" x2="9163.08" y2="19992.3" spreadMethod="pad" id="CV" xlink:href="#Cs"><stop offset="0" stop-color="#febbba"/><stop offset="1" stop-color="#ff928e"/></linearGradient><clipPath id="CW"><path d="M9226.8 21967.2s498.36-945.4 434.48-1327.3c-63.88-381.8-681.51-354.4-1220.85-44.3l-376.88 1020.8z"/></clipPath><linearGradient x1="0" y1="0" x2="1" y2="0" gradientTransform="matrix(-1521.05,927.726,927.726,1521.05,9493.35,20879)" spreadMethod="pad" id="CX" xlink:href="#Cs"><stop offset="0" stop-color="#febbba"/><stop offset="1" stop-color="#ff928e"/></linearGradient><clipPath id="CY"><path d="M8464.27 21096.9c21.92 9.8 30.01 36.8 16.87 57.1-39.92 61.4-114.76 186.8-138.65 296.6 0 0-89.58 57.8 228.04 134.4 172.93 41.7 479.52 76.2 614.26 201.5 150.8 140.3-127.22 405.2-244.11 476.3-154.26 93.8-342.09 149.4-516.07 102.1-83.96-22.9-159.93-68.1-234.72-112.8-127.37-76.1-259.22-156.5-340.21-281.5-52.43-80.8-79.9-175.2-105.07-268.4-36.15-134-69.22-271.2-62.95-409.8 16.72-369.5 446.37-700.5 791.89-740.9 28.27-3.3 50.17 24.8 40.91 51.9l-141.23 413.7c-6.56 19.3 2.56 40.3 20.99 48.6z"/></clipPath><linearGradient x1="0" y1="0" x2="1" y2="0" gradientTransform="matrix(1656.16,-1308.09,-1308.09,-1656.16,7350.76,22398.3)" spreadMethod="pad" id="CZ" xlink:href="#Cs"><stop offset="0" stop-color="#4f52ff"/><stop offset="1" stop-color="#4042e2"/></linearGradient><clipPath id="Ca"><path d="M8521.04 21038.2s-354.83 245.3-380.76 38.7c-25.92-206.6 319.53-299.2 490.64-222.2z"/></clipPath><linearGradient x1="0" y1="0" x2="1" y2="0" gradientTransform="matrix(-1368.05,834.408,834.408,1368.05,9094.11,20531.9)" spreadMethod="pad" id="Cb" xlink:href="#Cs"><stop offset="0" stop-color="#febbba"/><stop offset="1" stop-color="#ff928e"/></linearGradient><clipPath id="Cc"><path d="M12472.8 15624.1l-193.7-1828.1c-12.7-120.5 74.5-228.7 194.3-240.9l1198.7-121.9c129.4-13.1 240.7 90.7 237.6 221.7l-46.8 1929.3c-2.8 116.8-96.5 211-212.5 213.5l-958.3 20.7c-112.2 2.4-207.4-81.9-219.3-194.3z"/></clipPath><linearGradient x1="0" y1="0" x2="1" y2="0" gradientTransform="matrix(-2116.01,-1620.77,-1620.77,2116.01,18337.8,18567.8)" spreadMethod="pad" id="Cd" xlink:href="#Cs"><stop offset="0" stop-color="#4f52ff"/><stop offset="1" stop-color="#4042e2"/></linearGradient><clipPath id="Ce"><path d="M12766.1 14597.4l-200.5 259.9-206.8 87.7-255.7-213.1s413.8-93.1 501.7-152.8c87.9-59.8 132.7-32.7 161.3 18.3z"/></clipPath><linearGradient x1="0" y1="0" x2="1" y2="0" gradientTransform="matrix(2656.7,4434.53,4434.53,-2656.7,68247.6,107827)" spreadMethod="pad" id="Cf" xlink:href="#Cs"><stop offset="0" stop-color="#febbba"/><stop offset="1" stop-color="#ff928e"/></linearGradient><clipPath id="Cg"><path d="M9305.38 21926.3c-668.66 1272.7-2401.73 116.5-1595.17-955.7 599.68 401.8 1277.31 999.1 1595.17 955.7z"/></clipPath><linearGradient x1="0" y1="0" x2="1" y2="0" gradientTransform="matrix(1215.58,-1710.81,-1710.81,-1215.58,5963.75,25039.3)" spreadMethod="pad" id="Ch" xlink:href="#Cs"><stop offset="0" stop-color="#09005d"/><stop offset="1" stop-color="#1a0f91"/></linearGradient><clipPath id="Ci"><path d="M9261.68 22063.4c1351.82 69.4 239.05-435.7-992.07-705.3 306.45 327.9 612.82 572.2 992.07 705.3z"/></clipPath><linearGradient x1="9892.3" y1="21905.4" x2="8224.83" y2="21617.319" spreadMethod="pad" id="Cj" xlink:href="#Cs"><stop offset="0" stop-color="#09005d"/><stop offset="1" stop-color="#1a0f91"/></linearGradient><clipPath id="Ck"><path d="M8068.6 17751.8c-104.68-8.5-990-37.1-990-37.1l35.74-898.1 458.63-260.7 495.63 260.7z"/></clipPath><linearGradient x1="0" y1="0" x2="1" y2="0" gradientTransform="matrix(7141.17,6634.7,6634.7,-7141.17,7740.24,17420.5)" spreadMethod="pad" id="Cl" xlink:href="#Cs"><stop offset="0" stop-color="#09005d"/><stop offset="1" stop-color="#1a0f91"/></linearGradient><clipPath id="Cm"><path d="M8138.9 17751.8l-1058.31-37.1-43.27-344.6 550.8-144.2 585.45 263z"/></clipPath><linearGradient x1="0" y1="0" x2="1" y2="0" gradientTransform="matrix(-720.343,-2656.26,-2656.26,720.343,7865.8,18482)" spreadMethod="pad" id="Cn" xlink:href="#Cs"><stop offset="0" stop-color="#4f52ff"/><stop offset="1" stop-color="#4042e2"/></linearGradient><clipPath id="Co"><path d="M8985.32 14130.7c-599.71-217.1-1443.78-217.2-2396.74-120.6l8.28-290.8c1008.22-106.4 1884.61-121.7 2370.04 133.2z"/></clipPath><linearGradient x1="0" y1="0" x2="1" y2="0" gradientTransform="matrix(-2003.45,-2273.58,-2273.58,2003.45,12771.5,19598.3)" spreadMethod="pad" id="Cp" xlink:href="#Cs"><stop offset="0" stop-color="#4f52ff"/><stop offset="1" stop-color="#4042e2"/></linearGradient><clipPath id="Cq"><path d="M6526.29 13576.8l1085.01-65.2c23.05-1.4 42.86 16.2 44.22 39.2l29.42 496.8c1.36 23-16.18 42.8-39.2 44.1l-1043.93 62.8c-45.74 2.8-85.03-32.1-87.73-77.8l-26.99-455.7c-1.36-23 16.18-42.8 39.2-44.2z"/></clipPath><linearGradient x1="0" y1="0" x2="1" y2="0" gradientTransform="matrix(-967.363,-1378.49,-1378.49,967.363,10114.5,18136.3)" spreadMethod="pad" id="Cr" xlink:href="#Cs"><stop offset="0" stop-color="#4f52ff"/><stop offset="1" stop-color="#4042e2"/></linearGradient><linearGradient id="Cs" gradientUnits="userSpaceOnUse"/></defs><g transform="matrix(.133333 0 0 -.133333 0 4946.6667)"><path d="M0 0h37100v37100H0z" fill="#fff"/><g clip-path="url(#A)"><path d="M18977.5 5019.4c-1224 0-2238 119.2-2898.6 222.8h165.3c414.9 0 731.5 333.5 731.5 769.2v25.5h7838.4c-2090.8-793.8-4160.2-1017.5-5836.6-1017.5m-8433.3 1910.4C9460.11 7498.4 8375.66 8273 7424.47 9345.9c-2512.08 2833.5-3172.16 6707.6-2528.02 10340.5 55.54-289.9 119.72-583.9 193.2-881.1 1059.7-4286.3 3893.07-7256.4 5454.55-8623.4V6929.8m19199.9 2414.3v17182.1c3907.5-5267.8 3329.9-13162.9 0-17182.1M10544.2 16050l-1438.47 3198.5c408-503.1 879.66-986.9 1423.27-1443.9l15.2-36.4V16050" fill="url(#B)"/></g><path d="M7800.93 32534.3C7184.32 30864 3992.92 20997.7 12713.4 16340c0 0 3773 5954.4-4654.81 16238-73.74 90-217.38 65.4-257.66-43.7" fill="#bdd0fb"/><g clip-path="url(#C)"><path d="M10544.2 17768.2l-15.2 36.4 15.2-12.7v-23.7" fill="url(#D)"/></g><path d="M10544.2 17791.9l-15.2 12.7c-166.2 400.9-310.8 809.9-442.9 1222.1-173.32 543.7-325.64 1093.5-457.82 1647.7-267.89 1107.7-474.7 2228.3-648.71 3353-173.17 1125-311.57 2254.8-424.67 3386.9L8405 29114.2l-107.9 1703.3c-.83 17.9 13 33 30.87 33.9h1.55c17.14 0 31.42-13.4 32.35-30.7l.01-.3c30.12-566.9 72.01-1134 118.75-1700.2l160.72-1697c120.27-1130 265.79-2257.3 445.87-3378.8 180.88-1121.2 394.46-2237.6 668.31-3338.8 135.16-550.9 290.27-1096.7 465.67-1635.1 99.7-304.3 206.2-606.5 323-904.1v-374.5" fill="#dbe5fd"/><path d="M11613.5 9328.5s858.4 2403.7-623.2 5732.1c-1374.66 3088.2-4877.07 10355.2-5046.34 13704.7-7.5 148.4-210.44 182.7-264.74 44.4-582.48-1483.4-1749.34-5313.3-589.57-10004.4 1495.57-6049.4 6523.85-9476.8 6523.85-9476.8" fill="#91b3fa"/><path d="M10544.2 11553.8l-209.8 430.2c-315.9 627.2-652.86 1244.7-988.89 1862.9l-503.18 928.3-491.81 934.9-480.65 940.9-233.82 473.7-231.6 474.9-226.21 477.5-113.12 238.8c-37.83 79.5-70.97 161.7-106.68 242.4l-210.58 486.4-52.63 121.6-47.01 123.9-93.22 248.1-93.2 248.1c-30.47 82.9-64.19 164.7-89.01 249.6l-160.22 505.3c-57.19 167.3-96.23 340.1-142.95 510.4-43.99 171.2-94.46 340.7-126.71 514.6-157.26 689.1-253.07 1391.9-291.55 2096.9-7.8 87.9-6.45 176.4-8.78 264.6l-4.6 264.7 6.47 264.7 3.3 132.3c1.99 44 5.54 88 8.23 132 19.5 352 58.79 704.1 141.13 1047 .28 1.1 1.3 1.9 2.42 1.9.19 0 .38-.1.57-.1 1.3-.3 2.09-1.8 1.82-3.1-36-172-52.85-347.4-71.12-521.9l-19.1-262.6c-5.64-87.6-6.39-175.5-9.83-263.1l-3.76-131.5 1.17-131.7 2.44-263.1 13.46-262.7c5.73-87.5 5.99-175.3 15.58-262.5 53.25-699.1 163.19-1393.9 333.75-2073.6 167.78-679.9 370.56-1352.1 628.92-2003.6l93.7-245.4 47.22-122.6 52.86-120.3 211.41-481.1 106.91-240.2 112.71-238.3 225.41-476.5 938.97-1888.3 975.44-1871.1 962.54-1881c42.9-87.6 83.6-176.4 123.6-265.5v-206.8" fill="#c3d5fc"/><g clip-path="url(#E)"><path d="M11309.1 6036.9h-398.4c-202.4 0-366.5 164.1-366.5 366.5v526.4 3252.1 1371.9 206.8V16050v1718.2 23.7 374.5 10977.8 2407.4c0 202.4 164.1 366.5 366.5 366.5h18068.5 0-17670.1c-202.5 0-366.5-164.1-366.5-366.5V6403.4c0-202.4 164-366.5 366.5-366.5" fill="url(#F)"/></g><path d="M29377.6 6036.9H11309.1c-202.5 0-366.5 164.1-366.5 366.5v25148.2c0 202.4 164 366.5 366.5 366.5h18068.5c202.4 0 366.5-164.1 366.5-366.5V6403.4c0-202.4-164.1-366.5-366.5-366.5" fill="#91b3fa"/><path d="M25589.5 22757.6c0-2778.2-2252.2-5030.4-5030.5-5030.4-2778.2 0-5030.4 2252.2-5030.4 5030.4S17780.8 27788 20559 27788c2778.3 0 5030.5-2252.2 5030.5-5030.4" fill="#7d97f4"/><path d="M25029.9 22798.7c0-2465.5-1998.8-4464.3-4464.3-4464.3-2465.6 0-4464.4 1998.8-4464.4 4464.3 0 2465.6 1998.8 4464.4 4464.4 4464.4 2465.5 0 4464.3-1998.8 4464.3-4464.4m884.4-12969.5H14470.1c-66 0-120 54-120 120v1698.7c0 66 54 120 120 120h11444.2c66 0 120-54 120-120V9949.2c0-66-54-120-120-120m-181.4-1700.1h-10972c-14.1 0-25.7 11.6-25.7 25.8v939.4c0 14.1 11.6 25.7 25.7 25.7h10972c14.2 0 25.7-11.6 25.7-25.7v-939.4c0-14.2-11.5-25.8-25.7-25.8" fill="#91b3fa"/><g clip-path="url(#G)"><path d="M29517.1 13113.7l-3501.8-764.7 226.3-3349.4c1.6-24.9 24.7-41.5 47-33.9l3246.5 1107.8c33.5 11.5 56.3 44.7 56.3 82.2v2893.5c0 41.7-35.9 72.9-74.3 64.5" fill="url(#H)"/></g><g clip-path="url(#I)"><path d="M25553.7 9145l637.5-180.1c25.3-7.1 50 13.2 50 41v3323.8c0 28.5-19.8 52.5-46.3 56.1l-650.3 87.8c-43.7 5.9-82.2-30.8-81.5-77.8l43.8-3187c.4-30.1 19.5-56.1 46.8-63.8" fill="url(#J)"/></g><g clip-path="url(#K)"><path d="M25530 12500.6l3499.8 814 467.5-153.7c25.1-8.3 23.5-46.8-2.2-52.5l-3253.9-728.9-710.2 95.9c-13.3 1.8-14.2 22.1-1 25.2" fill="url(#L)"/></g><g clip-path="url(#M)"><path d="M25809.5 9049.9c-18.7 0-33.8 15.1-33.8 33.7v3346.5c0 15.7 10.7 29.3 26 32.9l3415.3 813.1c18.3 4.2 36.4-6.9 40.7-25.1 4.3-18.1-6.9-36.3-25-40.6l-3389.5-807V9083.6c0-18.6-15.1-33.7-33.7-33.7" fill="url(#N)"/></g><g clip-path="url(#O)"><path d="M28122.8 13004.2l-13.5 387c-1.4 39.1-34.3 68.3-70.6 62.7l-1011.3-156.9c-34.4-5.3-57.8-39.7-52-76.1l71.6-450c5.2-32.6 32.2-56 63.2-54.8 32 1.3 57.8 28.4 59.4 62.5l17.2 367.1c1.6 32.3 24.9 58.6 55 62.1l636.7 74.2c33.5 3.9 63.6-21.4 68-56.9l28.7-234.3c4.3-35.1 33.9-60.3 67-57.1l24.6 2.5c32.6 3.2 57.2 33.1 56 68" fill="url(#P)"/></g><g clip-path="url(#Q)"><path d="M29598.6 19106.5c27.9 3.4 2252.8 216.5 2252.8 216.5 475.8-1453.3 309.8-3376.7 104.4-5328.9-44.7-424.3-329.6-756.4-705.3-820.8l-733.4-125.6-918.5 6058.8" fill="url(#R)"/></g><g clip-path="url(#S)"><path d="M28086.9 19244l3311.9 488.8c472.1-14.3 851.1-394.1 864.4-866.1l27.4-974.6c6-214.7-130.7-409.9-336.6-471.2-671-199.6-3197.4-1010.3-3990.4-653.8l-393.8 1720.7c-81.1 354.6 157.2 703.1 517.1 756.2" fill="url(#T)"/></g><g clip-path="url(#U)"><path d="M30703.2 5322c-12.3-44.7 2.1-68.7-40.1-77.5-323.3-68-961.4-5.6-1177.2 22.6-47.6 6.2-82.4 50.3-83.2 99.9 528.5-60.1 1073.2-65.3 1300.5-45" fill="url(#V)"/></g><g clip-path="url(#W)"><path d="M28209.5 5346.1c304.3 8.5 461.7 44.4 543.1 77.6.2-30.2 0-61-1-92.9-1-34.1-26.3-61.3-57.3-61.1l-1670.8 10.8c-53.3.3-84.4 62.1-61.3 111 219-18.1 777-58.6 1247.3-45.4" fill="url(#X)"/></g><path d="M26968.8 5404.1c138.5 193.6 478.4 567.4 1134.2 759.7l584.6-208.7-2.1.7c34.6-130.1 65.8-308.6 67.1-532.1-81.4-33.2-238.8-69.1-543.1-77.6-470.3-13.1-1028.3 27.3-1247.3 45.4 2 4.3 3.7 8.6 6.6 12.6m2436.8-9c93.9 372.3 647.4 690.8 647.4 690.8l555.7-79.4c62.8-302.8 113.8-582.9 94.5-684.5-.7-3.8-82.7 3.2-83.7-.4-227.2-20.3-688.3-15.6-1216.8 44.5-.1 9.3.5 19.6 2.9 29" fill="#91b3fa"/><g clip-path="url(#Y)"><path d="M30627.3 6685.2l-116.7-661.4c-8.6-48.5-40.2-84.8-78.5-89-46.9-5.2-113.7-8.3-180.8 3.3-60.2 10.5-102.1 82.5-91.4 159.8l81.1 587.3h386.3" fill="url(#Z)"/></g><g clip-path="url(#a)"><path d="M28759.9 15148s-703.5-4540-688-8993.7c.3-81.1 181.6-230.2 250.7-259.8 151-64.5 202.9-51.5 334.4-47.5 70.2 2.2 95.5 29.4 107.3 104.4 120.4 765.7 787.4 5206 1181.3 5906.3 0 0 195.4-3827.5 36.3-5816.2-8.9-111.4 206.8-206.6 252.3-212.3 69-8.6 168.4-46.8 308.8-30.6 53.3 6.1 96.4 49.8 104 107.3 85.8 648.1 579.7 4505.7 558.7 7284.5-1.2 156.7-185.5 2043.2-185.5 2043.2l-2260.3-85.6" fill="url(#b)"/></g><g clip-path="url(#c)"><path d="M30001.6 12078.8c14.4 0 27.6 9.7 31.3 24.3 71.3 274.8 604.8 576.8 610.2 579.8 15.6 8.8 21.2 28.5 12.4 44.1-8.7 15.6-28.4 21.2-44.1 12.5-22.9-12.9-563-318.6-641.2-620.1-4.5-17.3 6-35 23.3-39.5 2.7-.7 5.4-1.1 8.1-1.1" fill="url(#d)"/></g><g clip-path="url(#e)"><path d="M31147.4 14068.3l11.4 13.7c-256.7 216.1-417.2 437-490.6 675.4l-17-5.2c74.4-241.8 236.7-465.5 496.2-683.9" fill="url(#f)"/></g><g clip-path="url(#g)"><path d="M28214.7 18913.2l42.7-2399.4c-28.7-528.3 24.2-1920-557.7-3225.5l-458-1.1c99.1 2550.9-6.3 5352 973 5626" fill="url(#h)"/></g><g clip-path="url(#i)"><path d="M27899.2 13413.2l-457.3 250.1c-71.9 39.3-162.7 13.5-206.2-59.2-68-113.9-153.5-272.8-146.8-342.8 10.2-105.4 878.9-201.4 875.1 51.7-.7 43-28.1 80.2-64.8 100.2" fill="url(#j)"/></g><g clip-path="url(#k)"><path d="M27901.8 18178.1c120.9 171.5-175.1 263.2-21.5 514.1 958.1 781.5 2486.8 505.2 3074.1 466.3 192.6-12.7 373-96.6 507.6-234.9 533.8-548.5 1723.7-2066.3 528-3737.6-170.6 81.8-413.9 214.9-583.3 375.6 118.9 410.8 94.6 1061.4-241.9 1674.2-7.3-50.6-11.5-236.4-23.9-286-335-1330.7 200.4-3341.8 201.9-3592.8 2.7-447-2887.8-623-2883.3-109.4 11.2 1260.8-528 4903.8-557.7 4930.5" fill="url(#l)"/></g><path d="M31215.2 17433.9c128.9 595.2-8.5 1284.7-24.6 1361.7-3.8 17.8-21.5 28.9-39.2 24.6-17.1-4.1-27.8-20.8-24.2-37.9 30.2-143.9 147.1-769.9 24.7-1334.8-3.8-17.3 6.8-34.3 23.9-38.3h.1c17.6-4.1 35.5 7 39.3 24.7" fill="#91b3fa"/><g clip-path="url(#m)"><path d="M31172.9 19270.9c-211.9-961.1-162.9-2120.4 16.2-3378.8L31066 15554c-344.1 1281-687.8 2612.9-606.3 3715.1l713.2 1.8" fill="url(#n)"/></g><g clip-path="url(#o)"><path d="M28957.6 19189.4c-17.4-834.4-538.6-2561.2-710.3-3549.3-154.4 1028.1 95.3 2753 136.8 3384.7 170.2 126.7 359.6 187.7 573.5 164.6" fill="url(#p)"/></g><g clip-path="url(#q)"><path d="M29941.5 20204.2l200.3-1128.9s-624.9-242.7-1116 49.3l246.3 1059.4 669.4 20.2" fill="url(#r)"/></g><g clip-path="url(#s)"><path d="M29135.6 21319.3s-271.8-612.9-291.9-935.4c-20.2-322.5-91.1-531.4 281.5-598.8 372.6-67.5 688.1 116.2 860.5 436.4 0 0 270.1 493.4 211.6 696.6s-1061.7 401.2-1061.7 401.2" fill="url(#t)"/></g><g clip-path="url(#u)"><path d="M29859.8 20453.4l-21.2 9.5c-26.9 12.1-38.3 44.4-24.5 70.5 53.3 101.3 157.4 333.5 25.3 388.7-170.3 71.2-845.6 213.7-989.9 454.6-138.7 231.6-12.4 528.4 174.9 611.9 12.5 5.5 27.2.9 33.5-11.2l15.4-29.6c10.5-20.2 40.3-17.4 46.8 4.5 6.2 21 34.2 24.9 45.7 6.2 44.4-72.1 164.6-189.3 488.1-251.2 459.6-88 762.6-276.3 768-594.4.3-20.2 21.8-31.6 39.1-21.2 34.1 20.5 88.6 29.9 160.8-31.7 125.7-107.1 72.1-382.5-206.5-607.4-13.2-10.6-13.2-31.2.9-40.6 50.1-33 124.4-111.3-70.3-213.7-201.4-105.9-351.2-96.1-408.8-86.2-14.4 2.5-23.5 16.4-20.3 30.6l63.5 279.1c3.6 15.8-8.4 30.9-24.6 31l-95.9.6" fill="url(#v)"/></g><g clip-path="url(#w)"><path d="M29847.8 20394.5s104.7 392 280 280.7-94.3-439.3-235.9-453.1l-44.1 172.4" fill="url(#x)"/></g><g clip-path="url(#y)"><path d="M30715.8 15093.3l411.5-1543.6c27.1-101.8-34-206.5-136-233l-1020.9-265.9c-110.2-28.7-220.4 45.5-235.1 158.4l-217.1 1662.8c-13.1 100.7 55.4 194.2 155.5 211.9l826.4 146.7c96.7 17.2 190.3-42.4 215.7-137.3" fill="url(#z)"/></g><path d="M29998.6 14220.3c113.6-93.6 281.6-77.3 375.2 36.3 93.7 113.7 77.4 281.7-36.3 375.3-113.6 93.6-281.6 77.3-375.2-36.3-93.6-113.7-77.4-281.7 36.3-375.3m825.7-632l-2.5 9.9c-3.6 14.4-18.3 23.2-32.7 19.6l-769.7-192.8c-14.4-3.6-23.2-18.4-19.6-32.8l2.5-9.8c3.6-14.4 18.3-23.3 32.7-19.6l769.6 192.8c14.4 3.6 23.3 18.3 19.7 32.7m-37.6 149.9l-2.5 9.9c-3.6 14.4-18.3 23.3-32.7 19.6l-769.7-192.8c-14.3-3.6-23.2-18.3-19.6-32.7l2.5-9.9c3.6-14.4 18.3-23.2 32.7-19.6l769.7 192.8c14.4 3.6 23.2 18.4 19.6 32.7" fill="#7d97f4"/><g clip-path="url(#AA)"><path d="M31931.6 15214.7l-504.2 327.7c-65.8-234.8-87-496.9-270.9-680.7-103.6-103.6-222.7-191.3-368.4-206.6-210.9-22.1-398.6-131.8-444.6-318.1-108-437.3-173-965.1 24-823.7 283.9 203.8 700.1 420.9 827.7 812.8 323.3 180.9 575.7 737.4 736.4 888.6" fill="url(#AB)"/></g><g clip-path="url(#AC)"><path d="M14025.5 15659.8c273.3 138.9 728.5-275.1 728.5-275.1s1196.1-227.5 1582.3-144.2c386.2 83.4 523.6 1540.7 523.6 1540.7s1246.4 425.2 870.8-1431.2c-325.9-1610.9-2984.4-289.3-2984.4-289.3s-667-18.8-836.5 130.6-157.6 329.6 115.7 468.5" fill="url(#AD)"/></g><g clip-path="url(#AE)"><path d="M16336.3 15240.5c386.2 83.4 299 1658.5 299 1658.5s1424 316.3 1095.4-1549c-151.5-860.3-1116.6-896.1-1841.2-722.4-3.9 249.6 22 358.4-29.9 604.6 55.8 2.6 436.3-.4 476.7 8.3" fill="url(#AF)"/></g><g clip-path="url(#AG)"><path d="M14663.8 15458.7s63.3-231.1-181-282.8c-244.2-51.6-583.9-149.1-635.2 4.8s-157.5 436.1 153.3 532.1c310.7 96 653.7-159.5 662.9-254.1" fill="url(#AH)"/></g><g clip-path="url(#AI)"><path d="M17650.8 17669.8c84.5-66 1081.9-145.6 1821.3-304.8 536.2-115.5 897.6-618.4 835.8-1163.5l-88.4-779.9c-11-97.4-113.9-155.7-203.2-115l-2093.9 954.7-271.6 1408.5" fill="url(#AJ)"/></g><g clip-path="url(#AK)"><path d="M17785 12870h2089.5c84.5 0 153 68.5 153 153v4053.5c0 125-101.4 226.4-226.5 226.4h-2016V12870" fill="url(#AL)"/></g><g clip-path="url(#AM)"><path d="M18960.3 9859.5l237.5-388.8s1894.3-1784.8 2609.2-2536c112.1-117.7 185.9-266.4 212.6-426.8l139.1-836.4 413.9 1245.1-91.2 80.9-289 108-1723.5 2346.8c-101.2 137.8-240.1 243.6-399.8 304.6l-464.7 177.5-644.1-74.9" fill="url(#AN)"/></g><g clip-path="url(#AO)"><path d="M21973.2 7572.3c-39.2-270.1-222.2-396-443.8-483.3l-2423.3 2436.1-1271.4 3023.5-290.8 1792.1 522.4 130.7c1186.1-229.9 1341-2524.8 1592.7-4557.9 759.4 13.7 1514.1-1194.2 2314.2-2341.2" fill="url(#AP)"/></g><path d="M22225.2 7124.5s587.2-94.3 444-533.3c-143.1-438.9-362.6-1250.1-648.9-1087.9-286.3 162.3 41.7 1061.5-102.6 1284.9 273.3 213.6 307.5 336.3 307.5 336.3" fill="#91b3fa"/><g clip-path="url(#AQ)"><path d="M17464.9 10028.8l-76.4-449.2s255.7-2590.1 301.2-3626.1c7.1-162.4-34.9-322.9-120.1-461.4l-444.7-722 1130 666.8 22.5 137.9-185 254.4 242.3 2901.5c14.3 170.4-20.9 341.4-101.3 492.3l-233.7 439.1-534.8 366.7" fill="url(#AR)"/></g><g clip-path="url(#AS)"><path d="M16724.1 14340.7c-260.9-486.1 25.3-1864.2 651.1-4686.9l289.1-3256.4c183.5-150.5 374.8-202.9 574.2-152.1 187.7 1624.3 255.2 2796-184.2 3468.4l-104.5 2701.4-398.2 1854.4-827.5 71.2" fill="url(#AT)"/></g><path d="M18174.4 5716.5s498-513.3 119.5-629.6c-378.4-116.3-1358.1-506-1418-316.8-74.8 236.2 789 946.4 789 946.4 148.4-77.1 408.6-88.7 509.5 0" fill="#91b3fa"/><g clip-path="url(#AU)"><path d="M18066.3 14471.4c-386.4 1637.4 428.9 2860.6 428.9 2860.6-465 446.4-1187.1 475.9-1515.6 463.2-113.4-4.3-221.7-45.7-309.8-117.2-261.2-211.9-797.6-712-700.5-1180 74.6-360.2 754.8-2157.3 754.8-2157.3s628.9-297.7 1342.2 130.7" fill="url(#AV)"/></g><g clip-path="url(#AW)"><path d="M17336.3 18979.6l314.5-1309.8c30.1-124.3-82.7-163.1-209.3-181.6-297.4-43.6-522.6 69-559.7 278.8-3.2 18.4-13.5 34.8-16.1 53.2l-134.9 978.5c-10.7 77.7 31.2 153 102.9 184.8l260.4 115.5c100.3 44.4 216.4-12.8 242.2-119.4" fill="url(#AX)"/></g><g clip-path="url(#AY)"><path d="M17043 20042.7s-442.5-120.3-808.7-686.7c-366.3-566.5-191.5-874.4 70.3-948.8s661.9-122.4 1137 211.3c475 333.7 173.8 1560.3-398.6 1424.2" fill="url(#AZ)"/></g><g clip-path="url(#Aa)"><path d="M17201.3 18979.7s435.2 842.4-348 958.7l-202-104.1s71 407.3 575.2 577.7c504.1 170.5 888.3-11 1003.4-674.7 115.2-663.8-58-1058.9-433.7-1318.3-375.6-259.4-466.8 104.5-466.8 104.5s220.6 260.3 167 422.7-249.5 1.6-249.5 1.6l-45.6 31.9" fill="url(#Ab)"/></g><g clip-path="url(#Ac)"><path d="M18125.9 19067.8s1521 467.9 1771.3-1118.6c250.4-1586.4 423.3-2095 800.5-1821.4 0 0-62.2-592.8-786.3-327.8-1879.5 687.6-735.6 2889.4-1785.5 3267.8" fill="url(#Ad)"/></g><g clip-path="url(#Ae)"><path d="M19970.7 13770.6c438.6 1872.5-1475.5 3561.4-1475.5 3561.4-456.2-104.5-573.1-405.2-450.3-844.4 900.7-844.5 1238.5-1801.5 1307.7-2606.7 122 35.6 416 91.7 618.1-110.3" fill="url(#Af)"/></g><g clip-path="url(#Ag)"><path d="M19352.6 13880.9c85.5-353.4 76.5-617.1 63.5-743-4.6-45-27.2-81.7-74.8-83.9-22.1-1-44.7 2.3-66-3.6-21.4-5.8-41.6-25.2-38.2-47 1.5-10.4 8.1-19.4 10.5-29.7 4.8-20.1-7.7-41-24.4-53.2s-37.1-17.9-56.6-24.9c-77.3-27.6-158.7-77.8-231.6-115.4-21.4-11.1-25.1-40.2-21.6-64 31.6-211.2 327.3-191.1 468.8-118 86.4 44.6 164.9 116.4 217.8 198.3 217.3 335.7 329.6 664 370.7 974.1-202.1 202-496.1 145.9-618.1 110.3" fill="url(#Ah)"/></g><g clip-path="url(#Ai)"><path d="M18308.3 17504.6c-708.6-1086.5 137.2-3213 358.4-3297.2-971.3 195.5-1333.3 1969.1-791.9 3478 159 12 321.7-41 433.5-180.8" fill="url(#Aj)"/></g><g clip-path="url(#Ak)"><path d="M23141.8 11445.7h602c284.1 0 530-197.7 590.9-475.2l356.3-1624.1c88.5-403.4-244.3-774.8-654.9-731.1l-336.4 35.9c-224.4 23.9-416.8 170.7-499.1 380.9l-622 1588.2c-155.3 396.7 137.2 825.4 563.2 825.4" fill="url(#Al)"/></g><g clip-path="url(#Am)"><path d="M24486.7 5338.8s197.7-98.9 49.4-247.2c-148.2-148.2-395.4-247.1-741.3-345.9-346-98.9 148.2 345.9 345.9 395.4 197.7 49.4 346 197.7 346 197.7" fill="url(#An)"/></g><g clip-path="url(#Ao)"><path d="M23399.4 8501.9S24579.3 6016.6 24533 5307c0 0-145.1-116.5-342.8-67.1 0 0-1235.6 2421.8-1482.8 2619.5l692 642.5" fill="url(#Ap)"/></g><g clip-path="url(#Aq)"><path d="M22410.9 4992.8s0-197.7-98.9-247.1c-98.8-49.5-939 148.2-988.5 296.5-49.4 148.3 988.5 0 1087.4-49.4" fill="url(#Ar)"/></g><g clip-path="url(#As)"><path d="M23448.8 8749.1c0-49.5-346-2570.1-939.1-3805.7 0 0-197.7 0-345.9 148.2 0 0 345.9 2817.2 345.9 3459.8l939.1 197.7" fill="url(#At)"/></g><g clip-path="url(#Au)"><path d="M19445.4 12554.7s1631-889.6 2421.8-988.4c0 0 49.4-790.8-296.5-1136.8 0 0-1729.9 1087.3-2224.1 1828.7l98.8 296.5" fill="url(#Av)"/></g><g clip-path="url(#Aw)"><path d="M19376.8 12288.8s167.5 315.4 19.2 364.8-395.4 247.1-494.3 197.7c-98.8-49.4-68.6-513.1 475.1-562.5" fill="url(#Ax)"/></g><g clip-path="url(#Ay)"><path d="M23201.7 11368.6s-1316 184.6-1671.2 290c0 0-157.5-438.3-207-734.9-47.2-283.4 673-2372.5 823.2-3376.8 11.5-77 77.1-133.9 155-135.6 360.2-7.8 1331.5-23.6 1765.3 22.4 97.4 10.3 169.1 96 163.5 193.8-18 313.9-58.9 986.1-89.8 1171-148.2 889.6-939 2570.1-939 2570.1" fill="url(#Az)"/></g><g clip-path="url(#BA)"><path d="M22559.2 12307.6l276.3-789.5c37.9-108.3-41.3-221.7-155.9-223.5-128.4-2.1-298.3 13.7-474.4 82.9-56.3 22.1-95.1 74.6-102.6 134.6l-87.1 696.7 543.7 98.8" fill="url(#BB)"/></g><g fill-rule="evenodd"><path d="M21570.9 12755.1c2.3 32.3 11.1 65 30.2 95.2 29.6 46.7 37.6 103.4 33.3 158.6-5.2 65.8 7.1 153.4 82.6 229.9 16.6 16.7 29.7 36.4 40.9 57.2 66 123.3 317.5 506.8 769.4 213.1 47.5-30.9 104.2-44.9 160.7-40.5 142.5 11.3 427.4-20.8 559.6-419.3 13.3-40.2 35.7-76.4 64.7-107.3 40.7-43.6 90.1-128 54.9-263.9-4.6-17.5-7.8-35.3-8.4-53.3-4.2-141.4-59.3-802.8-728-553.9-8.3 3.1-16.6 6.7-24.6 10.5l-883.1 424.6c-95.4 45.9-159.8 143.6-152.2 249.1" fill="url(#BC)"/><path d="M21870.9 13039.8s-644-970.4 21.4-1267.7c628-280.5 892.6 363.8 892.6 363.8s276.2 286.2 183.4 506.5c-92.8 220.2-940.4 518-1097.4 397.4" fill="url(#BD)"/><path d="M22847.7 12288.8s-630.3 199.5-576.4 571.8c0 0-109.2-10.9-142.7 117.7 0 0-309.3-278.3-390.9-83.7 0 0 54.2 481.8 432.1 325.7 377.9-156.2 723.1-315 824.3-426.1 101.1-111.2 185.1-380.2-146.4-505.4" fill="url(#BE)"/><path d="M22702.3 12049.3l111.9 307.8s216.4 99.5 187.9-68-222.9-260-299.8-239.8" fill="url(#BF)"/></g><g clip-path="url(#BG)"><path d="M24387.9 8650.2s197.7-494.2 49.4-691.9-395.4 0-395.4 0l98.8 197.7v444.8c0 49.4 247.2 49.4 247.2 49.4" fill="url(#BH)"/></g><g clip-path="url(#BI)"><path d="M23300.5 11227.8s1037.9-589.8 1087.4-2573.4c0 0-49.5-53.6-247.2-53.6 0 0-444.8 1340.3-988.4 1983.6-283.4 335.4-98.9 750.6 148.2 643.4" fill="url(#BJ)"/></g><g clip-path="url(#BK)"><path d="M23252.8 11257.9c-107.7-563.5 275.6-1347.5 713.9-2187.5-710.1 817.6-1317.3 1587.7-1113.2 2400.7 334.1-54.4 445.2-140.4 399.3-213.2" fill="url(#BL)"/></g><g clip-path="url(#BM)"><path d="M21948.5 11553.8c-23.4-591-151-1251.8-313.9-1936.1-39.5 64.1-58.4 134.3-57.3 210.4 14.4 687.2 21.9 1336.6 0 1827.3 123.8 33.8 247.5 0 371.2-101.6" fill="url(#BN)"/></g><g clip-path="url(#BO)"><path d="M12180.5 8542.5v-653.1c0-168.8 139.7-308.2 318.6-325.1 12-1.3 24.2-1.7 36.7-1.7h55.2c33.3 0 65.4 4.1 95.8 12.2v128.4c-29.2-11.5-61.5-18.1-95.8-18.1h-55.2c-12.5 0-24.7 1-36.7 2.7-111 15.4-196 100-196 201.6v653.1c0 101.6 85 186.2 196 201.6 12 1.7 24.2 2.7 36.7 2.7h55.2c34.3 0 66.6-6.4 95.8-18.1v128.4c-30.4 8.1-62.5 12.2-95.8 12.2h-55.2c-12.5 0-24.7-.5-36.7-1.7-178.9-16.9-318.6-156.3-318.6-325.1" fill="url(#BP)"/></g><g clip-path="url(#BQ)"><path d="M12499.1 8975.7v-335c0-51.9 41.9-93.8 93.8-93.8 26 0 49.5 10.5 66.4 27.4 17 16.9 27.5 40.4 27.5 66.4v335c0 51.7-41.9 93.8-93.9 93.8-25.9 0-49.5-10.5-66.4-27.4-16.9-17.2-27.4-40.7-27.4-66.4" fill="url(#BR)"/></g><g clip-path="url(#BS)"><path d="M12499.1 7807.6v-335c0-51.7 41.9-93.8 93.8-93.8 26 0 49.5 10.5 66.4 27.4 17 17.2 27.5 40.7 27.5 66.4v335c0 51.9-41.9 93.8-93.9 93.8-25.9 0-49.5-10.5-66.4-27.4s-27.4-40.4-27.4-66.4" fill="url(#BT)"/></g><g clip-path="url(#BU)"><path d="M15670.6 5217.8c0-176.9 143.4-320.3 320.3-320.3 176.8 0 320.2 143.4 320.2 320.3 0 176.8-143.4 320.2-320.2 320.2-176.9 0-320.3-143.4-320.3-320.2" fill="url(#BV)"/></g><g clip-path="url(#BW)"><path d="M15762.4 5217.8c0-126.2 102.3-228.5 228.5-228.5 126.1 0 228.4 102.3 228.4 228.5 0 126.1-102.3 228.4-228.4 228.4-126.2 0-228.5-102.3-228.5-228.4" fill="url(#BX)"/></g><g clip-path="url(#BY)"><path d="M13269.3 5217.8c0-176.9 143.3-320.3 320.2-320.3s320.2 143.4 320.2 320.3c0 176.8-143.3 320.2-320.2 320.2s-320.2-143.4-320.2-320.2" fill="url(#BZ)"/></g><g clip-path="url(#Ba)"><path d="M13361.1 5217.8c0-126.2 102.2-228.5 228.4-228.5s228.4 102.3 228.4 228.5c0 126.1-102.2 228.4-228.4 228.4s-228.4-102.3-228.4-228.4" fill="url(#Bb)"/></g><g clip-path="url(#Bc)"><path d="M15794.6 11029.8h147v2156.3h-147v-2156.3" fill="url(#Bd)"/></g><g clip-path="url(#Be)"><path d="M13638.8 11029.8h147v2156.3h-147v-2156.3" fill="url(#Bf)"/></g><g clip-path="url(#Bg)"><path d="M16244.2 5242.2h-2908c-415 0-798.5 333.5-798.5 769.2v25.5 4375.5c0 435.7 383.5 757.1 798.5 757.1h1013.9 1894.1c414.9 0 731.5-321.4 731.5-757.1v-583.2V9120v-990.9-2092.2-25.5c0-435.7-316.6-769.2-731.5-769.2m-2777.8 5629.4c-377.6 0-690.5-261.2-690.5-657.7v-4004c0-396.5 312.9-699.6 690.5-699.6h2646.4c377.6 0 624.6 303.1 624.6 699.6v4004c0 396.5-247 657.7-624.6 657.7h-2646.4" fill="url(#Bh)"/></g><g clip-path="url(#Bi)"><path d="M16112.8 5510.3h-2646.4c-377.6 0-690.5 303.1-690.5 699.6v4004c0 396.5 312.9 657.7 690.5 657.7h2646.4c377.6 0 624.6-261.2 624.6-657.7v-4004c0-396.5-247-699.6-624.6-699.6m-78.7 4855c-72.2 0-130.7-58.5-130.7-130.7V6177.1c0-72.2 58.5-130.7 130.7-130.7h36.5c72.1 0 130.7 58.5 130.7 130.7v4057.5c0 72.2-58.6 130.7-130.7 130.7h-36.5m-834 0c-72.2 0-130.7-58.5-130.7-130.7V6177.1c0-72.2 58.5-130.7 130.7-130.7h36.5c72.2 0 130.7 58.5 130.7 130.7v4057.5c0 72.2-58.5 130.7-130.7 130.7h-36.5m-863.8 0c-72.1 0-130.7-58.5-130.7-130.7V6177.1c0-72.2 58.6-130.7 130.7-130.7h36.5c72.2 0 130.7 58.5 130.7 130.7v4057.5c0 72.2-58.5 130.7-130.7 130.7h-36.5m-893.5 0c-72.2 0-130.7-58.5-130.7-130.7V6177.1c0-72.2 58.5-130.7 130.7-130.7h36.4c72.2 0 130.7 58.5 130.7 130.7v4057.5c0 72.2-58.5 130.7-130.7 130.7h-36.4" fill="url(#Bj)"/></g><g clip-path="url(#Bk)"><g clip-path="url(#Bl)"><path d="M16021 6046v1h-7v1h-6v1h-4v1h-4v1h-4v1h-3v1h-3v1h-3v1h-2v1h-3v1h-2v1h-2v1h-2v1h-2v1h-2v1h-2v1h-2v1h-1v1h-2v1h-2v1h-1v1h-2v1h-1v1h-2v1h-1v1h-1v1h-2v1h-1v1h-1v1h-1v1h-1v1h-2v1h-1v1h-1v1h-1v1h-1v1h-1v1h-1v1h-1v1h-1v1h-1v1h-1v1h-1v1h-1v2h-1v1h-1v1h-1v1h-1v1h-1v2h-1v1h-1v1h-1v2h-1v1h-1v2h-1v1h-1v2h-1v2h-1v1h-1v2h-1v2h-1v2h-1v2h-1v2h-1v2h-1v2h-1v3h-1v2h-1v3h-1v3h-1v3h-1v4h-1v4h-1v4h-1v6h-1v7h-1v4083h1v8h1v6h1v4h1v4h1v4h1v3h1v3h1v2h1v3h1v3h1v2h1v2h1v2h1v2h1v2h1v2h1v1h1v2h1v2h1v1h1v2h1v2h1v1h1v1h1v2h1v1h1v1h1v2h1v1h1v1h1v1h1v1h1v1h1v1h1v2h1v1h1v1h1v1h1v1h1v1h1v1h2v1h1v1h1v1h1v1h1v1h1v1h2v1h1v1h1v1h2v1h1v1h1v1h2v1h1v1h2v1h1v1h2v1h2v1h1v1h2v1h2v1h2v1h2v1h3v1h2v1h2v1h3v1h3v1h3v1h3v1h4v1h4v1h5v1h6v1h10v1h53v-1h10v-1h6v-1h5v-1h4v-1h4v-1h3v-1h3v-1h3v-1h2v-1h3v-1h2v-1h2v-1h2v-1h2v-1h2v-1h2v-1h2v-1h2v-1h1v-1h2v-1h1v-1h2v-1h1v-1h2v-1h1v-1h1v-1h2v-1h1v-1h1v-1h2v-1h1v-1h1v-1h1v-1h1v-1h1v-1h1v-1h1v-1h2v-2h1v-1h1v-1h1v-1h1v-1h1v-1h1v-1h1v-1h1v-2h1v-1h1v-1h1v-2h1v-1h1v-1h1v-2h1v-1h1v-2h1v-1h1v-2h1v-1h1v-2h1v-2h1v-2h1v-2h1v-2h1v-2h1v-2h1v-2h1v-3h1v-2h1v-3h1v-3h1v-3h1v-4h1v-4h1v-5h1v-6h1v-10h1V6169h-1v-10h-1v-6h-1v-5h-1v-4h-1v-4h-1v-3h-1v-3h-1v-3h-1v-3h-1v-2h-1v-2h-1v-2h-1v-3h-1v-2h-1v-2h-1v-2h-1v-1h-1v-2h-1v-1h-1v-2h-1v-2h-1v-1h-1v-2h-1v-1h-1v-1h-1v-2h-1v-1h-1v-1h-1v-2h-1v-1h-1v-1h-1v-1h-1v-1h-1v-1h-1v-2h-1v-1h-1v-1h-1v-1h-1v-1h-1v-1h-1v-1h-2v-1h-1v-1h-1v-1h-1v-1h-1v-1h-1v-1h-1v-1h-2v-1h-1v-1h-1v-1h-2v-1h-1v-1h-1v-1h-2v-1h-2v-1h-1v-1h-2v-1h-2v-1h-1v-1h-2v-1h-2v-1h-2v-1h-2v-1h-2v-1h-2v-1h-3v-1h-3v-1h-2v-1h-3v-1h-3v-1h-4v-1h-4v-1h-4v-1h-6v-1h-8v-1" fill="url(#Bm)"/></g></g><g clip-path="url(#Bn)"><path d="M15236.6 6046.4h-36.5c-72.2 0-130.7 58.5-130.7 130.7v4057.5c0 72.2 58.5 130.7 130.7 130.7h36.5c72.2 0 130.7-58.5 130.7-130.7V6177.1c0-72.2-58.5-130.7-130.7-130.7" fill="url(#Bm)"/></g><g clip-path="url(#Bo)"><path d="M14372.8 6046.4h-36.5c-72.1 0-130.7 58.5-130.7 130.7v4057.5c0 72.2 58.6 130.7 130.7 130.7h36.5c72.2 0 130.7-58.5 130.7-130.7V6177.1c0-72.2-58.5-130.7-130.7-130.7" fill="url(#Bm)"/></g><g clip-path="url(#Bp)"><path d="M13479.2 6046.4h-36.4c-72.2 0-130.7 58.5-130.7 130.7v4057.5c0 72.2 58.5 130.7 130.7 130.7h36.4c72.2 0 130.7-58.5 130.7-130.7V6177.1c0-72.2-58.5-130.7-130.7-130.7" fill="url(#Bm)"/></g><g clip-path="url(#Bq)"><path d="M14029.5 14337.8h1435.6c255.2 0 513.5-124.4 513.5-362.3v-791.4c0-25.9-21-47-47-47H15805c-25.9 0-46.9 21.1-46.9 47v791.4c0 75.5-136.9 141.8-293 141.8h-1435.6c-207.2 0-207.2-106.7-207.2-141.8v-791.4c0-25.9-21-47-47-47h-126.6c-25.9 0-46.9 21.1-46.9 47v791.4c0 175.2 112.3 362.3 427.7 362.3" fill="url(#Br)"/></g><g clip-path="url(#Bs)"><path d="M16223.6 5350.1h42.9c351.3 0 637.1 302.5 637.1 674.4v655.9c0 5.1-4.1 9.2-9.2 9.2-5 0-9.2-4.1-9.2-9.2v-655.9c0-361.8-277.5-656-618.7-656h-42.9c-5 0-9.2-4.2-9.2-9.2 0-5.1 4.2-9.2 9.2-9.2" fill="url(#Bt)"/></g><g clip-path="url(#Bu)"><path d="M16894.4 6838.7c5.1 0 9.2 4.1 9.2 9.2v379.8c0 5-4.1 9.2-9.2 9.2-5 0-9.2-4.2-9.2-9.2v-379.8c0-5.1 4.2-9.2 9.2-9.2" fill="url(#Bv)"/></g><g clip-path="url(#Bw)"><path d="M12375.5 14525.1c175.1 133.8 102.6 315.7 102.6 315.7-876.9 249.3-1316.7 1685.6-1619.8 2839-317.3-60.9-582.8 794.4-1015.73 449.2-485.13-2320.2 2532.93-3603.9 2532.93-3603.9" fill="url(#Bx)"/></g><g clip-path="url(#By)"><path d="M11999.4 14731.4c-47.2-12.8-127.8 108.6 66.9 201.1 91.4-.4 484.8 38.8 556.9-19.4 383.7-309.6 856.2-898.4 856.2-898.4-98-91.9-186.9-8.9-186.9-8.9l-273 287.5c-105.7-53.2-195.8-119.7-322.1-147.3-95.7-20.9-196.1-1.3-280.2 50.5-84.3 52.1-193.9 122.8-279.1 188.9-161.4 125.1-138.7 346-138.7 346" fill="url(#Bz)"/></g><g clip-path="url(#CA)"><path d="M8968.21 5971.8s-62.95-359.1-93.82-714.6c-12.06-139 94.24-259.6 232.53-265.4 469.81-19.8 1474.78-58.1 1835.38-41.9 54.2 2.4 89.7 58.4 69.6 109.2-16.8 42.6-49.2 77-90.5 96.1l-1660.06 768.9-293.13 47.7" fill="url(#CB)"/></g><g clip-path="url(#CC)"><path d="M8916.65 6182.8l50.58-429.6s290.79-136.4 489.37 17.2l-120.43 478.8-419.52-66.4" fill="url(#CD)"/></g><g clip-path="url(#CE)"><path d="M8954.66 14259.3c-21.85-116.3-80-5809.4 501.94-8358.4 9.49-41.6 69.68-123.3 48.91-159.1-50.5-87-422.36-62.6-632.05-70-64.94-2.2-99.82 74.6-118.14 139.7-166.35 591.4-963.44 3554.6-1067.42 6385.2-116.19 3162.9 0 107.7 0 107.7l68.15 1955.1 1198.61-.2" fill="url(#CF)"/></g><g clip-path="url(#CG)"><path d="M7058.63 5784.5s-100.21-181.4-197.22-663.2c-17.52-87 42.8-170.2 130.48-178.9 155.13-15.4 393.96-35.2 585.27-33.8 88.19.6 157.01 78 146.38 166.2-21.18 175.8-87.2 464.4-291.14 689.2l-373.77 20.5" fill="url(#CH)"/></g><g clip-path="url(#CI)"><path d="M6970.62 6337l118.19-649.6s116.84-87.6 348.02-24.1l-56.41 698.9-409.8-25.2" fill="url(#CJ)"/></g><g clip-path="url(#CK)"><path d="M6651.34 14077.7c-475.93-3021.4 103.24-7467.5 298.58-8337.7 11.96-53.3 52.84-94.1 104.17-103 87.2-15.2 230.75-27.6 372.27 15.6 48.76 14.9 83.01 61.2 85 114.5 26.21 703.6-20.96 5022.6 422.51 6729.5 22.47 86.5 72.71 162 142.19 213.9l860.74 643.7 65.99 1040.4-2351.45-316.9" fill="url(#CL)"/></g><g clip-path="url(#CM)"><path d="M9684.08 19575.5c-1426.33 23.8-3000.1-377.4-3000.1-377.4-425.16-2499.9-74.35-5383.4-74.35-5383.4 1104.22-291.8 2349.85 178.4 2349.85 178.4 183.52 1045 707.45 3099.6 707.45 3099.6-40.29 148.8 166.19-376 398.27-594.9 321.4-177.5 974.7 674.2 900.9 991.1-825.9 1450-842.1 2079.3-1282.02 2086.6" fill="url(#CN)"/></g><g clip-path="url(#CO)"><path d="M7231.05 17806.4l-547.07 1391.7s-1332.26-912.2-1551.35-2068.7c251.72-18.7 709.79-84.7 1158.15-312.8 98.53 546.1 940.27 989.8 940.27 989.8" fill="url(#CP)"/></g><g clip-path="url(#CQ)"><path d="M8395.3 16496.8s-1495.79-851.9-2000.49-124.5c-104.8 151-129.84 301.1-104.03 444.3-448.36 228.1-906.43 294.1-1158.15 312.8-66.07-348.7-31.14-719.5 172.18-1094.3 884.06-1629.7 3288.44 90 3288.44 90l-197.95 371.7" fill="url(#CR)"/></g><g clip-path="url(#CS)"><path d="M8412.81 16113.2s-113.72 471.2-67.85 638.3c45.87 167.2 134.75 382.2 431 334.4 296.24-47.8 645.69-173.5 645.69-173.5s-17.66-217.8-242.81-147.5l139.62-108.9s-19.95-174.3-210.13-81.2l129.85-144.4s-81.67-143.2-221.59-51.3c-139.91 91.8-206.98-322.7-603.78-265.9" fill="url(#CT)"/></g><g clip-path="url(#CU)"><path d="M8239.33 20742.4l-453.83-1322.6c-7.52-21.9 1.41-46.1 21.55-57.4 123.71-68.9 569.41-268.1 1106.53 75 55.95 35.8 94.04 94.1 102.54 160.3l146.96 1144.7h-923.75" fill="url(#CV)"/></g><g clip-path="url(#CW)"><path d="M9226.8 21967.2s498.36-945.4 434.48-1327.3c-63.88-381.8-681.51-354.4-1220.85-44.3l-376.88 1020.8 1163.25 350.8" fill="url(#CX)"/></g><g clip-path="url(#CY)"><path d="M8464.27 21096.9c21.92 9.8 30.01 36.8 16.87 57.1-39.92 61.4-114.76 186.8-138.65 296.6 0 0-89.58 57.8 228.04 134.4 172.93 41.7 479.52 76.2 614.26 201.5 150.8 140.3-127.22 405.2-244.11 476.3-154.26 93.8-342.09 149.4-516.07 102.1-83.96-22.9-159.93-68.1-234.72-112.8-127.37-76.1-259.22-156.5-340.21-281.5-52.43-80.8-79.9-175.2-105.07-268.4-36.15-134-69.22-271.2-62.95-409.8 16.72-369.5 446.37-700.5 791.89-740.9 28.27-3.3 50.17 24.8 40.91 51.9l-141.23 413.7c-6.56 19.3 2.56 40.3 20.99 48.6l70.05 31.2" fill="url(#CZ)"/></g><g clip-path="url(#Ca)"><path d="M8521.04 21038.2s-354.83 245.3-380.76 38.7c-25.92-206.6 319.53-299.2 490.64-222.2l-109.88 183.5" fill="url(#Cb)"/></g><g clip-path="url(#Cc)"><path d="M12472.8 15624.1l-193.7-1828.1c-12.7-120.5 74.5-228.7 194.3-240.9l1198.7-121.9c129.4-13.1 240.7 90.7 237.6 221.7l-46.8 1929.3c-2.8 116.8-96.5 211-212.5 213.5l-958.3 20.7c-112.2 2.4-207.4-81.9-219.3-194.3" fill="url(#Cd)"/></g><path d="M13435.2 14758.1c-111.8-126.5-304.3-137.7-429.8-25-125.6 112.7-136.7 306.6-24.9 433.2 111.8 126.5 304.3 137.7 429.8 25 125.6-112.7 136.7-306.6 24.9-433.2m-820.6-861.8l.5 6c1.7 18.6 18.1 32.4 36.6 30.7l896.7-82.7c18.4-1.7 32.1-18.3 30.4-36.9l-.5-6c-1.7-18.5-18.2-32.3-36.6-30.6l-896.7 82.7c-18.4 1.7-32.1 18.2-30.4 36.8m16 177.2l.6 6c1.7 18.6 18.1 32.4 36.6 30.7l896.7-82.7c18.4-1.7 32.1-18.3 30.4-36.9l-.5-6c-1.7-18.5-18.2-32.3-36.6-30.6l-896.7 82.7c-18.4 1.7-32.1 18.2-30.5 36.8" fill="#7d97f4"/><g clip-path="url(#Ce)"><path d="M12766.1 14597.4l-200.5 259.9-206.8 87.7-255.7-213.1s413.8-93.1 501.7-152.8c87.9-59.8 132.7-32.7 161.3 18.3" fill="url(#Cf)"/></g><g clip-path="url(#Cg)"><path d="M9305.38 21926.3c-668.66 1272.7-2401.73 116.5-1595.17-955.7 599.68 401.8 1277.31 999.1 1595.17 955.7" fill="url(#Ch)"/></g><g clip-path="url(#Ci)"><path d="M9261.68 22063.4c1351.82 69.4 239.05-435.7-992.07-705.3 306.45 327.9 612.82 572.2 992.07 705.3" fill="url(#Cj)"/></g><g clip-path="url(#Ck)"><path d="M8068.6 17751.8c-104.68-8.5-990-37.1-990-37.1l35.74-898.1 458.63-260.7 495.63 260.7v935.2" fill="url(#Cl)"/></g><g clip-path="url(#Cm)"><path d="M8138.9 17751.8l-1058.31-37.1-43.27-344.6 550.8-144.2 585.45 263-34.67 262.9" fill="url(#Cn)"/></g><g clip-path="url(#Co)"><path d="M8985.32 14130.7c-599.71-217.1-1443.78-217.2-2396.74-120.6l8.28-290.8c1008.22-106.4 1884.61-121.7 2370.04 133.2l18.42 278.2" fill="url(#Cp)"/></g><g clip-path="url(#Cq)"><path d="M6526.29 13576.8l1085.01-65.2c23.05-1.4 42.86 16.2 44.22 39.2l29.42 496.8c1.36 23-16.18 42.8-39.2 44.1l-1043.93 62.8c-45.74 2.8-85.03-32.1-87.73-77.8l-26.99-455.7c-1.36-23 16.18-42.8 39.2-44.2" fill="url(#Cr)"/></g></g></svg>