<svg id="visual" viewBox="0 0 900 600" width="900" height="600" xmlns="http://www.w3.org/2000/svg" xmlns:xlink="http://www.w3.org/1999/xlink" version="1.1"><g transform="translate(32.56256776986322 -125.58079822412864)"><path d="M279.1 -415C386.4 -421.3 515.4 -396.7 556.8 -322.3C598.2 -248 552.1 -124 533.3 -10.8C514.6 102.3 523.2 204.7 467.2 253.7C411.2 302.8 290.6 298.6 202 372.5C113.3 446.3 56.7 598.1 -28.7 647.8C-114 697.5 -228 644.9 -301.3 562.2C-374.6 479.6 -407.3 366.8 -470.6 268.1C-534 169.3 -628 84.7 -637.8 -5.7C-647.6 -96 -573.2 -192 -476.3 -232.6C-379.4 -273.2 -260 -258.4 -176.9 -266.1C-93.8 -273.7 -46.9 -303.9 19.5 -337.6C85.8 -371.3 171.7 -408.7 279.1 -415" fill="#f5f8ff"></path></g></svg>